<?xml version="1.0" encoding="utf-8"?>
<!-- Generator: Adobe Illustrator 22.0.0, SVG Export Plug-In . SVG Version: 6.00 Build 0)  -->
<svg version="1.1" id="Capa_1" xmlns:serif="http://www.serif.com/"
	 xmlns="http://www.w3.org/2000/svg" xmlns:xlink="http://www.w3.org/1999/xlink" x="0px" y="0px" viewBox="0 0 88 99.3"
	 style="enable-background:new 0 0 88 99.3;" xml:space="preserve">
<style type="text/css">
	.st0{fill:#8800FF;}
	.st1{fill:url(#SVGID_1_);}
	.st2{opacity:0.44;fill:url(#SVGID_2_);enable-background:new    ;}
	.st3{fill:url(#SVGID_3_);}
	.st4{opacity:0.44;fill:url(#SVGID_4_);enable-background:new    ;}
	.st5{opacity:0.48;fill:#E8D6FF;enable-background:new    ;}
	.st6{fill:url(#SVGID_5_);}
	.st7{opacity:0.44;fill:url(#SVGID_6_);enable-background:new    ;}
	.st8{enable-background:new    ;}
	.st9{fill:#E8D6FF;}
</style>
<g>
	<g>
		<path class="st0" d="M82.7,36.1L60.8,9.4c-4.3-5.3-10.5-7.9-16.7-7.9S31.8,4.1,27.4,9.4L5.5,36.1c-3.3,4-5,8.9-5,13.9
			c0,4.9,1.7,9.8,5,13.9l21.9,26.7c4.3,5.3,10.5,7.9,16.7,7.9s12.3-2.6,16.7-7.9l21.9-26.7c3.3-4,5-8.9,5-13.9
			C87.7,45.1,86,40.2,82.7,36.1z"/>
	</g>
	<g>
		
			<linearGradient id="SVGID_1_" gradientUnits="userSpaceOnUse" x1="22.1858" y1="72.4981" x2="79.5135" y2="34.103" gradientTransform="matrix(1 0 0 -1 0 102)">
			<stop  offset="0" style="stop-color:#BB84FF"/>
			<stop  offset="0.3254" style="stop-color:#8E32FF"/>
			<stop  offset="0.6236" style="stop-color:#8E32FF"/>
			<stop  offset="1" style="stop-color:#BB84FF"/>
		</linearGradient>
		<path class="st1" d="M44,29.4c-9,0-17,4.6-21.7,11.6c-1.5,2.3-1.3,5.3,0.6,7.3l4.5,4.7c1.2-8,8.1-14.2,16.5-14.2
			c8.5,0,15.5,6.3,16.6,14.6l4.7-4.7c1.8-1.8,2.2-4.7,0.8-6.9C61.5,34.3,53.3,29.4,44,29.4z"/>
		
			<linearGradient id="SVGID_2_" gradientUnits="userSpaceOnUse" x1="42.4947" y1="59.5405" x2="79.4651" y2="20.5609" gradientTransform="matrix(1 0 0 -1 0 102)">
			<stop  offset="0.2097" style="stop-color:#8E32FF"/>
			<stop  offset="0.3636" style="stop-color:#A55BFF"/>
			<stop  offset="0.4498" style="stop-color:#BB84FF"/>
			<stop  offset="0.5734" style="stop-color:#BB84FF"/>
			<stop  offset="0.7456" style="stop-color:#D2ADFF"/>
		</linearGradient>
		<path class="st2" d="M44,29.4c-9.4,0-17.7,5-22.3,12.5c-1.1,1.8-0.8,4.2,0.7,5.8l5.1,5.3c1.2-8,8.1-14.2,16.5-14.2
			c8.5,0,15.5,6.3,16.6,14.6l5.3-5.3c1.5-1.5,1.8-3.7,0.7-5.5C62.1,34.7,53.6,29.4,44,29.4z"/>
		
			<linearGradient id="SVGID_3_" gradientUnits="userSpaceOnUse" x1="18.653" y1="67.4217" x2="76.9507" y2="28.3771" gradientTransform="matrix(1 0 0 -1 0 102)">
			<stop  offset="0" style="stop-color:#BB84FF"/>
			<stop  offset="0.3254" style="stop-color:#8E32FF"/>
			<stop  offset="0.6236" style="stop-color:#8E32FF"/>
			<stop  offset="1" style="stop-color:#BB84FF"/>
		</linearGradient>
		<path class="st3" d="M44,38.8c-8.4,0-15.3,6.2-16.5,14.2l9.3,9.7c4,4,10.4,4,14.4,0l9.4-9.4C59.5,45.1,52.5,38.8,44,38.8z
			 M49.3,60.8c-2.9,2.9-7.7,2.9-10.6,0c-2.9-2.9-2.9-7.7,0-10.6s7.7-2.9,10.6,0S52.2,57.9,49.3,60.8z"/>
		
			<linearGradient id="SVGID_4_" gradientUnits="userSpaceOnUse" x1="39.1366" y1="56.3554" x2="76.1247" y2="17.3571" gradientTransform="matrix(1 0 0 -1 0 102)">
			<stop  offset="0.2097" style="stop-color:#8E32FF"/>
			<stop  offset="0.3636" style="stop-color:#A55BFF"/>
			<stop  offset="0.4498" style="stop-color:#BB84FF"/>
			<stop  offset="0.5734" style="stop-color:#BB84FF"/>
			<stop  offset="0.7456" style="stop-color:#D2ADFF"/>
		</linearGradient>
		<path class="st4" d="M44,38.8c-8.4,0-15.3,6.2-16.5,14.2l9.3,9.7c4,4,10.4,4,14.4,0l9.4-9.4C59.5,45.1,52.5,38.8,44,38.8z
			 M49.3,60.8c-2.9,2.9-7.7,2.9-10.6,0c-2.9-2.9-2.9-7.7,0-10.6s7.7-2.9,10.6,0S52.2,57.9,49.3,60.8z"/>
		<path class="st5" d="M44,38.8c-8.4,0-15.3,6.2-16.5,14.2l9.3,9.7c4,4,10.4,4,14.4,0l9.4-9.4C59.5,45.1,52.5,38.8,44,38.8z
			 M49.3,60.8c-2.9,2.9-7.7,2.9-10.6,0c-2.9-2.9-2.9-7.7,0-10.6s7.7-2.9,10.6,0S52.2,57.9,49.3,60.8z"/>
		
			<linearGradient id="SVGID_5_" gradientUnits="userSpaceOnUse" x1="16.844" y1="64.7206" x2="75.1417" y2="25.676" gradientTransform="matrix(1 0 0 -1 0 102)">
			<stop  offset="0" style="stop-color:#BB84FF"/>
			<stop  offset="0.3254" style="stop-color:#8E32FF"/>
			<stop  offset="0.6236" style="stop-color:#8E32FF"/>
			<stop  offset="1" style="stop-color:#BB84FF"/>
		</linearGradient>
		<path class="st6" d="M38.7,50.2c-2.9,2.9-2.9,7.7,0,10.6s7.7,2.9,10.6,0c2.9-2.9,2.9-7.7,0-10.6C46.4,47.2,41.6,47.2,38.7,50.2z"
			/>
		
			<linearGradient id="SVGID_6_" gradientUnits="userSpaceOnUse" x1="36.7892" y1="54.129" x2="73.7595" y2="15.1495" gradientTransform="matrix(1 0 0 -1 0 102)">
			<stop  offset="0.2097" style="stop-color:#8E32FF"/>
			<stop  offset="0.3636" style="stop-color:#A55BFF"/>
			<stop  offset="0.4498" style="stop-color:#BB84FF"/>
			<stop  offset="0.5734" style="stop-color:#BB84FF"/>
			<stop  offset="0.7456" style="stop-color:#D2ADFF"/>
		</linearGradient>
		<path class="st7" d="M38.7,50.2c-2.9,2.9-2.9,7.7,0,10.6s7.7,2.9,10.6,0c2.9-2.9,2.9-7.7,0-10.6C46.4,47.2,41.6,47.2,38.7,50.2z"
			/>
		<path class="st5" d="M38.7,50.2c-2.9,2.9-2.9,7.7,0,10.6s7.7,2.9,10.6,0c2.9-2.9,2.9-7.7,0-10.6C46.4,47.2,41.6,47.2,38.7,50.2z"
			/>
		<path class="st5" d="M38.7,50.2c-2.9,2.9-2.9,7.7,0,10.6s7.7,2.9,10.6,0c2.9-2.9,2.9-7.7,0-10.6C46.4,47.2,41.6,47.2,38.7,50.2z"
			/>
	</g>
	<g class="st8">
		<path class="st9" d="M60.3,59.7l-9.2-11.2c-1.8-2.2-4.4-3.3-7-3.3s-5.2,1.1-7,3.3l-9.2,11.2c-1.4,1.7-2.1,3.8-2.1,5.8
			c0,2.1,0.7,4.1,2.1,5.8l9.2,11.2c1.8,2.2,4.4,3.3,7,3.3s5.2-1.1,7-3.3l9.2-11.2c1.4-1.7,2.1-3.8,2.1-5.8
			C62.4,63.4,61.7,61.3,60.3,59.7z"/>
		<g>
			<path class="st0" d="M35.6,65.7l2.1-0.3c0.3,0,0.4-0.3,0.4-0.5c0-0.1,0-0.2-0.1-0.2l0,0l0,0l-0.1-0.1l-1.2-1l4.4-5.3
				c0.8-0.9,1.9-1.5,3.1-1.5c1.2,0,2.3,0.5,3.1,1.5l3.6,4.4c0.3,0.4,0.8,0.6,1.3,0.5l0.4-0.1c0.3,0,0.4-0.4,0.2-0.6l-4.3-5.3
				c-1.1-1.3-2.6-2.1-4.3-2.1s-3.3,0.7-4.3,2.1l-4.3,5.3l-1.1-1l0,0c-0.1,0-0.1-0.1-0.2-0.1c-0.3,0-0.5,0.2-0.5,0.4l-0.1,2.1
				c0,0.5,0.2,1,0.6,1.4c0.3,0.2,0.6,0.4,1,0.4C35.2,65.7,35.4,65.7,35.6,65.7z"/>
			<path class="st0" d="M54.1,66.1c-0.3-0.2-0.6-0.4-1-0.4c-0.2,0-0.3,0-0.5,0L50.5,66c-0.3,0-0.4,0.3-0.4,0.5c0,0.1,0,0.2,0.1,0.2
				l0,0l0,0l0.1,0.1l1.2,1l-4.4,5.3c-0.8,0.9-1.9,1.5-3.1,1.5c-1.2,0-2.3-0.5-3.1-1.5L37,68.4c-0.3-0.4-0.8-0.6-1.3-0.5L35.3,68
				c-0.3,0-0.4,0.4-0.2,0.6c1.2,1.5,4.5,5.6,4.5,5.6c1.1,1.3,2.6,2.1,4.3,2.1s3.3-0.7,4.3-2.1l4.3-5.3l1.1,1l0,0
				c0.1,0,0.1,0.1,0.2,0.1c0.3,0,0.5-0.2,0.5-0.4l0.1-2.1C54.7,67,54.5,66.4,54.1,66.1z"/>
		</g>
	</g>
	<g>
		<path class="st9" d="M43.3,14.1L41,16.9c-0.5,0.6-0.5,1.5,0,2.1l2,2.4c0.5,0.6,1.4,0.6,1.9,0l2.3-2.8c0.3-0.4,0.3-1,0-1.4
			l-0.8-0.9c-0.3-0.4-0.8-0.4-1.1,0v0.1c-0.2,0.2-0.2,0.6,0,0.8l0.4,0.5c0.1,0.2,0.1,0.4,0,0.5L44.2,20c-0.1,0.1-0.3,0.1-0.4,0
			l-1.5-1.8c-0.1-0.2-0.1-0.4,0-0.5l2.1-2.5c0.8-1,2.2-1,3,0l1.4,1.7c0.5,0.6,0.5,1.6,0,2.2l-3.1,3.8c-0.9,1.1-2.5,1.1-3.3,0
			l-2.6-3.2c-0.8-1-0.8-2.4,0-3.3l4.9-6c0.2-0.3,0.2-0.6,0-0.9l-0.1-0.2c-0.2-0.3-0.7-0.3-0.9,0l-5,6.1c-1.2,1.5-1.2,3.7,0,5.2
			l2.9,3.6c1.3,1.6,3.8,1.6,5.1,0l3.6-4.4c0.8-1,0.8-2.5,0-3.5l-1.7-2.1C47,12.6,44.6,12.6,43.3,14.1z"/>
	</g>
</g>
</svg>
