<?xml version="1.0" encoding="utf-8"?>
<!-- Generator: Adobe Illustrator 22.0.0, SVG Export Plug-In . SVG Version: 6.00 Build 0)  -->
<svg version="1.1" id="Capa_1" xmlns="http://www.w3.org/2000/svg" xmlns:xlink="http://www.w3.org/1999/xlink" x="0px" y="0px"
	 viewBox="0 0 104 161" style="enable-background:new 0 0 104 161;" xml:space="preserve">
<style type="text/css">
	.st0{fill:#EAF1FA;}
	.st1{fill:#9DEDE4;}
	.st2{fill:#0BD3BB;}
	.st3{fill:#3CDCC9;}
	.st4{fill:#6DE5D6;}
	.st5{fill:#0CBFA5;}
</style>
<g>
	<g>
		<path class="st0" d="M98.2,64L72,32.1c-5.2-6.1-12.6-9.4-20-9.4s-14.9,3.2-20,9.4L5.8,64C1.9,68.9,0,74.7,0,80.5
			C0,86.3,1.9,92.1,5.8,97l26.2,32c5.2,6.1,12.6,9.4,20,9.4s14.9-3.2,20-9.4l26.2-32c3.9-4.8,5.8-10.7,5.8-16.5
			C104,74.7,102.1,68.9,98.2,64z"/>
		<g>
			<path class="st1" d="M104,80.5c0-5.8-1.9-11.6-5.8-16.5l-2.8-3.4c2.8,6.1,4.3,12.8,4.3,19.9s-1.6,13.8-4.3,19.9l2.8-3.4
				C102.1,92.1,104,86.3,104,80.5z"/>
			<path class="st2" d="M80.2,42l-8.2-10c-5.2-6.1-12.6-9.4-20-9.4c-7.4,0-14.9,3.2-20,9.4l-8.5,10.4c8-6,17.9-9.6,28.7-9.6
				C62.6,32.9,72.3,36.3,80.2,42z"/>
			<path class="st1" d="M9.2,59.9L5.8,64C1.9,68.9,0,74.7,0,80.5S1.9,92.1,5.8,97l3.3,4.1c-3-6.2-4.7-13.2-4.7-20.6
				S6.2,66.2,9.2,59.9z"/>
			<path class="st3" d="M23.4,118.5l8.5,10.4c5.2,6.1,12.6,9.4,20,9.4c7.4,0,14.9-3.2,20-9.4l8.2-10c-7.9,5.8-17.6,9.2-28.1,9.2
				C41.4,128.1,31.4,124.5,23.4,118.5z"/>
			<path class="st4" d="M95.4,60.6L80.2,42c-7.9-5.8-17.6-9.2-28.1-9.2c-10.8,0-20.7,3.6-28.7,9.6L9.2,59.9
				c-3,6.2-4.7,13.2-4.7,20.6s1.7,14.3,4.7,20.6l14.3,17.5c8,6,17.9,9.6,28.7,9.6c10.5,0,20.2-3.4,28.1-9.2l15.2-18.6
				c2.8-6.1,4.3-12.8,4.3-19.9S98.2,66.7,95.4,60.6z"/>
		</g>
		<g>
			<path class="st5" d="M51.8,103.3c-6.3,0-10.6-2.2-10.8-2.3c-1-0.5-1.3-1.7-0.8-2.6c0.5-1,1.7-1.3,2.6-0.8
				c0.3,0.2,8.3,4.1,18.5-0.1c1-0.4,2.1,0.1,2.5,1.1c0.4,1-0.1,2.1-1.1,2.5C58.8,102.7,55.1,103.3,51.8,103.3z"/>
			<g>
				<path class="st5" d="M60.8,65.7c0-1.6,1.3-2.8,2.8-2.8L75,62.8c1.5,0,2.8,1.2,2.8,2.8c0,0,0,0,0,0c0,1.6-1.3,2.8-2.8,2.8
					l-11.3,0.1h0C62.1,68.5,60.8,67.2,60.8,65.7C60.8,65.7,60.8,65.7,60.8,65.7z"/>
				<path class="st5" d="M40.4,68.5l-11.3,0c-1.6,0-2.8-1.2-2.8-2.8c0-1.5,1.3-2.8,2.8-2.8c0,0,0,0,0,0l11.3,0
					c1.6,0,2.8,1.2,2.8,2.8C43.2,67.2,41.9,68.5,40.4,68.5C40.4,68.5,40.4,68.5,40.4,68.5L40.4,68.5z"/>
				<path class="st5" d="M34.7,72.8c-2.1,0-3.8,1.7-3.8,3.8v2.6c0,2.1,1.7,3.8,3.8,3.8c2.1,0,3.8-1.7,3.8-3.8v-2.6
					C38.5,74.5,36.8,72.8,34.7,72.8z"/>
				<path class="st5" d="M69.3,72.8c-2.1,0-3.8,1.7-3.8,3.8v2.6c0,2.1,1.7,3.8,3.8,3.8c2.1,0,3.8-1.7,3.8-3.8v-2.6
					C73.1,74.5,71.4,72.8,69.3,72.8z"/>
			</g>
		</g>
		<g>
			<path class="st1" d="M85.6,91l-2.8-4.3c-0.6-0.8-1.5-1.3-2.5-1.3s-2.1,0.4-2.9,1.3L73.1,91c-0.6,0.7-1,1.4-1.2,2.2
				c-0.1,0.8,0,1.6,0.4,2.2l2.8,4.3c0.6,0.8,1.5,1.3,2.5,1.3c1,0,2.1-0.4,2.9-1.3l4.3-4.3c0.6-0.7,1-1.4,1.2-2.2
				C86.1,92.5,86,91.7,85.6,91z"/>
			<path class="st1" d="M18.4,91l2.8-4.3c0.6-0.8,1.5-1.3,2.5-1.3s2.1,0.4,2.9,1.3l4.3,4.3c0.6,0.7,1,1.4,1.2,2.2
				c0.1,0.8,0,1.6-0.4,2.2l-2.8,4.3c-0.6,0.8-1.5,1.3-2.5,1.3s-2.1-0.4-2.9-1.3l-4.3-4.3c-0.6-0.7-1-1.4-1.2-2.2
				C17.9,92.5,18,91.7,18.4,91z"/>
		</g>
		<path class="st2" d="M23.4,118.5c0,0,26.7,17.7,56.7,0.5C80.2,119,53.9,145.3,23.4,118.5z"/>
	</g>
	<path class="st2" d="M25,40.6c0,0,16.3,13.6,40.5,5.4c0,0-11.6-1-13.7-8c0,0,12.3,9.5,28.4,4.1L59,27.4H46.7L25,40.6z"/>
</g>
</svg>
