<?xml version="1.0" encoding="utf-8"?>
<!-- Generator: Adobe Illustrator 22.0.0, SVG Export Plug-In . SVG Version: 6.00 Build 0)  -->
<svg version="1.1" id="Capa_1" xmlns="http://www.w3.org/2000/svg" xmlns:xlink="http://www.w3.org/1999/xlink" x="0px" y="0px"
	 viewBox="0 0 104 161" style="enable-background:new 0 0 104 161;" xml:space="preserve">
<style type="text/css">
	.st0{fill:#EAF1FA;}
	.st1{fill:#C99DFF;}
	.st2{fill:#B77CFF;}
	.st3{fill:#DBBDFF;}
	.st4{fill:#E2CAFF;}
</style>
<g>
	<g>
		<path class="st0" d="M98.2,64L72,32.1c-5.2-6.1-12.6-9.4-20-9.4s-14.9,3.2-20,9.4L5.8,64C1.9,68.9,0,74.7,0,80.5
			C0,86.3,1.9,92.1,5.8,97l26.2,32c5.2,6.1,12.6,9.4,20,9.4s14.9-3.2,20-9.4l26.2-32c3.9-4.8,5.8-10.7,5.8-16.5
			C104,74.7,102.1,68.9,98.2,64z"/>
		<g>
			<path class="st1" d="M104,80.5c0-5.8-1.9-11.6-5.8-16.5l-2.8-3.4c2.8,6.1,4.3,12.8,4.3,19.9s-1.6,13.8-4.3,19.9l2.8-3.4
				C102.1,92.1,104,86.3,104,80.5z"/>
			<path class="st2" d="M80.2,42l-8.2-10c-5.2-6.1-12.6-9.4-20-9.4c-7.4,0-14.9,3.2-20,9.4l-8.5,10.4c8-6,17.9-9.6,28.7-9.6
				C62.6,32.9,72.3,36.3,80.2,42z"/>
			<path class="st1" d="M9.2,59.9L5.8,64C1.9,68.9,0,74.7,0,80.5S1.9,92.1,5.8,97l3.3,4.1c-3-6.2-4.7-13.2-4.7-20.6
				S6.2,66.2,9.2,59.9z"/>
			<path class="st2" d="M23.4,118.5l8.5,10.4c5.2,6.1,12.6,9.4,20,9.4c7.4,0,14.9-3.2,20-9.4l8.2-10c-7.9,5.8-17.6,9.2-28.1,9.2
				C41.4,128.1,31.4,124.5,23.4,118.5z"/>
			<path class="st3" d="M95.4,60.6L80.2,42c-7.9-5.8-17.6-9.2-28.1-9.2c-10.8,0-20.7,3.6-28.7,9.6L9.2,59.9
				c-3,6.2-4.7,13.2-4.7,20.6s1.7,14.3,4.7,20.6l14.3,17.5c8,6,17.9,9.6,28.7,9.6c10.5,0,20.2-3.4,28.1-9.2l15.2-18.6
				c2.8-6.1,4.3-12.8,4.3-19.9S98.2,66.7,95.4,60.6z"/>
		</g>
		<g>
			<path class="st2" d="M51.8,103.3c-6.3,0-10.6-2.2-10.8-2.3c-1-0.5-1.3-1.7-0.8-2.6c0.5-1,1.7-1.3,2.6-0.8
				c0.3,0.2,8.3,4.1,18.5-0.1c1-0.4,2.1,0.1,2.5,1.1c0.4,1-0.1,2.1-1.1,2.5C58.8,102.7,55.1,103.3,51.8,103.3z"/>
			<g>
				<path class="st2" d="M34.7,72.8c-2.1,0-3.8,1.7-3.8,3.8v2.6c0,2.1,1.7,3.8,3.8,3.8c2.1,0,3.8-1.7,3.8-3.8v-2.6
					C38.5,74.5,36.8,72.8,34.7,72.8z"/>
				<path class="st2" d="M69.3,72.8c-2.1,0-3.8,1.7-3.8,3.8v2.6c0,2.1,1.7,3.8,3.8,3.8c2.1,0,3.8-1.7,3.8-3.8v-2.6
					C73.1,74.5,71.4,72.8,69.3,72.8z"/>
				<path class="st2" d="M37.7,66.1H24.5c-0.9,0-1.6-0.7-1.6-1.6l0,0c0-0.9,0.7-1.6,1.6-1.6h13.2c0.9,0,1.6,0.7,1.6,1.6l0,0
					C39.3,65.4,38.6,66.1,37.7,66.1z"/>
				<path class="st2" d="M79.4,66.1H66.2c-0.9,0-1.6-0.7-1.6-1.6l0,0c0-0.9,0.7-1.6,1.6-1.6h13.2c0.9,0,1.6,0.7,1.6,1.6l0,0
					C81,65.4,80.3,66.1,79.4,66.1z"/>
			</g>
		</g>
		<g>
			<path class="st4" d="M88.4,91l-2.8-4.3c-0.6-0.8-1.5-1.3-2.5-1.3c-1,0-2.1,0.4-2.9,1.3L75.9,91c-0.6,0.7-1,1.4-1.2,2.2
				c-0.1,0.8,0,1.6,0.4,2.2l2.8,4.3c0.6,0.8,1.5,1.3,2.5,1.3s2.1-0.4,2.9-1.3l4.3-4.3c0.6-0.7,1-1.4,1.2-2.2
				C88.9,92.5,88.8,91.7,88.4,91z"/>
			<path class="st4" d="M15.9,91l2.8-4.3c0.6-0.8,1.5-1.3,2.5-1.3s2.1,0.4,2.9,1.3l4.3,4.3c0.6,0.7,1,1.4,1.2,2.2
				c0.1,0.8,0,1.6-0.4,2.2l-2.8,4.3c-0.6,0.8-1.5,1.3-2.5,1.3s-2.1-0.4-2.9-1.3l-4.3-4.3c-0.6-0.7-1-1.4-1.2-2.2
				C15.4,92.5,15.5,91.7,15.9,91z"/>
		</g>
		<path class="st2" d="M23.4,118.5c0,0,26.7,17.7,56.7,0.5C80.2,119,53.9,145.3,23.4,118.5z"/>
	</g>
	<g>
		<path class="st0" d="M61.6,24.5c2.6,1,5.1,2.5,7.3,4.4C66.7,27,64.2,25.6,61.6,24.5z"/>
		<polygon class="st0" points="95.4,60.6 98.2,64 72,32.1 80.2,42 		"/>
		<polygon class="st0" points="23.4,42.5 32,32.1 5.8,64 9.2,59.9 		"/>
		<path class="st0" d="M54.8,22.8c1.8,0.2,3.7,0.6,5.5,1.2C58.5,23.4,56.6,23,54.8,22.8z"/>
		<path class="st0" d="M52,22.7c0.9,0,1.9,0.1,2.8,0.2C53.9,22.7,52.9,22.7,52,22.7z"/>
		<path class="st1" d="M104,80.5c0-1.5-0.1-2.9-0.4-4.3C103.9,77.6,104,79,104,80.5L104,80.5z"/>
		<path class="st1" d="M0,80.5L0,80.5c0-1.5,0.1-2.9,0.4-4.3C0.1,77.6,0,79,0,80.5z"/>
		<g>
			<path class="st1" d="M80.4,118.6c-0.2,0.2-0.4,0.4-0.6,0.5c0.1-0.1,0.2-0.1,0.3-0.2l0.4-0.5C80.6,118.5,80.5,118.5,80.4,118.6z"
				/>
			<path class="st1" d="M40,125.1C40,125.1,40,125.1,40,125.1L40,125.1C40,125.1,40,125.1,40,125.1L40,125.1z"/>
			<path class="st1" d="M83.3,115.2l0.6-0.7c-2.3,1.9-5.2,3-8.3,3h-4.2c0-0.4,0.1-0.9,0.1-1.3v-17c0,0,0.1-0.7-0.2-1.7c0,0,0,0,0,0
				c0-0.1-0.1-0.1-0.1-0.2c-0.3-0.8-0.8-1.8-1.8-2.9l0,0c-2.9-3.2-7.7-4.6-12.2-4c-2,0.3-3.6,0.4-5.1,0.4c-1.5,0-3.1-0.1-5.1-0.4
				c-4.5-0.6-9.3,0.8-12.2,4l0,0c-1,1.1-1.5,2.1-1.8,2.9c0,0.1,0,0.1-0.1,0.2c0,0,0,0,0,0c-0.3,1-0.2,1.7-0.2,1.7v17
				c0,0.4,0,0.9,0.1,1.3h-4.2c-3.2,0-6.1-1.1-8.3-3c0,0,0,0,0,0l3,3.6l0.3,0.4c1.8,1.6,3.6,3,5.4,4.3c19.5,13.5,36.7,6.4,45.3,0.8
				l0,0c0,0,0.1-0.1,0.2-0.1c0.4-0.3,0.8-0.5,1.1-0.8c3-2.1,4.7-3.7,4.7-3.7c-0.1,0.1-0.2,0.1-0.3,0.2c0.2-0.2,0.4-0.4,0.6-0.5
				c0.1-0.1,0.1-0.1,0.1-0.1l-0.4,0.5l-2.8,3.5h0l3.5-4.2C81.7,117.3,82.6,116.2,83.3,115.2l4.2-5.1c0,0,0,0,0,0L83.3,115.2z
				 M40,125.1C40,125.1,40,125.1,40,125.1L40,125.1C40,125.1,40,125.1,40,125.1L40,125.1z M67,113.4c0,1.5-0.3,2.8-0.9,4.1
				c-1.1,2.5-3.2,4.4-5.9,5.3c-1,0.3-2,0.5-3.1,0.5h-1.8c0-0.1,0-0.2,0-0.3v-0.2v-5.3v-7.4c0-0.8-0.7-1.4-1.5-1.3
				c-0.6,0.1-1.2,0.1-1.9,0.1c-0.7,0-1.4,0-1.9-0.1c-0.8-0.1-1.5,0.5-1.5,1.3v7.4v5.3v0.2c0,0.1,0,0.2,0,0.3h-1.8
				c-1.1,0-2.1-0.2-3.1-0.5c-2.6-0.9-4.7-2.8-5.9-5.3c-0.6-1.2-0.9-2.6-0.9-4.1v-12.2c0-0.4,0-0.7,0.1-1c0,0,0,0,0,0
				c0-0.2,0.1-0.3,0.1-0.5c0.1-0.3,0.2-0.6,0.3-0.9c2-2.9,6-4.4,10-4c1.8,0.2,3.2,0.3,4.6,0.3c1.4,0,2.8-0.1,4.6-0.3
				c4.1-0.4,8,1,10,4c0.1,0.2,0.2,0.5,0.3,0.9c0,0.2,0.1,0.3,0.1,0.5c0,0,0,0,0,0c0,0.3,0.1,0.7,0.1,1V113.4z"/>
		</g>
	</g>
	<path class="st2" d="M23.8,42.1c0,0,27.2,14.8,56.4,0l-7.1-9.2l-28.6-3.5l-14,4.5L23.8,42.1z"/>
</g>
</svg>
