<?xml version="1.0" encoding="utf-8"?>
<!-- Generator: Adobe Illustrator 22.0.0, SVG Export Plug-In . SVG Version: 6.00 Build 0)  -->
<svg version="1.1" id="Capa_1" xmlns="http://www.w3.org/2000/svg" xmlns:xlink="http://www.w3.org/1999/xlink" x="0px" y="0px"
	 viewBox="0 0 110 165" style="enable-background:new 0 0 110 165;" xml:space="preserve">
<style type="text/css">
	.st0{fill:#62AAB2;}
	.st1{fill:#83E3ED;}
	.st2{fill:#DBBDFF;}
	.st3{fill:#B5EEF4;}
	.st4{fill:#61D6A1;}
	.st5{fill:#E0EEF0;}
</style>
<g>
	<g>
		<g>
			<path class="st0" d="M101.2,66L75,34.1c-5.2-6.1-12.6-9.4-20-9.4s-14.9,3.2-20,9.4L8.8,66C4.9,70.9,3,76.7,3,82.5
				C3,88.3,4.9,94.1,8.8,99l26.2,32c5.2,6.1,12.6,9.4,20,9.4s14.9-3.2,20-9.4l26.2-32c3.9-4.8,5.8-10.7,5.8-16.5
				C107,76.7,105.1,70.9,101.2,66z"/>
			<g>
				<g>
					<path class="st1" d="M101.2,66l-2.7-3.3c-0.1-0.3-0.2-0.5-0.4-0.8L83.9,44.5c-0.6-0.5-1.2-0.9-1.9-1.3
						c-0.1-0.1-0.3-0.2-0.4-0.3c-1.3-0.9-2.7-1.7-4.1-2.5c0,0-0.1,0-0.1-0.1c-0.7-0.4-1.5-0.8-2.2-1.1c0,0,0,0,0,0
						c-5.3-2.5-11.2-4-17.4-4.3c-0.4,0-0.8,0-1.2,0h-2.7c-0.4,0-0.8,0-1.2,0c-6.2,0.3-12,1.8-17.4,4.3c0,0,0,0,0,0
						c-0.8,0.4-1.5,0.7-2.2,1.1c0,0-0.1,0-0.1,0.1c-1.4,0.8-2.8,1.6-4.1,2.5c-0.1,0.1-0.3,0.2-0.4,0.3c-0.6,0.4-1.3,0.9-1.9,1.3
						L12.2,61.9L8.8,66C4.9,70.9,3,76.7,3,82.5S4.9,94.1,8.8,99l3.3,4.1l7.5,9.2l-1.6-3.1c4.4,4.3,11,9.9,19.6,14.5h0
						c0,0,0.3,0.2,0.9,0.5c3.7,1.8,17.9,7.6,34-0.4c0,0,0,0,0.1,0h0c8.6-4.6,15.2-10.1,19.6-14.5l-1.6,3l7.5-9.2
						c0.1-0.3,0.2-0.5,0.4-0.8l2.7-3.3c3.9-4.8,5.8-10.7,5.8-16.5S105.1,70.9,101.2,66z"/>
					<path class="st2" d="M83.1,121.2c0.1-0.1,0.2-0.1,0.3-0.2l0.4-0.5c0,0-0.1,0-0.1,0.1C83.5,120.8,83.3,121,83.1,121.2z"/>
					<path class="st2" d="M53.7,130.1c-0.4,0-0.7,0-1.1,0l0,0L53.7,130.1c0,0,0.1,0,0.1,0v0C53.8,130.1,53.8,130.1,53.7,130.1
						C53.8,130.1,53.7,130.1,53.7,130.1z"/>
					<path class="st2" d="M43.2,127.1C43.2,127.1,43.2,127.1,43.2,127.1L43.2,127.1C43.3,127.1,43.2,127.1,43.2,127.1L43.2,127.1z"
						/>
				</g>
				<path class="st3" d="M107,82.5c0-5.8-1.9-11.6-5.8-16.5l-2.7-3.3c2.8,6,4.3,12.7,4.3,19.8c0,0.9,0,1.8-0.1,2.6
					c0,0.4-0.1,0.8-0.1,1.2c0,0.5-0.1,0.9-0.1,1.4c-0.1,0.5-0.1,1-0.2,1.6c0,0.3-0.1,0.6-0.1,0.9c-0.1,0.6-0.2,1.2-0.3,1.8
					c0,0.2-0.1,0.4-0.1,0.6c-0.1,0.7-0.3,1.3-0.5,2c0,0.1-0.1,0.3-0.1,0.4c-0.2,0.7-0.4,1.4-0.6,2.1c0,0.1,0,0.1-0.1,0.2
					c-0.2,0.7-0.5,1.5-0.8,2.2c0,0,0,0,0,0.1c-0.3,0.9-0.7,1.8-1.1,2.6l2.7-3.3C105.1,94.1,107,88.3,107,82.5z"/>
				<path class="st2" d="M82,43.1c0.6,0.4,1.3,0.9,1.9,1.3C83.2,44,82.6,43.6,82,43.1z"/>
				<path class="st2" d="M101.8,92.1c0,0.2-0.1,0.4-0.1,0.6C101.7,92.5,101.8,92.3,101.8,92.1z"/>
				<path class="st2" d="M101.2,94.7c0,0.1-0.1,0.3-0.1,0.4C101.1,94.9,101.2,94.8,101.2,94.7z"/>
				<path class="st2" d="M100.5,97.2c0,0.1,0,0.1-0.1,0.2C100.4,97.3,100.4,97.2,100.5,97.2z"/>
				<path class="st2" d="M99.6,99.6C99.6,99.6,99.6,99.6,99.6,99.6C99.6,99.6,99.6,99.6,99.6,99.6z"/>
				<path class="st2" d="M102.3,89.3c0,0.3-0.1,0.6-0.1,0.9C102.2,89.9,102.3,89.6,102.3,89.3z"/>
				<path class="st2" d="M102.6,86.3c0,0.5-0.1,0.9-0.1,1.4C102.6,87.3,102.6,86.8,102.6,86.3z"/>
				<path class="st2" d="M102.8,82.5c0,0.9,0,1.8-0.1,2.6C102.8,84.3,102.8,83.4,102.8,82.5z"/>
				<path class="st2" d="M7.7,86.3c0,0.5,0.1,0.9,0.1,1.4C7.7,87.3,7.7,86.8,7.7,86.3z"/>
				<path class="st2" d="M7.5,82.5c0,0.9,0,1.8,0.1,2.6C7.5,84.3,7.5,83.4,7.5,82.5z"/>
				<path class="st4" d="M83.1,121.2c0.1-0.1,0.2-0.1,0.3-0.2l0.4-0.5c0,0-0.1,0-0.1,0.1C83.5,120.8,83.3,121,83.1,121.2z"/>
				<path class="st0" d="M7.6,85.1c0,0.4,0.1,0.8,0.1,1.2C7.6,85.9,7.6,85.5,7.6,85.1z"/>
				<path class="st0" d="M98.5,102.1c-0.6,0.8-2.7,3.5-6.3,7.1l-1.6,3l7.5-9.2c0.1-0.3,0.2-0.5,0.4-0.8l-0.1,0.1
					C98.4,102.3,98.5,102.2,98.5,102.1z"/>
				<path class="st0" d="M81.6,42.9c0.1,0.1,0.3,0.2,0.4,0.3C81.8,43.1,81.7,43,81.6,42.9z"/>
				<path class="st0" d="M101.1,95.1c-0.2,0.7-0.4,1.4-0.6,2.1C100.7,96.5,100.9,95.8,101.1,95.1z"/>
				<path class="st0" d="M100.4,97.4c-0.2,0.7-0.5,1.5-0.8,2.2C99.9,98.9,100.2,98.1,100.4,97.4z"/>
				<path class="st0" d="M101.7,92.7c-0.1,0.7-0.3,1.3-0.5,2C101.4,94,101.5,93.4,101.7,92.7z"/>
				<path class="st0" d="M102.2,90.2c-0.1,0.6-0.2,1.2-0.3,1.8C101.9,91.5,102.1,90.8,102.2,90.2z"/>
				<path class="st0" d="M102.7,85.1c0,0.4-0.1,0.8-0.1,1.2C102.7,85.9,102.7,85.5,102.7,85.1z"/>
				<path class="st0" d="M102.5,87.7c-0.1,0.5-0.1,1.1-0.2,1.6C102.4,88.8,102.4,88.3,102.5,87.7z"/>
				<path class="st0" d="M98.7,101.9C98.7,101.9,98.6,101.9,98.7,101.9c-0.1,0.1-0.1,0.2-0.2,0.3c0,0.1-0.1,0.2-0.1,0.3l0.1-0.1
					c0.4-0.9,0.8-1.7,1.1-2.6C99.3,100.4,99,101.1,98.7,101.9z"/>
				<path class="st0" d="M102.8,82.5c0,7-1.5,13.6-4.2,19.6c0.1-0.1,0.1-0.1,0.1-0.2c0,0,0-0.1,0-0.1c0.3-0.7,0.6-1.5,0.9-2.2
					c0,0,0,0,0-0.1c0.3-0.7,0.5-1.5,0.8-2.2c0-0.1,0-0.1,0.1-0.2c0.2-0.7,0.4-1.4,0.6-2.1c0-0.1,0.1-0.3,0.1-0.4
					c0.2-0.7,0.3-1.3,0.5-2c0-0.2,0.1-0.4,0.1-0.6c0.1-0.6,0.2-1.2,0.3-1.8c0.1-0.3,0.1-0.6,0.1-0.9c0.1-0.5,0.2-1,0.2-1.6
					c0.1-0.5,0.1-0.9,0.1-1.4c0-0.4,0.1-0.8,0.1-1.2C102.8,84.3,102.8,83.4,102.8,82.5c0-7.1-1.5-13.7-4.3-19.8l-0.1-0.1
					C101.2,68.7,102.8,75.4,102.8,82.5z"/>
			</g>
			<path class="st0" d="M35.2,39.2c-0.8,0.4-1.5,0.7-2.2,1.1c0,0-0.1,0-0.1,0.1c-1.4,0.8-2.8,1.6-4.1,2.5c-0.1,0.1-0.3,0.2-0.4,0.3
				c-0.6,0.4-1.3,0.9-1.9,1.3L12.2,61.9c-3,6.2-4.7,13.2-4.7,20.6c0,0.9,0,1.8,0.1,2.6c0,0.4,0.1,0.8,0.1,1.2c0,0.5,0.1,0.9,0.1,1.4
				c0.1,0.5,0.1,1.1,0.2,1.6c0,0.3,0.1,0.6,0.1,0.9c0.1,0.6,0.2,1.2,0.3,1.8c0,0.2,0.1,0.4,0.1,0.6c0.1,0.7,0.3,1.3,0.5,2
				c0,0.1,0.1,0.3,0.1,0.4c0.2,0.7,0.4,1.4,0.6,2.1c0,0.1,0,0.1,0.1,0.2c0.2,0.7,0.5,1.5,0.8,2.2c0,0,0,0,0,0.1
				c0.3,0.8,0.6,1.5,0.9,2.2c0,0,0,0.1,0,0.1c0.3,0.5,2.5,3.4,6.4,7.3l-0.7-1.4C-1.1,71.2,34.8,39.6,35.2,39.2z"/>
			<path class="st0" d="M98.5,102.1c2.7-6,4.2-12.6,4.2-19.6c0-7.1-1.6-13.8-4.3-19.9l0.1,0.1c-0.1-0.3-0.2-0.5-0.4-0.8L83.9,44.5
				c-0.6-0.5-1.2-0.9-1.9-1.3c-0.1-0.1-0.3-0.2-0.4-0.3c-1.3-0.9-2.7-1.7-4.1-2.5c0,0-0.1,0-0.1-0.1c-0.7-0.4-1.5-0.8-2.2-1.1
				c0.4,0.4,36.3,32,17.9,68.6l-0.8,1.4C95.8,105.7,97.9,102.9,98.5,102.1z"/>
			<path class="st3" d="M11.6,101.9c-0.3-0.7-0.6-1.5-0.9-2.2c0,0,0,0,0-0.1c-0.3-0.7-0.5-1.5-0.8-2.2c0-0.1,0-0.1-0.1-0.2
				c-0.2-0.7-0.4-1.4-0.6-2.1c0-0.1-0.1-0.3-0.1-0.4c-0.2-0.7-0.3-1.3-0.5-2c0-0.2-0.1-0.4-0.1-0.6c-0.1-0.6-0.2-1.2-0.3-1.8
				C8.1,89.9,8,89.6,8,89.3c-0.1-0.5-0.2-1-0.2-1.6c-0.1-0.5-0.1-0.9-0.1-1.4c0-0.4-0.1-0.8-0.1-1.2c0-0.9-0.1-1.8-0.1-2.6
				c0-7.4,1.7-14.3,4.7-20.6L8.8,66C4.9,70.9,3,76.7,3,82.5S4.9,94.1,8.8,99l3.3,4.1l7.5,9.2l-1.6-3.1
				C14.2,105.3,12,102.4,11.6,101.9C11.6,101.9,11.6,101.9,11.6,101.9z"/>
			<g>
				<path class="st3" d="M88.6,95.9l-2.8-4.3c-0.6-0.8-1.5-1.3-2.5-1.3s-2.1,0.4-2.9,1.3l-4.3,4.3c-0.6,0.7-1,1.4-1.2,2.2
					c-0.1,0.8,0,1.6,0.4,2.2l2.8,4.3c0.6,0.8,1.5,1.3,2.5,1.3s2.1-0.4,2.9-1.3l4.3-4.3c0.6-0.7,1-1.4,1.2-2.2
					C89.1,97.3,89,96.6,88.6,95.9z"/>
				<path class="st3" d="M21.4,95.9l2.8-4.3c0.6-0.8,1.5-1.3,2.5-1.3s2.1,0.4,2.9,1.3l4.3,4.3c0.6,0.7,1,1.4,1.2,2.2
					c0.1,0.8,0,1.6-0.4,2.2l-2.8,4.3c-0.6,0.8-1.5,1.3-2.5,1.3s-2.1-0.4-2.9-1.3l-4.3-4.3c-0.6-0.7-1-1.4-1.2-2.2
					C20.9,97.3,21,96.6,21.4,95.9z"/>
			</g>
			<g>
				<path class="st0" d="M37.2,67.9c-4.5,0-9.2,2.8-9.2,1.7c0.1-1.1,4.8-4.5,9.3-4.5s8.9,3.3,8.8,4.4C46.1,70.6,41.7,67.8,37.2,67.9
					z"/>
				<path class="st0" d="M73.6,67.9c-4.5,0-9.2,2.8-9.2,1.7c0.1-1.1,4.8-4.5,9.3-4.5s8.9,3.3,8.8,4.4C82.5,70.6,78.1,67.8,73.6,67.9
					z"/>
				<path class="st0" d="M54.8,105.3c-6.3,0-10.6-2.2-10.8-2.3c-1-0.5-1.3-1.7-0.8-2.6c0.5-1,1.7-1.3,2.6-0.8
					c0.3,0.2,8.3,4.1,18.5-0.1c1-0.4,2.1,0.1,2.5,1.1c0.4,1-0.1,2.1-1.1,2.5C61.8,104.7,58.1,105.3,54.8,105.3z"/>
				<path class="st0" d="M69.3,78.9c0-2,1.6-3.6,3.6-3.6c1,0,2,0.5,2.7,1.2c0.7,0,1.3,0,2,0c0.2,1.5-0.4,3-1.5,4.1
					c-0.9,1.8-3.1,2.5-4.9,1.5C70.1,81.5,69.3,80.2,69.3,78.9z M34.1,80.6c-1.2-1-1.7-2.5-1.5-4.1c0.7,0,1.3,0,2,0
					c1.3-1.5,3.6-1.7,5.1-0.4c1.5,1.3,1.7,3.6,0.4,5.1c-1.3,1.5-3.6,1.7-5.1,0.4C34.6,81.3,34.3,81,34.1,80.6z"/>
			</g>
			<path class="st0" d="M22,55.2c0,0-7.3,15.6-2.9,34.5c0,0,0.6,6.8,3.1,11.5c0.7,1.4,0.5,3.1-0.6,4.2l-3.6,3.8
				c0,0-10.9-16.1-8.5-24.8S17.4,57.3,22,55.2z"/>
			<path class="st0" d="M88.4,55.2c0,0,7.3,15.6,2.9,34.5c0,0-0.7,7.4-3.4,12c-0.6,1-0.5,2.3,0.3,3.1l4.1,4.3
				c0,0,10.9-16.1,8.5-24.8C98.4,75.8,93,57.3,88.4,55.2z"/>
			<path class="st0" d="M26.6,48.7c0,0,29.1-19,56.6-0.8l-1.5-5.9L67,30.9H52.1l-11.9,1.8L33,38.5L26.6,48.7z"/>
		</g>
	</g>
	<path class="st0" d="M20.9,55.2c0,0,37.9-2.4,39.9-17.7l-27.9,3.8l-12,10.4V55.2z"/>
	<g>
		<polygon class="st5" points="27.2,69.4 27.2,69.4 27.2,69.4 		"/>
		<g>
			<path class="st5" d="M93.9,76.2c0,0-3.6-0.1-5.3-2.1c-1.1-1.3-3.3-3-4.6-4c-0.3-0.3-0.7-0.5-1-0.8c0,0,0,0,0,0l0,0
				c-2.5-1.7-5.5-2.7-8.8-2.7c-4.4,0-8.3,1.8-11.2,4.6c-1.4,1.3-2.6,2.7-3.8,4.1c-1.6,1.8-2.5,0.9-4,0.9c-1.6,0-2.5,0.9-4-0.9
				c-1.2-1.4-2.4-2.8-3.8-4.1c-2.9-2.9-6.9-4.6-11.2-4.6c-3.2,0-6.4,1-8.8,2.7c0,0,0,0,0,0c-0.4,0.2-0.7,0.5-1,0.8
				c-1.3,1-3.5,2.7-4.6,4c-1.7,2-5.4,2.1-5.4,2.1H8.2c-0.2,1.3-0.3,2.7-0.4,4h8.4c0,0,2.2-0.1,2.9,0.7c0.4,0.5,0.9,2.9,1.6,5.4
				c0.2,0.9,0.5,1.8,0.9,2.6c0.3,0.8,0.8,1.6,1.2,2.2l0,0c2.8,4.3,7.7,7.1,13.2,7.1c6.4,0,11.9-3.8,14.4-9.3c0,0,0,0,0,0
				c0,0,0,0,0-0.1c1.1-1.9,2.3-7.2,2.8-8c0.5-0.8,1.8-0.9,1.8-0.9s1.3,0.1,1.8,0.9c0.5,0.8,1.7,6.1,2.8,8c0,0,0,0,0,0.1c0,0,0,0,0,0
				c2.5,5.5,8,9.3,14.4,9.3c5.5,0,10.3-2.8,13.2-7.1l0,0c0.5-0.6,0.9-1.4,1.2-2.2c0.4-0.8,0.7-1.7,0.9-2.6c0.7-2.5,1.2-4.9,1.6-5.4
				c0.7-0.8,2.9-0.7,2.9-0.7h8.7c-0.1-1.4-0.2-2.7-0.4-4H93.9z M36.1,96.1c-7.5,0-13.6-6.1-13.6-13.6c0-7.5,6.1-13.6,13.6-13.6
				c7.5,0,13.6,6.1,13.6,13.6C49.7,90,43.6,96.1,36.1,96.1z M74.1,96.1c-7.5,0-13.6-6.1-13.6-13.6c0-7.5,6.1-13.6,13.6-13.6
				c7.5,0,13.6,6.1,13.6,13.6C87.8,90,81.7,96.1,74.1,96.1z"/>
		</g>
	</g>
</g>
</svg>
