<?xml version="1.0" encoding="utf-8"?>
<!-- Generator: Adobe Illustrator 22.0.0, SVG Export Plug-In . SVG Version: 6.00 Build 0)  -->
<svg version="1.1" id="Capa_1" xmlns="http://www.w3.org/2000/svg" xmlns:xlink="http://www.w3.org/1999/xlink" x="0px" y="0px"
	 viewBox="0 0 104 161" style="enable-background:new 0 0 104 161;" xml:space="preserve">
<style type="text/css">
	.st0{fill:#EAF1FA;}
	.st1{fill:#FFEFB0;}
	.st2{fill:#CEAF4D;}
	.st3{fill:#FFDF5A;}
	.st4{opacity:0.5;fill:#CEAF4D;}
	.st5{fill:#FFEC9C;}
	.st6{fill:#EFBF3A;}
</style>
<g>
	<g>
		<path class="st0" d="M98.2,64L72,32.1c-5.2-6.1-12.6-9.4-20-9.4s-14.9,3.2-20,9.4L5.8,64C1.9,68.9,0,74.7,0,80.5
			C0,86.3,1.9,92.1,5.8,97l26.2,32c5.2,6.1,12.6,9.4,20,9.4s14.9-3.2,20-9.4l26.2-32c3.9-4.8,5.8-10.7,5.8-16.5
			C104,74.7,102.1,68.9,98.2,64z"/>
		<g>
			<path class="st1" d="M104,80.5c0-5.8-1.9-11.6-5.8-16.5l-2.8-3.4c2.8,6.1,4.3,12.8,4.3,19.9s-1.6,13.8-4.3,19.9l2.8-3.4
				C102.1,92.1,104,86.3,104,80.5z"/>
			<path class="st2" d="M80.2,42l-8.2-10c-5.2-6.1-12.6-9.4-20-9.4c-7.4,0-14.9,3.2-20,9.4l-8.5,10.4c8-6,17.9-9.6,28.7-9.6
				C62.6,32.9,72.3,36.3,80.2,42z"/>
			<path class="st1" d="M9.2,59.9L5.8,64C1.9,68.9,0,74.7,0,80.5S1.9,92.1,5.8,97l3.3,4.1c-3-6.2-4.7-13.2-4.7-20.6
				S6.2,66.2,9.2,59.9z"/>
			<path class="st2" d="M23.4,118.5l8.5,10.4c5.2,6.1,12.6,9.4,20,9.4c7.4,0,14.9-3.2,20-9.4l8.2-10c-7.9,5.8-17.6,9.2-28.1,9.2
				C41.4,128.1,31.4,124.5,23.4,118.5z"/>
			<path class="st3" d="M95.4,60.6L80.2,42c-7.9-5.8-17.6-9.2-28.1-9.2c-10.8,0-20.7,3.6-28.7,9.6L9.2,59.9
				c-3,6.2-4.7,13.2-4.7,20.6s1.7,14.3,4.7,20.6l14.3,17.5c8,6,17.9,9.6,28.7,9.6c10.5,0,20.2-3.4,28.1-9.2l15.2-18.6
				c2.8-6.1,4.3-12.8,4.3-19.9S98.2,66.7,95.4,60.6z"/>
		</g>
		<g>
			<path class="st4" d="M51.9,103.3c-4.1,0-6.9-1.4-7.1-1.5c-0.6-0.3-0.9-1.1-0.5-1.7c0.3-0.6,1.1-0.9,1.7-0.5
				c0.2,0.1,5.4,2.7,12.1,0c0.6-0.3,1.4,0,1.7,0.7c0.3,0.6,0,1.4-0.7,1.7C56.4,102.9,54,103.3,51.9,103.3z"/>
			<g>
				<path class="st2" d="M34.7,72.8c-2.1,0-3.8,1.7-3.8,3.8v2.6c0,2.1,1.7,3.8,3.8,3.8c2.1,0,3.8-1.7,3.8-3.8v-2.6
					C38.5,74.5,36.8,72.8,34.7,72.8z"/>
				<path class="st2" d="M69.3,72.8c-2.1,0-3.8,1.7-3.8,3.8v2.6c0,2.1,1.7,3.8,3.8,3.8c2.1,0,3.8-1.7,3.8-3.8v-2.6
					C73.1,74.5,71.4,72.8,69.3,72.8z"/>
			</g>
		</g>
		<g>
			<path class="st5" d="M85.6,93.9l-2.8-4.3c-0.6-0.8-1.5-1.3-2.5-1.3s-2.1,0.4-2.9,1.3l-4.3,4.3c-0.6,0.7-1,1.4-1.2,2.2
				c-0.1,0.8,0,1.6,0.4,2.2l2.8,4.3c0.6,0.8,1.5,1.3,2.5,1.3c1,0,2.1-0.4,2.9-1.3l4.3-4.3c0.6-0.7,1-1.4,1.2-2.2
				C86.1,95.3,86,94.6,85.6,93.9z"/>
			<path class="st5" d="M18.4,93.9l2.8-4.3c0.6-0.8,1.5-1.3,2.5-1.3s2.1,0.4,2.9,1.3l4.3,4.3c0.6,0.7,1,1.4,1.2,2.2
				c0.1,0.8,0,1.6-0.4,2.2l-2.8,4.3c-0.6,0.8-1.5,1.3-2.5,1.3s-2.1-0.4-2.9-1.3l-4.3-4.3c-0.6-0.7-1-1.4-1.2-2.2
				C17.9,95.3,18,94.6,18.4,93.9z"/>
		</g>
		<path class="st6" d="M23.4,118.5c0,0,26.7,17.7,56.7,0.5C80.2,119,53.9,145.3,23.4,118.5z"/>
		<g>
			<path class="st2" d="M41.2,64.5l-7.8-1.7c-0.3-0.1-0.6-0.1-0.9,0l-7.9,1c-0.9,0.1-1.5,0.6-1.4,1.2c0.1,0.6,0.8,1.1,1.7,1.1
				c0,0,0,0,0,0l15.7,0.8c0.9,0,1.7-0.4,1.8-1C42.7,65.2,42.1,64.7,41.2,64.5z"/>
			<path class="st2" d="M78.6,63.6l-8-0.9c-0.3,0-0.6,0-0.9,0.1L62,64.5c-0.9,0.2-1.4,0.8-1.2,1.4c0.2,0.6,0.9,1,1.8,0.9
				c0,0,0,0,0,0L78.3,66c0.9-0.1,1.6-0.5,1.7-1.1C80.1,64.2,79.5,63.7,78.6,63.6z"/>
		</g>
		<g>
			<path class="st2" d="M51.2,97.4c0.5-0.1,1-0.1,1.4,0l12.7,3c0,0,0,0,0,0c0.9,0.2,1.9-0.2,2.1-1.1c0-0.1,0.1-0.3,0.1-0.5
				c0.1-1.5-0.9-2.8-2.4-3.1l-12.6-3c-0.5-0.1-1-0.1-1.4,0l-12.5,3.5c-1.4,0.4-2.4,1.7-2.2,3.1c0,0.2,0.1,0.4,0.1,0.6
				c0.3,0.8,1.1,1.2,2,1c0,0,0,0,0,0L51.2,97.4z"/>
		</g>
		<path class="st2" d="M52.1,121.2c-23.8,2.6-40.3-17-41.5-18.4l12.9,15.7c8,6,17.9,9.6,28.7,9.6s20.7-3.6,28.7-9.6l12.9-15.7
			C92.5,104.3,75.9,123.8,52.1,121.2z"/>
		<path class="st2" d="M51.7,118.3l-3.5-1.4c-0.7-0.3-1.5,0.2-1.5,1v3.6c0,0.5,0.4,1,0.9,1.1l4.3,0.8c0.1,0,0.3,0,0.4,0l4.3-0.8
			c0.5-0.1,0.9-0.5,0.9-1.1v-3.6c0-0.8-0.8-1.3-1.5-1l-3.5,1.4C52.3,118.4,52,118.4,51.7,118.3z"/>
	</g>
	<path class="st4" d="M47,105.8c1.1,1.9,2,3.1,3.7,4.4c0.9,0.7,2.1,0.7,2.9,0c1.7-1.3,2.6-2.5,3.7-4.4C53.3,107.2,51,107.2,47,105.8
		z"/>
	<path class="st2" d="M18.9,48c0,0,30.4-34.9,66.2,0L68.4,28.5l-22.6-0.3l-10.4,2.2l-7.2,6.3L18.9,48z"/>
	<ellipse class="st2" cx="51.8" cy="33.7" rx="18.5" ry="6.4"/>
	<path class="st2" d="M34.7,36.5c0,0,14.5,15,33.8,3.6c0,0-23.5,5.8-31.7-6.4"/>
</g>
</svg>
