<?xml version="1.0" encoding="utf-8"?>
<!-- Generator: Adobe Illustrator 22.0.0, SVG Export Plug-In . SVG Version: 6.00 Build 0)  -->
<svg version="1.1" id="Capa_1" xmlns="http://www.w3.org/2000/svg" xmlns:xlink="http://www.w3.org/1999/xlink" x="0px" y="0px"
	 viewBox="0 0 104 160" style="enable-background:new 0 0 104 160;" xml:space="preserve">
<style type="text/css">
	.st0{fill:#EA722F;}
	.st1{fill:#FFB77B;}
	.st2{fill:#DBBDFF;}
	.st3{fill:#FABF99;}
	.st4{fill:#61D6A1;}
	.st5{fill:#FFC595;}
</style>
<g>
	<g>
		<path class="st0" d="M98.2,63.5L72,31.6c-5.2-6.1-12.6-9.4-20-9.4s-14.9,3.2-20,9.4l-26.2,32C1.9,68.4,0,74.2,0,80
			c0,5.8,1.9,11.6,5.8,16.5l26.2,32c5.2,6.1,12.6,9.4,20,9.4s14.9-3.2,20-9.4l26.2-32c3.9-4.8,5.8-10.7,5.8-16.5
			C104,74.2,102.1,68.4,98.2,63.5z"/>
		<g>
			<g>
				<path class="st1" d="M98.2,63.5l-2.7-3.3c-0.1-0.3-0.2-0.5-0.4-0.8L80.9,42c-0.6-0.5-1.2-0.9-1.9-1.3c-0.1-0.1-0.3-0.2-0.4-0.3
					c-1.3-0.9-2.7-1.7-4.1-2.5c0,0-0.1,0-0.1-0.1c-0.7-0.4-1.5-0.8-2.2-1.1c0,0,0,0,0,0c-5.3-2.5-11.2-4-17.4-4.3
					c-0.4,0-0.8,0-1.2,0h-2.7c-0.4,0-0.8,0-1.2,0c-6.2,0.3-12,1.8-17.4,4.3c0,0,0,0,0,0c-0.8,0.4-1.5,0.7-2.2,1.1c0,0-0.1,0-0.1,0.1
					c-1.4,0.8-2.8,1.6-4.1,2.5c-0.1,0.1-0.3,0.2-0.4,0.3c-0.6,0.4-1.3,0.9-1.9,1.3L9.2,59.4l-3.3,4.1C1.9,68.4,0,74.2,0,80
					s1.9,11.6,5.8,16.5l3.3,4.1l7.5,9.2l-1.6-3.1c4.4,4.3,11,9.9,19.6,14.5h0c0,0,0.3,0.2,0.9,0.5c3.7,1.8,17.9,7.6,34-0.4
					c0,0,0,0,0.1,0h0c8.6-4.6,15.2-10.1,19.6-14.5l-1.6,3l7.5-9.2c0.1-0.3,0.2-0.5,0.4-0.8l2.7-3.3c3.9-4.8,5.8-10.7,5.8-16.5
					S102.1,68.4,98.2,63.5z"/>
				<path class="st2" d="M80.1,118.7c0.1-0.1,0.2-0.1,0.3-0.2l0.4-0.5c0,0-0.1,0-0.1,0.1C80.5,118.3,80.3,118.5,80.1,118.7z"/>
				<path class="st2" d="M50.7,127.6c-0.4,0-0.7,0-1.1,0l0,0L50.7,127.6c0,0,0.1,0,0.1,0v0C50.8,127.6,50.8,127.6,50.7,127.6
					C50.8,127.6,50.7,127.6,50.7,127.6z"/>
				<path class="st2" d="M40.2,124.6C40.2,124.6,40.2,124.6,40.2,124.6L40.2,124.6C40.3,124.6,40.2,124.6,40.2,124.6L40.2,124.6z"/>
			</g>
			<path class="st3" d="M104,80c0-5.8-1.9-11.6-5.8-16.5l-2.7-3.3c2.8,6,4.3,12.7,4.3,19.8c0,0.9,0,1.8-0.1,2.6
				c0,0.4-0.1,0.8-0.1,1.2c0,0.5-0.1,0.9-0.1,1.4c-0.1,0.5-0.1,1-0.2,1.6c0,0.3-0.1,0.6-0.1,0.9c-0.1,0.6-0.2,1.2-0.3,1.8
				c0,0.2-0.1,0.4-0.1,0.6c-0.1,0.7-0.3,1.3-0.5,2c0,0.1-0.1,0.3-0.1,0.4c-0.2,0.7-0.4,1.4-0.6,2.1c0,0.1,0,0.1-0.1,0.2
				c-0.2,0.7-0.5,1.5-0.8,2.2c0,0,0,0,0,0.1c-0.3,0.9-0.7,1.8-1.1,2.6l2.7-3.3C102.1,91.6,104,85.8,104,80z"/>
			<path class="st2" d="M79,40.6c0.6,0.4,1.3,0.9,1.9,1.3C80.2,41.5,79.6,41.1,79,40.6z"/>
			<path class="st2" d="M98.8,89.6c0,0.2-0.1,0.4-0.1,0.6C98.7,90,98.8,89.8,98.8,89.6z"/>
			<path class="st2" d="M98.2,92.2c0,0.1-0.1,0.3-0.1,0.4C98.1,92.4,98.2,92.3,98.2,92.2z"/>
			<path class="st2" d="M97.5,94.7c0,0.1,0,0.1-0.1,0.2C97.4,94.8,97.4,94.7,97.5,94.7z"/>
			<path class="st2" d="M96.6,97.1C96.6,97.1,96.6,97.1,96.6,97.1C96.6,97.1,96.6,97.1,96.6,97.1z"/>
			<path class="st2" d="M99.3,86.8c0,0.3-0.1,0.6-0.1,0.9C99.2,87.4,99.3,87.1,99.3,86.8z"/>
			<path class="st2" d="M99.6,83.8c0,0.5-0.1,0.9-0.1,1.4C99.6,84.8,99.6,84.3,99.6,83.8z"/>
			<path class="st2" d="M99.8,80c0,0.9,0,1.8-0.1,2.6C99.8,81.8,99.8,80.9,99.8,80z"/>
			<path class="st2" d="M4.7,83.8c0,0.5,0.1,0.9,0.1,1.4C4.7,84.8,4.7,84.3,4.7,83.8z"/>
			<path class="st2" d="M4.5,80c0,0.9,0,1.8,0.1,2.6C4.5,81.8,4.5,80.9,4.5,80z"/>
			<path class="st4" d="M80.1,118.7c0.1-0.1,0.2-0.1,0.3-0.2l0.4-0.5c0,0-0.1,0-0.1,0.1C80.5,118.3,80.3,118.5,80.1,118.7z"/>
			<path class="st0" d="M4.6,82.6c0,0.4,0.1,0.8,0.1,1.2C4.6,83.4,4.6,83,4.6,82.6z"/>
			<path class="st0" d="M95.5,99.6c-0.6,0.8-2.7,3.5-6.3,7.1l-1.6,3l7.5-9.2c0.1-0.3,0.2-0.5,0.4-0.8l-0.1,0.1
				C95.4,99.8,95.5,99.7,95.5,99.6z"/>
			<path class="st0" d="M78.6,40.4c0.1,0.1,0.3,0.2,0.4,0.3C78.8,40.6,78.7,40.5,78.6,40.4z"/>
			<path class="st0" d="M98.1,92.6c-0.2,0.7-0.4,1.4-0.6,2.1C97.7,94,97.9,93.3,98.1,92.6z"/>
			<path class="st0" d="M97.4,94.9c-0.2,0.7-0.5,1.5-0.8,2.2C96.9,96.4,97.2,95.6,97.4,94.9z"/>
			<path class="st0" d="M98.7,90.2c-0.1,0.7-0.3,1.3-0.5,2C98.4,91.5,98.5,90.9,98.7,90.2z"/>
			<path class="st0" d="M99.2,87.7c-0.1,0.6-0.2,1.2-0.3,1.8C98.9,89,99.1,88.3,99.2,87.7z"/>
			<path class="st0" d="M99.7,82.6c0,0.4-0.1,0.8-0.1,1.2C99.7,83.4,99.7,83,99.7,82.6z"/>
			<path class="st0" d="M99.5,85.2c-0.1,0.5-0.1,1.1-0.2,1.6C99.4,86.3,99.4,85.8,99.5,85.2z"/>
			<path class="st0" d="M95.7,99.4C95.7,99.4,95.6,99.4,95.7,99.4c-0.1,0.1-0.1,0.2-0.2,0.3c0,0.1-0.1,0.2-0.1,0.3l0.1-0.1
				c0.4-0.9,0.8-1.7,1.1-2.6C96.3,97.9,96,98.6,95.7,99.4z"/>
			<path class="st0" d="M99.8,80c0,7-1.5,13.6-4.2,19.6c0.1-0.1,0.1-0.1,0.1-0.2c0,0,0-0.1,0-0.1c0.3-0.7,0.6-1.5,0.9-2.2
				c0,0,0,0,0-0.1c0.3-0.7,0.5-1.5,0.8-2.2c0-0.1,0-0.1,0.1-0.2c0.2-0.7,0.4-1.4,0.6-2.1c0-0.1,0.1-0.3,0.1-0.4
				c0.2-0.7,0.3-1.3,0.5-2c0-0.2,0.1-0.4,0.1-0.6c0.1-0.6,0.2-1.2,0.3-1.8c0.1-0.3,0.1-0.6,0.1-0.9c0.1-0.5,0.2-1,0.2-1.6
				c0.1-0.5,0.1-0.9,0.1-1.4c0-0.4,0.1-0.8,0.1-1.2C99.8,81.8,99.8,80.9,99.8,80c0-7.1-1.5-13.7-4.3-19.8l-0.1-0.1
				C98.2,66.2,99.8,72.9,99.8,80z"/>
		</g>
		<path class="st0" d="M32.2,36.7c-0.8,0.4-1.5,0.7-2.2,1.1c0,0-0.1,0-0.1,0.1c-1.4,0.8-2.8,1.6-4.1,2.5c-0.1,0.1-0.3,0.2-0.4,0.3
			c-0.6,0.4-1.3,0.9-1.9,1.3L9.2,59.4c-3,6.2-4.7,13.2-4.7,20.6c0,0.9,0,1.8,0.1,2.6c0,0.4,0.1,0.8,0.1,1.2c0,0.5,0.1,0.9,0.1,1.4
			c0.1,0.5,0.1,1.1,0.2,1.6c0,0.3,0.1,0.6,0.1,0.9c0.1,0.6,0.2,1.2,0.3,1.8c0,0.2,0.1,0.4,0.1,0.6c0.1,0.7,0.3,1.3,0.5,2
			c0,0.1,0.1,0.3,0.1,0.4c0.2,0.7,0.4,1.4,0.6,2.1c0,0.1,0,0.1,0.1,0.2c0.2,0.7,0.5,1.5,0.8,2.2c0,0,0,0,0,0.1
			c0.3,0.8,0.6,1.5,0.9,2.2c0,0,0,0.1,0,0.1c0.3,0.5,2.5,3.4,6.4,7.3l-0.7-1.4C-4.1,68.7,31.8,37.1,32.2,36.7z"/>
		<path class="st0" d="M95.5,99.6c2.7-6,4.2-12.6,4.2-19.6c0-7.1-1.6-13.8-4.3-19.9l0.1,0.1c-0.1-0.3-0.2-0.5-0.4-0.8L80.9,42
			c-0.6-0.5-1.2-0.9-1.9-1.3c-0.1-0.1-0.3-0.2-0.4-0.3c-1.3-0.9-2.7-1.7-4.1-2.5c0,0-0.1,0-0.1-0.1c-0.7-0.4-1.5-0.8-2.2-1.1
			c0.4,0.4,36.3,32,17.9,68.6l-0.8,1.4C92.8,103.2,94.9,100.4,95.5,99.6z"/>
		<path class="st3" d="M8.6,99.4c-0.3-0.7-0.6-1.5-0.9-2.2c0,0,0,0,0-0.1c-0.3-0.7-0.5-1.5-0.8-2.2c0-0.1,0-0.1-0.1-0.2
			c-0.2-0.7-0.4-1.4-0.6-2.1c0-0.1-0.1-0.3-0.1-0.4c-0.2-0.7-0.3-1.3-0.5-2c0-0.2-0.1-0.4-0.1-0.6c-0.1-0.6-0.2-1.2-0.3-1.8
			C5.1,87.4,5,87.1,5,86.8c-0.1-0.5-0.2-1-0.2-1.6c-0.1-0.5-0.1-0.9-0.1-1.4c0-0.4-0.1-0.8-0.1-1.2c0-0.9-0.1-1.8-0.1-2.6
			c0-7.4,1.7-14.3,4.7-20.6l-3.3,4.1C1.9,68.4,0,74.2,0,80s1.9,11.6,5.8,16.5l3.3,4.1l7.5,9.2l-1.6-3.1C11.2,102.8,9,99.9,8.6,99.4
			C8.6,99.4,8.6,99.4,8.6,99.4z"/>
		<g>
			<path class="st5" d="M85.6,93.4l-2.8-4.3c-0.6-0.8-1.5-1.3-2.5-1.3s-2.1,0.4-2.9,1.3l-4.3,4.3c-0.6,0.7-1,1.4-1.2,2.2
				c-0.1,0.8,0,1.6,0.4,2.2l2.8,4.3c0.6,0.8,1.5,1.3,2.5,1.3s2.1-0.4,2.9-1.3l4.3-4.3c0.6-0.7,1-1.4,1.2-2.2
				C86.1,94.8,86,94.1,85.6,93.4z"/>
			<path class="st5" d="M18.4,93.4l2.8-4.3c0.6-0.8,1.5-1.3,2.5-1.3s2.1,0.4,2.9,1.3l4.3,4.3c0.6,0.7,1,1.4,1.2,2.2
				c0.1,0.8,0,1.6-0.4,2.2l-2.8,4.3c-0.6,0.8-1.5,1.3-2.5,1.3s-2.1-0.4-2.9-1.3l-4.3-4.3c-0.6-0.7-1-1.4-1.2-2.2
				C17.9,94.8,18,94.1,18.4,93.4z"/>
		</g>
		<g>
			<path class="st0" d="M34.2,65.4c-4.5,0-9.2,2.8-9.2,1.7c0.1-1.1,4.8-4.5,9.3-4.5c4.5,0,8.9,3.3,8.8,4.4
				C43.1,68.1,38.7,65.3,34.2,65.4z"/>
			<path class="st0" d="M70.6,65.4c-4.5,0-9.2,2.8-9.2,1.7c0.1-1.1,4.8-4.5,9.3-4.5c4.5,0,8.9,3.3,8.8,4.4
				C79.5,68.1,75.1,65.3,70.6,65.4z"/>
			<path class="st0" d="M51.8,102.8c-6.3,0-10.6-2.2-10.8-2.3c-1-0.5-1.3-1.7-0.8-2.6c0.5-1,1.7-1.3,2.6-0.8
				c0.3,0.2,8.3,4.1,18.5-0.1c1-0.4,2.1,0.1,2.5,1.1c0.4,1-0.1,2.1-1.1,2.5C58.8,102.2,55.1,102.8,51.8,102.8z"/>
			<path class="st0" d="M66.3,76.4c0-2,1.6-3.6,3.6-3.6c1,0,2,0.5,2.7,1.2c0.7,0,1.3,0,2,0c0.2,1.5-0.4,3-1.5,4.1
				c-0.9,1.8-3.1,2.5-4.9,1.5C67.1,79,66.3,77.7,66.3,76.4z M31.1,78.1c-1.2-1-1.7-2.5-1.5-4.1c0.7,0,1.3,0,2,0
				c1.3-1.5,3.6-1.7,5.1-0.4c1.5,1.3,1.7,3.6,0.4,5.1c-1.3,1.5-3.6,1.7-5.1,0.4C31.6,78.8,31.3,78.5,31.1,78.1z"/>
		</g>
		<g>
			<path class="st0" d="M38.4,39.1c0.6-1.2,1-1.7,1.6-2.9c-2.6-1.5-3.9-2.3-6.5-3.8c-0.7,1.2-1.1,1.8-1.7,3.1
				c-1,1.9-1.9,2.5-3.5,3.4c-1.9,1.2-4.6,3-6.4,7.5c-1.8,4.5-1.1,7.6-0.5,9.8c0.5,1.8,0.7,2.7,0.2,4.9c-0.6,2.1-1.3,2.8-2.6,4.1
				c-1.6,1.6-3.8,3.9-4.5,8.7c-0.7,4.8,0.7,7.7,1.7,9.7c0.9,1.6,1.3,2.5,1.2,4.7c-0.1,2.2-0.6,3-1.6,4.6c-1.2,1.9-2.8,4.7-2.5,9.6
				c0.1,1.5,0.2,2.2,0.3,3.6c1.6-0.2,2.8-0.3,4.1-0.4c1.9-0.2,3.3-1.9,3.1-3.7c0,0,0,0,0,0c-0.2-2.1,0.3-3,1.3-4.6
				c1.1-1.9,2.7-4.3,2.8-8.8c0.2-4.4-1.2-7-2.1-8.9c-0.8-1.6-1.2-2.5-0.9-4.6c0.3-2.1,1-2.8,2.2-4.1c1.5-1.6,3.6-3.6,4.7-7.8
				c1.2-4.2,0.4-7-0.1-9.2c-0.4-1.7-0.6-2.7,0.2-4.7c0.8-2,1.6-2.5,3.1-3.5C33.8,44.5,36.3,43,38.4,39.1z"/>
		</g>
		<g>
			<path class="st0" d="M65.8,39.1c-0.6-1.2-1-1.7-1.6-2.9c2.6-1.5,3.9-2.3,6.5-3.8c0.7,1.2,1.1,1.8,1.7,3.1c1,1.9,1.9,2.5,3.5,3.4
				c1.9,1.2,4.6,3,6.4,7.5c1.8,4.5,1.1,7.6,0.5,9.8c-0.5,1.8-0.7,2.7-0.2,4.9c0.6,2.1,1.3,2.8,2.6,4.1c1.6,1.6,3.8,3.9,4.5,8.7
				c0.7,4.8-0.7,7.7-1.7,9.7c-0.9,1.6-1.3,2.5-1.2,4.7c0.1,2.2,0.6,3,1.6,4.6c1.2,1.9,2.8,4.7,2.5,9.6c-0.1,1.5-0.2,2.2-0.3,3.6
				c-1.6-0.2-2.8-0.3-4.1-0.4c-1.9-0.2-3.3-1.9-3.1-3.7c0,0,0,0,0,0c0.2-2.1-0.3-3-1.3-4.6c-1.1-1.9-2.7-4.3-2.8-8.8
				c-0.2-4.4,1.2-7,2.1-8.9c0.8-1.6,1.2-2.5,0.9-4.6c-0.3-2.1-1-2.8-2.2-4.1c-1.5-1.6-3.6-3.6-4.7-7.8c-1.2-4.2-0.4-7,0.1-9.2
				c0.4-1.7,0.6-2.7-0.2-4.7c-0.8-2-1.6-2.5-3.1-3.5C70.4,44.5,67.9,43,65.8,39.1z"/>
		</g>
		<polygon class="st0" points="14.3,106 7.5,92.2 8.3,68.5 16.7,53.9 28.9,38.5 25,60.2 16.7,97.8 		"/>
		<polygon class="st0" points="68.6,33.6 79.5,48 80.9,64.1 84.6,73.6 86.9,86.8 85,92.4 90.2,102 91,105.3 97.4,90.2 95.5,64.9 
			83.9,47.6 		"/>
		<path class="st0" d="M40,36.2c0,0,10.6,0.5,12-3.8c0,0,3.1,4.7,12.2,3.8l5.3,1.7l-0.9-6.3l-13.2-5H43.8L36,31l-4.3,4.5L40,36.2z"
			/>
		<path class="st0" d="M20.8,101.9c0,0-2.9,6.9,2.6,12l-10.2-8.4l1.7-8.4L20.8,101.9z"/>
		<path class="st0" d="M83.4,101.9c0,0-2.7,6.9,1.8,10.5l6.6-7.6l-2.8-5.1L83.4,101.9z"/>
	</g>
</g>
</svg>
