<?xml version="1.0" encoding="utf-8"?>
<!-- Generator: Adobe Illustrator 22.0.0, SVG Export Plug-In . SVG Version: 6.00 Build 0)  -->
<svg version="1.1" id="Слой_1" xmlns="http://www.w3.org/2000/svg" xmlns:xlink="http://www.w3.org/1999/xlink" x="0px" y="0px"
	 viewBox="0 0 429 279" style="enable-background:new 0 0 429 279;" xml:space="preserve">
<style type="text/css">
	.st0{fill:url(#SVGID_1_);}
	.st1{fill:#BB84FF;}
	.st2{fill:#D2ADFF;}
	.st3{opacity:0.21;fill:#E8D6FF;enable-background:new    ;}
	.st4{fill:#6B26BF;}
	.st5{fill:#A55BFF;}
	.st6{fill:#E7CCFF;}
</style>
<g>
	<g>
		<g>
			
				<linearGradient id="SVGID_1_" gradientUnits="userSpaceOnUse" x1="113.3507" y1="233.71" x2="313.0151" y2="47.0415" gradientTransform="matrix(1 0 0 -1 0 280)">
				<stop  offset="0" style="stop-color:#BB84FF"/>
				<stop  offset="0.3254" style="stop-color:#8E32FF"/>
				<stop  offset="0.6236" style="stop-color:#8E32FF"/>
				<stop  offset="1" style="stop-color:#BB84FF"/>
			</linearGradient>
			<path class="st0" d="M324.5,99.8l-63.1-77.2C248.8,7.8,230.9,0,213.1,0s-35.8,7.8-48.3,22.6l-63.1,77.2
				c-9.4,11.7-14,25.7-14,39.7s4.7,28.1,14,39.7l63.1,77.2c12.5,14.8,30.4,22.6,48.3,22.6s35.8-7.8,48.3-22.6l63.1-77.2
				c9.4-11.7,14-25.7,14-39.7S333.9,111.4,324.5,99.8z"/>
			<g>
				<path class="st1" d="M338.5,139.5c0-14-4.7-28.1-14-39.7l-6.7-8.2c6.7,14.6,10.5,30.8,10.5,48s-3.8,33.4-10.5,48l6.7-8.2
					C333.9,167.6,338.5,153.5,338.5,139.5z"/>
				<path class="st2" d="M281.1,46.7l-19.7-24.1C248.8,7.8,230.9,0,213.1,0s-35.8,7.8-48.3,22.6l-20.6,25.2
					c19.3-14.6,43.2-23.2,69.2-23.2C238.6,24.6,262.1,32.8,281.1,46.7z"/>
				<path class="st1" d="M109.6,89.9l-8.1,9.9c-9.4,11.7-14,25.7-14,39.7s4.7,28.1,14,39.7l8.1,9.9c-7.2-15-11.2-31.8-11.2-49.6
					S102.4,104.9,109.6,89.9z"/>
				<path class="st2" d="M144.1,231.2l20.6,25.2c12.5,14.8,30.4,22.6,48.3,22.6s35.8-7.8,48.3-22.6l19.7-24.1
					c-19,13.9-42.4,22.1-67.7,22.1C187.3,254.4,163.3,245.8,144.1,231.2z"/>
				<path class="st3" d="M317.8,91.5L281,46.6c-19-13.9-42.4-22.1-67.7-22.1c-26,0-50,8.6-69.2,23.2l-34.5,42.1
					c-7.2,15-11.2,31.8-11.2,49.6s4,34.6,11.2,49.6l34.5,42.1c19.3,14.6,43.2,23.2,69.2,23.2c25.3,0,48.7-8.2,67.7-22.1l36.7-44.9
					c6.7-14.6,10.5-30.8,10.5-48S324.5,106.1,317.8,91.5z"/>
			</g>
			<g>
				<g>
					<path class="st4" d="M171.3,116.9c-5,0-9.1,4.1-9.1,9.1v6.3c0,5,4.1,9.1,9.1,9.1s9.1-4.1,9.1-9.1V126
						C180.4,121,176.3,116.9,171.3,116.9z"/>
					<path class="st4" d="M254.8,116.9c-5,0-9.1,4.1-9.1,9.1v6.3c0,5,4.1,9.1,9.1,9.1s9.1-4.1,9.1-9.1V126
						C264,121,259.8,116.9,254.8,116.9z"/>
				</g>
				<g>
					<path class="st1" d="M294.2,170.5l-6.7-10.4c-1.3-2-3.6-3.1-6-3.1s-5,1.1-7.1,3.1L264,170.5c-1.5,1.6-2.5,3.5-2.8,5.4
						s0,3.8,0.9,5.4l6.7,10.4c1.3,2,3.6,3.1,6,3.1s5-1.1,7.1-3.1l10.4-10.4c1.5-1.6,2.5-3.5,2.8-5.4
						C295.5,174,295.2,172.1,294.2,170.5z"/>
					<path class="st1" d="M131.9,170.5l6.7-10.4c1.3-2,3.6-3.1,6-3.1s5,1.1,7.1,3.1l10.4,10.4c1.5,1.6,2.5,3.5,2.8,5.4
						s0,3.8-0.9,5.4l-6.7,10.4c-1.3,2-3.6,3.1-6,3.1s-5-1.1-7.1-3.1l-10.4-10.4c-1.5-1.6-2.5-3.5-2.8-5.4
						C130.6,174,130.9,172.1,131.9,170.5z"/>
				</g>
			</g>
			<path class="st5" d="M144.1,231.2c0,0,64.5,42.6,136.9,1.1C281,232.3,217.6,295.9,144.1,231.2z"/>
		</g>
		<g>
			<path class="st4" d="M186.3,187.5c0.1,0,0.1,0.1,0.2,0.1c0.6,0.3,10.9,5.5,26.1,5.5c7.7,0,16.8-1.3,26.5-5.4
				c0.2-0.1,0.4-0.2,0.5-0.3L186.3,187.5L186.3,187.5z"/>
		</g>
	</g>
	<path class="st1" d="M181.6,115.7h-27c-2.6,0-4.7-2.1-4.7-4.7l0,0c0-2.6,2.1-4.7,4.7-4.7h27c2.6,0,4.7,2.1,4.7,4.7l0,0
		C186.3,113.6,184.3,115.7,181.6,115.7z"/>
	<path class="st1" d="M271.6,89.9l-26.9,1.6c-2.6,0.2-4.8-1.8-4.9-4.4l0,0c-0.2-2.6,1.8-4.8,4.4-4.9l26.9-1.6
		c2.6-0.2,4.8,1.8,4.9,4.4l0,0C276.1,87.5,274.2,89.7,271.6,89.9z"/>
	<g>
		<path class="st6" d="M194.8,49.9c5-1.3,9.7-2,14.2-2.1s8.6,0.4,12.2,1.4c3.6,1.1,6.5,2.9,8.6,5.6c2.1,2.7,3.2,6.1,3.2,10.1
			c0,5.3-1.8,9.4-5.3,12.3s-8.4,4.3-14.6,4.2v3.8c0,2.5-1.2,3.7-3.7,3.7H207c-2.4,0-3.7-1.2-3.9-3.5l-0.8-8.8
			c-0.1-1.3,0.2-2.2,0.8-2.8c0.7-0.6,1.7-0.9,3-0.8c6.1,0.3,10.5-0.1,13.2-1.4s4-3.5,4-6.5c0-2.3-0.6-4.2-1.9-5.6
			c-1.3-1.4-3.2-2.3-5.7-2.6c-2.5-0.4-5.4-0.5-8.7-0.2s-7.1,0.9-11.5,1.9c-1.2,0.3-2.1,0.1-2.7-0.3c-0.7-0.5-1-1.3-1-2.5v-2.1
			C192.1,51.7,192.9,50.4,194.8,49.9z M204.1,96.6c1-1.1,2.5-1.6,4.4-1.6s3.4,0.5,4.4,1.6s1.5,2.6,1.5,4.6c0,1.9-0.5,3.4-1.5,4.5
			s-2.4,1.6-4.4,1.6c-1.9,0-3.4-0.5-4.4-1.6s-1.5-2.5-1.5-4.4C202.6,99.2,203.1,97.7,204.1,96.6z"/>
	</g>
</g>
</svg>
