<?xml version="1.0" encoding="utf-8"?>
<!-- Generator: Adobe Illustrator 22.0.0, SVG Export Plug-In . SVG Version: 6.00 Build 0)  -->
<svg version="1.1" id="Слой_1" xmlns="http://www.w3.org/2000/svg" xmlns:xlink="http://www.w3.org/1999/xlink" x="0px" y="0px"
	 viewBox="0 0 429 279" style="enable-background:new 0 0 429 279;" xml:space="preserve">
<style type="text/css">
	.st0{fill:url(#SVGID_1_);}
	.st1{fill:#A55BFF;}
	.st2{fill:#8E32FF;}
	.st3{opacity:0.21;fill:url(#SVGID_2_);}
	.st4{fill:#6B26BF;}
	.st5{fill:#BB84FF;}
	.st6{fill:#E7CCFF;}
</style>
<g>
	<g>
		<linearGradient id="SVGID_1_" gradientUnits="userSpaceOnUse" x1="113.8899" y1="46.3015" x2="313.5543" y2="232.97">
			<stop  offset="0" style="stop-color:#BB84FF"/>
			<stop  offset="0.3254" style="stop-color:#8E32FF"/>
			<stop  offset="0.6236" style="stop-color:#8E32FF"/>
			<stop  offset="1" style="stop-color:#BB84FF"/>
		</linearGradient>
		<path class="st0" d="M325,99.8l-63.1-77.2C249.4,7.8,231.5,0,213.6,0s-35.8,7.8-48.3,22.6l-63.1,77.2c-9.4,11.7-14,25.7-14,39.7
			c0,14,4.7,28.1,14,39.7l63.1,77.2c12.5,14.8,30.4,22.6,48.3,22.6s35.8-7.8,48.3-22.6l63.1-77.2c9.4-11.7,14-25.7,14-39.7
			C339,125.5,334.4,111.4,325,99.8z"/>
		<g>
			<path class="st1" d="M339,139.5c0-14-4.7-28.1-14-39.7l-6.7-8.2c6.7,14.6,10.5,30.8,10.5,48s-3.8,33.4-10.5,48l6.7-8.2
				C334.4,167.6,339,153.5,339,139.5z"/>
			<path class="st2" d="M281.6,46.7l-19.7-24.1C249.4,7.8,231.5,0,213.6,0c-17.9,0-35.8,7.8-48.3,22.6l-20.6,25.2
				c19.3-14.6,43.2-23.2,69.2-23.2C239.2,24.6,262.6,32.8,281.6,46.7z"/>
			<path class="st1" d="M110.2,89.9l-8.1,9.9c-9.4,11.7-14,25.7-14,39.7s4.7,28.1,14,39.7l8.1,9.9c-7.2-15-11.2-31.8-11.2-49.6
				S103,104.9,110.2,89.9z"/>
			<path class="st2" d="M144.7,231.2l20.6,25.2c12.5,14.8,30.4,22.6,48.3,22.6c17.9,0,35.8-7.8,48.3-22.6l19.7-24.1
				c-19,13.9-42.4,22.1-67.7,22.1C187.9,254.4,163.9,245.8,144.7,231.2z"/>
			<linearGradient id="SVGID_2_" gradientUnits="userSpaceOnUse" x1="76.5925" y1="99.8791" x2="367.2283" y2="183.7618">
				<stop  offset="0.2097" style="stop-color:#8E32FF"/>
				<stop  offset="0.3636" style="stop-color:#A55BFF"/>
				<stop  offset="0.4498" style="stop-color:#BB84FF"/>
				<stop  offset="0.5734" style="stop-color:#BB84FF"/>
				<stop  offset="0.7456" style="stop-color:#D2ADFF"/>
			</linearGradient>
			<path class="st3" d="M318.3,91.5l-36.7-44.9c-19-13.9-42.4-22.1-67.7-22.1c-26,0-50,8.6-69.2,23.2l-34.5,42.1
				c-7.2,15-11.2,31.8-11.2,49.6s4,34.6,11.2,49.6l34.5,42.1c19.3,14.6,43.2,23.2,69.2,23.2c25.3,0,48.7-8.2,67.7-22.1l36.7-44.9
				c6.7-14.6,10.5-30.8,10.5-48S325,106.1,318.3,91.5z"/>
		</g>
		<g>
			<g>
				<path class="st4" d="M171.8,116.9c-5,0-9.1,4.1-9.1,9.1v6.3c0,5,4.1,9.1,9.1,9.1s9.1-4.1,9.1-9.1V126
					C181,121,176.9,116.9,171.8,116.9z"/>
				<path class="st4" d="M255.3,116.9c-5,0-9.1,4.1-9.1,9.1v6.3c0,5,4.1,9.1,9.1,9.1c5,0,9.1-4.1,9.1-9.1V126
					C264.5,121,260.3,116.9,255.3,116.9z"/>
			</g>
			<g>
				<path class="st5" d="M294.7,170.5l-6.7-10.4c-1.3-2-3.6-3.1-6-3.1s-5,1.1-7.1,3.1l-10.4,10.4c-1.5,1.6-2.5,3.5-2.8,5.4
					c-0.3,1.9,0,3.8,0.9,5.4l6.7,10.4c1.3,2,3.6,3.1,6,3.1s5-1.1,7.1-3.1l10.4-10.4c1.5-1.6,2.5-3.5,2.8-5.4
					C296,174,295.7,172.1,294.7,170.5z"/>
				<path class="st5" d="M132.5,170.5l6.7-10.4c1.3-2,3.6-3.1,6-3.1s5,1.1,7.1,3.1l10.4,10.4c1.5,1.6,2.5,3.5,2.8,5.4
					c0.3,1.9,0,3.8-0.9,5.4l-6.7,10.4c-1.3,2-3.6,3.1-6,3.1s-5-1.1-7.1-3.1l-10.4-10.4c-1.5-1.6-2.5-3.5-2.8-5.4
					C131.2,174,131.5,172.1,132.5,170.5z"/>
			</g>
		</g>
		<path class="st4" d="M144.7,231.2c0,0,64.5,42.6,136.9,1.1C281.6,232.3,218.1,295.9,144.7,231.2z"/>
	</g>
	<g>
		<path class="st4" d="M186.9,187.5c0.1,0,0.1,0.1,0.2,0.1c0.6,0.3,10.9,5.5,26.1,5.5c7.7,0,16.8-1.3,26.5-5.4
			c0.2-0.1,0.4-0.2,0.5-0.3H186.9z"/>
	</g>
</g>
<path class="st5" d="M182.2,115.7h-27c-2.6,0-4.7-2.1-4.7-4.7v0c0-2.6,2.1-4.7,4.7-4.7h27c2.6,0,4.7,2.1,4.7,4.7v0
	C186.9,113.6,184.8,115.7,182.2,115.7z"/>
<path class="st5" d="M272.1,89.9l-26.9,1.6c-2.6,0.2-4.8-1.8-4.9-4.4v0c-0.2-2.6,1.8-4.8,4.4-4.9l26.9-1.6c2.6-0.2,4.8,1.8,4.9,4.4
	v0C276.6,87.5,274.7,89.7,272.1,89.9z"/>
<g>
	<path class="st6" d="M195.4,49.9c5-1.3,9.7-2,14.2-2.1c4.5-0.1,8.6,0.4,12.2,1.4c3.6,1.1,6.5,2.9,8.6,5.6c2.1,2.7,3.2,6.1,3.2,10.1
		c0,5.3-1.8,9.4-5.3,12.3c-3.5,2.9-8.4,4.3-14.6,4.2v3.8c0,2.5-1.2,3.7-3.7,3.7h-2.4c-2.4,0-3.7-1.2-3.9-3.5l-0.8-8.8
		c-0.1-1.3,0.2-2.2,0.8-2.8c0.7-0.6,1.7-0.9,3-0.8c6.1,0.3,10.5-0.1,13.2-1.4c2.7-1.3,4-3.5,4-6.5c0-2.3-0.6-4.2-1.9-5.6
		c-1.3-1.4-3.2-2.3-5.7-2.6c-2.5-0.4-5.4-0.5-8.7-0.2c-3.3,0.3-7.1,0.9-11.5,1.9c-1.2,0.3-2.1,0.1-2.7-0.3c-0.7-0.5-1-1.3-1-2.5
		v-2.1C192.6,51.7,193.5,50.4,195.4,49.9z M204.7,96.6c1-1.1,2.5-1.6,4.4-1.6c1.9,0,3.4,0.5,4.4,1.6c1,1.1,1.5,2.6,1.5,4.6
		c0,1.9-0.5,3.4-1.5,4.5c-1,1.1-2.4,1.6-4.4,1.6c-1.9,0-3.4-0.5-4.4-1.6c-1-1.1-1.5-2.5-1.5-4.4C203.1,99.2,203.6,97.7,204.7,96.6z"
		/>
</g>
</svg>
