<?xml version="1.0" encoding="utf-8"?>
<!-- Generator: Adobe Illustrator 22.0.0, SVG Export Plug-In . SVG Version: 6.00 Build 0)  -->
<svg version="1.1" id="Capa_1" xmlns:serif="http://www.serif.com/"
	 xmlns="http://www.w3.org/2000/svg" xmlns:xlink="http://www.w3.org/1999/xlink" x="0px" y="0px" viewBox="0 0 792 1224"
	 style="enable-background:new 0 0 792 1224;" xml:space="preserve">
<style type="text/css">
	.st0{fill:url(#Прямоугольник_скругл._углы_5_1_);}
	.st1{opacity:0.17;fill:#BDCCD4;enable-background:new    ;}
	.st2{fill:url(#SVGID_1_);}
	.st3{fill:url(#SVGID_2_);}
	.st4{fill:#5A11B2;}
	.st5{fill:#F2F2F2;}
	.st6{fill:#8E32FF;}
	.st7{fill:#471980;}
	.st8{opacity:0.5;fill:#BDCCD4;enable-background:new    ;}
	.st9{opacity:0.5;fill:#6B26BF;enable-background:new    ;}
	.st10{opacity:0.5;}
	.st11{fill:#BB84FF;}
	.st12{opacity:0.5;fill:#8E32FF;enable-background:new    ;}
</style>
<g>
	<g id="Группа_220">
		
			<radialGradient id="Прямоугольник_скругл._углы_5_1_" cx="395.95" cy="482.8" r="280.0419" gradientTransform="matrix(1 0 0 -1 0 1224)" gradientUnits="userSpaceOnUse">
			<stop  offset="1" style="stop-color:#8E32FF"/>
			<stop  offset="1" style="stop-color:#BB84FF"/>
		</radialGradient>
		<path id="Прямоугольник_скругл._углы_5" class="st0" d="M8.4,732.8h775.1c4.7,0,8.4,3.7,8.4,8.4
			s-3.7,8.4-8.4,8.4H8.4c-4.7,0-8.4-3.7-8.4-8.4S3.7,732.8,8.4,732.8z"/>
	</g>
	<g>
		<g>
			<g>
				<g>
					<path class="st1" d="M224.5,408h333.1c13.8,0,25,11.2,25,25v216.5c0,13.8-11.2,25-25,25H224.5c-13.8,0-25-11.2-25-25V433
						C199.5,419.2,210.7,408,224.5,408z"/>
					
						<radialGradient id="SVGID_1_" cx="391.05" cy="539.9011" r="373.6517" gradientTransform="matrix(1 0 0 -1 0 1224)" gradientUnits="userSpaceOnUse">
						<stop  offset="0.4276" style="stop-color:#8E32FF"/>
						<stop  offset="1" style="stop-color:#BB84FF"/>
					</radialGradient>
					<path class="st2" d="M224.5,408h333.1c13.8,0,25,11.2,25,25v216.5c0,13.8-11.2,25-25,25H224.5c-13.8,0-25-11.2-25-25V433
						C199.5,419.2,210.7,408,224.5,408z"/>
					<linearGradient id="SVGID_2_" gradientUnits="userSpaceOnUse" x1="389.6324" y1="655.4708" x2="391.6324" y2="767.4708">
						<stop  offset="0.2064" style="stop-color:#8E32FF"/>
						<stop  offset="0.8449" style="stop-color:#BB84FF"/>
					</linearGradient>
					<path class="st3" d="M438.2,716.1l-13.9-41.6h-66.6l-13.9,41.6h-20.9c-3.8,0-6.9,3.1-6.9,6.9v9.8h149.9v-7
						c0-5.3-4.3-9.7-9.7-9.7H438.2z"/>
					<path class="st4" d="M232,433h1.5c4.2,0,7.6,3.4,7.6,7.6v1.5c0,4.2-3.4,7.6-7.6,7.6H232c-4.2,0-7.6-3.4-7.6-7.6v-1.5
						C224.5,436.4,227.8,433,232,433z"/>
					<path class="st4" d="M265.3,433h1.5c4.2,0,7.6,3.4,7.6,7.6v1.5c0,4.2-3.4,7.6-7.6,7.6h-1.5c-4.2,0-7.6-3.4-7.6-7.6v-1.5
						C257.8,436.4,261.1,433,265.3,433z"/>
					<path class="st4" d="M298.6,433h1.5c4.2,0,7.6,3.4,7.6,7.6v1.5c0,4.2-3.4,7.6-7.6,7.6h-1.5c-4.2,0-7.6-3.4-7.6-7.6v-1.5
						C291.1,436.4,294.5,433,298.6,433z"/>
				</g>
			</g>
			<g>
				<g>
					<path class="st5" d="M277.2,495c0-0.5-0.2-1.1-0.5-1.6c-0.1-0.1-0.1-0.2-0.2-0.3l-0.4-0.5l-1.5-2c-0.1-0.1-0.2-0.2-0.2-0.3
						c-0.2-0.2-0.3-0.3-0.5-0.4l0,0c-0.5-0.4-1.2-0.6-1.9-0.6l0,0c-0.7,0-1.4,0.2-2,0.7c-0.2,0.2-0.4,0.4-0.6,0.6l0,0l0,0l-1.3,1.8
						l0,0l-1.8,2.4c0,0,0,0,0,0.1s-0.1,0.2-0.1,0.2c0,0.2,0,0.5,0.1,0.7l1,1.3l0.6,0.8v0.1l1.4,1.9c0.2,0.2,0.4,0.3,0.6,0.3
						c0,0,0,0,0.1,0c0.2,0,0.5-0.1,0.6-0.3l1.4-2l0,0l0.6-0.8l1-1.3c0.1-0.2,0.2-0.4,0.1-0.7c0-0.1-0.1-0.2-0.1-0.3l-0.2-0.2
						l-0.9-1.3c-0.2-0.3-0.6-0.4-0.9-0.3c-0.1,0-0.1,0.1-0.2,0.1l0,0l0,0l-0.1,0.1l0,0l-0.3,0.4c0,0.1-0.1,0.1-0.1,0.2v0.1l0.6,0.9
						l0,0l0.1,0.2c0,0,0,0,0,0.1c0,0,0,0,0,0.1s0,0.3-0.1,0.4l-0.7,1l0,0l-0.1,0.2l-0.8,1.1l-0.1,0.1c-0.1,0-0.2,0-0.2-0.1l-0.8-1.1
						l-0.1-0.1l0,0l-0.8-1.1v-0.1c0-0.1,0-0.2,0-0.2l0,0l1-1.3l0,0l1-1.3l0.6-0.9l0,0c0.5-0.7,1.5-0.8,2.2-0.4l0,0
						c0.2,0.1,0.3,0.2,0.4,0.4l1.6,2.1l0.3,0.4c0.2,0.3,0.3,0.6,0.4,0.9c0,0.4-0.1,0.9-0.4,1.3l-1,1.4l-1.1,1.5l0,0l-1.7,2.3
						c-0.3,0.5-0.8,0.7-1.3,0.7s-1.1-0.2-1.5-0.7l-1.7-2.3v-0.1l-1.2-1.6l-0.8-1.1c-0.3-0.4-0.5-1-0.4-1.5c0-0.3,0.1-0.7,0.3-1
						l0.1-0.1l2.2-3l0,0l1-1.4l0,0l2-2.7l0.7-0.9l0,0l0,0c0.2-0.3,0.2-0.8-0.2-1.1l0,0l0,0l0,0l-0.4-0.3h-0.1c-0.1,0-0.3,0-0.3,0.1
						l-0.3,0.4l0,0v0.1l0,0l-2.3,3.1l0,0l-1,1.4l0,0l-2.5,3.3c0,0,0,0,0,0.1v0.1c-0.4,0.6-0.6,1.3-0.6,2c0,0.8,0.2,1.7,0.7,2.4
						l0.8,1.1l1.5,2.1l0.1,0.1l1.4,1.9c0.6,0.9,1.6,1.4,2.7,1.4l0,0c1.1,0,2-0.5,2.7-1.4l1.4-1.9l0,0l1.5-2l1-1.3
						C277,496.5,277.2,495.7,277.2,495z"/>
				</g>
			</g>
			<g>
				<g>
					<path class="st6" d="M280,510.3h-18.2c-4,0-7.3-3.3-7.3-7.3v-18.2c0-4,3.3-7.3,7.3-7.3H280c4,0,7.3,3.3,7.3,7.3V503
						C287.3,507.1,284,510.3,280,510.3z"/>
					<path class="st7" d="M280,629.1h-18.2c-4,0-7.3-3.3-7.3-7.3V521.7c0-4,3.3-7.3,7.3-7.3H280c4,0,7.3,3.3,7.3,7.3v100.1
						C287.3,625.8,284,629.1,280,629.1z"/>
					<path class="st7" d="M443.8,629.1H309.6c-4,0-7.3-3.3-7.3-7.3V484.9c0-4,3.3-7.3,7.3-7.3h134.2c4,0,7.3,3.3,7.3,7.3v136.9
						C451,625.8,447.8,629.1,443.8,629.1z"/>
					<path class="st7" d="M524.3,629.1h-59.1c-4,0-7.3-3.3-7.3-7.3v-96c0-4,3.3-7.3,7.3-7.3h59.1c4,0,7.3,3.3,7.3,7.3v96
						C531.5,625.8,528.3,629.1,524.3,629.1z"/>
					<path class="st7" d="M524.3,507.6h-59.1c-4,0-7.3-3.3-7.3-7.3v-15.5c0-4,3.3-7.3,7.3-7.3h59.1c4,0,7.3,3.3,7.3,7.3v15.5
						C531.5,504.3,528.3,507.6,524.3,507.6z"/>
					<path class="st8" d="M273.7,541.1h-5.6c-2.2,0-4-1.8-4-4v-5.6c0-2.2,1.8-4,4-4h5.6c2.2,0,4,1.8,4,4v5.6
						C277.7,539.3,275.9,541.1,273.7,541.1z"/>
					<path class="st9" d="M273.7,565.4h-5.6c-2.2,0-4-1.8-4-4v-5.6c0-2.2,1.8-4,4-4h5.6c2.2,0,4,1.8,4,4v5.6
						C277.7,563.6,275.9,565.4,273.7,565.4z"/>
					<path class="st9" d="M273.7,589.7h-5.6c-2.2,0-4-1.8-4-4v-5.6c0-2.2,1.8-4,4-4h5.6c2.2,0,4,1.8,4,4v5.6
						C277.7,587.9,275.9,589.7,273.7,589.7z"/>
					<path class="st9" d="M273.7,614h-5.6c-2.2,0-4-1.8-4-4v-5.6c0-2.2,1.8-4,4-4h5.6c2.2,0,4,1.8,4,4v5.6
						C277.7,612.2,275.9,614,273.7,614z"/>
					<g class="st10">
						<g>
							<path class="st11" d="M342.1,493.9h-26.7c-0.4,0-0.8-0.3-0.8-0.8V492c0-0.4,0.3-0.8,0.8-0.8h26.7c0.4,0,0.8,0.3,0.8,0.8v1.1
								C342.9,493.5,342.6,493.9,342.1,493.9z"/>
							<path class="st11" d="M364.1,493.9H350c-0.4,0-0.8-0.3-0.8-0.8V492c0-0.4,0.3-0.8,0.8-0.8h14.2c0.4,0,0.8,0.3,0.8,0.8v1.1
								C364.9,493.5,364.5,493.9,364.1,493.9z"/>
							<path class="st11" d="M422.2,493.9h-50.3c-0.4,0-0.8-0.3-0.8-0.8V492c0-0.4,0.3-0.8,0.8-0.8h50.3c0.4,0,0.8,0.3,0.8,0.8v1.1
								C423,493.5,422.7,493.9,422.2,493.9z"/>
							<path class="st11" d="M437.9,493.9h-9.4c-0.4,0-0.8-0.3-0.8-0.8V492c0-0.4,0.3-0.8,0.8-0.8h9.4c0.4,0,0.8,0.3,0.8,0.8v1.1
								C438.7,493.5,438.4,493.9,437.9,493.9z"/>
						</g>
						<g>
							<path class="st11" d="M342.1,510.9h-26.7c-0.4,0-0.8-0.3-0.8-0.8V509c0-0.4,0.3-0.8,0.8-0.8h26.7c0.4,0,0.8,0.3,0.8,0.8v1.1
								C342.9,510.6,342.6,510.9,342.1,510.9z"/>
							<path class="st11" d="M364.1,510.9H350c-0.4,0-0.8-0.3-0.8-0.8V509c0-0.4,0.3-0.8,0.8-0.8h14.2c0.4,0,0.8,0.3,0.8,0.8v1.1
								C364.9,510.6,364.5,510.9,364.1,510.9z"/>
							<path class="st11" d="M422.2,510.9h-50.3c-0.4,0-0.8-0.3-0.8-0.8V509c0-0.4,0.3-0.8,0.8-0.8h50.3c0.4,0,0.8,0.3,0.8,0.8v1.1
								C423,510.6,422.7,510.9,422.2,510.9z"/>
							<path class="st11" d="M437.9,510.9h-9.4c-0.4,0-0.8-0.3-0.8-0.8V509c0-0.4,0.3-0.8,0.8-0.8h9.4c0.4,0,0.8,0.3,0.8,0.8v1.1
								C438.7,510.6,438.4,510.9,437.9,510.9z"/>
						</g>
						<g>
							<path class="st11" d="M342.1,528h-26.7c-0.4,0-0.8-0.3-0.8-0.8v-1.1c0-0.4,0.3-0.8,0.8-0.8h26.7c0.4,0,0.8,0.3,0.8,0.8v1.1
								C342.9,527.6,342.6,528,342.1,528z"/>
							<path class="st11" d="M364.1,528H350c-0.4,0-0.8-0.3-0.8-0.8v-1.1c0-0.4,0.3-0.8,0.8-0.8h14.2c0.4,0,0.8,0.3,0.8,0.8v1.1
								C364.9,527.6,364.5,528,364.1,528z"/>
							<path class="st11" d="M422.2,528h-50.3c-0.4,0-0.8-0.3-0.8-0.8v-1.1c0-0.4,0.3-0.8,0.8-0.8h50.3c0.4,0,0.8,0.3,0.8,0.8v1.1
								C423,527.6,422.7,528,422.2,528z"/>
							<path class="st11" d="M437.9,528h-9.4c-0.4,0-0.8-0.3-0.8-0.8v-1.1c0-0.4,0.3-0.8,0.8-0.8h9.4c0.4,0,0.8,0.3,0.8,0.8v1.1
								C438.7,527.6,438.4,528,437.9,528z"/>
						</g>
						<g>
							<path class="st11" d="M342.1,545h-26.7c-0.4,0-0.8-0.3-0.8-0.8v-1.1c0-0.4,0.3-0.8,0.8-0.8h26.7c0.4,0,0.8,0.3,0.8,0.8v1.1
								C342.9,544.7,342.6,545,342.1,545z"/>
							<path class="st11" d="M364.1,545H350c-0.4,0-0.8-0.3-0.8-0.8v-1.1c0-0.4,0.3-0.8,0.8-0.8h14.2c0.4,0,0.8,0.3,0.8,0.8v1.1
								C364.9,544.7,364.5,545,364.1,545z"/>
							<path class="st11" d="M422.2,545h-50.3c-0.4,0-0.8-0.3-0.8-0.8v-1.1c0-0.4,0.3-0.8,0.8-0.8h50.3c0.4,0,0.8,0.3,0.8,0.8v1.1
								C423,544.7,422.7,545,422.2,545z"/>
							<path class="st11" d="M437.9,545h-9.4c-0.4,0-0.8-0.3-0.8-0.8v-1.1c0-0.4,0.3-0.8,0.8-0.8h9.4c0.4,0,0.8,0.3,0.8,0.8v1.1
								C438.7,544.7,438.4,545,437.9,545z"/>
						</g>
						<g>
							<path class="st11" d="M342.1,562.1h-26.7c-0.4,0-0.8-0.3-0.8-0.8v-1.1c0-0.4,0.3-0.8,0.8-0.8h26.7c0.4,0,0.8,0.3,0.8,0.8v1.1
								C342.9,561.7,342.6,562.1,342.1,562.1z"/>
							<path class="st11" d="M364.1,562.1H350c-0.4,0-0.8-0.3-0.8-0.8v-1.1c0-0.4,0.3-0.8,0.8-0.8h14.2c0.4,0,0.8,0.3,0.8,0.8v1.1
								C364.9,561.7,364.5,562.1,364.1,562.1z"/>
							<path class="st11" d="M422.2,562.1h-50.3c-0.4,0-0.8-0.3-0.8-0.8v-1.1c0-0.4,0.3-0.8,0.8-0.8h50.3c0.4,0,0.8,0.3,0.8,0.8v1.1
								C423,561.7,422.7,562.1,422.2,562.1z"/>
							<path class="st11" d="M437.9,562.1h-9.4c-0.4,0-0.8-0.3-0.8-0.8v-1.1c0-0.4,0.3-0.8,0.8-0.8h9.4c0.4,0,0.8,0.3,0.8,0.8v1.1
								C438.7,561.7,438.4,562.1,437.9,562.1z"/>
						</g>
						<g>
							<path class="st11" d="M342.1,579.1h-26.7c-0.4,0-0.8-0.3-0.8-0.8v-1.1c0-0.4,0.3-0.8,0.8-0.8h26.7c0.4,0,0.8,0.3,0.8,0.8v1.1
								C342.9,578.8,342.6,579.1,342.1,579.1z"/>
							<path class="st11" d="M364.1,579.1H350c-0.4,0-0.8-0.3-0.8-0.8v-1.1c0-0.4,0.3-0.8,0.8-0.8h14.2c0.4,0,0.8,0.3,0.8,0.8v1.1
								C364.9,578.8,364.5,579.1,364.1,579.1z"/>
							<path class="st11" d="M422.2,579.1h-50.3c-0.4,0-0.8-0.3-0.8-0.8v-1.1c0-0.4,0.3-0.8,0.8-0.8h50.3c0.4,0,0.8,0.3,0.8,0.8v1.1
								C423,578.8,422.7,579.1,422.2,579.1z"/>
							<path class="st11" d="M437.9,579.1h-9.4c-0.4,0-0.8-0.3-0.8-0.8v-1.1c0-0.4,0.3-0.8,0.8-0.8h9.4c0.4,0,0.8,0.3,0.8,0.8v1.1
								C438.7,578.8,438.4,579.1,437.9,579.1z"/>
						</g>
						<g>
							<path class="st11" d="M342.1,596.2h-26.7c-0.4,0-0.8-0.3-0.8-0.8v-1.1c0-0.4,0.3-0.8,0.8-0.8h26.7c0.4,0,0.8,0.3,0.8,0.8v1.1
								C342.9,595.8,342.6,596.2,342.1,596.2z"/>
							<path class="st11" d="M364.1,596.2H350c-0.4,0-0.8-0.3-0.8-0.8v-1.1c0-0.4,0.3-0.8,0.8-0.8h14.2c0.4,0,0.8,0.3,0.8,0.8v1.1
								C364.9,595.8,364.5,596.2,364.1,596.2z"/>
							<path class="st11" d="M422.2,596.2h-50.3c-0.4,0-0.8-0.3-0.8-0.8v-1.1c0-0.4,0.3-0.8,0.8-0.8h50.3c0.4,0,0.8,0.3,0.8,0.8v1.1
								C423,595.8,422.7,596.2,422.2,596.2z"/>
							<path class="st11" d="M437.9,596.2h-9.4c-0.4,0-0.8-0.3-0.8-0.8v-1.1c0-0.4,0.3-0.8,0.8-0.8h9.4c0.4,0,0.8,0.3,0.8,0.8v1.1
								C438.7,595.8,438.4,596.2,437.9,596.2z"/>
						</g>
						<g>
							<path class="st11" d="M342.1,613.2h-26.7c-0.4,0-0.8-0.3-0.8-0.8v-1.1c0-0.4,0.3-0.8,0.8-0.8h26.7c0.4,0,0.8,0.3,0.8,0.8v1.1
								C342.9,612.9,342.6,613.2,342.1,613.2z"/>
							<path class="st11" d="M364.1,613.2H350c-0.4,0-0.8-0.3-0.8-0.8v-1.1c0-0.4,0.3-0.8,0.8-0.8h14.2c0.4,0,0.8,0.3,0.8,0.8v1.1
								C364.9,612.9,364.5,613.2,364.1,613.2z"/>
							<path class="st11" d="M422.2,613.2h-50.3c-0.4,0-0.8-0.3-0.8-0.8v-1.1c0-0.4,0.3-0.8,0.8-0.8h50.3c0.4,0,0.8,0.3,0.8,0.8v1.1
								C423,612.9,422.7,613.2,422.2,613.2z"/>
							<path class="st11" d="M437.9,613.2h-9.4c-0.4,0-0.8-0.3-0.8-0.8v-1.1c0-0.4,0.3-0.8,0.8-0.8h9.4c0.4,0,0.8,0.3,0.8,0.8v1.1
								C438.7,612.9,438.4,613.2,437.9,613.2z"/>
						</g>
					</g>
					<g class="st10">
						<circle class="st11" cx="475.6" cy="538.1" r="7.3"/>
						<circle class="st11" cx="475.6" cy="560.1" r="7.3"/>
						<circle class="st11" cx="475.6" cy="582" r="7.3"/>
						<circle class="st11" cx="475.6" cy="604" r="7.3"/>
						<path class="st11" d="M519.8,536.3h-32.5c-0.4,0-0.8-0.4-0.8-0.8v-1.1c0-0.4,0.4-0.8,0.8-0.8h32.5c0.4,0,0.8,0.4,0.8,0.8v1.1
							C520.6,535.9,520.3,536.3,519.8,536.3z"/>
						<path class="st11" d="M519.8,579.9h-32.5c-0.4,0-0.8-0.4-0.8-0.8V578c0-0.4,0.4-0.8,0.8-0.8h32.5c0.4,0,0.8,0.4,0.8,0.8v1.1
							C520.6,579.6,520.3,579.9,519.8,579.9z"/>
						<path class="st11" d="M519.8,601.8h-32.5c-0.4,0-0.8-0.4-0.8-0.8v-1.1c0-0.4,0.4-0.8,0.8-0.8h32.5c0.4,0,0.8,0.4,0.8,0.8v1.1
							C520.6,601.4,520.3,601.8,519.8,601.8z"/>
						<path class="st11" d="M519.8,558.1h-32.5c-0.4,0-0.8-0.4-0.8-0.8v-1.1c0-0.4,0.4-0.8,0.8-0.8h32.5c0.4,0,0.8,0.4,0.8,0.8v1.1
							C520.6,557.7,520.3,558.1,519.8,558.1z"/>
						<path class="st11" d="M499.4,543.1h-12c-0.4,0-0.8-0.4-0.8-0.8v-1.1c0-0.4,0.4-0.8,0.8-0.8h12c0.4,0,0.8,0.4,0.8,0.8v1.1
							C500.2,542.7,499.8,543.1,499.4,543.1z"/>
						<path class="st11" d="M499.4,586.8h-12c-0.4,0-0.8-0.4-0.8-0.8v-1.1c0-0.4,0.4-0.8,0.8-0.8h12c0.4,0,0.8,0.4,0.8,0.8v1.1
							C500.2,586.4,499.8,586.8,499.4,586.8z"/>
						<path class="st11" d="M499.4,608.6h-12c-0.4,0-0.8-0.4-0.8-0.8v-1.1c0-0.4,0.4-0.8,0.8-0.8h12c0.4,0,0.8,0.4,0.8,0.8v1.1
							C500.2,608.2,499.8,608.6,499.4,608.6z"/>
						<path class="st11" d="M499.4,564.9h-12c-0.4,0-0.8-0.4-0.8-0.8V563c0-0.4,0.4-0.8,0.8-0.8h12c0.4,0,0.8,0.4,0.8,0.8v1.1
							C500.2,564.6,499.8,564.9,499.4,564.9z"/>
					</g>
				</g>
				<g>
					<path class="st6" d="M280,510.3h-18.2c-4,0-7.3-3.3-7.3-7.3v-18.2c0-4,3.3-7.3,7.3-7.3H280c4,0,7.3,3.3,7.3,7.3V503
						C287.3,507.1,284,510.3,280,510.3z"/>
					<path class="st7" d="M280,629.1h-18.2c-4,0-7.3-3.3-7.3-7.3V521.7c0-4,3.3-7.3,7.3-7.3H280c4,0,7.3,3.3,7.3,7.3v100.1
						C287.3,625.8,284,629.1,280,629.1z"/>
					<path class="st7" d="M443.8,629.1H309.6c-4,0-7.3-3.3-7.3-7.3V484.9c0-4,3.3-7.3,7.3-7.3h134.2c4,0,7.3,3.3,7.3,7.3v136.9
						C451,625.8,447.8,629.1,443.8,629.1z"/>
					<path class="st7" d="M524.3,629.1h-59.1c-4,0-7.3-3.3-7.3-7.3v-96c0-4,3.3-7.3,7.3-7.3h59.1c4,0,7.3,3.3,7.3,7.3v96
						C531.5,625.8,528.3,629.1,524.3,629.1z"/>
					<path class="st7" d="M524.3,507.6h-59.1c-4,0-7.3-3.3-7.3-7.3v-15.5c0-4,3.3-7.3,7.3-7.3h59.1c4,0,7.3,3.3,7.3,7.3v15.5
						C531.5,504.3,528.3,507.6,524.3,507.6z"/>
					<path class="st12" d="M273.7,541.1h-5.6c-2.2,0-4-1.8-4-4v-5.6c0-2.2,1.8-4,4-4h5.6c2.2,0,4,1.8,4,4v5.6
						C277.7,539.3,275.9,541.1,273.7,541.1z"/>
					<path class="st9" d="M273.7,565.4h-5.6c-2.2,0-4-1.8-4-4v-5.6c0-2.2,1.8-4,4-4h5.6c2.2,0,4,1.8,4,4v5.6
						C277.7,563.6,275.9,565.4,273.7,565.4z"/>
					<path class="st9" d="M273.7,589.7h-5.6c-2.2,0-4-1.8-4-4v-5.6c0-2.2,1.8-4,4-4h5.6c2.2,0,4,1.8,4,4v5.6
						C277.7,587.9,275.9,589.7,273.7,589.7z"/>
					<path class="st9" d="M273.7,614h-5.6c-2.2,0-4-1.8-4-4v-5.6c0-2.2,1.8-4,4-4h5.6c2.2,0,4,1.8,4,4v5.6
						C277.7,612.2,275.9,614,273.7,614z"/>
					<g class="st10">
						<g>
							<path class="st6" d="M342.1,493.9h-26.7c-0.4,0-0.8-0.3-0.8-0.8V492c0-0.4,0.3-0.8,0.8-0.8h26.7c0.4,0,0.8,0.3,0.8,0.8v1.1
								C342.9,493.5,342.6,493.9,342.1,493.9z"/>
							<path class="st6" d="M364.1,493.9H350c-0.4,0-0.8-0.3-0.8-0.8V492c0-0.4,0.3-0.8,0.8-0.8h14.2c0.4,0,0.8,0.3,0.8,0.8v1.1
								C364.9,493.5,364.5,493.9,364.1,493.9z"/>
							<path class="st6" d="M422.2,493.9h-50.3c-0.4,0-0.8-0.3-0.8-0.8V492c0-0.4,0.3-0.8,0.8-0.8h50.3c0.4,0,0.8,0.3,0.8,0.8v1.1
								C423,493.5,422.7,493.9,422.2,493.9z"/>
							<path class="st6" d="M437.9,493.9h-9.4c-0.4,0-0.8-0.3-0.8-0.8V492c0-0.4,0.3-0.8,0.8-0.8h9.4c0.4,0,0.8,0.3,0.8,0.8v1.1
								C438.7,493.5,438.4,493.9,437.9,493.9z"/>
						</g>
						<g>
							<path class="st6" d="M342.1,510.9h-26.7c-0.4,0-0.8-0.3-0.8-0.8V509c0-0.4,0.3-0.8,0.8-0.8h26.7c0.4,0,0.8,0.3,0.8,0.8v1.1
								C342.9,510.6,342.6,510.9,342.1,510.9z"/>
							<path class="st6" d="M364.1,510.9H350c-0.4,0-0.8-0.3-0.8-0.8V509c0-0.4,0.3-0.8,0.8-0.8h14.2c0.4,0,0.8,0.3,0.8,0.8v1.1
								C364.9,510.6,364.5,510.9,364.1,510.9z"/>
							<path class="st6" d="M422.2,510.9h-50.3c-0.4,0-0.8-0.3-0.8-0.8V509c0-0.4,0.3-0.8,0.8-0.8h50.3c0.4,0,0.8,0.3,0.8,0.8v1.1
								C423,510.6,422.7,510.9,422.2,510.9z"/>
							<path class="st6" d="M437.9,510.9h-9.4c-0.4,0-0.8-0.3-0.8-0.8V509c0-0.4,0.3-0.8,0.8-0.8h9.4c0.4,0,0.8,0.3,0.8,0.8v1.1
								C438.7,510.6,438.4,510.9,437.9,510.9z"/>
						</g>
						<g>
							<path class="st6" d="M342.1,528h-26.7c-0.4,0-0.8-0.3-0.8-0.8v-1.1c0-0.4,0.3-0.8,0.8-0.8h26.7c0.4,0,0.8,0.3,0.8,0.8v1.1
								C342.9,527.6,342.6,528,342.1,528z"/>
							<path class="st6" d="M364.1,528H350c-0.4,0-0.8-0.3-0.8-0.8v-1.1c0-0.4,0.3-0.8,0.8-0.8h14.2c0.4,0,0.8,0.3,0.8,0.8v1.1
								C364.9,527.6,364.5,528,364.1,528z"/>
							<path class="st6" d="M422.2,528h-50.3c-0.4,0-0.8-0.3-0.8-0.8v-1.1c0-0.4,0.3-0.8,0.8-0.8h50.3c0.4,0,0.8,0.3,0.8,0.8v1.1
								C423,527.6,422.7,528,422.2,528z"/>
							<path class="st6" d="M437.9,528h-9.4c-0.4,0-0.8-0.3-0.8-0.8v-1.1c0-0.4,0.3-0.8,0.8-0.8h9.4c0.4,0,0.8,0.3,0.8,0.8v1.1
								C438.7,527.6,438.4,528,437.9,528z"/>
						</g>
						<g>
							<path class="st6" d="M342.1,545h-26.7c-0.4,0-0.8-0.3-0.8-0.8v-1.1c0-0.4,0.3-0.8,0.8-0.8h26.7c0.4,0,0.8,0.3,0.8,0.8v1.1
								C342.9,544.7,342.6,545,342.1,545z"/>
							<path class="st6" d="M364.1,545H350c-0.4,0-0.8-0.3-0.8-0.8v-1.1c0-0.4,0.3-0.8,0.8-0.8h14.2c0.4,0,0.8,0.3,0.8,0.8v1.1
								C364.9,544.7,364.5,545,364.1,545z"/>
							<path class="st6" d="M422.2,545h-50.3c-0.4,0-0.8-0.3-0.8-0.8v-1.1c0-0.4,0.3-0.8,0.8-0.8h50.3c0.4,0,0.8,0.3,0.8,0.8v1.1
								C423,544.7,422.7,545,422.2,545z"/>
							<path class="st6" d="M437.9,545h-9.4c-0.4,0-0.8-0.3-0.8-0.8v-1.1c0-0.4,0.3-0.8,0.8-0.8h9.4c0.4,0,0.8,0.3,0.8,0.8v1.1
								C438.7,544.7,438.4,545,437.9,545z"/>
						</g>
						<g>
							<path class="st6" d="M342.1,562.1h-26.7c-0.4,0-0.8-0.3-0.8-0.8v-1.1c0-0.4,0.3-0.8,0.8-0.8h26.7c0.4,0,0.8,0.3,0.8,0.8v1.1
								C342.9,561.7,342.6,562.1,342.1,562.1z"/>
							<path class="st6" d="M364.1,562.1H350c-0.4,0-0.8-0.3-0.8-0.8v-1.1c0-0.4,0.3-0.8,0.8-0.8h14.2c0.4,0,0.8,0.3,0.8,0.8v1.1
								C364.9,561.7,364.5,562.1,364.1,562.1z"/>
							<path class="st6" d="M422.2,562.1h-50.3c-0.4,0-0.8-0.3-0.8-0.8v-1.1c0-0.4,0.3-0.8,0.8-0.8h50.3c0.4,0,0.8,0.3,0.8,0.8v1.1
								C423,561.7,422.7,562.1,422.2,562.1z"/>
							<path class="st6" d="M437.9,562.1h-9.4c-0.4,0-0.8-0.3-0.8-0.8v-1.1c0-0.4,0.3-0.8,0.8-0.8h9.4c0.4,0,0.8,0.3,0.8,0.8v1.1
								C438.7,561.7,438.4,562.1,437.9,562.1z"/>
						</g>
						<g>
							<path class="st6" d="M342.1,579.1h-26.7c-0.4,0-0.8-0.3-0.8-0.8v-1.1c0-0.4,0.3-0.8,0.8-0.8h26.7c0.4,0,0.8,0.3,0.8,0.8v1.1
								C342.9,578.8,342.6,579.1,342.1,579.1z"/>
							<path class="st6" d="M364.1,579.1H350c-0.4,0-0.8-0.3-0.8-0.8v-1.1c0-0.4,0.3-0.8,0.8-0.8h14.2c0.4,0,0.8,0.3,0.8,0.8v1.1
								C364.9,578.8,364.5,579.1,364.1,579.1z"/>
							<path class="st6" d="M422.2,579.1h-50.3c-0.4,0-0.8-0.3-0.8-0.8v-1.1c0-0.4,0.3-0.8,0.8-0.8h50.3c0.4,0,0.8,0.3,0.8,0.8v1.1
								C423,578.8,422.7,579.1,422.2,579.1z"/>
							<path class="st6" d="M437.9,579.1h-9.4c-0.4,0-0.8-0.3-0.8-0.8v-1.1c0-0.4,0.3-0.8,0.8-0.8h9.4c0.4,0,0.8,0.3,0.8,0.8v1.1
								C438.7,578.8,438.4,579.1,437.9,579.1z"/>
						</g>
						<g>
							<path class="st6" d="M342.1,596.2h-26.7c-0.4,0-0.8-0.3-0.8-0.8v-1.1c0-0.4,0.3-0.8,0.8-0.8h26.7c0.4,0,0.8,0.3,0.8,0.8v1.1
								C342.9,595.8,342.6,596.2,342.1,596.2z"/>
							<path class="st6" d="M364.1,596.2H350c-0.4,0-0.8-0.3-0.8-0.8v-1.1c0-0.4,0.3-0.8,0.8-0.8h14.2c0.4,0,0.8,0.3,0.8,0.8v1.1
								C364.9,595.8,364.5,596.2,364.1,596.2z"/>
							<path class="st6" d="M422.2,596.2h-50.3c-0.4,0-0.8-0.3-0.8-0.8v-1.1c0-0.4,0.3-0.8,0.8-0.8h50.3c0.4,0,0.8,0.3,0.8,0.8v1.1
								C423,595.8,422.7,596.2,422.2,596.2z"/>
							<path class="st6" d="M437.9,596.2h-9.4c-0.4,0-0.8-0.3-0.8-0.8v-1.1c0-0.4,0.3-0.8,0.8-0.8h9.4c0.4,0,0.8,0.3,0.8,0.8v1.1
								C438.7,595.8,438.4,596.2,437.9,596.2z"/>
						</g>
						<g>
							<path class="st6" d="M342.1,613.2h-26.7c-0.4,0-0.8-0.3-0.8-0.8v-1.1c0-0.4,0.3-0.8,0.8-0.8h26.7c0.4,0,0.8,0.3,0.8,0.8v1.1
								C342.9,612.9,342.6,613.2,342.1,613.2z"/>
							<path class="st6" d="M364.1,613.2H350c-0.4,0-0.8-0.3-0.8-0.8v-1.1c0-0.4,0.3-0.8,0.8-0.8h14.2c0.4,0,0.8,0.3,0.8,0.8v1.1
								C364.9,612.9,364.5,613.2,364.1,613.2z"/>
							<path class="st6" d="M422.2,613.2h-50.3c-0.4,0-0.8-0.3-0.8-0.8v-1.1c0-0.4,0.3-0.8,0.8-0.8h50.3c0.4,0,0.8,0.3,0.8,0.8v1.1
								C423,612.9,422.7,613.2,422.2,613.2z"/>
							<path class="st6" d="M437.9,613.2h-9.4c-0.4,0-0.8-0.3-0.8-0.8v-1.1c0-0.4,0.3-0.8,0.8-0.8h9.4c0.4,0,0.8,0.3,0.8,0.8v1.1
								C438.7,612.9,438.4,613.2,437.9,613.2z"/>
						</g>
					</g>
					<g class="st10">
						<circle class="st6" cx="475.6" cy="538.1" r="7.3"/>
						<circle class="st6" cx="475.6" cy="560.1" r="7.3"/>
						<circle class="st6" cx="475.6" cy="582" r="7.3"/>
						<circle class="st6" cx="475.6" cy="604" r="7.3"/>
						<path class="st6" d="M519.8,536.3h-32.5c-0.4,0-0.8-0.4-0.8-0.8v-1.1c0-0.4,0.4-0.8,0.8-0.8h32.5c0.4,0,0.8,0.4,0.8,0.8v1.1
							C520.6,535.9,520.3,536.3,519.8,536.3z"/>
						<path class="st6" d="M519.8,579.9h-32.5c-0.4,0-0.8-0.4-0.8-0.8V578c0-0.4,0.4-0.8,0.8-0.8h32.5c0.4,0,0.8,0.4,0.8,0.8v1.1
							C520.6,579.6,520.3,579.9,519.8,579.9z"/>
						<path class="st6" d="M519.8,601.8h-32.5c-0.4,0-0.8-0.4-0.8-0.8v-1.1c0-0.4,0.4-0.8,0.8-0.8h32.5c0.4,0,0.8,0.4,0.8,0.8v1.1
							C520.6,601.4,520.3,601.8,519.8,601.8z"/>
						<path class="st6" d="M519.8,558.1h-32.5c-0.4,0-0.8-0.4-0.8-0.8v-1.1c0-0.4,0.4-0.8,0.8-0.8h32.5c0.4,0,0.8,0.4,0.8,0.8v1.1
							C520.6,557.7,520.3,558.1,519.8,558.1z"/>
						<path class="st6" d="M499.4,543.1h-12c-0.4,0-0.8-0.4-0.8-0.8v-1.1c0-0.4,0.4-0.8,0.8-0.8h12c0.4,0,0.8,0.4,0.8,0.8v1.1
							C500.2,542.7,499.8,543.1,499.4,543.1z"/>
						<path class="st6" d="M499.4,586.8h-12c-0.4,0-0.8-0.4-0.8-0.8v-1.1c0-0.4,0.4-0.8,0.8-0.8h12c0.4,0,0.8,0.4,0.8,0.8v1.1
							C500.2,586.4,499.8,586.8,499.4,586.8z"/>
						<path class="st6" d="M499.4,608.6h-12c-0.4,0-0.8-0.4-0.8-0.8v-1.1c0-0.4,0.4-0.8,0.8-0.8h12c0.4,0,0.8,0.4,0.8,0.8v1.1
							C500.2,608.2,499.8,608.6,499.4,608.6z"/>
						<path class="st6" d="M499.4,564.9h-12c-0.4,0-0.8-0.4-0.8-0.8V563c0-0.4,0.4-0.8,0.8-0.8h12c0.4,0,0.8,0.4,0.8,0.8v1.1
							C500.2,564.6,499.8,564.9,499.4,564.9z"/>
					</g>
				</g>
			</g>
		</g>
	</g>
</g>
</svg>
