<?xml version="1.0" encoding="utf-8"?>
<!-- Generator: Adobe Illustrator 22.0.0, SVG Export Plug-In . SVG Version: 6.00 Build 0)  -->
<svg version="1.1" id="images_1_" xmlns="http://www.w3.org/2000/svg" xmlns:xlink="http://www.w3.org/1999/xlink" x="0px" y="0px"
	 viewBox="0 0 371 384" style="enable-background:new 0 0 371 384;" xml:space="preserve">
<style type="text/css">
	.st0{fill:#8800FF;}
	.st1{fill:url(#SVGID_1_);}
	.st2{opacity:0.58;fill:#6B26BF;enable-background:new    ;}
	.st3{fill:url(#SVGID_2_);}
	.st4{fill:url(#SVGID_3_);}
	.st5{fill:#471980;}
	.st6{fill:#8E32FF;}
	.st7{fill:#F2F5F6;}
	.st8{fill:url(#SVGID_4_);}
	.st9{opacity:0.48;fill:#E8D6FF;enable-background:new    ;}
	.st10{opacity:0.44;fill:url(#SVGID_5_);enable-background:new    ;}
	.st11{clip-path:url(#SVGID_7_);}
	.st12{fill:url(#SVGID_8_);}
	.st13{opacity:0.44;fill:url(#SVGID_9_);enable-background:new    ;}
	.st14{fill:none;}
	.st15{opacity:0.74;fill:url(#SVGID_10_);enable-background:new    ;}
	.st16{opacity:0.44;fill:url(#SVGID_11_);enable-background:new    ;}
</style>
<g>
	<path class="st0" d="M338.1,137.2L251.4,31.6c-17.1-20.9-41.5-31.2-65.9-31.2s-48.8,10.4-65.9,31.2L32.9,137.2
		c-13.1,15.9-19.6,35.4-19.6,54.8c0,19.5,6.5,38.9,19.6,54.8l86.7,105.6c17.1,20.9,41.5,31.2,65.9,31.2s48.8-10.4,65.9-31.2
		l86.7-105.6c13.1-15.9,19.6-35.4,19.6-54.8C357.7,172.5,351.2,153.1,338.1,137.2z"/>
	<g>
		<g>
			<g>
				
					<linearGradient id="SVGID_1_" gradientUnits="userSpaceOnUse" x1="139.1571" y1="175.1144" x2="225.8928" y2="87.8208" gradientTransform="matrix(1 0 0 -1 0 386)">
					<stop  offset="0" style="stop-color:#BB84FF"/>
					<stop  offset="0.3254" style="stop-color:#8E32FF"/>
					<stop  offset="0.6236" style="stop-color:#8E32FF"/>
					<stop  offset="1" style="stop-color:#BB84FF"/>
				</linearGradient>
				<path class="st1" d="M237.3,220.9l-29.2-14.4c-5.8-2.8-14-4.3-22.2-4.3l0,0c-8.2,0-16.5,1.4-22.2,4.3l-29.2,14.4
					c-4.4,2.2-6.6,4.8-6.6,7.5v59.1c0,2.7,2.2,5.3,6.6,7.5l29.2,14.4c5.8,2.8,14,4.3,22.2,4.3l0,0c8.2,0,16.5-1.4,22.2-4.3
					l29.2-14.4c4.4-2.2,6.6-4.8,6.6-7.5v-59.1C243.9,225.7,241.7,223,237.3,220.9z"/>
				<path class="st2" d="M237.3,280l-29.2-14.4c-5.8-2.8-14-4.3-22.2-4.3l0,0c-8.2,0-16.5,1.4-22.2,4.3L134.4,280
					c-4.4,2.2-6.6,4.8-6.6,7.5s2.2,5.3,6.6,7.5l29.2,14.4c5.8,2.8,14,4.3,22.2,4.3l0,0c8.2,0,16.5-1.4,22.2-4.3l29.2-14.4
					c4.4-2.2,6.6-4.8,6.6-7.5S241.7,282.2,237.3,280z"/>
				
					<radialGradient id="SVGID_2_" cx="192" cy="-677.6353" r="39.0493" gradientTransform="matrix(1 0 0 -0.3507 0 50.2213)" gradientUnits="userSpaceOnUse">
					<stop  offset="0.2097" style="stop-color:#5A11B2"/>
					<stop  offset="0.8445" style="stop-color:#5A11B2;stop-opacity:0"/>
				</radialGradient>
				<ellipse class="st3" cx="192" cy="287.9" rx="42" ry="14.3"/>
			</g>
			<g>
				<g>
					<g>
						
							<linearGradient id="SVGID_3_" gradientUnits="userSpaceOnUse" x1="109.9112" y1="271.6628" x2="206.9666" y2="187.1886" gradientTransform="matrix(1 0 0 -1 0 386)">
							<stop  offset="0" style="stop-color:#BB84FF"/>
							<stop  offset="0.3254" style="stop-color:#8E32FF"/>
							<stop  offset="0.6236" style="stop-color:#8E32FF"/>
							<stop  offset="1" style="stop-color:#BB84FF"/>
						</linearGradient>
						<path class="st4" d="M176.2,279.8c0,4.2,3.4,7.6,7.6,7.6h9.2v-0.1c0.5,0.1,1,0.1,1.6,0.1h22.2c4.8,0,8.8-3.9,8.8-8.8
							c0-4.8-3.9-8.8-8.8-8.8h-22.2c-0.5,0-1,0.1-1.6,0.1v-14c0.5,0.1,1,0.1,1.6,0.1h12.6c4.8,0,8.8-3.9,8.8-8.8
							c0-4.9-3.9-8.8-8.8-8.8h-12.6c-0.5,0-1,0.1-1.6,0.1v-49.3c0.5-0.7,1.2-1.3,2.1-1.5c1-0.2,2-0.4,2.9-0.7
							c0.2-0.1,0.5-0.1,0.7-0.2c1.9-0.5,3.8-1.2,5.6-2c0.2-0.1,0.4-0.2,0.6-0.3c1.8-0.8,3.6-1.7,5.3-2.7c0.2-0.1,0.4-0.2,0.6-0.3
							c1.7-1,3.4-2.1,4.9-3.3c0.2-0.1,0.3-0.2,0.5-0.4c12.2-9.5,20.2-24.3,20.2-41c0-26.1-19.3-47.7-44.4-51.3v-6.3
							c0-4.2-3.4-7.7-7.7-7.7c-4.2,0-7.7,3.4-7.7,7.7v6.4c-3.1,0.5-6.2,1.3-9.1,2.3l0,0h-0.1c-2.5,0.9-4.9,1.9-7.2,3.2
							c0,0-0.1,0-0.1,0.1c-0.6,0.3-1.1,0.6-1.6,0.9c-0.1,0-0.1,0.1-0.2,0.1c-2.2,1.3-4.3,2.8-6.3,4.4c-0.1,0.1-0.2,0.1-0.3,0.2
							c-0.4,0.4-0.9,0.7-1.3,1.1c-0.1,0.1-0.2,0.2-0.3,0.3c-1.4,1.2-2.7,2.5-3.9,3.9l-0.1,0.1c-0.3,0.4-0.7,0.8-1,1.2
							c-0.2,0.2-0.3,0.4-0.5,0.5c-0.3,0.4-0.6,0.7-0.9,1.1c-0.2,0.2-0.3,0.4-0.5,0.6c-0.3,0.4-0.6,0.7-0.8,1.1
							c-0.2,0.2-0.3,0.4-0.4,0.6c-0.5,0.7-0.9,1.3-1.3,2c-0.2,0.3-0.4,0.6-0.5,0.8c-0.2,0.3-0.4,0.7-0.6,1c-0.2,0.3-0.4,0.6-0.5,1
							c-0.2,0.3-0.4,0.7-0.5,1c-0.2,0.4-0.4,0.7-0.5,1.1c-0.2,0.3-0.3,0.6-0.5,1c-0.2,0.5-0.4,1-0.6,1.4c-0.1,0.4-0.3,0.7-0.4,1.1
							c-0.2,0.5-0.4,1.1-0.6,1.6c-0.1,0.3-0.2,0.6-0.3,0.9c-0.2,0.4-0.3,0.9-0.4,1.3c-0.1,0.3-0.2,0.6-0.3,0.9
							c-0.1,0.5-0.3,0.9-0.4,1.4c-0.1,0.3-0.1,0.6-0.2,0.8c-0.2,0.7-0.3,1.4-0.5,2.1c0,0.1,0,0.2-0.1,0.3c-0.1,0.7-0.3,1.4-0.4,2.2
							c0,0.3-0.1,0.5-0.1,0.8c-0.1,0.5-0.1,1.1-0.2,1.6c0,0.3-0.1,0.6-0.1,0.9c0,0.5-0.1,1.1-0.1,1.6c0,0.3,0,0.5,0,0.8
							c0,0.8,0,1.6,0,2.4c0.3,24.7,17.9,45.3,41.3,50.2c0.9,0.2,1.6,0.7,2.1,1.5L176.2,279.8z"/>
						<g>
							<circle class="st5" cx="184.4" cy="136.2" r="37"/>
						</g>
						<circle class="st6" cx="184.4" cy="136.2" r="23.3"/>
					</g>
					<g>
						<path class="st7" d="M183,128.9l-4,4.8c-0.9,1.1-0.9,2.6,0,3.6l3.4,4.2c0.8,1,2.3,1,3.2,0l3.9-4.8c0.6-0.7,0.6-1.7,0-2.4
							l-1.3-1.6c-0.5-0.6-1.4-0.6-2,0l-0.1,0.1c-0.3,0.4-0.3,1,0,1.4l0.7,0.8c0.2,0.3,0.2,0.6,0,0.9l-2.5,3.1
							c-0.2,0.2-0.5,0.2-0.7,0l-2.5-3.1c-0.2-0.3-0.2-0.6,0-0.9l3.5-4.3c1.3-1.6,3.8-1.6,5.2,0l2.3,2.9c0.9,1.1,0.9,2.7,0,3.8
							l-5.3,6.5c-1.5,1.8-4.2,1.8-5.7,0l-4.5-5.5c-1.4-1.7-1.4-4.1,0-5.7l8.4-10.2c0.4-0.4,0.4-1.1,0-1.5l-0.2-0.3
							c-0.4-0.5-1.2-0.5-1.6,0l-8.5,10.4c-2.1,2.6-2.1,6.3,0,8.8l5,6.1c2.2,2.7,6.4,2.7,8.7,0l6.2-7.5c1.4-1.7,1.4-4.3,0-6l-3-3.7
							C189.3,126.2,185.2,126.2,183,128.9z"/>
					</g>
				</g>
				
					<radialGradient id="SVGID_4_" cx="193.5256" cy="109.7959" r="129.4958" gradientTransform="matrix(1 0 0 -1 0 386)" gradientUnits="userSpaceOnUse">
					<stop  offset="0.5061" style="stop-color:#5A11B2"/>
					<stop  offset="0.8445" style="stop-color:#5A11B2;stop-opacity:0"/>
				</radialGradient>
				<path class="st8" d="M216.8,269.9h-22.2c-0.5,0-1,0.1-1.6,0.1v-14c0.5,0.1,1,0.1,1.6,0.1h12.6c4.8,0,8.8-3.9,8.8-8.8
					c0-4.9-3.9-8.8-8.8-8.8h-12.6c-0.5,0-1,0.1-1.6,0.1v-49.3c0.5-0.7,1.2-1.3,2.1-1.5c1-0.2,2-0.4,2.9-0.7c0.2-0.1,0.5-0.1,0.7-0.2
					c1.9-0.5,3.8-1.2,5.6-2c0.2-0.1,0.4-0.2,0.6-0.3c1.8-0.8,3.6-1.7,5.3-2.7c0.2-0.1,0.4-0.2,0.6-0.3c1.7-1,3.4-2.1,4.9-3.3
					c0.2-0.1,0.3-0.2,0.5-0.4c12.2-9.5,20.2-24.3,20.2-41c0-26.1-19.3-47.7-44.4-51.3v-6.3c0-4.2-3.4-7.7-7.7-7.7
					c-4.2,0-7.7,3.4-7.7,7.7v6.4c-3.1,0.5-6.2,1.3-9.1,2.3l0,0h-0.1c-2.5,0.9-4.9,1.9-7.2,3.2c0,0-0.1,0-0.1,0.1
					c-0.6,0.3-1.1,0.6-1.6,0.9c-0.1,0-0.1,0.1-0.2,0.1c-2.2,1.3-4.3,2.8-6.3,4.4c-0.1,0.1-0.2,0.1-0.3,0.2c-0.4,0.4-0.9,0.7-1.3,1.1
					c-0.1,0.1-0.2,0.2-0.3,0.3c-1.4,1.2-2.7,2.5-3.9,3.9l-0.1,0.1c-0.3,0.4-0.7,0.8-1,1.2c-0.2,0.2-0.3,0.4-0.5,0.5
					c-0.3,0.4-0.6,0.7-0.9,1.1c-0.2,0.2-0.3,0.4-0.5,0.6c-0.3,0.4-0.6,0.7-0.8,1.1c-0.2,0.2-0.3,0.4-0.4,0.6c-0.5,0.7-0.9,1.3-1.3,2
					c-0.2,0.3-0.4,0.6-0.5,0.8c-0.2,0.3-0.4,0.7-0.6,1c-0.2,0.3-0.4,0.6-0.5,1c-0.2,0.3-0.4,0.7-0.5,1c-0.2,0.4-0.4,0.7-0.5,1.1
					c-0.2,0.3-0.3,0.6-0.5,1c-0.2,0.5-0.4,1-0.6,1.4c-0.1,0.4-0.3,0.7-0.4,1.1c-0.2,0.5-0.4,1.1-0.6,1.6c-0.1,0.3-0.2,0.6-0.3,0.9
					c-0.2,0.4-0.3,0.9-0.4,1.3c-0.1,0.3-0.2,0.6-0.3,0.9c-0.1,0.5-0.3,0.9-0.4,1.4c-0.1,0.3-0.1,0.6-0.2,0.8
					c-0.2,0.7-0.3,1.4-0.5,2.1c0,0.1,0,0.2-0.1,0.3c-0.1,0.7-0.3,1.4-0.4,2.2c0,0.3-0.1,0.5-0.1,0.8c-0.1,0.5-0.1,1.1-0.2,1.6
					c0,0.3-0.1,0.6-0.1,0.9c0,0.5-0.1,1.1-0.1,1.6c0,0.3,0,0.5,0,0.8c0,0.8,0,1.6,0,2.4c0.3,24.7,17.9,45.3,41.3,50.2
					c0.9,0.2,1.6,0.7,2.1,1.5v90.3c0,4.2,3.4,7.6,7.6,7.6h9.2v-0.1c0.5,0.1,1,0.1,1.6,0.1h22.2c4.8,0,8.8-3.9,8.8-8.8
					C225.6,273.8,221.7,269.9,216.8,269.9z"/>
			</g>
			<g>
				<path class="st9" d="M237.3,220.9l-29.2-14.4c-5.8-2.8-14-4.3-22.2-4.3l0,0c-8.2,0-16.5,1.4-22.2,4.3l-29.2,14.4
					c-4.4,2.2-6.6,4.8-6.6,7.5s2.2,5.3,6.6,7.5l29.2,14.4c5.8,2.8,14,4.3,22.2,4.3l0,0c8.2,0,16.5-1.4,22.2-4.3l29.2-14.4
					c4.4-2.2,6.6-4.8,6.6-7.5C243.9,225.7,241.7,223,237.3,220.9z"/>
				
					<linearGradient id="SVGID_5_" gradientUnits="userSpaceOnUse" x1="123.2683" y1="115.05" x2="249.1158" y2="115.05" gradientTransform="matrix(1 0 0 -1 0 386)">
					<stop  offset="0.2097" style="stop-color:#8E32FF"/>
					<stop  offset="0.3636" style="stop-color:#A55BFF"/>
					<stop  offset="0.4498" style="stop-color:#BB84FF"/>
					<stop  offset="0.5734" style="stop-color:#BB84FF"/>
					<stop  offset="0.7456" style="stop-color:#D2ADFF"/>
				</linearGradient>
				<path class="st10" d="M237.3,235.8l-29.2,14.4c-5.8,2.8-14,4.3-22.2,4.3l0,0c-8.2,0-16.5-1.4-22.2-4.3l-29.2-14.4
					c-4.4-2.2-6.6-4.8-6.6-7.5v59.1c0,2.7,2.2,5.3,6.6,7.5l29.2,14.4c5.8,2.8,14,4.3,22.2,4.3l0,0c8.2,0,16.5-1.4,22.2-4.3
					l29.2-14.4c4.4-2.2,6.6-4.8,6.6-7.5v-59.1C243.9,231,241.7,233.6,237.3,235.8z"/>
			</g>
			<g>
				<g>
					<defs>
						<path id="SVGID_6_" d="M242.3,225.9H127.8c-6.6,0-12-5.4-12-12V62.7c0-6.6,5.4-12,12-12h114.5c6.6,0,12,5.4,12,12v151.2
							C254.3,220.5,248.9,225.9,242.3,225.9z"/>
					</defs>
					<clipPath id="SVGID_7_">
						<use xlink:href="#SVGID_6_"  style="overflow:visible;"/>
					</clipPath>
					<g class="st11">
						<g>
							<g>
								
									<linearGradient id="SVGID_8_" gradientUnits="userSpaceOnUse" x1="109.9112" y1="271.6628" x2="206.9666" y2="187.1886" gradientTransform="matrix(1 0 0 -1 0 386)">
									<stop  offset="0" style="stop-color:#BB84FF"/>
									<stop  offset="0.3254" style="stop-color:#8E32FF"/>
									<stop  offset="0.6236" style="stop-color:#8E32FF"/>
									<stop  offset="1" style="stop-color:#BB84FF"/>
								</linearGradient>
								<path class="st12" d="M176.2,279.8c0,4.2,3.4,7.6,7.6,7.6h9.2v-0.1c0.5,0.1,1,0.1,1.6,0.1h22.2c4.8,0,8.8-3.9,8.8-8.8
									c0-4.8-3.9-8.8-8.8-8.8h-22.2c-0.5,0-1,0.1-1.6,0.1v-14c0.5,0.1,1,0.1,1.6,0.1h12.6c4.8,0,8.8-3.9,8.8-8.8
									c0-4.9-3.9-8.8-8.8-8.8h-12.6c-0.5,0-1,0.1-1.6,0.1v-49.3c0.5-0.7,1.2-1.3,2.1-1.5c1-0.2,2-0.4,2.9-0.7
									c0.2-0.1,0.5-0.1,0.7-0.2c1.9-0.5,3.8-1.2,5.6-2c0.2-0.1,0.4-0.2,0.6-0.3c1.8-0.8,3.6-1.7,5.3-2.7c0.2-0.1,0.4-0.2,0.6-0.3
									c1.7-1,3.4-2.1,4.9-3.3c0.2-0.1,0.3-0.2,0.5-0.4c12.2-9.5,20.2-24.3,20.2-41c0-26.1-19.3-47.7-44.4-51.3v-6.3
									c0-4.2-3.4-7.7-7.7-7.7c-4.2,0-7.7,3.4-7.7,7.7v6.4c-3.1,0.5-6.2,1.3-9.1,2.3l0,0h-0.1c-2.5,0.9-4.9,1.9-7.2,3.2
									c0,0-0.1,0-0.1,0.1c-0.6,0.3-1.1,0.6-1.6,0.9c-0.1,0-0.1,0.1-0.2,0.1c-2.2,1.3-4.3,2.8-6.3,4.4c-0.1,0.1-0.2,0.1-0.3,0.2
									c-0.4,0.4-0.9,0.7-1.3,1.1c-0.1,0.1-0.2,0.2-0.3,0.3c-1.4,1.2-2.7,2.5-3.9,3.9l-0.1,0.1c-0.3,0.4-0.7,0.8-1,1.2
									c-0.2,0.2-0.3,0.4-0.5,0.5c-0.3,0.4-0.6,0.7-0.9,1.1c-0.2,0.2-0.3,0.4-0.5,0.6c-0.3,0.4-0.6,0.7-0.8,1.1
									c-0.2,0.2-0.3,0.4-0.4,0.6c-0.5,0.7-0.9,1.3-1.3,2c-0.2,0.3-0.4,0.6-0.5,0.8c-0.2,0.3-0.4,0.7-0.6,1c-0.2,0.3-0.4,0.6-0.5,1
									c-0.2,0.3-0.4,0.7-0.5,1c-0.2,0.4-0.4,0.7-0.5,1.1c-0.2,0.3-0.3,0.6-0.5,1c-0.2,0.5-0.4,1-0.6,1.4c-0.1,0.4-0.3,0.7-0.4,1.1
									c-0.2,0.5-0.4,1.1-0.6,1.6c-0.1,0.3-0.2,0.6-0.3,0.9c-0.2,0.4-0.3,0.9-0.4,1.3c-0.1,0.3-0.2,0.6-0.3,0.9
									c-0.1,0.5-0.3,0.9-0.4,1.4c-0.1,0.3-0.1,0.6-0.2,0.8c-0.2,0.7-0.3,1.4-0.5,2.1c0,0.1,0,0.2-0.1,0.3
									c-0.1,0.7-0.3,1.4-0.4,2.2c0,0.3-0.1,0.5-0.1,0.8c-0.1,0.5-0.1,1.1-0.2,1.6c0,0.3-0.1,0.6-0.1,0.9c0,0.5-0.1,1.1-0.1,1.6
									c0,0.3,0,0.5,0,0.8c0,0.8,0,1.6,0,2.4c0.3,24.7,17.9,45.3,41.3,50.2c0.9,0.2,1.6,0.7,2.1,1.5L176.2,279.8z"/>
								
									<linearGradient id="SVGID_9_" gradientUnits="userSpaceOnUse" x1="148.3365" y1="214.8486" x2="252.4553" y2="190.6594" gradientTransform="matrix(1 0 0 -1 0 386)">
									<stop  offset="0.2097" style="stop-color:#8E32FF"/>
									<stop  offset="0.3636" style="stop-color:#A55BFF"/>
									<stop  offset="0.4498" style="stop-color:#BB84FF"/>
									<stop  offset="0.5734" style="stop-color:#BB84FF"/>
									<stop  offset="0.7456" style="stop-color:#D2ADFF"/>
								</linearGradient>
								<path class="st13" d="M176.2,279.8c0,4.2,3.4,7.6,7.6,7.6h9.2v-0.1c0.5,0.1,1,0.1,1.6,0.1h22.2c4.8,0,8.8-3.9,8.8-8.8
									c0-4.8-3.9-8.8-8.8-8.8h-22.2c-0.5,0-1,0.1-1.6,0.1v-14c0.5,0.1,1,0.1,1.6,0.1h12.6c4.8,0,8.8-3.9,8.8-8.8
									c0-4.9-3.9-8.8-8.8-8.8h-12.6c-0.5,0-1,0.1-1.6,0.1v-49.3c0.5-0.7,1.2-1.3,2.1-1.5c1-0.2,2-0.4,2.9-0.7
									c0.2-0.1,0.5-0.1,0.7-0.2c1.9-0.5,3.8-1.2,5.6-2c0.2-0.1,0.4-0.2,0.6-0.3c1.8-0.8,3.6-1.7,5.3-2.7c0.2-0.1,0.4-0.2,0.6-0.3
									c1.7-1,3.4-2.1,4.9-3.3c0.2-0.1,0.3-0.2,0.5-0.4c12.2-9.5,20.2-24.3,20.2-41c0-26.1-19.3-47.7-44.4-51.3v-6.3
									c0-4.2-3.4-7.7-7.7-7.7c-4.2,0-7.7,3.4-7.7,7.7v6.4c-3.1,0.5-6.2,1.3-9.1,2.3l0,0h-0.1c-2.5,0.9-4.9,1.9-7.2,3.2
									c0,0-0.1,0-0.1,0.1c-0.6,0.3-1.1,0.6-1.6,0.9c-0.1,0-0.1,0.1-0.2,0.1c-2.2,1.3-4.3,2.8-6.3,4.4c-0.1,0.1-0.2,0.1-0.3,0.2
									c-0.4,0.4-0.9,0.7-1.3,1.1c-0.1,0.1-0.2,0.2-0.3,0.3c-1.4,1.2-2.7,2.5-3.9,3.9l-0.1,0.1c-0.3,0.4-0.7,0.8-1,1.2
									c-0.2,0.2-0.3,0.4-0.5,0.5c-0.3,0.4-0.6,0.7-0.9,1.1c-0.2,0.2-0.3,0.4-0.5,0.6c-0.3,0.4-0.6,0.7-0.8,1.1
									c-0.2,0.2-0.3,0.4-0.4,0.6c-0.5,0.7-0.9,1.3-1.3,2c-0.2,0.3-0.4,0.6-0.5,0.8c-0.2,0.3-0.4,0.7-0.6,1c-0.2,0.3-0.4,0.6-0.5,1
									c-0.2,0.3-0.4,0.7-0.5,1c-0.2,0.4-0.4,0.7-0.5,1.1c-0.2,0.3-0.3,0.6-0.5,1c-0.2,0.5-0.4,1-0.6,1.4c-0.1,0.4-0.3,0.7-0.4,1.1
									c-0.2,0.5-0.4,1.1-0.6,1.6c-0.1,0.3-0.2,0.6-0.3,0.9c-0.2,0.4-0.3,0.9-0.4,1.3c-0.1,0.3-0.2,0.6-0.3,0.9
									c-0.1,0.5-0.3,0.9-0.4,1.4c-0.1,0.3-0.1,0.6-0.2,0.8c-0.2,0.7-0.3,1.4-0.5,2.1c0,0.1,0,0.2-0.1,0.3
									c-0.1,0.7-0.3,1.4-0.4,2.2c0,0.3-0.1,0.5-0.1,0.8c-0.1,0.5-0.1,1.1-0.2,1.6c0,0.3-0.1,0.6-0.1,0.9c0,0.5-0.1,1.1-0.1,1.6
									c0,0.3,0,0.5,0,0.8c0,0.8,0,1.6,0,2.4c0.3,24.7,17.9,45.3,41.3,50.2c0.9,0.2,1.6,0.7,2.1,1.5L176.2,279.8z"/>
								<circle class="st9" cx="184.4" cy="136.2" r="37"/>
								<circle class="st9" cx="184.4" cy="136.2" r="23.3"/>
							</g>
							<g>
								<path class="st6" d="M183,128.9l-4,4.8c-0.9,1.1-0.9,2.6,0,3.6l3.4,4.2c0.8,1,2.3,1,3.2,0l3.9-4.8c0.6-0.7,0.6-1.7,0-2.4
									l-1.3-1.6c-0.5-0.6-1.4-0.6-2,0l-0.1,0.1c-0.3,0.4-0.3,1,0,1.4l0.7,0.8c0.2,0.3,0.2,0.6,0,0.9l-2.5,3.1
									c-0.2,0.2-0.5,0.2-0.7,0l-2.5-3.1c-0.2-0.3-0.2-0.6,0-0.9l3.5-4.3c1.3-1.6,3.8-1.6,5.2,0l2.3,2.9c0.9,1.1,0.9,2.7,0,3.8
									l-5.3,6.5c-1.5,1.8-4.2,1.8-5.7,0l-4.5-5.5c-1.4-1.7-1.4-4.1,0-5.7l8.4-10.2c0.4-0.4,0.4-1.1,0-1.5l-0.2-0.3
									c-0.4-0.5-1.2-0.5-1.6,0l-8.5,10.4c-2.1,2.6-2.1,6.3,0,8.8l5,6.1c2.2,2.7,6.4,2.7,8.7,0l6.2-7.5c1.4-1.7,1.4-4.3,0-6l-3-3.7
									C189.3,126.2,185.2,126.2,183,128.9z"/>
							</g>
						</g>
						<line class="st14" x1="136" y1="188.1" x2="299" y2="188.1"/>
						<g>
							
								<radialGradient id="SVGID_10_" cx="193.6115" cy="109.9248" r="129.4958" gradientTransform="matrix(1 0 0 -1 0 386)" gradientUnits="userSpaceOnUse">
								<stop  offset="0.3522" style="stop-color:#5A11B2"/>
								<stop  offset="0.7035" style="stop-color:#5A11B2;stop-opacity:0"/>
							</radialGradient>
							<path class="st15" d="M216.9,269.8h-22.2c-0.5,0-1,0.1-1.6,0.1v-14c0.5,0.1,1,0.1,1.6,0.1h12.6c4.8,0,8.8-3.9,8.8-8.8
								c0-4.9-3.9-8.8-8.8-8.8h-12.6c-0.5,0-1,0.1-1.6,0.1v-49.3c0.5-0.7,1.2-1.3,2.1-1.5c1-0.2,2-0.4,2.9-0.7
								c0.2-0.1,0.5-0.1,0.7-0.2c1.9-0.5,3.8-1.2,5.6-2c0.2-0.1,0.4-0.2,0.6-0.3c1.8-0.8,3.6-1.7,5.3-2.7c0.2-0.1,0.4-0.2,0.6-0.3
								c1.2-0.7,2.4-1.5,3.6-2.4h-59.8c5.7,4.1,12.3,7,19.4,8.5c0.9,0.2,1.6,0.7,2.1,1.5v90.3c0,4.2,3.4,7.6,7.6,7.6h9.2v-0.1
								c0.5,0.1,1,0.1,1.6,0.1h22.2c4.8,0,8.8-3.9,8.8-8.8C225.7,273.7,221.8,269.8,216.9,269.8z"/>
						</g>
					</g>
				</g>
			</g>
			
				<radialGradient id="SVGID_11_" cx="186.7128" cy="158.0493" r="31.4961" gradientTransform="matrix(1 0 0 -1 0 386)" gradientUnits="userSpaceOnUse">
				<stop  offset="0.5061" style="stop-color:#5A11B2"/>
				<stop  offset="0.8445" style="stop-color:#5A11B2;stop-opacity:0"/>
			</radialGradient>
			<path class="st16" d="M195,228.3h-21c-1.4,0-2.5-1.1-2.5-2.5v-0.9c0-1.4,1.1-2.5,2.5-2.5h21c1.4,0,2.5,1.1,2.5,2.5v0.9
				C197.5,227.1,196.4,228.3,195,228.3z"/>
		</g>
	</g>
</g>
</svg>
