<?xml version="1.0" encoding="utf-8"?>
<!-- Generator: Adobe Illustrator 22.0.0, SVG Export Plug-In . SVG Version: 6.00 Build 0)  -->
<svg version="1.1" id="images_1_" xmlns="http://www.w3.org/2000/svg" xmlns:xlink="http://www.w3.org/1999/xlink" x="0px" y="0px"
	 viewBox="0 0 371 384" style="enable-background:new 0 0 371 384;" xml:space="preserve">
<style type="text/css">
	.st0{fill:#8800FF;}
	.st1{fill:url(#SVGID_1_);}
	.st2{opacity:0.44;fill:url(#SVGID_2_);}
	.st3{opacity:0.48;fill:#E8D6FF;}
	.st4{fill:#8E32FF;}
	.st5{fill:#471980;}
	.st6{fill:url(#SVGID_3_);}
	.st7{fill:#6B26BF;}
	.st8{fill:#A67DD9;}
	.st9{fill:#BB84FF;}
</style>
<g>
	<path class="st0" d="M338.5,137.1L251.6,31.3C234.4,10.4,210,0,185.5,0c-24.5,0-48.9,10.4-66.1,31.3L32.5,137.1
		C19.4,153,12.9,172.5,12.9,192c0,19.5,6.5,39,19.6,54.9l86.9,105.8c17.2,20.9,41.6,31.3,66.1,31.3c24.5,0,48.9-10.4,66.1-31.3
		l86.9-105.8c13.1-15.9,19.6-35.5,19.6-54.9C358.1,172.5,351.6,153,338.5,137.1z"/>
	<g>
		<g>
			<g>
				<g>
					<linearGradient id="SVGID_1_" gradientUnits="userSpaceOnUse" x1="88.35" y1="126.9342" x2="296.8529" y2="266.5782">
						<stop  offset="0" style="stop-color:#BB84FF"/>
						<stop  offset="0.3254" style="stop-color:#8E32FF"/>
						<stop  offset="0.6236" style="stop-color:#8E32FF"/>
						<stop  offset="1" style="stop-color:#BB84FF"/>
					</linearGradient>
					<path class="st1" d="M278.7,192c0,51.5-41.7,93.2-93.2,93.2S92.3,243.5,92.3,192s41.7-93.2,93.2-93.2S278.7,140.5,278.7,192z"
						/>
					<linearGradient id="SVGID_2_" gradientUnits="userSpaceOnUse" x1="159.6967" y1="164.7943" x2="291.9216" y2="304.2054">
						<stop  offset="0.2097" style="stop-color:#8E32FF"/>
						<stop  offset="0.3636" style="stop-color:#A55BFF"/>
						<stop  offset="0.4498" style="stop-color:#BB84FF"/>
						<stop  offset="0.5734" style="stop-color:#BB84FF"/>
						<stop  offset="0.7456" style="stop-color:#D2ADFF"/>
					</linearGradient>
					<path class="st2" d="M278.7,192c0,51.5-41.7,93.2-93.2,93.2S92.3,243.5,92.3,192s41.7-93.2,93.2-93.2S278.7,140.5,278.7,192z"
						/>
					<path class="st3" d="M256.1,192c0,39-31.6,70.6-70.6,70.6S114.9,231,114.9,192s31.6-70.6,70.6-70.6S256.1,153,256.1,192z"/>
					<path class="st3" d="M211.3,217.8c-14.2,14.2-37.3,14.2-51.6,0c-14.2-14.2-14.2-37.3,0-51.6s37.3-14.2,51.6,0
						C225.5,180.5,225.5,203.5,211.3,217.8z"/>
				</g>
				<g>
					<path class="st4" d="M183.4,183.3l-6.1,7.4c-1.3,1.6-1.3,4,0,5.6l5.2,6.4c1.3,1.5,3.6,1.5,4.9,0l6-7.4c0.9-1.1,0.9-2.6,0-3.7
						l-2-2.4c-0.8-0.9-2.2-0.9-3,0l-0.1,0.1c-0.5,0.6-0.5,1.5,0,2.2l1,1.3c0.3,0.4,0.3,1,0,1.4l-3.9,4.7c-0.3,0.3-0.8,0.3-1.1,0
						l-3.9-4.7c-0.3-0.4-0.3-1,0-1.4l5.4-6.6c2-2.5,5.9-2.5,7.9,0l3.6,4.4c1.4,1.7,1.4,4.2,0,5.9l-8.2,10c-2.3,2.8-6.5,2.8-8.7,0
						l-7-8.5c-2.1-2.6-2.1-6.2,0-8.8l12.9-15.7c0.5-0.7,0.5-1.6,0-2.3l-0.3-0.4c-0.6-0.8-1.8-0.8-2.4,0l-13.1,16
						c-3.2,3.9-3.2,9.6,0,13.6l7.7,9.4c3.4,4.2,9.9,4.2,13.3,0l9.5-11.6c2.2-2.7,2.2-6.5,0-9.2l-4.6-5.6
						C193.1,179.1,186.8,179.1,183.4,183.3z"/>
				</g>
			</g>
		</g>
		<g>
			<g>
				<path class="st5" d="M293.1,161.4c0-4.3-3.5-7.9-7.9-7.9h-16.8c-4.3,0-7.9,3.5-7.9,7.9v30.9h32.5V161.4z"/>
				<linearGradient id="SVGID_3_" gradientUnits="userSpaceOnUse" x1="264.1563" y1="191.024" x2="322.0253" y2="272.8783">
					<stop  offset="0" style="stop-color:#BB84FF"/>
					<stop  offset="0.3254" style="stop-color:#8E32FF"/>
					<stop  offset="1" style="stop-color:#BB84FF"/>
				</linearGradient>
				<path class="st6" d="M260.6,192.3v30.9c0,4.3,3.5,7.9,7.9,7.9h16.8c4.3,0,7.9-3.5,7.9-7.9v-30.9H260.6z"/>
			</g>
			<g>
				<path class="st4" d="M281.4,163.5h-9.6c-1.8,0-3.2,1.4-3.2,3.2v16c0,1.8,1.4,3.2,3.2,3.2h9.6c1.8,0,3.2-1.4,3.2-3.2v-16
					C284.6,165,283.2,163.5,281.4,163.5z"/>
				<path class="st7" d="M271.8,163.5c-1.8,0-3.2,1.4-3.2,3.2v16c0,1.8,1.4,3.2,3.2,3.2h4.8v-22.4H271.8z"/>
				<path class="st8" d="M271.4,178.3h10.4c2,0,3.6-1.6,3.6-3.6c0-2-1.6-3.6-3.6-3.6h-10.4c-2,0-3.6,1.6-3.6,3.6
					C267.8,176.7,269.4,178.3,271.4,178.3z"/>
				<path class="st5" d="M273.7,174.7c0-2,1.6-3.6,3.6-3.6h-5.9c-2,0-3.6,1.6-3.6,3.6c0,2,1.6,3.6,3.6,3.6h5.9
					C275.3,178.3,273.7,176.7,273.7,174.7z"/>
			</g>
			<g>
				<path class="st8" d="M279.1,221.9C279.1,221.9,279,221.9,279.1,221.9l-5,0c-1.1,0-2-0.9-2-2c0-1.1,0.9-2,2-2h0l5,0
					c1.1,0,2,0.9,2,2C281.1,221,280.2,221.9,279.1,221.9z"/>
				<g>
					<path class="st7" d="M274.6,200.5c0-2.7,4.3-2.7,4.3,0C278.8,203.1,274.6,203.1,274.6,200.5z"/>
					<path class="st7" d="M280.3,200.5c0-2.7,4.3-2.7,4.3,0C284.6,203.1,280.3,203.1,280.3,200.5z"/>
					<path class="st7" d="M274.6,213.2c0-2.7,4.3-2.7,4.3,0C278.8,215.8,274.6,215.8,274.6,213.2z"/>
					<path class="st7" d="M280.3,213.2c0-2.7,4.3-2.7,4.3,0C284.6,215.8,280.3,215.8,280.3,213.2z"/>
					<path class="st7" d="M274.6,206.8c0-2.7,4.3-2.7,4.3,0C278.8,209.5,274.6,209.5,274.6,206.8z"/>
					<path class="st7" d="M280.3,206.8c0-2.7,4.3-2.7,4.3,0C284.6,209.5,280.3,209.5,280.3,206.8z"/>
				</g>
				<path class="st7" d="M268.6,200.5c0-2.7,4.3-2.7,4.3,0C272.9,203.1,268.6,203.1,268.6,200.5z"/>
				<path class="st7" d="M268.6,213.2c0-2.7,4.3-2.7,4.3,0C272.9,215.8,268.6,215.8,268.6,213.2z"/>
				<path class="st7" d="M268.6,206.8c0-2.7,4.3-2.7,4.3,0C272.9,209.5,268.6,209.5,268.6,206.8z"/>
			</g>
		</g>
		<path class="st9" d="M92.3,212.9L92.3,212.9c-3.3,0-6-2.7-6-6v-29.1c0-3.3,2.7-6,6-6h0c3.3,0,6,2.7,6,6v29.1
			C98.3,210.2,95.6,212.9,92.3,212.9z"/>
	</g>
</g>
</svg>
