<?xml version="1.0" encoding="utf-8"?>
<!-- Generator: Adobe Illustrator 22.0.0, SVG Export Plug-In . SVG Version: 6.00 Build 0)  -->
<svg version="1.1" id="images_1_" xmlns="http://www.w3.org/2000/svg" xmlns:xlink="http://www.w3.org/1999/xlink" x="0px" y="0px"
	 viewBox="0 0 371 384" style="enable-background:new 0 0 371 384;" xml:space="preserve">
<style type="text/css">
	.st0{fill:#8800FF;}
	.st1{fill:url(#SVGID_1_);}
	.st2{fill:url(#SVGID_2_);}
	.st3{fill:url(#SVGID_3_);}
	.st4{fill:#D2ADFF;}
	.st5{opacity:0.5;}
	.st6{fill:#8E32FF;}
	.st7{fill:#BC86FF;}
	.st8{fill:url(#SVGID_4_);}
	.st9{fill:none;}
	.st10{fill:#F2F2F2;}
	.st11{fill:#5A11B2;}
	.st12{opacity:0.39;fill:#D2AEFF;}
	.st13{opacity:0.26;}
	.st14{fill:#D7B6FF;}
</style>
<g>
	<path class="st0" d="M338.5,137.1L251.6,31.3C234.4,10.4,210,0,185.5,0c-24.5,0-48.9,10.4-66.1,31.3L32.5,137.1
		C19.4,153,12.9,172.5,12.9,192c0,19.5,6.5,39,19.6,54.9l86.9,105.8c17.2,20.9,41.6,31.3,66.1,31.3c24.5,0,48.9-10.4,66.1-31.3
		l86.9-105.8c13.1-15.9,19.6-35.5,19.6-54.9C358.1,172.5,351.6,153,338.5,137.1z"/>
	<g>
		<g>
			<g>
				<linearGradient id="SVGID_1_" gradientUnits="userSpaceOnUse" x1="95.7391" y1="185.6686" x2="276.146" y2="185.6686">
					<stop  offset="0" style="stop-color:#BB84FF"/>
					<stop  offset="0.3702" style="stop-color:#8E32FF"/>
					<stop  offset="0.6525" style="stop-color:#8E32FF"/>
					<stop  offset="1" style="stop-color:#BB84FF"/>
				</linearGradient>
				<path class="st1" d="M258.4,161.2H113.5c-9.8,0-17.7,8-17.7,17.7v13.5c0,9.8,8,17.7,17.7,17.7h144.9c9.8,0,17.7-8,17.7-17.7
					v-13.5C276.1,169.2,268.2,161.2,258.4,161.2z"/>
			</g>
			<g>
				<g>
					<g>
						
							<radialGradient id="SVGID_2_" cx="182.9951" cy="311.0107" r="121.5152" fx="268.4964" fy="224.6656" gradientUnits="userSpaceOnUse">
							<stop  offset="0.1551" style="stop-color:#BB84FF"/>
							<stop  offset="0.7936" style="stop-color:#8E32FF"/>
						</radialGradient>
						<path class="st2" d="M227.2,184.5c0-5.7-2.8-10.9-7.6-15c-6.1-5.3-15.3-8.6-25.6-8.6h-18.9c-10.3,0-19.5,3.4-25.6,8.6
							c-4.7,4.1-7.6,9.3-7.6,15c0,0.3,0,0.6,0.1,0.9H142v37.7v32.3v5.8c0,20.8,16.9,37.7,37.7,37.7h9.8c20.8,0,37.7-16.9,37.7-37.7
							v-5.8v-32.3v-37.7h-0.1C227.2,185.2,227.2,184.9,227.2,184.5z"/>
						<radialGradient id="SVGID_3_" cx="151.8189" cy="76.8266" r="151.7094" gradientUnits="userSpaceOnUse">
							<stop  offset="0.1551" style="stop-color:#BB84FF"/>
							<stop  offset="0.7936" style="stop-color:#8E32FF"/>
						</radialGradient>
						<path class="st3" d="M209.9,147.6c1.1,0,2.1,0.2,3.1,0.5v-37.6c0-3.6-2.9-6.5-6.5-6.5h-43.9c-3.6,0-6.5,2.9-6.5,6.5v37.6
							c1-0.3,2-0.5,3.1-0.5H209.9z"/>
						<path class="st4" d="M209.9,147.6h-50.6c-5.4,0-9.7,4.4-9.7,9.7v12.2c6.1-5.3,15.3-8.6,25.6-8.6h18.9
							c10.3,0,19.5,3.4,25.6,8.6v-12.2C219.6,152,215.2,147.6,209.9,147.6z"/>
						<g class="st5">
							<circle class="st6" cx="170.4" cy="126.8" r="5.7"/>
							<circle class="st6" cx="198.8" cy="126.8" r="5.7"/>
						</g>
						<g>
							<path class="st7" d="M227.2,184.5c0-5.7-2.8-10.9-7.6-15c-6.1-5.3-15.3-8.6-25.6-8.6h-18.9c-10.3,0-19.5,3.4-25.6,8.6
								c-4.7,4.1-7.6,9.3-7.6,15c0,0.3,0,0.6,0.1,0.9H142v13.1c0-5.7,2.8-10.9,7.6-15c6.1-5.3,15.3-8.6,25.6-8.6h18.9
								c10.3,0,19.5,3.4,25.6,8.6c4.7,4.1,7.6,9.3,7.6,15v-13.1h-0.1C227.2,185.2,227.2,184.9,227.2,184.5z"/>
						</g>
					</g>
					<linearGradient id="SVGID_4_" gradientUnits="userSpaceOnUse" x1="222.9864" y1="169.745" x2="120.5494" y2="272.182">
						<stop  offset="0" style="stop-color:#BB84FF"/>
						<stop  offset="0.3702" style="stop-color:#8E32FF"/>
						<stop  offset="0.6525" style="stop-color:#8E32FF"/>
						<stop  offset="1" style="stop-color:#BB84FF"/>
					</linearGradient>
					<path class="st8" d="M227.2,197.9c0-5.7-2.8-10.9-7.6-15c-6.1-5.3-15.3-8.6-25.6-8.6h-18.9c-10.3,0-19.5,3.4-25.6,8.6
						c-4.7,4.1-7.6,9.3-7.6,15c0,0.3,0,0.6,0.1,0.9H142v13.1c0,0.3,0,0.6,0.1,0.9H142v13.1c0-5.7,2.8-10.9,7.6-15
						c6.1-5.3,15.3-8.6,25.6-8.6h18.9c10.3,0,19.5,3.4,25.6,8.6c4.7,4.1,7.6,9.3,7.6,15v-13.1h-0.1c0-0.3,0.1-0.6,0.1-0.9v-13.1
						h-0.1C227.2,198.5,227.2,198.2,227.2,197.9z"/>
					<path class="st9" d="M227.2,197.9c0-5.7-2.8-10.9-7.6-15c-6.1-5.3-15.3-8.6-25.6-8.6h-18.9c-10.3,0-19.5,3.4-25.6,8.6
						c-4.7,4.1-7.6,9.3-7.6,15c0,0.3,0,0.6,0.1,0.9H142v13.1c0,0.3,0,0.6,0.1,0.9H142v13.1c0-5.7,2.8-10.9,7.6-15
						c6.1-5.3,15.3-8.6,25.6-8.6h18.9c10.3,0,19.5,3.4,25.6,8.6c4.7,4.1,7.6,9.3,7.6,15v-13.1h-0.1c0-0.3,0.1-0.6,0.1-0.9v-13.1
						h-0.1C227.2,198.5,227.2,198.2,227.2,197.9z"/>
					<g>
						<path class="st10" d="M182.2,239l-6.7,8.2c-1.5,1.8-1.5,4.4,0,6.2l5.8,7.1c1.4,1.7,4,1.7,5.4,0l6.7-8.1c1-1.2,1-2.9,0-4
							l-2.2-2.7c-0.9-1-2.5-1-3.3,0l-0.1,0.1c-0.6,0.7-0.6,1.7,0,2.4l1.1,1.4c0.4,0.4,0.4,1.1,0,1.5l-4.3,5.2
							c-0.3,0.4-0.9,0.4-1.2,0l-4.3-5.2c-0.4-0.4-0.4-1.1,0-1.5l6-7.3c2.3-2.8,6.5-2.8,8.8,0l4,4.8c1.5,1.9,1.5,4.6,0,6.5l-9,11
							c-2.5,3-7.2,3-9.6,0l-7.7-9.4c-2.3-2.8-2.3-6.9,0-9.7l14.2-17.4c0.6-0.7,0.6-1.8,0-2.5l-0.4-0.4c-0.7-0.9-2-0.9-2.7,0
							l-14.5,17.7c-3.6,4.4-3.6,10.6,0,15l8.5,10.4c3.8,4.6,10.9,4.6,14.7,0l10.5-12.8c2.4-3,2.4-7.2,0-10.2l-5.1-6.2
							C193,234.4,185.9,234.4,182.2,239z"/>
					</g>
				</g>
			</g>
			<g class="st5">
				<path class="st11" d="M226.2,176.2c-4.6,0-8.3,3.7-8.3,8.3s3.7,8.3,8.3,8.3s8.3-3.7,8.3-8.3S230.8,176.2,226.2,176.2z"/>
				<path class="st11" d="M253.8,176.2c-4.6,0-8.3,3.7-8.3,8.3s3.7,8.3,8.3,8.3c4.6,0,8.3-3.7,8.3-8.3S258.4,176.2,253.8,176.2z"/>
				<circle class="st11" cx="115.7" cy="184.5" r="8.3"/>
				<path class="st11" d="M143.3,176.2c-4.6,0-8.3,3.7-8.3,8.3s3.7,8.3,8.3,8.3s8.3-3.7,8.3-8.3S147.9,176.2,143.3,176.2z"/>
				<circle class="st11" cx="170.9" cy="184.5" r="8.3"/>
				<path class="st11" d="M198.6,176.2c-4.6,0-8.3,3.7-8.3,8.3s3.7,8.3,8.3,8.3c4.6,0,8.3-3.7,8.3-8.3S203.1,176.2,198.6,176.2z"/>
			</g>
		</g>
		<path class="st12" d="M227.2,197.9c0-5.7-2.8-10.9-7.6-15c-6.1-5.3-15.3-8.6-25.6-8.6h-18.9c-10.3,0-19.5,3.4-25.6,8.6
			c-4.7,4.1-7.6,9.3-7.6,15c0,0.3,0,0.6,0.1,0.9H142v13.1c0,0.3,0,0.6,0.1,0.9H142v13.1c0-5.7,2.8-10.9,7.6-15
			c6.1-5.3,15.3-8.6,25.6-8.6h18.9c10.3,0,19.5,3.4,25.6,8.6c4.7,4.1,7.6,9.3,7.6,15v-13.1h-0.1c0-0.3,0.1-0.6,0.1-0.9v-13.1h-0.1
			C227.2,198.5,227.2,198.2,227.2,197.9z"/>
		<g>
			<g class="st13">
				<path class="st14" d="M248.8,184.5v0.9h0.1C248.8,185.2,248.8,184.9,248.8,184.5z"/>
			</g>
		</g>
	</g>
</g>
</svg>
