<?xml version="1.0" encoding="utf-8"?>
<!-- Generator: Adobe Illustrator 22.0.0, SVG Export Plug-In . SVG Version: 6.00 Build 0)  -->
<svg version="1.1" id="Capa_1" xmlns="http://www.w3.org/2000/svg" xmlns:xlink="http://www.w3.org/1999/xlink" x="0px" y="0px"
	 viewBox="0 0 595 620" style="enable-background:new 0 0 595 620;" xml:space="preserve">
<style type="text/css">
	.st0{fill:#8E32FF;}
	.st1{fill:none;}
	.st2{fill:#FFFFFF;}
</style>
<g>
	<g>
		<path class="st0" d="M450.8,255l-87.1-106.1c-17.1-20.9-41.7-31.4-66.2-31.4s-49.1,10.4-66.2,31.4L144.2,255
			c-13.1,16-19.7,35.5-19.7,55c0,19.6,6.6,39,19.7,55l87.1,106.1c17.2,20.9,41.7,31.4,66.2,31.4s49.1-10.4,66.2-31.4L450.8,365
			c13.1-16,19.7-35.5,19.7-55C470.5,290.4,463.9,271,450.8,255z"/>
		<path class="st1" d="M450.8,255l-87.1-106.1c-17.1-20.9-41.7-31.4-66.2-31.4s-49.1,10.4-66.2,31.4L144.2,255
			c-13.1,16-19.7,35.5-19.7,55c0,19.6,6.6,39,19.7,55l87.1,106.1c17.2,20.9,41.7,31.4,66.2,31.4s49.1-10.4,66.2-31.4L450.8,365
			c13.1-16,19.7-35.5,19.7-55C470.5,290.4,463.9,271,450.8,255z"/>
	</g>
	<g>
		<path class="st2" d="M287.2,259.9l-29.7,36.4c-6.5,7.9-6.5,19.5,0,27.4l25.6,31.3c6.2,7.5,17.6,7.5,23.8,0l29.5-36.1
			c4.3-5.2,4.3-12.7,0-18l-9.7-11.8c-3.8-4.6-10.9-4.6-14.8,0l-0.5,0.6c-2.6,3.1-2.6,7.5,0,10.6l5.1,6.2c1.6,2,1.6,4.8,0,6.8
			l-18.9,23.2c-1.4,1.7-3.9,1.7-5.3,0l-19-23.2c-1.5-1.9-1.5-4.7,0-6.7l26.6-32.5c10.1-12.3,28.9-12.3,38.9,0l17.6,21.4
			c6.8,8.3,6.8,20.4,0,28.7l-40,48.8c-11.1,13.5-31.7,13.5-42.7,0l-34.1-41.6c-10.3-12.6-10.3-30.6,0-43.1l63.1-77
			c2.6-3.3,2.6-7.9,0-11.2l-1.6-2c-3.1-3.8-8.9-3.8-12,0l-64.4,78.6c-15.9,19.3-15.9,47.1,0,66.5l37.8,46.1
			c16.8,20.6,48.3,20.6,65.1,0l46.4-56.8c10.7-13.1,10.7-32.1,0-45.2L351.5,260C335,239.6,303.9,239.6,287.2,259.9z"/>
	</g>
</g>
</svg>
