<?xml version="1.0" encoding="utf-8"?>
<!-- Generator: Adobe Illustrator 22.0.0, SVG Export Plug-In . SVG Version: 6.00 Build 0)  -->
<svg version="1.1" id="Capa_1" xmlns="http://www.w3.org/2000/svg" xmlns:xlink="http://www.w3.org/1999/xlink" x="0px" y="0px"
	 viewBox="0 0 24.8 24" style="enable-background:new 0 0 24.8 24;" xml:space="preserve">
<g>
	<path d="M18.2,15.7c-0.3,0-0.7,0.1-0.9,0.4l-3.4,4.2c-0.7,0.8-1.8,1.3-2.9,1.3c-1.1,0-2.1-0.5-2.9-1.3l-4.9-6
		c-0.5-0.7-0.8-1.5-0.8-2.4s0.3-1.7,0.8-2.4l4.9-6C8.8,2.8,9.9,2.3,11,2.3s2.1,0.5,2.9,1.3l3.7,4.5c0.2,0.3,0.5,0.4,0.9,0.4
		c0.3,0,0.5-0.1,0.8-0.3c0.5-0.4,0.6-1.1,0.2-1.6l-3.7-4.5c0,0,0,0,0,0C14.5,0.8,12.8,0,11,0S7.5,0.8,6.3,2.2c0,0,0,0,0,0l-4.9,6
		c0,0,0,0,0,0C0.5,9.3,0.1,10.6,0.1,12s0.5,2.7,1.3,3.8c0,0,0,0,0,0l4.9,6c0,0,0,0,0,0C7.5,23.2,9.2,24,11,24s3.5-0.8,4.6-2.2
		c0,0,0,0,0,0l3.4-4.2c0.4-0.5,0.3-1.2-0.2-1.6C18.7,15.8,18.4,15.7,18.2,15.7z"/>
	<path d="M7.5,15.2c0.1,0,1.3,0.6,3,0.6c1,0,2.1-0.2,3.1-0.6c0.4-0.2,0.6-0.6,0.4-1c-0.1-0.2-0.2-0.3-0.4-0.4
		c-0.2-0.1-0.4-0.1-0.6,0c-2.7,1.1-4.7,0.1-4.8,0c-0.4-0.2-0.8,0-1,0.3C7,14.6,7.2,15,7.5,15.2z"/>
	<path d="M8.3,10.4V9.9c0-0.5-0.4-1-1-1c-0.5,0-1,0.4-1,1v0.5c0,0.5,0.4,1,1,1C7.9,11.4,8.3,11,8.3,10.4z"/>
	<path d="M14.8,10.4V9.9c0-0.5-0.4-1-1-1c-0.5,0-1,0.4-1,1v0.5c0,0.5,0.4,1,1,1C14.4,11.4,14.8,11,14.8,10.4z"/>
	<path d="M23.8,11h-1.6V9.4c0-0.6-0.5-1.2-1.2-1.2c-0.6,0-1.2,0.5-1.2,1.2V11h-1.6c-0.1,0-0.2,0-0.3,0c-0.5,0.1-0.8,0.6-0.8,1.1
		c0,0.5,0.3,0.9,0.8,1.1c0.1,0,0.3,0.1,0.4,0.1h1.6v1.6c0,0.6,0.5,1.2,1.2,1.2c0.6,0,1.2-0.5,1.2-1.2v-1.6h1.6
		c0.6,0,1.2-0.5,1.2-1.2C25,11.6,24.5,11,23.8,11z"/>
</g>
</svg>
