<?xml version="1.0" encoding="utf-8"?>
<!-- Generator: Adobe Illustrator 22.0.0, SVG Export Plug-In . SVG Version: 6.00 Build 0)  -->
<svg version="1.1" id="Слой_1" xmlns="http://www.w3.org/2000/svg" xmlns:xlink="http://www.w3.org/1999/xlink" x="0px" y="0px"
	 viewBox="0 0 22 22" style="enable-background:new 0 0 22 22;" xml:space="preserve">
<g>
	<path d="M9.5,11c0-0.5-0.2-1-0.6-1.4L6.3,7c-0.8-0.8-2-0.8-2.8,0L0.9,9.6C0.5,10,0.3,10.5,0.3,11c0,0.5,0.2,1,0.6,1.4L3.6,15
		c0.4,0.4,0.9,0.6,1.4,0.6c0.5,0,1-0.2,1.4-0.6l2.6-2.6C9.3,12,9.5,11.5,9.5,11z M4.9,13.4L2.4,11l2.5-2.4L7.4,11L4.9,13.4z"/>
	<path d="M12.9,13.2c-0.8-0.8-2-0.8-2.8,0l-2.6,2.6c-0.4,0.4-0.6,0.9-0.6,1.4c0,0.5,0.2,1,0.6,1.4l2.6,2.6c0.4,0.4,0.9,0.6,1.4,0.6
		c0.5,0,1-0.2,1.4-0.6l2.6-2.6c0.4-0.4,0.6-0.9,0.6-1.4c0-0.5-0.2-1-0.6-1.4L12.9,13.2z M11.5,19.6L9,17.2l2.5-2.4l2.5,2.4
		L11.5,19.6z"/>
	<path d="M10.1,8.8c0.4,0.4,0.9,0.6,1.4,0.6c0.5,0,1-0.2,1.4-0.6l2.6-2.6c0.4-0.4,0.6-0.9,0.6-1.4c0-0.5-0.2-1-0.6-1.4l-2.6-2.6
		c-0.8-0.8-2-0.8-2.8,0L7.5,3.4C7.1,3.8,6.9,4.3,6.9,4.8c0,0.5,0.2,1,0.6,1.4L10.1,8.8z M11.5,2.4L14,4.8l-2.5,2.4L9,4.8L11.5,2.4z"
		/>
	<path d="M20.6,10h-1.4V8.5c0-0.6-0.5-1-1-1h0c-0.6,0-1,0.5-1,1V10h-1.4c-0.1,0-0.2,0-0.3,0c-0.4,0.1-0.7,0.5-0.7,1
		c0,0.4,0.3,0.8,0.7,1c0.1,0,0.2,0.1,0.4,0.1h1.4v1.4c0,0.6,0.5,1,1,1h0c0.6,0,1-0.5,1-1V12h1.4c0.6,0,1-0.5,1-1
		C21.7,10.4,21.2,10,20.6,10z"/>
</g>
</svg>
