<?xml version="1.0" encoding="utf-8"?>
<!-- Generator: Adobe Illustrator 22.0.0, SVG Export Plug-In . SVG Version: 6.00 Build 0)  -->
<svg version="1.1" id="Capa_1" xmlns:serif="http://www.serif.com/"
	 xmlns="http://www.w3.org/2000/svg" xmlns:xlink="http://www.w3.org/1999/xlink" x="0px" y="0px" viewBox="0 0 1053.2 1008.2"
	 style="enable-background:new 0 0 1053.2 1008.2;" xml:space="preserve">
<g>
	<g>
		<path d="M668.8,798.8c-8.4,0-16.9-2.8-23.9-8.6c-16-13.2-18.2-36.8-5-52.8L724.5,635c13.2-16,20.5-36.3,20.5-57.1
			s-7.3-41-20.5-57.1L595.6,364.9c-17.1-20.7-42.2-32.5-69.1-32.5s-52,11.9-69.1,32.5L328.7,520.9c-13.2,16-20.5,36.3-20.5,57.1
			s7.3,41,20.5,57.1l84.5,102.2c13.2,16,10.9,39.6-5,52.8c-16,13.2-39.6,10.9-52.8-5l-84.5-102.2c-24.3-29.4-37.7-66.7-37.7-104.8
			c0-38.2,13.4-75.4,37.7-104.8l128.9-155.9c31.4-38,77.6-59.7,126.9-59.7s95.5,21.8,126.9,59.7l128.9,155.9
			c24.3,29.4,37.7,66.7,37.7,104.8s-13.4,75.4-37.7,104.8l-84.6,102.4C690.3,794.1,679.6,798.8,668.8,798.8z"/>
		<path d="M648.1,902.8h-243c-20.7,0-37.5-16.8-37.5-37.5s16.8-37.5,37.5-37.5h243c20.7,0,37.5,16.8,37.5,37.5
			S668.8,902.8,648.1,902.8z"/>
		<path d="M624.1,1004.4h-195c-20.7,0-37.5-16.8-37.5-37.5s16.8-37.5,37.5-37.5h195c20.7,0,37.5,16.8,37.5,37.5
			S644.8,1004.4,624.1,1004.4z"/>
		<path d="M526.6,798.8c-20.7,0-37.5-16.8-37.5-37.5V599.5c0-20.7,16.8-37.5,37.5-37.5s37.5,16.8,37.5,37.5v161.8
			C564.1,782,547.3,798.8,526.6,798.8z"/>
	</g>
	<path d="M526.6,164.3c-20.7,0-37.5-16.8-37.5-37.5V41.3c0-20.7,16.8-37.5,37.5-37.5s37.5,16.8,37.5,37.5v85.5
		C564.1,147.5,547.3,164.3,526.6,164.3z"/>
	<g>
		<path d="M112.6,587.3H42.1c-20.7,0-37.5-16.8-37.5-37.5s16.8-37.5,37.5-37.5h70.5c20.7,0,37.5,16.8,37.5,37.5
			S133.3,587.3,112.6,587.3z"/>
		<path d="M1011.1,587.3h-70.5c-20.7,0-37.5-16.8-37.5-37.5s16.8-37.5,37.5-37.5h70.5c20.7,0,37.5,16.8,37.5,37.5
			S1031.8,587.3,1011.1,587.3z"/>
	</g>
	<g>
		<path d="M807.3,311.6c-9.6,0-19.2-3.7-26.5-11c-14.6-14.6-14.6-38.4,0-53l54.9-54.9c14.6-14.6,38.4-14.6,53,0
			c14.6,14.6,14.6,38.4,0,53l-54.9,54.9C826.5,308,816.9,311.6,807.3,311.6z"/>
		<path d="M248.8,314.5c-9.6,0-19.2-3.7-26.5-11l-57.8-57.8c-14.6-14.6-14.6-38.4,0-53c14.6-14.6,38.4-14.6,53,0l57.8,57.8
			c14.6,14.6,14.6,38.4,0,53C268,310.9,258.4,314.5,248.8,314.5z"/>
	</g>
</g>
</svg>
