<?xml version="1.0" encoding="utf-8"?>
<!-- Generator: Adobe Illustrator 22.0.0, SVG Export Plug-In . SVG Version: 6.00 Build 0)  -->
<svg version="1.1" id="Слой_1" xmlns="http://www.w3.org/2000/svg" xmlns:xlink="http://www.w3.org/1999/xlink" x="0px" y="0px"
	 viewBox="0 0 22 22" style="enable-background:new 0 0 22 22;" xml:space="preserve">
<g>
	<path d="M9.1,10.7c0-0.5-0.2-1-0.6-1.4L5.9,6.8c-0.7-0.7-2-0.7-2.7,0L0.6,9.3c-0.4,0.4-0.6,0.8-0.6,1.4c0,0.5,0.2,1,0.6,1.4
		l2.6,2.5c0.4,0.4,0.9,0.6,1.4,0.6c0.5,0,1-0.2,1.4-0.6l2.6-2.5C8.9,11.7,9.1,11.2,9.1,10.7z M4.6,13.1l-2.4-2.4l2.4-2.4L7,10.7
		L4.6,13.1z"/>
	<path d="M21.4,9.3l-2.6-2.5c-0.7-0.7-2-0.7-2.7,0l-2.6,2.5c-0.4,0.4-0.6,0.8-0.6,1.4c0,0.5,0.2,1,0.6,1.4l2.6,2.5
		c0.4,0.4,0.9,0.6,1.4,0.6c0.5,0,1-0.2,1.4-0.6l2.6-2.5c0.4-0.4,0.6-0.8,0.6-1.4C22,10.2,21.8,9.7,21.4,9.3z"/>
	<path d="M12.4,12.9c-0.7-0.7-2-0.7-2.7,0l-2.6,2.5c-0.4,0.4-0.6,0.8-0.6,1.4c0,0.5,0.2,1,0.6,1.4l2.6,2.5c0.4,0.4,0.9,0.6,1.4,0.6
		c0.5,0,1-0.2,1.4-0.6l2.6-2.5c0.4-0.4,0.6-0.8,0.6-1.4c0-0.5-0.2-1-0.6-1.4L12.4,12.9z M11,19.1l-2.4-2.4l2.4-2.4l2.4,2.4L11,19.1z
		"/>
	<path d="M9.7,8.5C10,8.9,10.5,9.1,11,9.1c0.5,0,1-0.2,1.4-0.6L14.9,6c0.4-0.4,0.6-0.8,0.6-1.4c0-0.5-0.2-1-0.6-1.4l-2.6-2.5
		c-0.7-0.7-2-0.7-2.7,0L7.1,3.3C6.7,3.7,6.5,4.1,6.5,4.7c0,0.5,0.2,1,0.6,1.4L9.7,8.5z M11,2.3l2.4,2.4L11,7L8.6,4.7L11,2.3z"/>
</g>
</svg>
