<?xml version="1.0" encoding="utf-8"?>
<!-- Generator: Adobe Illustrator 22.0.0, SVG Export Plug-In . SVG Version: 6.00 Build 0)  -->
<svg version="1.1" id="Capa_1" xmlns:serif="http://www.serif.com/"
	 xmlns="http://www.w3.org/2000/svg" xmlns:xlink="http://www.w3.org/1999/xlink" x="0px" y="0px" viewBox="0 0 1366 768"
	 style="enable-background:new 0 0 1366 768;" xml:space="preserve">
<g>
	<path d="M983.3,262.1c-2.2-5.6-4.5-11.2-6.9-16.8c11.4-14.7,17.5-32.6,17.5-51.5c0-22.5-8.8-43.7-24.7-59.6l-53.3-53.3
		C900,65,878.8,56.2,856.3,56.2c-18.9,0-36.8,6.2-51.5,17.6c-5.5-2.5-11.1-4.8-16.7-6.9c-5.3-41.4-40.8-73.5-83.6-73.5H629
		c-42.8,0-78.3,32.1-83.6,73.5c-5.5,2.1-11,4.4-16.4,6.8c-14.5-12.2-32.7-18.8-51.9-18.8c-21.6,0-41.9,8.4-57.2,23.7l-55.7,55.7
		c-15.9,15.9-24.7,37.1-24.7,59.6c0,18.9,6.2,36.8,17.5,51.5c-2.5,5.5-4.8,11.1-6.9,16.8c-41.4,5.3-73.5,40.8-73.5,83.6v75.4
		c0,42.8,32.1,78.3,73.5,83.6c2.1,5.5,4.4,11,6.8,16.4c-26.5,31.8-24.9,79.2,4.9,109l55.7,55.7c15.9,15.9,37.1,24.7,59.6,24.7
		c18.9,0,36.8-6.2,51.5-17.5c5.4,2.4,10.9,4.7,16.4,6.8c1.7,18.9,9.8,36.4,23.4,50c15.3,15.3,35.6,23.7,57.2,23.7h78.8
		c42.8,0,78.3-32.1,83.6-73.5c5.6-2.2,11.2-4.5,16.8-6.9c14.7,11.4,32.6,17.5,51.5,17.5c22.5,0,43.7-8.8,59.6-24.7l53.3-53.3
		c30.3-30.3,32.7-78.1,7.1-111.1c2.4-5.4,4.7-10.9,6.8-16.4c18.9-1.7,36.4-9.8,50-23.4c15.3-15.3,23.7-35.6,23.7-57.2v-78.8
		C1056.8,302.9,1024.7,267.4,983.3,262.1z M981.8,424.5c0,1.6-0.6,3-1.7,4.2c-1.1,1.1-2.5,1.7-4.1,1.7h-19.8c-16.7,0-31.3,11-36,27
		c-5.3,18.4-12.7,36.1-21.9,52.9c-8,14.6-5.4,32.8,6.3,44.6l11.6,11.6c3.6,3.6,3.6,9.5,0,13.1l-53.3,53.3c-2.2,2.2-4.8,2.7-6.6,2.7
		c-1.8,0-4.3-0.5-6.6-2.7l-11.6-11.6c-11.8-11.8-30-14.4-44.6-6.3c-16.7,9.2-34.5,16.5-52.8,21.9c-16,4.7-27,19.3-27,36v16.4
		c0,5.1-4.2,9.3-9.3,9.3h-78.8c-1.6,0-3-0.6-4.2-1.7c-1.2-1.2-1.7-2.5-1.7-4.2v-19.7c0-16.7-11-31.3-27-36
		c-18.3-5.3-36.1-12.7-52.9-21.9c-5.7-3.1-11.9-4.6-18-4.6c-9.7,0-19.3,3.8-26.5,11l-11.6,11.6c-2.2,2.2-4.8,2.7-6.6,2.7
		c-1.8,0-4.3-0.5-6.6-2.7l-55.7-55.7c-2.3-2.3-2.3-6.1,0-8.3l14-14c11.8-11.8,14.4-29.9,6.4-44.6c-9.2-16.7-16.6-34.5-21.9-52.9
		c-4.7-16-19.3-27-36-27H361c-5.1,0-9.3-4.2-9.3-9.3v-75.4c0-5.1,4.2-9.3,9.3-9.3h16.4c16.7,0,31.3-11,36-27
		c5.3-18.3,12.7-36.1,21.9-52.8c8-14.6,5.4-32.8-6.4-44.6l-11.6-11.6c-1.8-1.8-2.7-4-2.7-6.6c0-2.6,0.9-4.8,2.7-6.6l55.7-55.7
		c1.2-1.2,2.5-1.7,4.1-1.7c1.6,0,3,0.6,4.2,1.7l14,14c11.8,11.8,30,14.4,44.6,6.4c16.7-9.2,34.5-16.5,52.8-21.9
		c16-4.7,27-19.3,27-36V77.6c0-5.1,4.2-9.3,9.3-9.3h75.4c5.1,0,9.3,4.2,9.3,9.3V94c0,16.7,11,31.3,27,36
		c18.4,5.3,36.1,12.7,52.9,21.9c14.6,8,32.8,5.4,44.6-6.4l11.6-11.6c1.8-1.8,4-2.7,6.6-2.7c2.5,0,4.8,0.9,6.6,2.7l53.3,53.3
		c2.2,2.2,2.7,4.8,2.7,6.6c0,1.8-0.5,4.3-2.7,6.6L904.6,212c-11.8,11.8-14.4,29.9-6.4,44.6c9.2,16.7,16.5,34.5,21.9,52.9
		c4.7,16,19.3,27,36,27h16.4c5.1,0,9.3,4.2,9.3,9.3V424.5z"/>
	<path d="M810.4,335.3l-97.4-99c-12.3-12.5-28.7-19.4-46.1-19.4c-0.1,0-0.2,0-0.3,0c-17.4,0-33.8,6.9-46.1,19.4l-97.4,99
		c-25.1,25.5-25.1,66.9,0,92.3l97.4,99c12.3,12.5,28.7,19.4,46.1,19.4c0.1,0,0.2,0,0.3,0c17.5,0,33.8-6.9,46.1-19.4l97.4-99
		C835.5,402.2,835.5,360.8,810.4,335.3z"/>
</g>
</svg>
