<?xml version="1.0" encoding="utf-8"?>
<!-- Generator: Adobe Illustrator 22.0.0, SVG Export Plug-In . SVG Version: 6.00 Build 0)  -->
<svg version="1.1" id="Capa_1" xmlns="http://www.w3.org/2000/svg" xmlns:xlink="http://www.w3.org/1999/xlink" x="0px" y="0px"
	 viewBox="0 0 23 23" style="enable-background:new 0 0 23 23;" xml:space="preserve">
<g>
	<path d="M20.6,8c-0.1-0.2-0.1-0.3-0.2-0.5c0.3-0.4,0.5-0.9,0.5-1.5c0-0.6-0.3-1.3-0.7-1.7l-1.5-1.5c-0.5-0.5-1.1-0.7-1.7-0.7
		c-0.5,0-1.1,0.2-1.5,0.5c-0.2-0.1-0.3-0.1-0.5-0.2c-0.2-1.2-1.2-2.1-2.4-2.1h-2.2C9.2,0.3,8.2,1.2,8,2.4C7.9,2.5,7.7,2.5,7.5,2.6
		C7.1,2.2,6.6,2.1,6.1,2.1c-0.6,0-1.2,0.2-1.6,0.7L2.8,4.3C2.4,4.8,2.1,5.4,2.1,6.1c0,0.5,0.2,1.1,0.5,1.5C2.5,7.7,2.5,7.9,2.4,8
		c-1.2,0.2-2.1,1.2-2.1,2.4v2.2c0,1.2,0.9,2.2,2.1,2.4c0.1,0.2,0.1,0.3,0.2,0.5c-0.8,0.9-0.7,2.3,0.1,3.1l1.6,1.6
		c0.5,0.5,1.1,0.7,1.7,0.7c0.5,0,1.1-0.2,1.5-0.5c0.2,0.1,0.3,0.1,0.5,0.2c0,0.5,0.3,1,0.7,1.4c0.4,0.4,1,0.7,1.6,0.7h2.3
		c1.2,0,2.2-0.9,2.4-2.1c0.2-0.1,0.3-0.1,0.5-0.2c0.4,0.3,0.9,0.5,1.5,0.5c0.6,0,1.3-0.3,1.7-0.7l1.5-1.5c0.9-0.9,0.9-2.2,0.2-3.2
		c0.1-0.2,0.1-0.3,0.2-0.5c0.5,0,1-0.3,1.4-0.7c0.4-0.4,0.7-1,0.7-1.6v-2.3C22.7,9.2,21.8,8.2,20.6,8z M20.6,12.7c0,0,0,0.1,0,0.1
		c0,0-0.1,0-0.1,0h-0.6c-0.5,0-0.9,0.3-1,0.8c-0.2,0.5-0.4,1-0.6,1.5c-0.2,0.4-0.2,0.9,0.2,1.3l0.3,0.3c0.1,0.1,0.1,0.3,0,0.4
		l-1.5,1.5c-0.1,0.1-0.1,0.1-0.2,0.1c-0.1,0-0.1,0-0.2-0.1l-0.3-0.3c-0.3-0.3-0.9-0.4-1.3-0.2c-0.5,0.3-1,0.5-1.5,0.6
		c-0.5,0.1-0.8,0.6-0.8,1v0.5c0,0.1-0.1,0.3-0.3,0.3h-2.3c0,0-0.1,0-0.1,0c0,0,0-0.1,0-0.1v-0.6c0-0.5-0.3-0.9-0.8-1
		c-0.5-0.2-1-0.4-1.5-0.6C7.7,18.1,7.5,18,7.3,18c-0.3,0-0.6,0.1-0.8,0.3l-0.3,0.3c-0.1,0.1-0.1,0.1-0.2,0.1c-0.1,0-0.1,0-0.2-0.1
		l-1.6-1.6c-0.1-0.1-0.1-0.2,0-0.2l0.4-0.4c0.3-0.3,0.4-0.9,0.2-1.3c-0.3-0.5-0.5-1-0.6-1.5c-0.1-0.5-0.6-0.8-1-0.8H2.7
		c-0.1,0-0.3-0.1-0.3-0.3v-2.2c0-0.1,0.1-0.3,0.3-0.3h0.5c0.5,0,0.9-0.3,1-0.8c0.2-0.5,0.4-1,0.6-1.5C5.1,7.4,5,6.9,4.7,6.6L4.3,6.2
		C4.3,6.2,4.3,6.1,4.3,6.1c0-0.1,0-0.1,0.1-0.2l1.6-1.6c0,0,0.1,0,0.1,0c0,0,0.1,0,0.1,0l0.4,0.4C6.9,5,7.4,5.1,7.9,4.8
		c0.5-0.3,1-0.5,1.5-0.6c0.5-0.1,0.8-0.6,0.8-1V2.7c0-0.1,0.1-0.3,0.3-0.3h2.2c0.1,0,0.3,0.1,0.3,0.3v0.5c0,0.5,0.3,0.9,0.8,1
		c0.5,0.2,1,0.4,1.5,0.6c0.4,0.2,0.9,0.2,1.3-0.2l0.3-0.3c0.1-0.1,0.1-0.1,0.2-0.1c0.1,0,0.1,0,0.2,0.1l1.5,1.5
		c0.1,0.1,0.1,0.1,0.1,0.2c0,0.1,0,0.1-0.1,0.2l-0.3,0.3c-0.3,0.3-0.4,0.9-0.2,1.3c0.3,0.5,0.5,1,0.6,1.5c0.1,0.5,0.6,0.8,1,0.8h0.5
		c0.1,0,0.3,0.1,0.3,0.3V12.7z"/>
	<path d="M13.1,6.3c-0.4-0.4-1-0.7-1.6-0.7c0,0,0,0,0,0c-0.6,0-1.2,0.2-1.6,0.7L6.4,9.8c-0.9,0.9-0.9,2.4,0,3.3l3.4,3.5
		c0.4,0.4,1,0.7,1.6,0.7c0,0,0,0,0,0c0.6,0,1.2-0.2,1.6-0.7l3.4-3.5c0.9-0.9,0.9-2.4,0-3.3L13.1,6.3z M15,11.6l-3.4,3.5
		c0,0-0.1,0-0.1,0c0,0,0,0,0,0l0,0l0,0c0,0,0,0,0,0c0,0-0.1,0-0.1,0L8,11.6c-0.1-0.1-0.1-0.2,0-0.2l3.4-3.5c0,0,0.1,0,0.1,0
		c0,0,0,0,0,0l0,0l0,0c0,0,0,0,0,0c0,0,0.1,0,0.1,0l3.4,3.5C15.1,11.4,15.1,11.5,15,11.6z"/>
</g>
</svg>
