<?xml version="1.0" encoding="utf-8"?>
<!-- Generator: Adobe Illustrator 22.0.0, SVG Export Plug-In . SVG Version: 6.00 Build 0)  -->
<svg version="1.1" id="Capa_1" xmlns:serif="http://www.serif.com/"
	 xmlns="http://www.w3.org/2000/svg" xmlns:xlink="http://www.w3.org/1999/xlink" x="0px" y="0px" viewBox="0 0 612.6 768"
	 style="enable-background:new 0 0 612.6 768;" xml:space="preserve">
<g>
	<g>
		<path d="M448.4,550.2c-8.4,0-16.9-2.8-23.9-8.6c-16-13.2-18.2-36.8-5-52.8l84.6-102.4c13.2-16,20.5-36.3,20.5-57.1
			s-7.3-41-20.5-57.1L375.3,116.3c-17.1-20.7-42.2-32.5-69.1-32.5s-52,11.9-69.1,32.5L108.3,272.3c-13.2,16-20.5,36.3-20.5,57.1
			s7.3,41,20.5,57.1l84.5,102.2c13.2,16,10.9,39.6-5,52.8c-16,13.2-39.6,10.9-52.8-5L50.5,434.2c-24.3-29.4-37.7-66.7-37.7-104.8
			c0-38.2,13.4-75.4,37.7-104.8L179.3,68.6c31.4-38,77.6-59.7,126.9-59.7s95.5,21.8,126.9,59.7l128.9,155.9
			c24.3,29.4,37.7,66.7,37.7,104.8s-13.4,75.4-37.7,104.8l-84.6,102.4C469.9,545.5,459.2,550.2,448.4,550.2z"/>
		<path d="M427.7,654.2h-243c-20.7,0-37.5-16.8-37.5-37.5s16.8-37.5,37.5-37.5h243c20.7,0,37.5,16.8,37.5,37.5
			S448.4,654.2,427.7,654.2z"/>
		<path d="M403.7,755.8h-195c-20.7,0-37.5-16.8-37.5-37.5s16.8-37.5,37.5-37.5h195c20.7,0,37.5,16.8,37.5,37.5
			S424.4,755.8,403.7,755.8z"/>
		<path d="M306.2,550.2c-20.7,0-37.5-16.8-37.5-37.5V350.9c0-20.7,16.8-37.5,37.5-37.5s37.5,16.8,37.5,37.5v161.8
			C343.7,533.4,326.9,550.2,306.2,550.2z"/>
	</g>
</g>
</svg>
