<?xml version="1.0" encoding="utf-8"?>
<!-- Generator: Adobe Illustrator 22.0.0, SVG Export Plug-In . SVG Version: 6.00 Build 0)  -->
<svg version="1.1" id="Capa_1" xmlns="http://www.w3.org/2000/svg" xmlns:xlink="http://www.w3.org/1999/xlink" x="0px" y="0px"
	 viewBox="0 0 23 20" style="enable-background:new 0 0 23 20;" xml:space="preserve">
<path d="M19,4.4C19,4.4,19,4.4,19,4.4l-0.8,0c0.1-0.5,0-1.1-0.4-1.5l-1.9-1.9c-0.3-0.3-0.7-0.5-1.2-0.5c0,0,0,0,0,0
	c-0.4,0-0.8,0.2-1.2,0.5l-1.9,1.9c-0.1,0.1-0.2,0.3-0.3,0.5c-0.6,0-1.2,0.3-1.6,0.7L9.4,4.4H4.3H4.1c-2.2,0-4,1.8-4,4v7.1
	c0,2.2,1.8,4,4,4h14.9c2.2,0,4-1.8,4-4V8.4C23,6.2,21.2,4.4,19,4.4z M2,15.5V8.4c0-1.2,1-2.1,2.1-2.1h0.2h3.2L5.6,8.2
	C4.9,8.9,4.7,9.9,5,10.8c-0.2,0-0.4,0.1-0.6,0.1c0,0,0,0,0,0c0,0,0,0,0,0c-0.3,0.1-0.3,0.5,0,0.6c0,0,0,0,0,0c0.3,0.1,0.7,0.2,1,0.2
	c0.3,0.1,0.7,0.1,1,0.2c0.3,0.1,0.7,0.1,1,0.1c0.7,0.1,1.3,0.1,2,0.2c0.7,0,1.3,0.1,2,0.1c0.7,0,1.3,0,2-0.1c0.7,0,1.3-0.1,2-0.2
	c0.2,0,0.3,0,0.5-0.1c0.2,0,0.3,0,0.5-0.1c0.3-0.1,0.7-0.1,1-0.2c0.3-0.1,0.7-0.1,1-0.2c0,0,0,0,0,0c0.3-0.1,0.3-0.5,0-0.6
	c0,0,0,0,0,0c0,0,0,0,0,0c-0.2,0-0.4-0.1-0.6-0.1c0.3-0.9,0.1-1.8-0.6-2.5L16,6.9l0.6-0.6h2.3c0,0,0.1,0,0.1,0c1.1,0,2,1,2,2.1v7.1
	c0,1.2-1,2.1-2.1,2.1H4.1C2.9,17.6,2,16.7,2,15.5z M15.8,4.4l-0.9,1l-0.2,0.2l-0.2-0.2l-0.9-1L13.2,4l1.5-1.5L16.2,4L15.8,4.4z
	 M11.4,5.2L11.4,5.2L11.4,5.2c0.1,0,0.2,0,0.3,0.1c0,0,0,0,0,0l0.9,0.9l3.2,3.3c0.2,0.2,0.2,0.5,0,0.8l-0.1,0.1c-0.1,0-0.3,0-0.4,0
	c-0.7-0.1-1.3-0.1-2-0.2c-0.1,0-0.3,0-0.4,0c0-0.1,0-0.1,0-0.2c0-0.9-0.7-1.6-1.6-1.6c-0.9,0-1.6,0.7-1.6,1.6c0,0.1,0,0.2,0,0.2
	c-0.1,0-0.3,0-0.4,0c-0.7,0-1.3,0.1-2,0.2c-0.1,0-0.2,0-0.4,0L7,10.3c-0.2-0.2-0.2-0.5,0-0.8l3.2-3.3l0.9-0.9c0,0,0,0,0,0
	C11.2,5.3,11.3,5.2,11.4,5.2z"/>
</svg>
