<?xml version="1.0" encoding="utf-8"?>
<!-- Generator: Adobe Illustrator 22.0.0, SVG Export Plug-In . SVG Version: 6.00 Build 0)  -->
<svg version="1.1" id="Capa_1" xmlns="http://www.w3.org/2000/svg" xmlns:xlink="http://www.w3.org/1999/xlink" x="0px" y="0px"
	 viewBox="0 0 23 23" style="enable-background:new 0 0 23 23;" xml:space="preserve">
<g>
	<path d="M18.3,3c-1.2-1.2-2.9-1.9-4.6-1.9H9.3C7.6,1.1,5.9,1.8,4.7,3C3.5,4.2,2.8,5.9,2.8,7.6v12.1c0,1.2,1,2.2,2.2,2.2h8.7
		c1.7,0,3.4-0.7,4.6-1.9s1.9-2.9,1.9-4.6V7.6C20.2,5.9,19.5,4.2,18.3,3z M18.1,15.4c0,2.4-2,4.4-4.4,4.4H5c0,0,0,0,0,0V7.6
		c0-2.4,2-4.4,4.4-4.4h4.4c2.4,0,4.4,2,4.4,4.4V15.4z"/>
	<path d="M14.8,10.8H8.1c-0.6,0-1.1,0.5-1.1,1.1c0,0.6,0.5,1.1,1.1,1.1h6.7c0.6,0,1.1-0.5,1.1-1.1C15.9,11.3,15.4,10.8,14.8,10.8z"
		/>
	<path d="M14.8,14.5H8.1c-0.6,0-1.1,0.5-1.1,1.1c0,0.6,0.5,1.1,1.1,1.1h6.7c0.6,0,1.1-0.5,1.1-1.1C15.9,15,15.4,14.5,14.8,14.5z"/>
	<path d="M10.9,8.9c0.2,0.2,0.4,0.2,0.6,0.2c0.2,0,0.4-0.1,0.6-0.2l1.1-1c0.2-0.1,0.2-0.3,0.2-0.6c0-0.2-0.1-0.4-0.2-0.6l-1.1-1
		c-0.3-0.3-0.8-0.3-1.1,0l-1.1,1C9.7,6.8,9.6,7,9.6,7.3c0,0.2,0.1,0.4,0.2,0.6L10.9,8.9z"/>
</g>
</svg>
