<?xml version="1.0" encoding="utf-8"?>
<!-- Generator: Adobe Illustrator 22.0.0, SVG Export Plug-In . SVG Version: 6.00 Build 0)  -->
<svg version="1.1" id="Capa_1" xmlns="http://www.w3.org/2000/svg" xmlns:xlink="http://www.w3.org/1999/xlink" x="0px" y="0px"
	 viewBox="0 0 17 17" style="enable-background:new 0 0 17 17;" xml:space="preserve">
<path d="M15.9,5.4c-0.4-1-1-1.8-1.7-2.6c-0.7-0.7-1.6-1.3-2.6-1.7c-1-0.4-2-0.6-3.1-0.6S6.4,0.7,5.4,1.1c-1,0.4-1.8,1-2.6,1.7
	C2.1,3.6,1.5,4.4,1.1,5.4c-0.4,1-0.6,2-0.6,3.1s0.2,2.1,0.6,3.1c0.4,1,1,1.8,1.7,2.6c0.7,0.7,1.6,1.3,2.6,1.7c1,0.4,2,0.6,3.1,0.6
	s2.1-0.2,3.1-0.6c1-0.4,1.8-1,2.6-1.7c0.7-0.7,1.3-1.6,1.7-2.6c0.4-1,0.6-2,0.6-3.1S16.3,6.4,15.9,5.4z M2.5,11.1
	c0.2,0.1,0.4,0.2,0.6,0.3c0.3,0.1,0.7,0.3,1,0.4C4.3,12.6,4.6,13.3,5,14C3.9,13.3,3,12.3,2.5,11.1z M14.5,5.9
	c-0.2-0.1-0.4-0.2-0.6-0.3c-0.3-0.1-0.7-0.3-1-0.4C12.7,4.4,12.4,3.7,12,3C13.1,3.7,14,4.7,14.5,5.9z M13.3,7.8c0-0.3,0-0.5-0.1-0.8
	c0,0,0.1,0,0.1,0.1c0.5,0.2,0.9,0.5,1.2,0.7H13.3z M11.8,7.8H9.2V6.2c0.8,0,1.6,0.1,2.4,0.3C11.7,6.9,11.8,7.3,11.8,7.8z M9.2,4.7
	V2.2c0.5,0.3,1,0.8,1.5,1.6c0.2,0.4,0.4,0.8,0.5,1.2C10.6,4.8,9.9,4.7,9.2,4.7z M7.8,4.7c-0.7,0-1.3,0.1-2,0.2
	c0.1-0.4,0.3-0.8,0.5-1.2C6.7,3,7.2,2.4,7.8,2.2V4.7z M7.8,6.2v1.5H5.2c0-0.4,0.1-0.8,0.1-1.3C6.1,6.3,6.9,6.2,7.8,6.2z M3.7,7.8
	H2.4C2.7,7.5,3.1,7.2,3.6,7c0,0,0.1,0,0.1-0.1C3.8,7.2,3.7,7.5,3.7,7.8z M3.7,9.2c0,0.3,0,0.5,0.1,0.8c0,0-0.1,0-0.1-0.1
	C3.1,9.8,2.7,9.5,2.4,9.2H3.7z M5.2,9.2h2.5v1.5c-0.8,0-1.6-0.1-2.4-0.3C5.3,10.1,5.2,9.7,5.2,9.2z M7.8,12.3v2.5
	c-0.5-0.3-1-0.8-1.5-1.6c-0.2-0.4-0.4-0.8-0.5-1.2C6.4,12.2,7.1,12.3,7.8,12.3z M9.2,12.3c0.7,0,1.3-0.1,2-0.2
	c-0.1,0.4-0.3,0.8-0.5,1.2c-0.4,0.8-0.9,1.3-1.5,1.6V12.3z M9.2,10.8V9.2h2.5c0,0.4-0.1,0.8-0.1,1.3C10.9,10.7,10.1,10.8,9.2,10.8z
	 M13.3,9.2h1.3c-0.3,0.3-0.7,0.5-1.2,0.7c0,0-0.1,0-0.1,0.1C13.2,9.8,13.3,9.5,13.3,9.2z M5,3C4.6,3.7,4.3,4.4,4.1,5.3
	c-0.4,0.1-0.7,0.2-1,0.4C2.9,5.7,2.7,5.8,2.5,5.9C3,4.7,3.9,3.7,5,3z M12,14c0.4-0.7,0.7-1.4,0.9-2.3c0.4-0.1,0.7-0.2,1-0.4
	c0.2-0.1,0.4-0.2,0.6-0.3C14,12.3,13.1,13.3,12,14z"/>
</svg>
