<?xml version="1.0" encoding="utf-8"?>
<!-- Generator: Adobe Illustrator 22.0.0, SVG Export Plug-In . SVG Version: 6.00 Build 0)  -->
<svg version="1.1" id="Capa_1" xmlns:serif="http://www.serif.com/"
	 xmlns="http://www.w3.org/2000/svg" xmlns:xlink="http://www.w3.org/1999/xlink" x="0px" y="0px" viewBox="0 0 870 672.3"
	 style="enable-background:new 0 0 870 672.3;" xml:space="preserve">
<style type="text/css">
	.st0{fill:#8800FF;}
	.st1{fill:#8E32FF;}
	.st2{fill:#F2F2F2;}
	.st3{fill:url(#SVGID_1_);}
	.st4{opacity:0.44;fill:url(#SVGID_2_);enable-background:new    ;}
	.st5{fill:url(#SVGID_3_);}
	.st6{opacity:0.44;fill:url(#SVGID_4_);enable-background:new    ;}
	.st7{opacity:0.48;fill:#E8D6FF;enable-background:new    ;}
	.st8{fill:url(#SVGID_5_);}
	.st9{opacity:0.44;fill:url(#SVGID_6_);enable-background:new    ;}
</style>
<g>
	<path class="st0" d="M694.5,242.6l-148-180.1C517.3,26.9,475.7,9.1,434,9.1s-83.3,17.7-112.5,53.4l-148,180.1
		C151.2,269.8,140,303,140,336.1c0,33.3,11.2,66.4,33.5,93.5l148,180.1c29.2,35.6,70.8,53.4,112.5,53.4s83.3-17.7,112.5-53.4
		l148-180.1c22.3-27.2,33.5-60.3,33.5-93.5C728,302.9,716.8,269.8,694.5,242.6z"/>
	<path class="st1" d="M593.2,348.2l-90.4-110c-17.9-21.7-43.3-32.6-68.8-32.6c-25.4,0-50.9,10.9-68.8,32.6l-90.4,110
		c-13.6,16.6-20.5,36.9-20.5,57.1c0,20.3,6.8,40.6,20.5,57.1l90.4,110c17.9,21.7,43.3,32.6,68.8,32.6s50.9-10.9,68.8-32.6l90.4-110
		c13.6-16.6,20.5-36.9,20.5-57.1C613.6,385,606.8,364.8,593.2,348.2z"/>
	<g>
		<path class="st2" d="M429.7,493.6l-16.8,20.5c-3.7,4.5-3.7,11,0,15.5l14.5,17.7c3.5,4.2,10,4.2,13.5,0l16.7-20.4
			c2.4-3,2.4-7.2,0-10.1l-5.5-6.7c-2.2-2.6-6.2-2.6-8.3,0l-0.3,0.4c-1.4,1.7-1.4,4.2,0,6l2.8,3.5c0.9,1.1,0.9,2.7,0,3.8l-10.7,13.1
			c-0.7,1-2.2,1-3,0l-10.7-13.1c-0.9-1.1-0.9-2.7,0-3.7l15-18.4c5.7-6.9,16.3-6.9,22,0l9.9,12.1c3.9,4.7,3.9,11.5,0,16.2l-22.6,27.6
			c-6.3,7.7-17.9,7.7-24.2,0l-19.1-23.6c-5.8-7.1-5.8-17.3,0-24.3l35.6-43.5c1.5-1.9,1.5-4.5,0-6.3l-0.9-1.1c-1.8-2.2-5-2.2-6.8,0
			l-36.3,44.3c-8.9,10.9-8.9,26.6,0,37.6l21.3,26c9.5,11.6,27.3,11.6,36.8,0l26.3-32.1c6.1-7.4,6.1-18.1,0-25.5l-12.7-15.6
			C456.6,482.1,439.1,482.1,429.7,493.6z"/>
	</g>
	<g>
		
			<linearGradient id="SVGID_1_" gradientUnits="userSpaceOnUse" x1="269.2932" y1="508.4192" x2="701.8254" y2="218.7325" gradientTransform="matrix(1 0 0 -1 0 674.2727)">
			<stop  offset="0" style="stop-color:#BB84FF"/>
			<stop  offset="0.3254" style="stop-color:#8E32FF"/>
			<stop  offset="0.6236" style="stop-color:#8E32FF"/>
			<stop  offset="1" style="stop-color:#BB84FF"/>
		</linearGradient>
		<path class="st3" d="M433.8,165.4c-68.2,0-128.3,34.7-163.5,87.4c-11.5,17.1-9.6,39.9,4.7,54.8l34.2,35.6
			c9.1-60.7,61.4-107.3,124.6-107.3c64.1,0,117,47.8,125,109.8l35.8-35.8c13.9-13.9,16.4-35.6,6-52.2
			C565.8,202.3,504.1,165.4,433.8,165.4z"/>
		
			<linearGradient id="SVGID_2_" gradientUnits="userSpaceOnUse" x1="422.3926" y1="410.4833" x2="701.33" y2="116.3863" gradientTransform="matrix(1 0 0 -1 0 674.2727)">
			<stop  offset="0.2097" style="stop-color:#8E32FF"/>
			<stop  offset="0.3636" style="stop-color:#A55BFF"/>
			<stop  offset="0.4498" style="stop-color:#BB84FF"/>
			<stop  offset="0.5734" style="stop-color:#BB84FF"/>
			<stop  offset="0.7456" style="stop-color:#D2ADFF"/>
		</linearGradient>
		<path class="st4" d="M433.8,165.4c-71.1,0-133.4,37.8-167.9,94.3c-8.5,13.9-6.3,31.8,4.9,43.5l38.3,40
			c9.1-60.7,61.4-107.3,124.6-107.3c64.1,0,117,47.8,125,109.8l40-40c11.1-11.1,13.3-28.2,5.5-41.7
			C570.4,205.1,506.7,165.4,433.8,165.4z"/>
		
			<linearGradient id="SVGID_3_" gradientUnits="userSpaceOnUse" x1="242.5313" y1="469.958" x2="682.3819" y2="175.3698" gradientTransform="matrix(1 0 0 -1 0 674.2727)">
			<stop  offset="0" style="stop-color:#BB84FF"/>
			<stop  offset="0.3254" style="stop-color:#8E32FF"/>
			<stop  offset="0.6236" style="stop-color:#8E32FF"/>
			<stop  offset="1" style="stop-color:#BB84FF"/>
		</linearGradient>
		<path class="st5" d="M433.8,235.9c-63.2,0-115.6,46.6-124.6,107.3l70.2,73.1c30.1,30.1,78.7,30.1,108.8,0l70.6-70.6
			C550.8,283.8,497.9,235.9,433.8,235.9z M473.9,402.1c-22.1,22.1-58,22.1-80.1,0c-22.1-22.1-22.1-58,0-80.1
			c22.1-22.1,58-22.1,80.1,0C496.1,344,496.1,380,473.9,402.1z"/>
		
			<linearGradient id="SVGID_4_" gradientUnits="userSpaceOnUse" x1="396.9696" y1="386.3708" x2="675.907" y2="92.2738" gradientTransform="matrix(1 0 0 -1 0 674.2727)">
			<stop  offset="0.2097" style="stop-color:#8E32FF"/>
			<stop  offset="0.3636" style="stop-color:#A55BFF"/>
			<stop  offset="0.4498" style="stop-color:#BB84FF"/>
			<stop  offset="0.5734" style="stop-color:#BB84FF"/>
			<stop  offset="0.7456" style="stop-color:#D2ADFF"/>
		</linearGradient>
		<path class="st6" d="M433.8,235.9c-63.2,0-115.6,46.6-124.6,107.3l70.2,73.1c30.1,30.1,78.7,30.1,108.8,0l70.6-70.6
			C550.8,283.8,497.9,235.9,433.8,235.9z M473.9,402.1c-22.1,22.1-58,22.1-80.1,0c-22.1-22.1-22.1-58,0-80.1
			c22.1-22.1,58-22.1,80.1,0C496.1,344,496.1,380,473.9,402.1z"/>
		<path class="st7" d="M433.8,235.9c-63.2,0-115.6,46.6-124.6,107.3l70.2,73.1c30.1,30.1,78.7,30.1,108.8,0l70.6-70.6
			C550.8,283.8,497.9,235.9,433.8,235.9z M473.9,402.1c-22.1,22.1-58,22.1-80.1,0c-22.1-22.1-22.1-58,0-80.1
			c22.1-22.1,58-22.1,80.1,0C496.1,344,496.1,380,473.9,402.1z"/>
		
			<linearGradient id="SVGID_5_" gradientUnits="userSpaceOnUse" x1="228.866" y1="449.5545" x2="668.7167" y2="154.9663" gradientTransform="matrix(1 0 0 -1 0 674.2727)">
			<stop  offset="0" style="stop-color:#BB84FF"/>
			<stop  offset="0.3254" style="stop-color:#8E32FF"/>
			<stop  offset="0.6236" style="stop-color:#8E32FF"/>
			<stop  offset="1" style="stop-color:#BB84FF"/>
		</linearGradient>
		<path class="st8" d="M393.7,321.9c-22.1,22.1-22.1,58,0,80.1c22.1,22.1,58,22.1,80.1,0c22.1-22.1,22.1-58,0-80.1
			C451.8,299.8,415.8,299.8,393.7,321.9z"/>
		
			<linearGradient id="SVGID_6_" gradientUnits="userSpaceOnUse" x1="379.372" y1="369.6804" x2="658.3094" y2="75.5832" gradientTransform="matrix(1 0 0 -1 0 674.2727)">
			<stop  offset="0.2097" style="stop-color:#8E32FF"/>
			<stop  offset="0.3636" style="stop-color:#A55BFF"/>
			<stop  offset="0.4498" style="stop-color:#BB84FF"/>
			<stop  offset="0.5734" style="stop-color:#BB84FF"/>
			<stop  offset="0.7456" style="stop-color:#D2ADFF"/>
		</linearGradient>
		<path class="st9" d="M393.7,321.9c-22.1,22.1-22.1,58,0,80.1c22.1,22.1,58,22.1,80.1,0c22.1-22.1,22.1-58,0-80.1
			C451.8,299.8,415.8,299.8,393.7,321.9z"/>
		<path class="st7" d="M393.7,321.9c-22.1,22.1-22.1,58,0,80.1c22.1,22.1,58,22.1,80.1,0c22.1-22.1,22.1-58,0-80.1
			C451.8,299.8,415.8,299.8,393.7,321.9z"/>
		<path class="st7" d="M393.7,321.9c-22.1,22.1-22.1,58,0,80.1c22.1,22.1,58,22.1,80.1,0c22.1-22.1,22.1-58,0-80.1
			C451.8,299.8,415.8,299.8,393.7,321.9z"/>
	</g>
</g>
</svg>
