<?xml version="1.0" encoding="utf-8"?>
<!-- Generator: Adobe Illustrator 22.0.0, SVG Export Plug-In . SVG Version: 6.00 Build 0)  -->
<svg version="1.1" id="Capa_1" xmlns:serif="http://www.serif.com/"
	 xmlns="http://www.w3.org/2000/svg" xmlns:xlink="http://www.w3.org/1999/xlink" x="0px" y="0px" viewBox="0 0 870 672.3"
	 style="enable-background:new 0 0 870 672.3;" xml:space="preserve">
<style type="text/css">
	.st0{fill:#8800FF;}
	.st1{opacity:0.17;fill:#BDCCD4;enable-background:new    ;}
	.st2{fill:url(#SVGID_1_);}
	.st3{fill:url(#SVGID_2_);}
	.st4{fill:#5A11B2;}
	.st5{fill:#F2F2F2;}
	.st6{fill:#8E32FF;}
	.st7{opacity:0.39;fill:#D2AEFF;enable-background:new    ;}
	.st8{fill:#471980;}
	.st9{opacity:0.5;fill:#BDCCD4;enable-background:new    ;}
	.st10{opacity:0.5;fill:#6B26BF;enable-background:new    ;}
	.st11{opacity:0.5;}
	.st12{fill:#BB84FF;}
	.st13{opacity:0.5;fill:#8E32FF;enable-background:new    ;}
	.st14{fill:#FFFFFF;}
	.st15{clip-path:url(#SVGID_4_);}
	.st16{fill:url(#SVGID_5_);}
	.st17{fill:url(#SVGID_6_);}
</style>
<g>
	<path class="st0" d="M694.3,242.6l-148-180.2C517.1,26.8,475.4,9.1,433.8,9.1s-83.3,17.8-112.5,53.3l-148,180.2
		c-22.3,27.2-33.5,60.4-33.5,93.5c0,33.3,11.2,66.4,33.5,93.5l148,180.2c29.3,35.6,70.9,53.3,112.5,53.3s83.3-17.8,112.5-53.3
		l148-180.2c22.3-27.2,33.5-60.4,33.5-93.5C727.8,302.9,716.6,269.8,694.3,242.6z"/>
	<g>
		<g>
			<g>
				<g>
					<path class="st1" d="M333.7,262.8h254c10.5,0,19,8.5,19,19V447c0,10.5-8.5,19-19,19h-254c-10.5,0-19-8.5-19-19V281.9
						C314.6,271.3,323.2,262.8,333.7,262.8z"/>
					
						<radialGradient id="SVGID_1_" cx="460.6953" cy="200.8735" r="284.9902" gradientTransform="matrix(1 0 0 -1 0 674.2727)" gradientUnits="userSpaceOnUse">
						<stop  offset="0.4276" style="stop-color:#8E32FF"/>
						<stop  offset="1" style="stop-color:#BB84FF"/>
					</radialGradient>
					<path class="st2" d="M333.7,262.8h254c10.5,0,19,8.5,19,19V447c0,10.5-8.5,19-19,19h-254c-10.5,0-19-8.5-19-19V281.9
						C314.6,271.3,323.2,262.8,333.7,262.8z"/>
					
						<linearGradient id="SVGID_2_" gradientUnits="userSpaceOnUse" x1="460.5414" y1="163.7022" x2="463.4315" y2="235.4731" gradientTransform="matrix(1 0 0 -1 0 674.2727)">
						<stop  offset="0.3667" style="stop-color:#8E32FF"/>
						<stop  offset="1" style="stop-color:#BB84FF"/>
					</linearGradient>
					<path class="st3" d="M496.7,497.8L486.1,466h-50.8l-10.6,31.8h-15.9c-2.9,0-5.3,2.4-5.3,5.3v7.5h114.3v-5.3
						c0-4.1-3.3-7.4-7.4-7.4L496.7,497.8L496.7,497.8z"/>
					<path class="st4" d="M339.5,281.9h1.2c3.2,0,5.8,2.6,5.8,5.8v1.2c0,3.2-2.6,5.8-5.8,5.8h-1.2c-3.2,0-5.8-2.6-5.8-5.8v-1.2
						C333.7,284.4,336.2,281.9,339.5,281.9z"/>
					<path class="st4" d="M364.9,281.9h1.2c3.2,0,5.8,2.6,5.8,5.8v1.2c0,3.2-2.6,5.8-5.8,5.8h-1.2c-3.2,0-5.8-2.6-5.8-5.8v-1.2
						C359.1,284.4,361.7,281.9,364.9,281.9z"/>
					<path class="st4" d="M390.3,281.9h1.2c3.2,0,5.8,2.6,5.8,5.8v1.2c0,3.2-2.6,5.8-5.8,5.8h-1.2c-3.2,0-5.8-2.6-5.8-5.8v-1.2
						C384.5,284.4,387.1,281.9,390.3,281.9z"/>
				</g>
			</g>
			<g>
				<g>
					<path class="st5" d="M373.9,329.2c0-0.4-0.1-0.8-0.4-1.2c-0.1-0.1-0.1-0.1-0.1-0.2l-0.3-0.4l-1.1-1.6c-0.1-0.1-0.1-0.1-0.2-0.2
						c-0.1-0.1-0.2-0.2-0.4-0.4l0,0c-0.4-0.3-0.9-0.4-1.4-0.4l0,0c-0.6,0-1.1,0.1-1.6,0.5c-0.1,0.1-0.3,0.3-0.4,0.4l0,0l0,0l-1,1.3
						l0,0l-1.3,1.8c0,0,0,0,0,0.1s-0.1,0.1-0.1,0.2c-0.1,0.1,0,0.4,0.1,0.5l0.7,1l0.4,0.7v0.1l1,1.5c0.1,0.1,0.3,0.2,0.5,0.2
						c0,0,0,0,0.1,0c0.1,0,0.4-0.1,0.4-0.2l1.1-1.5l0,0l0.4-0.6l0.7-1c0.1-0.1,0.1-0.3,0.1-0.5c0-0.1-0.1-0.1-0.1-0.2l-0.1-0.1
						l-0.7-1c-0.1-0.2-0.4-0.3-0.7-0.2c-0.1,0-0.1,0.1-0.1,0.1l0,0l0,0l-0.1,0.1l0,0l-0.2,0.3c0,0.1-0.1,0.1-0.1,0.1
						c0,0,0,0.1,0.1,0.1l0.5,0.7l0,0l0.1,0.1v0.1c0,0,0,0,0,0.1s0,0.2-0.1,0.3l-0.6,0.7l0,0l-0.1,0.1l-0.6,0.8l-0.1,0.1
						c-0.1,0-0.1,0-0.1-0.1l-0.6-0.8l-0.1-0.1l0,0l-0.6-0.9v-0.1c0-0.1,0-0.1,0-0.1l0,0l0.7-1l0,0l0.7-1l0.5-0.7l0,0
						c0.4-0.5,1.2-0.7,1.7-0.3l0,0c0.1,0.1,0.2,0.1,0.3,0.3l1.2,1.6l0.2,0.4c0.1,0.2,0.2,0.4,0.3,0.7c0,0.4-0.1,0.7-0.3,1l-0.7,1
						l-0.9,1.2l0,0l-1.3,1.8c-0.2,0.4-0.7,0.5-1,0.5c-0.4,0-0.8-0.1-1.1-0.5l-1.3-1.8l-0.1-0.1l-0.9-1.2l-0.7-0.9
						c-0.2-0.3-0.4-0.7-0.3-1.1c0-0.3,0.1-0.5,0.2-0.7l0.1-0.1l1.6-2.2l0,0l0.7-1l0,0l1.5-2.1l0.5-0.7l0,0l0,0
						c0.1-0.3,0.1-0.6-0.1-0.8l0,0l0,0l0,0l-0.3-0.2h-0.1c-0.1,0-0.2,0-0.2,0.1l-0.2,0.3l0,0v0.1l0,0l-1.8,2.4l0,0l-0.7,1l0,0
						l-1.9,2.3c0,0,0,0-0.1,0.1c0,0,0,0.1-0.1,0.1c-0.3,0.4-0.4,1-0.5,1.5c0,0.7,0.1,1.3,0.6,1.9l0.6,0.8l1.2,1.6l0.1,0.1l1,1.4
						c0.5,0.7,1.3,1,2.1,1l0,0c0.8,0,1.6-0.4,2-1l1-1.5l0,0l1.1-1.6l0.7-1C373.8,330.4,373.9,329.7,373.9,329.2z"/>
				</g>
			</g>
			<g>
				<g>
					<path class="st6" d="M376.2,340.9H362c-3,0-5.4-2.4-5.4-5.4v-14.2c0-3,2.4-5.4,5.4-5.4h14.2c3,0,5.4,2.4,5.4,5.4v14.2
						C381.6,338.4,379.2,340.9,376.2,340.9z"/>
					<path class="st7" d="M376.2,431.4H362c-3,0-5.4-2.4-5.4-5.4v-76.6c0-3,2.4-5.4,5.4-5.4h14.2c3,0,5.4,2.4,5.4,5.4V426
						C381.6,429,379.2,431.4,376.2,431.4z"/>
					<path class="st7" d="M501.1,431.4H398.4c-3,0-5.4-2.4-5.4-5.4V321.3c0-3,2.4-5.4,5.4-5.4h102.6c3,0,5.4,2.4,5.4,5.4V426
						C506.5,429,504,431.4,501.1,431.4z"/>
					<path class="st7" d="M562.5,431.4h-45.4c-3,0-5.4-2.4-5.4-5.4v-73.5c0-3,2.4-5.4,5.4-5.4h45.4c3,0,5.4,2.4,5.4,5.4V426
						C567.9,429,565.5,431.4,562.5,431.4z"/>
					<path class="st8" d="M562.5,338.8h-45.4c-3,0-5.4-2.4-5.4-5.4v-12.1c0-3,2.4-5.4,5.4-5.4h45.4c3,0,5.4,2.4,5.4,5.4v12.1
						C567.9,336.4,565.5,338.8,562.5,338.8z"/>
					<path class="st9" d="M371.3,364.4h-4.4c-1.6,0-3-1.3-3-3v-4.4c0-1.6,1.3-3,3-3h4.4c1.6,0,3,1.3,3,3v4.4
						C374.3,363,372.9,364.4,371.3,364.4z"/>
					<path class="st10" d="M371.3,382.9h-4.4c-1.6,0-3-1.3-3-3v-4.4c0-1.6,1.3-3,3-3h4.4c1.6,0,3,1.3,3,3v4.4
						C374.3,381.5,372.9,382.9,371.3,382.9z"/>
					<path class="st10" d="M371.3,401.5h-4.4c-1.6,0-3-1.3-3-3V394c0-1.6,1.3-3,3-3h4.4c1.6,0,3,1.3,3,3v4.4
						C374.3,400.1,372.9,401.5,371.3,401.5z"/>
					<path class="st10" d="M371.3,420h-4.4c-1.6,0-3-1.3-3-3v-4.4c0-1.6,1.3-3,3-3h4.4c1.6,0,3,1.3,3,3v4.4
						C374.3,418.6,372.9,420,371.3,420z"/>
					<g class="st11">
						<g>
							<path class="st12" d="M423.4,328.3H403c-0.3,0-0.6-0.2-0.6-0.6v-0.8c0-0.3,0.2-0.6,0.6-0.6h20.4c0.3,0,0.6,0.2,0.6,0.6v0.8
								C424,328.1,423.7,328.3,423.4,328.3z"/>
							<path class="st12" d="M440.2,328.3h-10.8c-0.3,0-0.6-0.2-0.6-0.6v-0.8c0-0.3,0.2-0.6,0.6-0.6h10.8c0.3,0,0.6,0.2,0.6,0.6v0.8
								C440.8,328.1,440.5,328.3,440.2,328.3z"/>
							<path class="st12" d="M484.5,328.3h-38.4c-0.3,0-0.6-0.2-0.6-0.6v-0.8c0-0.3,0.2-0.6,0.6-0.6h38.4c0.3,0,0.6,0.2,0.6,0.6v0.8
								C485.1,328.1,484.8,328.3,484.5,328.3z"/>
							<path class="st12" d="M496.5,328.3h-7.3c-0.3,0-0.6-0.2-0.6-0.6v-0.8c0-0.3,0.2-0.6,0.6-0.6h7.3c0.3,0,0.6,0.2,0.6,0.6v0.8
								C497.1,328.1,496.8,328.3,496.5,328.3z"/>
						</g>
						<g>
							<path class="st12" d="M423.4,341.3H403c-0.3,0-0.6-0.2-0.6-0.6v-0.8c0-0.3,0.2-0.6,0.6-0.6h20.4c0.3,0,0.6,0.2,0.6,0.6v0.8
								C424,341,423.7,341.3,423.4,341.3z"/>
							<path class="st12" d="M440.2,341.3h-10.8c-0.3,0-0.6-0.2-0.6-0.6v-0.8c0-0.3,0.2-0.6,0.6-0.6h10.8c0.3,0,0.6,0.2,0.6,0.6v0.8
								C440.8,341,440.5,341.3,440.2,341.3z"/>
							<path class="st12" d="M484.5,341.3h-38.4c-0.3,0-0.6-0.2-0.6-0.6v-0.8c0-0.3,0.2-0.6,0.6-0.6h38.4c0.3,0,0.6,0.2,0.6,0.6v0.8
								C485.1,341,484.8,341.3,484.5,341.3z"/>
							<path class="st12" d="M496.5,341.3h-7.3c-0.3,0-0.6-0.2-0.6-0.6v-0.8c0-0.3,0.2-0.6,0.6-0.6h7.3c0.3,0,0.6,0.2,0.6,0.6v0.8
								C497.1,341,496.8,341.3,496.5,341.3z"/>
						</g>
						<g>
							<path class="st12" d="M423.4,354.3H403c-0.3,0-0.6-0.2-0.6-0.6v-0.8c0-0.3,0.2-0.6,0.6-0.6h20.4c0.3,0,0.6,0.2,0.6,0.6v0.8
								C424,354.1,423.7,354.3,423.4,354.3z"/>
							<path class="st12" d="M440.2,354.3h-10.8c-0.3,0-0.6-0.2-0.6-0.6v-0.8c0-0.3,0.2-0.6,0.6-0.6h10.8c0.3,0,0.6,0.2,0.6,0.6v0.8
								C440.8,354.1,440.5,354.3,440.2,354.3z"/>
							<path class="st12" d="M484.5,354.3h-38.4c-0.3,0-0.6-0.2-0.6-0.6v-0.8c0-0.3,0.2-0.6,0.6-0.6h38.4c0.3,0,0.6,0.2,0.6,0.6v0.8
								C485.1,354.1,484.8,354.3,484.5,354.3z"/>
							<path class="st12" d="M496.5,354.3h-7.3c-0.3,0-0.6-0.2-0.6-0.6v-0.8c0-0.3,0.2-0.6,0.6-0.6h7.3c0.3,0,0.6,0.2,0.6,0.6v0.8
								C497.1,354.1,496.8,354.3,496.5,354.3z"/>
						</g>
						<g>
							<path class="st12" d="M423.4,367.3H403c-0.3,0-0.6-0.2-0.6-0.6v-0.8c0-0.3,0.2-0.6,0.6-0.6h20.4c0.3,0,0.6,0.2,0.6,0.6v0.8
								C424,367.1,423.7,367.3,423.4,367.3z"/>
							<path class="st12" d="M440.2,367.3h-10.8c-0.3,0-0.6-0.2-0.6-0.6v-0.8c0-0.3,0.2-0.6,0.6-0.6h10.8c0.3,0,0.6,0.2,0.6,0.6v0.8
								C440.8,367.1,440.5,367.3,440.2,367.3z"/>
							<path class="st12" d="M484.5,367.3h-38.4c-0.3,0-0.6-0.2-0.6-0.6v-0.8c0-0.3,0.2-0.6,0.6-0.6h38.4c0.3,0,0.6,0.2,0.6,0.6v0.8
								C485.1,367.1,484.8,367.3,484.5,367.3z"/>
							<path class="st12" d="M496.5,367.3h-7.3c-0.3,0-0.6-0.2-0.6-0.6v-0.8c0-0.3,0.2-0.6,0.6-0.6h7.3c0.3,0,0.6,0.2,0.6,0.6v0.8
								C497.1,367.1,496.8,367.3,496.5,367.3z"/>
						</g>
						<g>
							<path class="st12" d="M423.4,380.3H403c-0.3,0-0.6-0.2-0.6-0.6v-0.8c0-0.3,0.2-0.6,0.6-0.6h20.4c0.3,0,0.6,0.2,0.6,0.6v0.8
								C424,380.1,423.7,380.3,423.4,380.3z"/>
							<path class="st12" d="M440.2,380.3h-10.8c-0.3,0-0.6-0.2-0.6-0.6v-0.8c0-0.3,0.2-0.6,0.6-0.6h10.8c0.3,0,0.6,0.2,0.6,0.6v0.8
								C440.8,380.1,440.5,380.3,440.2,380.3z"/>
							<path class="st12" d="M484.5,380.3h-38.4c-0.3,0-0.6-0.2-0.6-0.6v-0.8c0-0.3,0.2-0.6,0.6-0.6h38.4c0.3,0,0.6,0.2,0.6,0.6v0.8
								C485.1,380.1,484.8,380.3,484.5,380.3z"/>
							<path class="st12" d="M496.5,380.3h-7.3c-0.3,0-0.6-0.2-0.6-0.6v-0.8c0-0.3,0.2-0.6,0.6-0.6h7.3c0.3,0,0.6,0.2,0.6,0.6v0.8
								C497.1,380.1,496.8,380.3,496.5,380.3z"/>
						</g>
						<g>
							<path class="st12" d="M423.4,393.3H403c-0.3,0-0.6-0.2-0.6-0.6v-0.8c0-0.3,0.2-0.6,0.6-0.6h20.4c0.3,0,0.6,0.2,0.6,0.6v0.8
								C424,393.1,423.7,393.3,423.4,393.3z"/>
							<path class="st12" d="M440.2,393.3h-10.8c-0.3,0-0.6-0.2-0.6-0.6v-0.8c0-0.3,0.2-0.6,0.6-0.6h10.8c0.3,0,0.6,0.2,0.6,0.6v0.8
								C440.8,393.1,440.5,393.3,440.2,393.3z"/>
							<path class="st12" d="M484.5,393.3h-38.4c-0.3,0-0.6-0.2-0.6-0.6v-0.8c0-0.3,0.2-0.6,0.6-0.6h38.4c0.3,0,0.6,0.2,0.6,0.6v0.8
								C485.1,393.1,484.8,393.3,484.5,393.3z"/>
							<path class="st12" d="M496.5,393.3h-7.3c-0.3,0-0.6-0.2-0.6-0.6v-0.8c0-0.3,0.2-0.6,0.6-0.6h7.3c0.3,0,0.6,0.2,0.6,0.6v0.8
								C497.1,393.1,496.8,393.3,496.5,393.3z"/>
						</g>
						<g>
							<path class="st12" d="M423.4,406.3H403c-0.3,0-0.6-0.2-0.6-0.6v-0.8c0-0.3,0.2-0.6,0.6-0.6h20.4c0.3,0,0.6,0.2,0.6,0.6v0.8
								C424,406.1,423.7,406.3,423.4,406.3z"/>
							<path class="st12" d="M440.2,406.3h-10.8c-0.3,0-0.6-0.2-0.6-0.6v-0.8c0-0.3,0.2-0.6,0.6-0.6h10.8c0.3,0,0.6,0.2,0.6,0.6v0.8
								C440.8,406.1,440.5,406.3,440.2,406.3z"/>
							<path class="st12" d="M484.5,406.3h-38.4c-0.3,0-0.6-0.2-0.6-0.6v-0.8c0-0.3,0.2-0.6,0.6-0.6h38.4c0.3,0,0.6,0.2,0.6,0.6v0.8
								C485.1,406.1,484.8,406.3,484.5,406.3z"/>
							<path class="st12" d="M496.5,406.3h-7.3c-0.3,0-0.6-0.2-0.6-0.6v-0.8c0-0.3,0.2-0.6,0.6-0.6h7.3c0.3,0,0.6,0.2,0.6,0.6v0.8
								C497.1,406.1,496.8,406.3,496.5,406.3z"/>
						</g>
						<g>
							<path class="st12" d="M423.4,419.4H403c-0.3,0-0.6-0.2-0.6-0.6V418c0-0.3,0.2-0.6,0.6-0.6h20.4c0.3,0,0.6,0.2,0.6,0.6v0.8
								C424,419.1,423.7,419.4,423.4,419.4z"/>
							<path class="st12" d="M440.2,419.4h-10.8c-0.3,0-0.6-0.2-0.6-0.6V418c0-0.3,0.2-0.6,0.6-0.6h10.8c0.3,0,0.6,0.2,0.6,0.6v0.8
								C440.8,419.1,440.5,419.4,440.2,419.4z"/>
							<path class="st12" d="M484.5,419.4h-38.4c-0.3,0-0.6-0.2-0.6-0.6V418c0-0.3,0.2-0.6,0.6-0.6h38.4c0.3,0,0.6,0.2,0.6,0.6v0.8
								C485.1,419.1,484.8,419.4,484.5,419.4z"/>
							<path class="st12" d="M496.5,419.4h-7.3c-0.3,0-0.6-0.2-0.6-0.6V418c0-0.3,0.2-0.6,0.6-0.6h7.3c0.3,0,0.6,0.2,0.6,0.6v0.8
								C497.1,419.1,496.8,419.4,496.5,419.4z"/>
						</g>
					</g>
					<g class="st11">
						<circle class="st12" cx="525.2" cy="362.1" r="5.6"/>
						<circle class="st12" cx="525.2" cy="378.8" r="5.6"/>
						<circle class="st12" cx="525.2" cy="395.6" r="5.6"/>
						<circle class="st12" cx="525.2" cy="412.3" r="5.6"/>
						<path class="st12" d="M559,360.6h-24.8c-0.3,0-0.6-0.3-0.6-0.6v-0.9c0-0.3,0.3-0.6,0.6-0.6H559c0.3,0,0.6,0.3,0.6,0.6v0.9
							C559.6,360.4,559.3,360.6,559,360.6z"/>
						<path class="st12" d="M559,394h-24.8c-0.3,0-0.6-0.3-0.6-0.6v-0.9c0-0.3,0.3-0.6,0.6-0.6H559c0.3,0,0.6,0.3,0.6,0.6v0.9
							C559.6,393.7,559.3,394,559,394z"/>
						<path class="st12" d="M559,410.6h-24.8c-0.3,0-0.6-0.3-0.6-0.6v-0.9c0-0.3,0.3-0.6,0.6-0.6H559c0.3,0,0.6,0.3,0.6,0.6v0.9
							C559.6,410.3,559.3,410.6,559,410.6z"/>
						<path class="st12" d="M559,377.3h-24.8c-0.3,0-0.6-0.3-0.6-0.6v-0.9c0-0.3,0.3-0.6,0.6-0.6H559c0.3,0,0.6,0.3,0.6,0.6v0.9
							C559.6,377,559.3,377.3,559,377.3z"/>
						<path class="st12" d="M543.3,365.8h-9.2c-0.3,0-0.6-0.3-0.6-0.6v-0.9c0-0.3,0.3-0.6,0.6-0.6h9.2c0.3,0,0.6,0.3,0.6,0.6v0.9
							C543.9,365.6,543.6,365.8,543.3,365.8z"/>
						<path class="st12" d="M543.3,399.2h-9.2c-0.3,0-0.6-0.3-0.6-0.6v-0.9c0-0.3,0.3-0.6,0.6-0.6h9.2c0.3,0,0.6,0.3,0.6,0.6v0.9
							C543.9,398.9,543.6,399.2,543.3,399.2z"/>
						<path class="st12" d="M543.3,415.8h-9.2c-0.3,0-0.6-0.3-0.6-0.6v-0.9c0-0.3,0.3-0.6,0.6-0.6h9.2c0.3,0,0.6,0.3,0.6,0.6v0.9
							C543.9,415.5,543.6,415.8,543.3,415.8z"/>
						<path class="st12" d="M543.3,382.5h-9.2c-0.3,0-0.6-0.3-0.6-0.6V381c0-0.3,0.3-0.6,0.6-0.6h9.2c0.3,0,0.6,0.3,0.6,0.6v0.9
							C543.9,382.3,543.6,382.5,543.3,382.5z"/>
					</g>
				</g>
				<g>
					<path class="st6" d="M376.2,340.9H362c-3,0-5.4-2.4-5.4-5.4v-14.2c0-3,2.4-5.4,5.4-5.4h14.2c3,0,5.4,2.4,5.4,5.4v14.2
						C381.6,338.4,379.2,340.9,376.2,340.9z"/>
					<path class="st7" d="M376.2,431.4H362c-3,0-5.4-2.4-5.4-5.4v-76.6c0-3,2.4-5.4,5.4-5.4h14.2c3,0,5.4,2.4,5.4,5.4V426
						C381.6,429,379.2,431.4,376.2,431.4z"/>
					<path class="st7" d="M501.1,431.4H398.4c-3,0-5.4-2.4-5.4-5.4V321.3c0-3,2.4-5.4,5.4-5.4h102.6c3,0,5.4,2.4,5.4,5.4V426
						C506.5,429,504,431.4,501.1,431.4z"/>
					<path class="st7" d="M562.5,431.4h-45.4c-3,0-5.4-2.4-5.4-5.4v-73.5c0-3,2.4-5.4,5.4-5.4h45.4c3,0,5.4,2.4,5.4,5.4V426
						C567.9,429,565.5,431.4,562.5,431.4z"/>
					<path class="st8" d="M562.5,338.8h-45.4c-3,0-5.4-2.4-5.4-5.4v-12.1c0-3,2.4-5.4,5.4-5.4h45.4c3,0,5.4,2.4,5.4,5.4v12.1
						C567.9,336.4,565.5,338.8,562.5,338.8z"/>
					<path class="st13" d="M371.3,364.4h-4.4c-1.6,0-3-1.3-3-3v-4.4c0-1.6,1.3-3,3-3h4.4c1.6,0,3,1.3,3,3v4.4
						C374.3,363,372.9,364.4,371.3,364.4z"/>
					<path class="st10" d="M371.3,382.9h-4.4c-1.6,0-3-1.3-3-3v-4.4c0-1.6,1.3-3,3-3h4.4c1.6,0,3,1.3,3,3v4.4
						C374.3,381.5,372.9,382.9,371.3,382.9z"/>
					<path class="st10" d="M371.3,401.5h-4.4c-1.6,0-3-1.3-3-3V394c0-1.6,1.3-3,3-3h4.4c1.6,0,3,1.3,3,3v4.4
						C374.3,400.1,372.9,401.5,371.3,401.5z"/>
					<path class="st10" d="M371.3,420h-4.4c-1.6,0-3-1.3-3-3v-4.4c0-1.6,1.3-3,3-3h4.4c1.6,0,3,1.3,3,3v4.4
						C374.3,418.6,372.9,420,371.3,420z"/>
					<g class="st11">
						<g>
							<path class="st6" d="M423.4,328.3H403c-0.3,0-0.6-0.2-0.6-0.6v-0.8c0-0.3,0.2-0.6,0.6-0.6h20.4c0.3,0,0.6,0.2,0.6,0.6v0.8
								C424,328.1,423.7,328.3,423.4,328.3z"/>
							<path class="st6" d="M440.2,328.3h-10.8c-0.3,0-0.6-0.2-0.6-0.6v-0.8c0-0.3,0.2-0.6,0.6-0.6h10.8c0.3,0,0.6,0.2,0.6,0.6v0.8
								C440.8,328.1,440.5,328.3,440.2,328.3z"/>
							<path class="st6" d="M484.5,328.3h-38.4c-0.3,0-0.6-0.2-0.6-0.6v-0.8c0-0.3,0.2-0.6,0.6-0.6h38.4c0.3,0,0.6,0.2,0.6,0.6v0.8
								C485.1,328.1,484.8,328.3,484.5,328.3z"/>
							<path class="st6" d="M496.5,328.3h-7.3c-0.3,0-0.6-0.2-0.6-0.6v-0.8c0-0.3,0.2-0.6,0.6-0.6h7.3c0.3,0,0.6,0.2,0.6,0.6v0.8
								C497.1,328.1,496.8,328.3,496.5,328.3z"/>
						</g>
						<g>
							<path class="st6" d="M423.4,341.3H403c-0.3,0-0.6-0.2-0.6-0.6v-0.8c0-0.3,0.2-0.6,0.6-0.6h20.4c0.3,0,0.6,0.2,0.6,0.6v0.8
								C424,341,423.7,341.3,423.4,341.3z"/>
							<path class="st6" d="M440.2,341.3h-10.8c-0.3,0-0.6-0.2-0.6-0.6v-0.8c0-0.3,0.2-0.6,0.6-0.6h10.8c0.3,0,0.6,0.2,0.6,0.6v0.8
								C440.8,341,440.5,341.3,440.2,341.3z"/>
							<path class="st6" d="M484.5,341.3h-38.4c-0.3,0-0.6-0.2-0.6-0.6v-0.8c0-0.3,0.2-0.6,0.6-0.6h38.4c0.3,0,0.6,0.2,0.6,0.6v0.8
								C485.1,341,484.8,341.3,484.5,341.3z"/>
							<path class="st6" d="M496.5,341.3h-7.3c-0.3,0-0.6-0.2-0.6-0.6v-0.8c0-0.3,0.2-0.6,0.6-0.6h7.3c0.3,0,0.6,0.2,0.6,0.6v0.8
								C497.1,341,496.8,341.3,496.5,341.3z"/>
						</g>
						<g>
							<path class="st6" d="M423.4,354.3H403c-0.3,0-0.6-0.2-0.6-0.6v-0.8c0-0.3,0.2-0.6,0.6-0.6h20.4c0.3,0,0.6,0.2,0.6,0.6v0.8
								C424,354.1,423.7,354.3,423.4,354.3z"/>
							<path class="st6" d="M440.2,354.3h-10.8c-0.3,0-0.6-0.2-0.6-0.6v-0.8c0-0.3,0.2-0.6,0.6-0.6h10.8c0.3,0,0.6,0.2,0.6,0.6v0.8
								C440.8,354.1,440.5,354.3,440.2,354.3z"/>
							<path class="st6" d="M484.5,354.3h-38.4c-0.3,0-0.6-0.2-0.6-0.6v-0.8c0-0.3,0.2-0.6,0.6-0.6h38.4c0.3,0,0.6,0.2,0.6,0.6v0.8
								C485.1,354.1,484.8,354.3,484.5,354.3z"/>
							<path class="st6" d="M496.5,354.3h-7.3c-0.3,0-0.6-0.2-0.6-0.6v-0.8c0-0.3,0.2-0.6,0.6-0.6h7.3c0.3,0,0.6,0.2,0.6,0.6v0.8
								C497.1,354.1,496.8,354.3,496.5,354.3z"/>
						</g>
						<g>
							<path class="st6" d="M423.4,367.3H403c-0.3,0-0.6-0.2-0.6-0.6v-0.8c0-0.3,0.2-0.6,0.6-0.6h20.4c0.3,0,0.6,0.2,0.6,0.6v0.8
								C424,367.1,423.7,367.3,423.4,367.3z"/>
							<path class="st6" d="M440.2,367.3h-10.8c-0.3,0-0.6-0.2-0.6-0.6v-0.8c0-0.3,0.2-0.6,0.6-0.6h10.8c0.3,0,0.6,0.2,0.6,0.6v0.8
								C440.8,367.1,440.5,367.3,440.2,367.3z"/>
							<path class="st6" d="M484.5,367.3h-38.4c-0.3,0-0.6-0.2-0.6-0.6v-0.8c0-0.3,0.2-0.6,0.6-0.6h38.4c0.3,0,0.6,0.2,0.6,0.6v0.8
								C485.1,367.1,484.8,367.3,484.5,367.3z"/>
							<path class="st6" d="M496.5,367.3h-7.3c-0.3,0-0.6-0.2-0.6-0.6v-0.8c0-0.3,0.2-0.6,0.6-0.6h7.3c0.3,0,0.6,0.2,0.6,0.6v0.8
								C497.1,367.1,496.8,367.3,496.5,367.3z"/>
						</g>
						<g>
							<path class="st6" d="M423.4,380.3H403c-0.3,0-0.6-0.2-0.6-0.6v-0.8c0-0.3,0.2-0.6,0.6-0.6h20.4c0.3,0,0.6,0.2,0.6,0.6v0.8
								C424,380.1,423.7,380.3,423.4,380.3z"/>
							<path class="st6" d="M440.2,380.3h-10.8c-0.3,0-0.6-0.2-0.6-0.6v-0.8c0-0.3,0.2-0.6,0.6-0.6h10.8c0.3,0,0.6,0.2,0.6,0.6v0.8
								C440.8,380.1,440.5,380.3,440.2,380.3z"/>
							<path class="st6" d="M484.5,380.3h-38.4c-0.3,0-0.6-0.2-0.6-0.6v-0.8c0-0.3,0.2-0.6,0.6-0.6h38.4c0.3,0,0.6,0.2,0.6,0.6v0.8
								C485.1,380.1,484.8,380.3,484.5,380.3z"/>
							<path class="st6" d="M496.5,380.3h-7.3c-0.3,0-0.6-0.2-0.6-0.6v-0.8c0-0.3,0.2-0.6,0.6-0.6h7.3c0.3,0,0.6,0.2,0.6,0.6v0.8
								C497.1,380.1,496.8,380.3,496.5,380.3z"/>
						</g>
						<g>
							<path class="st6" d="M423.4,393.3H403c-0.3,0-0.6-0.2-0.6-0.6v-0.8c0-0.3,0.2-0.6,0.6-0.6h20.4c0.3,0,0.6,0.2,0.6,0.6v0.8
								C424,393.1,423.7,393.3,423.4,393.3z"/>
							<path class="st6" d="M440.2,393.3h-10.8c-0.3,0-0.6-0.2-0.6-0.6v-0.8c0-0.3,0.2-0.6,0.6-0.6h10.8c0.3,0,0.6,0.2,0.6,0.6v0.8
								C440.8,393.1,440.5,393.3,440.2,393.3z"/>
							<path class="st6" d="M484.5,393.3h-38.4c-0.3,0-0.6-0.2-0.6-0.6v-0.8c0-0.3,0.2-0.6,0.6-0.6h38.4c0.3,0,0.6,0.2,0.6,0.6v0.8
								C485.1,393.1,484.8,393.3,484.5,393.3z"/>
							<path class="st6" d="M496.5,393.3h-7.3c-0.3,0-0.6-0.2-0.6-0.6v-0.8c0-0.3,0.2-0.6,0.6-0.6h7.3c0.3,0,0.6,0.2,0.6,0.6v0.8
								C497.1,393.1,496.8,393.3,496.5,393.3z"/>
						</g>
						<g>
							<path class="st6" d="M423.4,406.3H403c-0.3,0-0.6-0.2-0.6-0.6v-0.8c0-0.3,0.2-0.6,0.6-0.6h20.4c0.3,0,0.6,0.2,0.6,0.6v0.8
								C424,406.1,423.7,406.3,423.4,406.3z"/>
							<path class="st6" d="M440.2,406.3h-10.8c-0.3,0-0.6-0.2-0.6-0.6v-0.8c0-0.3,0.2-0.6,0.6-0.6h10.8c0.3,0,0.6,0.2,0.6,0.6v0.8
								C440.8,406.1,440.5,406.3,440.2,406.3z"/>
							<path class="st6" d="M484.5,406.3h-38.4c-0.3,0-0.6-0.2-0.6-0.6v-0.8c0-0.3,0.2-0.6,0.6-0.6h38.4c0.3,0,0.6,0.2,0.6,0.6v0.8
								C485.1,406.1,484.8,406.3,484.5,406.3z"/>
							<path class="st6" d="M496.5,406.3h-7.3c-0.3,0-0.6-0.2-0.6-0.6v-0.8c0-0.3,0.2-0.6,0.6-0.6h7.3c0.3,0,0.6,0.2,0.6,0.6v0.8
								C497.1,406.1,496.8,406.3,496.5,406.3z"/>
						</g>
						<g>
							<path class="st6" d="M423.4,419.4H403c-0.3,0-0.6-0.2-0.6-0.6V418c0-0.3,0.2-0.6,0.6-0.6h20.4c0.3,0,0.6,0.2,0.6,0.6v0.8
								C424,419.1,423.7,419.4,423.4,419.4z"/>
							<path class="st6" d="M440.2,419.4h-10.8c-0.3,0-0.6-0.2-0.6-0.6V418c0-0.3,0.2-0.6,0.6-0.6h10.8c0.3,0,0.6,0.2,0.6,0.6v0.8
								C440.8,419.1,440.5,419.4,440.2,419.4z"/>
							<path class="st6" d="M484.5,419.4h-38.4c-0.3,0-0.6-0.2-0.6-0.6V418c0-0.3,0.2-0.6,0.6-0.6h38.4c0.3,0,0.6,0.2,0.6,0.6v0.8
								C485.1,419.1,484.8,419.4,484.5,419.4z"/>
							<path class="st6" d="M496.5,419.4h-7.3c-0.3,0-0.6-0.2-0.6-0.6V418c0-0.3,0.2-0.6,0.6-0.6h7.3c0.3,0,0.6,0.2,0.6,0.6v0.8
								C497.1,419.1,496.8,419.4,496.5,419.4z"/>
						</g>
					</g>
					<g class="st11">
						<circle class="st6" cx="525.2" cy="362.1" r="5.6"/>
						<circle class="st6" cx="525.2" cy="378.8" r="5.6"/>
						<circle class="st6" cx="525.2" cy="395.6" r="5.6"/>
						<circle class="st6" cx="525.2" cy="412.3" r="5.6"/>
						<path class="st6" d="M559,360.6h-24.8c-0.3,0-0.6-0.3-0.6-0.6v-0.9c0-0.3,0.3-0.6,0.6-0.6H559c0.3,0,0.6,0.3,0.6,0.6v0.9
							C559.6,360.4,559.3,360.6,559,360.6z"/>
						<path class="st6" d="M559,394h-24.8c-0.3,0-0.6-0.3-0.6-0.6v-0.9c0-0.3,0.3-0.6,0.6-0.6H559c0.3,0,0.6,0.3,0.6,0.6v0.9
							C559.6,393.7,559.3,394,559,394z"/>
						<path class="st6" d="M559,410.6h-24.8c-0.3,0-0.6-0.3-0.6-0.6v-0.9c0-0.3,0.3-0.6,0.6-0.6H559c0.3,0,0.6,0.3,0.6,0.6v0.9
							C559.6,410.3,559.3,410.6,559,410.6z"/>
						<path class="st6" d="M559,377.3h-24.8c-0.3,0-0.6-0.3-0.6-0.6v-0.9c0-0.3,0.3-0.6,0.6-0.6H559c0.3,0,0.6,0.3,0.6,0.6v0.9
							C559.6,377,559.3,377.3,559,377.3z"/>
						<path class="st6" d="M543.3,365.8h-9.2c-0.3,0-0.6-0.3-0.6-0.6v-0.9c0-0.3,0.3-0.6,0.6-0.6h9.2c0.3,0,0.6,0.3,0.6,0.6v0.9
							C543.9,365.6,543.6,365.8,543.3,365.8z"/>
						<path class="st6" d="M543.3,399.2h-9.2c-0.3,0-0.6-0.3-0.6-0.6v-0.9c0-0.3,0.3-0.6,0.6-0.6h9.2c0.3,0,0.6,0.3,0.6,0.6v0.9
							C543.9,398.9,543.6,399.2,543.3,399.2z"/>
						<path class="st6" d="M543.3,415.8h-9.2c-0.3,0-0.6-0.3-0.6-0.6v-0.9c0-0.3,0.3-0.6,0.6-0.6h9.2c0.3,0,0.6,0.3,0.6,0.6v0.9
							C543.9,415.5,543.6,415.8,543.3,415.8z"/>
						<path class="st6" d="M543.3,382.5h-9.2c-0.3,0-0.6-0.3-0.6-0.6V381c0-0.3,0.3-0.6,0.6-0.6h9.2c0.3,0,0.6,0.3,0.6,0.6v0.9
							C543.9,382.3,543.6,382.5,543.3,382.5z"/>
					</g>
				</g>
			</g>
		</g>
		<g>
			<circle class="st14" cx="371.8" cy="294.6" r="130.8"/>
			<g>
				<g>
					<defs>
						<circle id="SVGID_3_" cx="371.8" cy="294.6" r="126.1"/>
					</defs>
					<clipPath id="SVGID_4_">
						<use xlink:href="#SVGID_3_"  style="overflow:visible;"/>
					</clipPath>
					<g class="st15">
						<g>
							<g>
								<path class="st1" d="M301.8,223.1H600c12.4,0,22.4,10,22.4,22.4v193.8c0,12.4-10,22.4-22.4,22.4H301.8
									c-12.4,0-22.4-10-22.4-22.4V245.5C279.5,233.1,289.5,223.1,301.8,223.1z"/>
								
									<radialGradient id="SVGID_5_" cx="450.9204" cy="204.0435" r="334.4073" gradientTransform="matrix(1 0 0 -1 0 674.2727)" gradientUnits="userSpaceOnUse">
									<stop  offset="0.4276" style="stop-color:#8E32FF"/>
									<stop  offset="1" style="stop-color:#BB84FF"/>
								</radialGradient>
								<path class="st16" d="M301.8,223.1H600c12.4,0,22.4,10,22.4,22.4v193.8c0,12.4-10,22.4-22.4,22.4H301.8
									c-12.4,0-22.4-10-22.4-22.4V245.5C279.5,233.1,289.5,223.1,301.8,223.1z"/>
								
									<radialGradient id="SVGID_6_" cx="450.9204" cy="126.1559" r="137.7086" gradientTransform="matrix(1 0 0 -1 0 674.2727)" gradientUnits="userSpaceOnUse">
									<stop  offset="0.1551" style="stop-color:#BB84FF"/>
									<stop  offset="0.7936" style="stop-color:#8E32FF"/>
								</radialGradient>
								<path class="st17" d="M493.1,498.9l-12.4-37.3h-59.6l-12.4,37.3H390c-3.4,0-6.1,2.7-6.1,6.1v8.7H518v-6.2
									c0-4.8-3.9-8.7-8.7-8.7L493.1,498.9L493.1,498.9z"/>
								<path class="st4" d="M308.6,245.5h1.3c3.7,0,6.7,3,6.7,6.7v1.3c0,3.7-3,6.7-6.7,6.7h-1.3c-3.7,0-6.7-3-6.7-6.7v-1.3
									C301.8,248.5,304.8,245.5,308.6,245.5z"/>
								<path class="st4" d="M338.4,245.5h1.3c3.7,0,6.7,3,6.7,6.7v1.3c0,3.7-3,6.7-6.7,6.7h-1.3c-3.7,0-6.7-3-6.7-6.7v-1.3
									C331.6,248.5,334.7,245.5,338.4,245.5z"/>
								<path class="st4" d="M368.2,245.5h1.3c3.7,0,6.7,3,6.7,6.7v1.3c0,3.7-3,6.7-6.7,6.7h-1.3c-3.7,0-6.7-3-6.7-6.7v-1.3
									C361.5,248.5,364.5,245.5,368.2,245.5z"/>
							</g>
						</g>
						<g>
							<g>
								<path class="st5" d="M349,301c0-0.5-0.1-1-0.4-1.4c-0.1-0.1-0.1-0.2-0.2-0.3l-0.4-0.5l-1.3-1.9c-0.1-0.1-0.1-0.1-0.2-0.3
									c-0.1-0.1-0.3-0.3-0.4-0.4l0,0c-0.4-0.3-1-0.5-1.6-0.5l0,0c-0.7,0-1.3,0.2-1.8,0.6c-0.2,0.1-0.4,0.4-0.5,0.5c0,0,0,0,0,0.1
									l0,0l-1.2,1.6l0,0l-1.6,2.1c0,0,0,0,0,0.1c-0.1,0.1-0.1,0.1-0.1,0.2c-0.1,0.2,0,0.4,0.1,0.6l0.9,1.2l0.5,0.7v0.1l1.3,1.7
									c0.1,0.1,0.4,0.3,0.6,0.3c0,0,0,0,0.1,0c0.2,0,0.4-0.1,0.5-0.3l1.3-1.8l0,0l0.5-0.7l0.9-1.2c0.1-0.1,0.1-0.4,0.1-0.6
									c0-0.1-0.1-0.2-0.1-0.3l-0.1-0.2l-0.8-1.1c-0.2-0.2-0.5-0.4-0.8-0.2c-0.1,0-0.1,0.1-0.1,0.1l0,0c0,0,0,0-0.1,0l-0.1,0.1l0,0
									l-0.2,0.3c0,0.1-0.1,0.1-0.1,0.1c0,0.1,0,0.1,0.1,0.1l0.6,0.8l0,0l0.1,0.1c0,0,0,0.1,0.1,0.1c0,0,0,0,0,0.1s0,0.2-0.1,0.3
									l-0.7,0.9l0,0l-0.1,0.1l-0.7,1l-0.1,0.1c-0.1,0-0.1,0-0.1-0.1l-0.7-1l-0.1-0.1v-0.1l-0.7-1c0,0,0-0.1-0.1-0.1
									c0-0.1,0-0.1,0.1-0.2l0,0l0.9-1.2l0,0l0.9-1.2l0.6-0.8l0,0c0.5-0.7,1.3-0.7,2-0.4l0,0c0.1,0.1,0.3,0.2,0.4,0.4l1.4,1.9
									l0.3,0.4c0.1,0.2,0.3,0.5,0.3,0.8c0.1,0.4-0.1,0.8-0.3,1.1l-0.9,1.3l-1,1.3l0,0l-1.6,2.1c-0.3,0.4-0.7,0.6-1.2,0.7
									c-0.5,0-1-0.2-1.3-0.7l-1.5-2.1l-0.1-0.1l-1-1.4l-0.7-1c-0.3-0.4-0.4-0.9-0.4-1.3c0-0.3,0.1-0.6,0.3-0.9
									c0-0.1,0.1-0.1,0.1-0.1l1.9-2.7l0,0l0.9-1.3l0,0l1.8-2.4l0.6-0.8l0,0l0,0c0.2-0.3,0.1-0.7-0.1-1l0,0l0,0l0,0l-0.4-0.3
									c0,0-0.1,0-0.1-0.1c-0.1,0-0.2,0-0.3,0.1L342,292l0,0v0.1l0,0l-2.1,2.8l0,0l-0.9,1.2l0,0l-2.2,3c0,0,0,0.1-0.1,0.1
									c0,0,0,0.1-0.1,0.1c-0.4,0.5-0.5,1.1-0.6,1.8c0,0.7,0.2,1.5,0.7,2.1l0.7,1l1.3,1.9l0.1,0.1l1.3,1.7c0.6,0.7,1.5,1.3,2.4,1.3
									l0,0c1,0,1.9-0.4,2.4-1.3l1.3-1.7l0,0l1.3-1.8l0.9-1.2C348.8,302.4,349,301.6,349,301z"/>
							</g>
						</g>
						<g>
							<g>
								<path class="st6" d="M352.7,314.7h-18.5c-3,0-5.4-2.4-5.4-5.4v-18.5c0-3,2.4-5.4,5.4-5.4h18.5c3,0,5.4,2.4,5.4,5.4v18.5
									C358.1,312.3,355.6,314.7,352.7,314.7z"/>
								<path class="st7" d="M352.7,421h-18.5c-3,0-5.4-2.4-5.4-5.4v-91.8c0-3,2.4-5.4,5.4-5.4h18.5c3,0,5.4,2.4,5.4,5.4v91.8
									C358.1,418.6,355.6,421,352.7,421z"/>
								<path class="st7" d="M499.2,421H376.9c-3,0-5.4-2.4-5.4-5.4V290.8c0-3,2.4-5.4,5.4-5.4h122.3c3,0,5.4,2.4,5.4,5.4v124.8
									C504.6,418.6,502.2,421,499.2,421z"/>
								<path class="st7" d="M571.3,421h-55.2c-3,0-5.4-2.4-5.4-5.4v-88.1c0-3,2.4-5.4,5.4-5.4h55.2c3,0,5.4,2.4,5.4,5.4v88.1
									C576.7,418.6,574.2,421,571.3,421z"/>
								<path class="st8" d="M571.3,312.3h-55.2c-3,0-5.4-2.4-5.4-5.4v-16.1c0-3,2.4-5.4,5.4-5.4h55.2c3,0,5.4,2.4,5.4,5.4v16.1
									C576.7,309.8,574.2,312.3,571.3,312.3z"/>
								<path class="st9" d="M346.5,342.3h-6.2c-1.6,0-3-1.3-3-3v-6.2c0-1.6,1.3-3,3-3h6.2c1.6,0,3,1.3,3,3v6.2
									C349.5,340.9,348.1,342.3,346.5,342.3z"/>
								<path class="st10" d="M346.5,364.1h-6.2c-1.6,0-3-1.3-3-3v-6.2c0-1.6,1.3-3,3-3h6.2c1.6,0,3,1.3,3,3v6.2
									C349.5,362.7,348.1,364.1,346.5,364.1z"/>
								<path class="st10" d="M346.5,385.8h-6.2c-1.6,0-3-1.3-3-3v-6.2c0-1.6,1.3-3,3-3h6.2c1.6,0,3,1.3,3,3v6.2
									C349.5,384.4,348.1,385.8,346.5,385.8z"/>
								<path class="st10" d="M346.5,407.5h-6.2c-1.6,0-3-1.3-3-3v-6.2c0-1.6,1.3-3,3-3h6.2c1.6,0,3,1.3,3,3v6.2
									C349.5,406.2,348.1,407.5,346.5,407.5z"/>
								<g class="st11">
									<g>
										<path class="st12" d="M407.2,300h-24.1c-0.3,0-0.6-0.2-0.6-0.6v-1.2c0-0.3,0.2-0.6,0.6-0.6h24.1c0.3,0,0.6,0.2,0.6,0.6
											v1.2C407.8,299.7,407.6,300,407.2,300z"/>
										<path class="st12" d="M426.9,300H414c-0.3,0-0.6-0.2-0.6-0.6v-1.2c0-0.3,0.2-0.6,0.6-0.6h12.9c0.3,0,0.6,0.2,0.6,0.6v1.2
											C427.5,299.7,427.2,300,426.9,300z"/>
										<path class="st12" d="M478.9,300h-45.2c-0.3,0-0.6-0.2-0.6-0.6v-1.2c0-0.3,0.2-0.6,0.6-0.6h45.2c0.3,0,0.6,0.2,0.6,0.6
											v1.2C479.5,299.7,479.3,300,478.9,300z"/>
										<path class="st12" d="M493,300h-8.7c-0.3,0-0.6-0.2-0.6-0.6v-1.2c0-0.3,0.2-0.6,0.6-0.6h8.7c0.3,0,0.6,0.2,0.6,0.6v1.2
											C493.6,299.7,493.3,300,493,300z"/>
									</g>
									<g>
										<path class="st12" d="M407.2,315.3h-24.1c-0.3,0-0.6-0.2-0.6-0.6v-1.2c0-0.3,0.2-0.6,0.6-0.6h24.1c0.3,0,0.6,0.2,0.6,0.6
											v1.2C407.8,315,407.6,315.3,407.2,315.3z"/>
										<path class="st12" d="M426.9,315.3H414c-0.3,0-0.6-0.2-0.6-0.6v-1.2c0-0.3,0.2-0.6,0.6-0.6h12.9c0.3,0,0.6,0.2,0.6,0.6
											v1.2C427.5,315,427.2,315.3,426.9,315.3z"/>
										<path class="st12" d="M478.9,315.3h-45.2c-0.3,0-0.6-0.2-0.6-0.6v-1.2c0-0.3,0.2-0.6,0.6-0.6h45.2c0.3,0,0.6,0.2,0.6,0.6
											v1.2C479.5,315,479.3,315.3,478.9,315.3z"/>
										<path class="st12" d="M493,315.3h-8.7c-0.3,0-0.6-0.2-0.6-0.6v-1.2c0-0.3,0.2-0.6,0.6-0.6h8.7c0.3,0,0.6,0.2,0.6,0.6v1.2
											C493.6,315,493.3,315.3,493,315.3z"/>
									</g>
									<g>
										<path class="st12" d="M407.2,330.5h-24.1c-0.3,0-0.6-0.2-0.6-0.6v-1.2c0-0.3,0.2-0.6,0.6-0.6h24.1c0.3,0,0.6,0.2,0.6,0.6
											v1.2C407.8,330.2,407.6,330.5,407.2,330.5z"/>
										<path class="st12" d="M426.9,330.5H414c-0.3,0-0.6-0.2-0.6-0.6v-1.2c0-0.3,0.2-0.6,0.6-0.6h12.9c0.3,0,0.6,0.2,0.6,0.6
											v1.2C427.5,330.2,427.2,330.5,426.9,330.5z"/>
										<path class="st12" d="M478.9,330.5h-45.2c-0.3,0-0.6-0.2-0.6-0.6v-1.2c0-0.3,0.2-0.6,0.6-0.6h45.2c0.3,0,0.6,0.2,0.6,0.6
											v1.2C479.5,330.2,479.3,330.5,478.9,330.5z"/>
										<path class="st12" d="M493,330.5h-8.7c-0.3,0-0.6-0.2-0.6-0.6v-1.2c0-0.3,0.2-0.6,0.6-0.6h8.7c0.3,0,0.6,0.2,0.6,0.6v1.2
											C493.6,330.2,493.3,330.5,493,330.5z"/>
									</g>
									<g>
										<path class="st12" d="M407.2,345.8h-24.1c-0.3,0-0.6-0.2-0.6-0.6V344c0-0.3,0.2-0.6,0.6-0.6h24.1c0.3,0,0.6,0.2,0.6,0.6
											v1.2C407.8,345.5,407.6,345.8,407.2,345.8z"/>
										<path class="st12" d="M426.9,345.8H414c-0.3,0-0.6-0.2-0.6-0.6V344c0-0.3,0.2-0.6,0.6-0.6h12.9c0.3,0,0.6,0.2,0.6,0.6v1.2
											C427.5,345.5,427.2,345.8,426.9,345.8z"/>
										<path class="st12" d="M478.9,345.8h-45.2c-0.3,0-0.6-0.2-0.6-0.6V344c0-0.3,0.2-0.6,0.6-0.6h45.2c0.3,0,0.6,0.2,0.6,0.6
											v1.2C479.5,345.5,479.3,345.8,478.9,345.8z"/>
										<path class="st12" d="M493,345.8h-8.7c-0.3,0-0.6-0.2-0.6-0.6V344c0-0.3,0.2-0.6,0.6-0.6h8.7c0.3,0,0.6,0.2,0.6,0.6v1.2
											C493.6,345.5,493.3,345.8,493,345.8z"/>
									</g>
									<g>
										<path class="st12" d="M407.2,361h-24.1c-0.3,0-0.6-0.2-0.6-0.6v-1.2c0-0.3,0.2-0.6,0.6-0.6h24.1c0.3,0,0.6,0.2,0.6,0.6
											v1.2C407.8,360.7,407.6,361,407.2,361z"/>
										<path class="st12" d="M426.9,361H414c-0.3,0-0.6-0.2-0.6-0.6v-1.2c0-0.3,0.2-0.6,0.6-0.6h12.9c0.3,0,0.6,0.2,0.6,0.6v1.2
											C427.5,360.7,427.2,361,426.9,361z"/>
										<path class="st12" d="M478.9,361h-45.2c-0.3,0-0.6-0.2-0.6-0.6v-1.2c0-0.3,0.2-0.6,0.6-0.6h45.2c0.3,0,0.6,0.2,0.6,0.6
											v1.2C479.5,360.7,479.3,361,478.9,361z"/>
										<path class="st12" d="M493,361h-8.7c-0.3,0-0.6-0.2-0.6-0.6v-1.2c0-0.3,0.2-0.6,0.6-0.6h8.7c0.3,0,0.6,0.2,0.6,0.6v1.2
											C493.6,360.7,493.3,361,493,361z"/>
									</g>
									<g>
										<path class="st12" d="M407.2,376.3h-24.1c-0.3,0-0.6-0.2-0.6-0.6v-1.2c0-0.3,0.2-0.6,0.6-0.6h24.1c0.3,0,0.6,0.2,0.6,0.6
											v1.2C407.8,376.1,407.6,376.3,407.2,376.3z"/>
										<path class="st12" d="M426.9,376.3H414c-0.3,0-0.6-0.2-0.6-0.6v-1.2c0-0.3,0.2-0.6,0.6-0.6h12.9c0.3,0,0.6,0.2,0.6,0.6
											v1.2C427.5,376.1,427.2,376.3,426.9,376.3z"/>
										<path class="st12" d="M478.9,376.3h-45.2c-0.3,0-0.6-0.2-0.6-0.6v-1.2c0-0.3,0.2-0.6,0.6-0.6h45.2c0.3,0,0.6,0.2,0.6,0.6
											v1.2C479.5,376.1,479.3,376.3,478.9,376.3z"/>
										<path class="st12" d="M493,376.3h-8.7c-0.3,0-0.6-0.2-0.6-0.6v-1.2c0-0.3,0.2-0.6,0.6-0.6h8.7c0.3,0,0.6,0.2,0.6,0.6v1.2
											C493.6,376.1,493.3,376.3,493,376.3z"/>
									</g>
									<g>
										<path class="st12" d="M407.2,391.5h-24.1c-0.3,0-0.6-0.2-0.6-0.6v-1.2c0-0.3,0.2-0.6,0.6-0.6h24.1c0.3,0,0.6,0.2,0.6,0.6
											v1.2C407.8,391.3,407.6,391.5,407.2,391.5z"/>
										<path class="st12" d="M426.9,391.5H414c-0.3,0-0.6-0.2-0.6-0.6v-1.2c0-0.3,0.2-0.6,0.6-0.6h12.9c0.3,0,0.6,0.2,0.6,0.6
											v1.2C427.5,391.3,427.2,391.5,426.9,391.5z"/>
										<path class="st12" d="M478.9,391.5h-45.2c-0.3,0-0.6-0.2-0.6-0.6v-1.2c0-0.3,0.2-0.6,0.6-0.6h45.2c0.3,0,0.6,0.2,0.6,0.6
											v1.2C479.5,391.3,479.3,391.5,478.9,391.5z"/>
										<path class="st12" d="M493,391.5h-8.7c-0.3,0-0.6-0.2-0.6-0.6v-1.2c0-0.3,0.2-0.6,0.6-0.6h8.7c0.3,0,0.6,0.2,0.6,0.6v1.2
											C493.6,391.3,493.3,391.5,493,391.5z"/>
									</g>
									<g>
										<path class="st12" d="M407.2,406.8h-24.1c-0.3,0-0.6-0.2-0.6-0.6V405c0-0.3,0.2-0.6,0.6-0.6h24.1c0.3,0,0.6,0.2,0.6,0.6
											v1.2C407.8,406.6,407.6,406.8,407.2,406.8z"/>
										<path class="st12" d="M426.9,406.8H414c-0.3,0-0.6-0.2-0.6-0.6V405c0-0.3,0.2-0.6,0.6-0.6h12.9c0.3,0,0.6,0.2,0.6,0.6v1.2
											C427.5,406.6,427.2,406.8,426.9,406.8z"/>
										<path class="st12" d="M478.9,406.8h-45.2c-0.3,0-0.6-0.2-0.6-0.6V405c0-0.3,0.2-0.6,0.6-0.6h45.2c0.3,0,0.6,0.2,0.6,0.6
											v1.2C479.5,406.6,479.3,406.8,478.9,406.8z"/>
										<path class="st12" d="M493,406.8h-8.7c-0.3,0-0.6-0.2-0.6-0.6V405c0-0.3,0.2-0.6,0.6-0.6h8.7c0.3,0,0.6,0.2,0.6,0.6v1.2
											C493.6,406.6,493.3,406.8,493,406.8z"/>
									</g>
								</g>
								<g class="st11">
									<circle class="st12" cx="526.6" cy="339.6" r="6.5"/>
									<circle class="st12" cx="526.6" cy="359.2" r="6.5"/>
									<circle class="st12" cx="526.6" cy="378.9" r="6.5"/>
									<circle class="st12" cx="526.6" cy="398.6" r="6.5"/>
									<path class="st12" d="M566.3,337.9H537c-0.3,0-0.6-0.3-0.6-0.6v-1.3c0-0.3,0.3-0.6,0.6-0.6h29.3c0.3,0,0.6,0.3,0.6,0.6v1.3
										C566.9,337.7,566.6,337.9,566.3,337.9z"/>
									<path class="st12" d="M566.3,377H537c-0.3,0-0.6-0.3-0.6-0.6v-1.3c0-0.3,0.3-0.6,0.6-0.6h29.3c0.3,0,0.6,0.3,0.6,0.6v1.3
										C566.9,376.7,566.6,377,566.3,377z"/>
									<path class="st12" d="M566.3,396.6H537c-0.3,0-0.6-0.3-0.6-0.6v-1.3c0-0.3,0.3-0.6,0.6-0.6h29.3c0.3,0,0.6,0.3,0.6,0.6v1.3
										C566.9,396.3,566.6,396.6,566.3,396.6z"/>
									<path class="st12" d="M566.3,357.5H537c-0.3,0-0.6-0.3-0.6-0.6v-1.3c0-0.3,0.3-0.6,0.6-0.6h29.3c0.3,0,0.6,0.3,0.6,0.6v1.3
										C566.9,357.2,566.6,357.5,566.3,357.5z"/>
									<path class="st12" d="M548,344.1h-11c-0.3,0-0.6-0.3-0.6-0.6v-1.3c0-0.3,0.3-0.6,0.6-0.6h11c0.3,0,0.6,0.3,0.6,0.6v1.3
										C548.6,343.8,548.3,344.1,548,344.1z"/>
									<path class="st12" d="M548,383.1h-11c-0.3,0-0.6-0.3-0.6-0.6v-1.3c0-0.3,0.3-0.6,0.6-0.6h11c0.3,0,0.6,0.3,0.6,0.6v1.3
										C548.6,382.9,548.3,383.1,548,383.1z"/>
									<path class="st12" d="M548,402.6h-11c-0.3,0-0.6-0.3-0.6-0.6v-1.3c0-0.3,0.3-0.6,0.6-0.6h11c0.3,0,0.6,0.3,0.6,0.6v1.3
										C548.6,402.4,548.3,402.6,548,402.6z"/>
									<path class="st12" d="M548,363.5h-11c-0.3,0-0.6-0.3-0.6-0.6v-1.3c0-0.3,0.3-0.6,0.6-0.6h11c0.3,0,0.6,0.3,0.6,0.6v1.3
										C548.6,363.3,548.3,363.5,548,363.5z"/>
								</g>
							</g>
							<g>
								<path class="st6" d="M352.7,314.7h-18.5c-3,0-5.4-2.4-5.4-5.4v-18.5c0-3,2.4-5.4,5.4-5.4h18.5c3,0,5.4,2.4,5.4,5.4v18.5
									C358.1,312.3,355.6,314.7,352.7,314.7z"/>
								<path class="st7" d="M352.7,421h-18.5c-3,0-5.4-2.4-5.4-5.4v-91.8c0-3,2.4-5.4,5.4-5.4h18.5c3,0,5.4,2.4,5.4,5.4v91.8
									C358.1,418.6,355.6,421,352.7,421z"/>
								<path class="st7" d="M499.2,421H376.9c-3,0-5.4-2.4-5.4-5.4V290.8c0-3,2.4-5.4,5.4-5.4h122.3c3,0,5.4,2.4,5.4,5.4v124.8
									C504.6,418.6,502.2,421,499.2,421z"/>
								<path class="st7" d="M571.3,421h-55.2c-3,0-5.4-2.4-5.4-5.4v-88.1c0-3,2.4-5.4,5.4-5.4h55.2c3,0,5.4,2.4,5.4,5.4v88.1
									C576.7,418.6,574.2,421,571.3,421z"/>
								<path class="st8" d="M571.3,312.3h-55.2c-3,0-5.4-2.4-5.4-5.4v-16.1c0-3,2.4-5.4,5.4-5.4h55.2c3,0,5.4,2.4,5.4,5.4v16.1
									C576.7,309.8,574.2,312.3,571.3,312.3z"/>
								<path class="st13" d="M346.5,342.3h-6.2c-1.6,0-3-1.3-3-3v-6.2c0-1.6,1.3-3,3-3h6.2c1.6,0,3,1.3,3,3v6.2
									C349.5,340.9,348.1,342.3,346.5,342.3z"/>
								<path class="st10" d="M346.5,364.1h-6.2c-1.6,0-3-1.3-3-3v-6.2c0-1.6,1.3-3,3-3h6.2c1.6,0,3,1.3,3,3v6.2
									C349.5,362.7,348.1,364.1,346.5,364.1z"/>
								<path class="st10" d="M346.5,385.8h-6.2c-1.6,0-3-1.3-3-3v-6.2c0-1.6,1.3-3,3-3h6.2c1.6,0,3,1.3,3,3v6.2
									C349.5,384.4,348.1,385.8,346.5,385.8z"/>
								<path class="st10" d="M346.5,407.5h-6.2c-1.6,0-3-1.3-3-3v-6.2c0-1.6,1.3-3,3-3h6.2c1.6,0,3,1.3,3,3v6.2
									C349.5,406.2,348.1,407.5,346.5,407.5z"/>
								<g class="st11">
									<g>
										<path class="st6" d="M407.2,300h-24.1c-0.3,0-0.6-0.2-0.6-0.6v-1.2c0-0.3,0.2-0.6,0.6-0.6h24.1c0.3,0,0.6,0.2,0.6,0.6v1.2
											C407.8,299.7,407.6,300,407.2,300z"/>
										<path class="st6" d="M426.9,300H414c-0.3,0-0.6-0.2-0.6-0.6v-1.2c0-0.3,0.2-0.6,0.6-0.6h12.9c0.3,0,0.6,0.2,0.6,0.6v1.2
											C427.5,299.7,427.2,300,426.9,300z"/>
										<path class="st6" d="M478.9,300h-45.2c-0.3,0-0.6-0.2-0.6-0.6v-1.2c0-0.3,0.2-0.6,0.6-0.6h45.2c0.3,0,0.6,0.2,0.6,0.6v1.2
											C479.5,299.7,479.3,300,478.9,300z"/>
										<path class="st6" d="M493,300h-8.7c-0.3,0-0.6-0.2-0.6-0.6v-1.2c0-0.3,0.2-0.6,0.6-0.6h8.7c0.3,0,0.6,0.2,0.6,0.6v1.2
											C493.6,299.7,493.3,300,493,300z"/>
									</g>
									<g>
										<path class="st6" d="M407.2,315.3h-24.1c-0.3,0-0.6-0.2-0.6-0.6v-1.2c0-0.3,0.2-0.6,0.6-0.6h24.1c0.3,0,0.6,0.2,0.6,0.6
											v1.2C407.8,315,407.6,315.3,407.2,315.3z"/>
										<path class="st6" d="M426.9,315.3H414c-0.3,0-0.6-0.2-0.6-0.6v-1.2c0-0.3,0.2-0.6,0.6-0.6h12.9c0.3,0,0.6,0.2,0.6,0.6v1.2
											C427.5,315,427.2,315.3,426.9,315.3z"/>
										<path class="st6" d="M478.9,315.3h-45.2c-0.3,0-0.6-0.2-0.6-0.6v-1.2c0-0.3,0.2-0.6,0.6-0.6h45.2c0.3,0,0.6,0.2,0.6,0.6
											v1.2C479.5,315,479.3,315.3,478.9,315.3z"/>
										<path class="st6" d="M493,315.3h-8.7c-0.3,0-0.6-0.2-0.6-0.6v-1.2c0-0.3,0.2-0.6,0.6-0.6h8.7c0.3,0,0.6,0.2,0.6,0.6v1.2
											C493.6,315,493.3,315.3,493,315.3z"/>
									</g>
									<g>
										<path class="st6" d="M407.2,330.5h-24.1c-0.3,0-0.6-0.2-0.6-0.6v-1.2c0-0.3,0.2-0.6,0.6-0.6h24.1c0.3,0,0.6,0.2,0.6,0.6
											v1.2C407.8,330.2,407.6,330.5,407.2,330.5z"/>
										<path class="st6" d="M426.9,330.5H414c-0.3,0-0.6-0.2-0.6-0.6v-1.2c0-0.3,0.2-0.6,0.6-0.6h12.9c0.3,0,0.6,0.2,0.6,0.6v1.2
											C427.5,330.2,427.2,330.5,426.9,330.5z"/>
										<path class="st6" d="M478.9,330.5h-45.2c-0.3,0-0.6-0.2-0.6-0.6v-1.2c0-0.3,0.2-0.6,0.6-0.6h45.2c0.3,0,0.6,0.2,0.6,0.6
											v1.2C479.5,330.2,479.3,330.5,478.9,330.5z"/>
										<path class="st6" d="M493,330.5h-8.7c-0.3,0-0.6-0.2-0.6-0.6v-1.2c0-0.3,0.2-0.6,0.6-0.6h8.7c0.3,0,0.6,0.2,0.6,0.6v1.2
											C493.6,330.2,493.3,330.5,493,330.5z"/>
									</g>
									<g>
										<path class="st6" d="M407.2,345.8h-24.1c-0.3,0-0.6-0.2-0.6-0.6V344c0-0.3,0.2-0.6,0.6-0.6h24.1c0.3,0,0.6,0.2,0.6,0.6
											v1.2C407.8,345.5,407.6,345.8,407.2,345.8z"/>
										<path class="st6" d="M426.9,345.8H414c-0.3,0-0.6-0.2-0.6-0.6V344c0-0.3,0.2-0.6,0.6-0.6h12.9c0.3,0,0.6,0.2,0.6,0.6v1.2
											C427.5,345.5,427.2,345.8,426.9,345.8z"/>
										<path class="st6" d="M478.9,345.8h-45.2c-0.3,0-0.6-0.2-0.6-0.6V344c0-0.3,0.2-0.6,0.6-0.6h45.2c0.3,0,0.6,0.2,0.6,0.6
											v1.2C479.5,345.5,479.3,345.8,478.9,345.8z"/>
										<path class="st6" d="M493,345.8h-8.7c-0.3,0-0.6-0.2-0.6-0.6V344c0-0.3,0.2-0.6,0.6-0.6h8.7c0.3,0,0.6,0.2,0.6,0.6v1.2
											C493.6,345.5,493.3,345.8,493,345.8z"/>
									</g>
									<g>
										<path class="st6" d="M407.2,361h-24.1c-0.3,0-0.6-0.2-0.6-0.6v-1.2c0-0.3,0.2-0.6,0.6-0.6h24.1c0.3,0,0.6,0.2,0.6,0.6v1.2
											C407.8,360.7,407.6,361,407.2,361z"/>
										<path class="st6" d="M426.9,361H414c-0.3,0-0.6-0.2-0.6-0.6v-1.2c0-0.3,0.2-0.6,0.6-0.6h12.9c0.3,0,0.6,0.2,0.6,0.6v1.2
											C427.5,360.7,427.2,361,426.9,361z"/>
										<path class="st6" d="M478.9,361h-45.2c-0.3,0-0.6-0.2-0.6-0.6v-1.2c0-0.3,0.2-0.6,0.6-0.6h45.2c0.3,0,0.6,0.2,0.6,0.6v1.2
											C479.5,360.7,479.3,361,478.9,361z"/>
										<path class="st6" d="M493,361h-8.7c-0.3,0-0.6-0.2-0.6-0.6v-1.2c0-0.3,0.2-0.6,0.6-0.6h8.7c0.3,0,0.6,0.2,0.6,0.6v1.2
											C493.6,360.7,493.3,361,493,361z"/>
									</g>
									<g>
										<path class="st6" d="M407.2,376.3h-24.1c-0.3,0-0.6-0.2-0.6-0.6v-1.2c0-0.3,0.2-0.6,0.6-0.6h24.1c0.3,0,0.6,0.2,0.6,0.6
											v1.2C407.8,376.1,407.6,376.3,407.2,376.3z"/>
										<path class="st6" d="M426.9,376.3H414c-0.3,0-0.6-0.2-0.6-0.6v-1.2c0-0.3,0.2-0.6,0.6-0.6h12.9c0.3,0,0.6,0.2,0.6,0.6v1.2
											C427.5,376.1,427.2,376.3,426.9,376.3z"/>
										<path class="st6" d="M478.9,376.3h-45.2c-0.3,0-0.6-0.2-0.6-0.6v-1.2c0-0.3,0.2-0.6,0.6-0.6h45.2c0.3,0,0.6,0.2,0.6,0.6
											v1.2C479.5,376.1,479.3,376.3,478.9,376.3z"/>
										<path class="st6" d="M493,376.3h-8.7c-0.3,0-0.6-0.2-0.6-0.6v-1.2c0-0.3,0.2-0.6,0.6-0.6h8.7c0.3,0,0.6,0.2,0.6,0.6v1.2
											C493.6,376.1,493.3,376.3,493,376.3z"/>
									</g>
									<g>
										<path class="st6" d="M407.2,391.5h-24.1c-0.3,0-0.6-0.2-0.6-0.6v-1.2c0-0.3,0.2-0.6,0.6-0.6h24.1c0.3,0,0.6,0.2,0.6,0.6
											v1.2C407.8,391.3,407.6,391.5,407.2,391.5z"/>
										<path class="st6" d="M426.9,391.5H414c-0.3,0-0.6-0.2-0.6-0.6v-1.2c0-0.3,0.2-0.6,0.6-0.6h12.9c0.3,0,0.6,0.2,0.6,0.6v1.2
											C427.5,391.3,427.2,391.5,426.9,391.5z"/>
										<path class="st6" d="M478.9,391.5h-45.2c-0.3,0-0.6-0.2-0.6-0.6v-1.2c0-0.3,0.2-0.6,0.6-0.6h45.2c0.3,0,0.6,0.2,0.6,0.6
											v1.2C479.5,391.3,479.3,391.5,478.9,391.5z"/>
										<path class="st6" d="M493,391.5h-8.7c-0.3,0-0.6-0.2-0.6-0.6v-1.2c0-0.3,0.2-0.6,0.6-0.6h8.7c0.3,0,0.6,0.2,0.6,0.6v1.2
											C493.6,391.3,493.3,391.5,493,391.5z"/>
									</g>
									<g>
										<path class="st6" d="M407.2,406.8h-24.1c-0.3,0-0.6-0.2-0.6-0.6V405c0-0.3,0.2-0.6,0.6-0.6h24.1c0.3,0,0.6,0.2,0.6,0.6
											v1.2C407.8,406.6,407.6,406.8,407.2,406.8z"/>
										<path class="st6" d="M426.9,406.8H414c-0.3,0-0.6-0.2-0.6-0.6V405c0-0.3,0.2-0.6,0.6-0.6h12.9c0.3,0,0.6,0.2,0.6,0.6v1.2
											C427.5,406.6,427.2,406.8,426.9,406.8z"/>
										<path class="st6" d="M478.9,406.8h-45.2c-0.3,0-0.6-0.2-0.6-0.6V405c0-0.3,0.2-0.6,0.6-0.6h45.2c0.3,0,0.6,0.2,0.6,0.6
											v1.2C479.5,406.6,479.3,406.8,478.9,406.8z"/>
										<path class="st6" d="M493,406.8h-8.7c-0.3,0-0.6-0.2-0.6-0.6V405c0-0.3,0.2-0.6,0.6-0.6h8.7c0.3,0,0.6,0.2,0.6,0.6v1.2
											C493.6,406.6,493.3,406.8,493,406.8z"/>
									</g>
								</g>
								<g class="st11">
									<circle class="st6" cx="526.6" cy="339.6" r="6.5"/>
									<circle class="st6" cx="526.6" cy="359.2" r="6.5"/>
									<circle class="st6" cx="526.6" cy="378.9" r="6.5"/>
									<circle class="st6" cx="526.6" cy="398.6" r="6.5"/>
									<path class="st6" d="M566.3,337.9H537c-0.3,0-0.6-0.3-0.6-0.6v-1.3c0-0.3,0.3-0.6,0.6-0.6h29.3c0.3,0,0.6,0.3,0.6,0.6v1.3
										C566.9,337.7,566.6,337.9,566.3,337.9z"/>
									<path class="st6" d="M566.3,377H537c-0.3,0-0.6-0.3-0.6-0.6v-1.3c0-0.3,0.3-0.6,0.6-0.6h29.3c0.3,0,0.6,0.3,0.6,0.6v1.3
										C566.9,376.7,566.6,377,566.3,377z"/>
									<path class="st6" d="M566.3,396.6H537c-0.3,0-0.6-0.3-0.6-0.6v-1.3c0-0.3,0.3-0.6,0.6-0.6h29.3c0.3,0,0.6,0.3,0.6,0.6v1.3
										C566.9,396.3,566.6,396.6,566.3,396.6z"/>
									<path class="st6" d="M566.3,357.5H537c-0.3,0-0.6-0.3-0.6-0.6v-1.3c0-0.3,0.3-0.6,0.6-0.6h29.3c0.3,0,0.6,0.3,0.6,0.6v1.3
										C566.9,357.2,566.6,357.5,566.3,357.5z"/>
									<path class="st6" d="M548,344.1h-11c-0.3,0-0.6-0.3-0.6-0.6v-1.3c0-0.3,0.3-0.6,0.6-0.6h11c0.3,0,0.6,0.3,0.6,0.6v1.3
										C548.6,343.8,548.3,344.1,548,344.1z"/>
									<path class="st6" d="M548,383.1h-11c-0.3,0-0.6-0.3-0.6-0.6v-1.3c0-0.3,0.3-0.6,0.6-0.6h11c0.3,0,0.6,0.3,0.6,0.6v1.3
										C548.6,382.9,548.3,383.1,548,383.1z"/>
									<path class="st6" d="M548,402.6h-11c-0.3,0-0.6-0.3-0.6-0.6v-1.3c0-0.3,0.3-0.6,0.6-0.6h11c0.3,0,0.6,0.3,0.6,0.6v1.3
										C548.6,402.4,548.3,402.6,548,402.6z"/>
									<path class="st6" d="M548,363.5h-11c-0.3,0-0.6-0.3-0.6-0.6v-1.3c0-0.3,0.3-0.6,0.6-0.6h11c0.3,0,0.6,0.3,0.6,0.6v1.3
										C548.6,363.3,548.3,363.5,548,363.5z"/>
								</g>
							</g>
						</g>
					</g>
				</g>
			</g>
		</g>
	</g>
</g>
</svg>
