<?xml version="1.0" encoding="utf-8"?>
<!-- Generator: Adobe Illustrator 22.0.0, SVG Export Plug-In . SVG Version: 6.00 Build 0)  -->
<svg version="1.1" id="Capa_1" xmlns:serif="http://www.serif.com/"
	 xmlns="http://www.w3.org/2000/svg" xmlns:xlink="http://www.w3.org/1999/xlink" x="0px" y="0px" viewBox="0 0 792 1224"
	 style="enable-background:new 0 0 792 1224;" xml:space="preserve">
<style type="text/css">
	.st0{fill:#8800FF;}
	.st1{fill:#BB84FF;}
	.st2{fill:url(#SVGID_1_);}
	.st3{fill:url(#SVGID_2_);}
	.st4{opacity:0.44;fill:url(#SVGID_3_);}
	.st5{opacity:0.48;fill:#E8D6FF;}
	.st6{opacity:0.74;fill:url(#SVGID_4_);}
	.st7{opacity:0.74;fill:#BB84FF;}
	.st8{fill:url(#SVGID_5_);}
	.st9{opacity:0.44;fill:url(#SVGID_6_);}
	.st10{fill:#8E32FF;}
	.st11{opacity:0.44;fill:#E8D6FF;}
	.st12{opacity:0.44;fill:url(#SVGID_7_);}
	.st13{opacity:0.32;}
	.st14{clip-path:url(#SVGID_9_);}
	.st15{fill:url(#SVGID_10_);}
	.st16{opacity:0.44;fill:url(#SVGID_11_);}
	.st17{fill:#FFFFFF;}
</style>
<g>
	<path class="st0" d="M746.9,486L547.6,243.3c-39.4-47.9-95.5-71.8-151.6-71.8c-56.1,0-112.2,23.9-151.6,71.8L45.1,486
		C15,522.6,0,567.4,0,612c0,44.8,15,89.4,45.1,126l199.4,242.7c39.4,47.9,95.5,71.8,151.6,71.8c56.1,0,112.2-23.9,151.6-71.8
		L746.9,738C777,701.4,792,656.6,792,612C792,567.2,777,522.6,746.9,486z"/>
	<g>
		<g>
			<path class="st1" d="M516.4,608.1v-20.6c0-15.4-8.4-25.7-24-25.7H289.9c-14.8,0-29.2,6.7-29.2,24v22.3H516.4z"/>
			<linearGradient id="SVGID_1_" gradientUnits="userSpaceOnUse" x1="157.9904" y1="518.6413" x2="635.0524" y2="670.5718">
				<stop  offset="0" style="stop-color:#BB84FF"/>
				<stop  offset="0.3254" style="stop-color:#8E32FF"/>
				<stop  offset="0.6236" style="stop-color:#8E32FF"/>
				<stop  offset="1" style="stop-color:#BB84FF"/>
			</linearGradient>
			<path class="st2" d="M516.4,613.3v-20.6c0-15.4-8.4-25.7-24-25.7H289.9c-14.8,0-22.3,6.7-22.3,24v22.3H516.4z"/>
			<g>
				<g>
					<g>
						<g>
							<linearGradient id="SVGID_2_" gradientUnits="userSpaceOnUse" x1="252.8611" y1="418.9983" x2="412.8666" y2="558.2625">
								<stop  offset="0" style="stop-color:#BB84FF"/>
								<stop  offset="0.3254" style="stop-color:#8E32FF"/>
								<stop  offset="0.6236" style="stop-color:#8E32FF"/>
								<stop  offset="1" style="stop-color:#BB84FF"/>
							</linearGradient>
							<path class="st3" d="M362.4,691.6c0,6.9,5.6,12.5,12.5,12.5l15.2,0l0-0.1c0.8,0.1,1.7,0.2,2.6,0.2l36.7,0
								c8,0,14.5-6.5,14.5-14.5c0-8-6.5-14.5-14.5-14.5l-36.7,0c-0.9,0-1.7,0.1-2.6,0.2l0-23.2c0.8,0.1,1.7,0.2,2.6,0.2l20.7,0
								c8,0,14.5-6.5,14.5-14.5c0-8-6.5-14.5-14.5-14.5l-20.7,0c-0.9,0-1.7,0.1-2.6,0.2l0-81.2c0.8-1.2,2-2.1,3.5-2.4
								c1.6-0.3,3.2-0.7,4.8-1.2c0.4-0.1,0.8-0.2,1.2-0.3c3.2-0.9,6.3-2,9.3-3.2c0.3-0.1,0.7-0.3,1-0.4c3-1.3,5.9-2.8,8.8-4.4
								c0.3-0.2,0.6-0.4,0.9-0.5c2.8-1.7,5.5-3.5,8.1-5.4c0.3-0.2,0.5-0.4,0.8-0.6c20.2-15.6,33.2-40.1,33.2-67.6
								c0-43-31.9-78.6-73.2-84.5v-10.4c0-7-5.7-12.6-12.6-12.6c-7,0-12.6,5.6-12.6,12.6l0,10.6c-5.2,0.8-10.2,2.1-15,3.8
								c0,0,0,0,0,0c-0.1,0-0.1,0-0.2,0.1c-4.1,1.4-8.1,3.2-11.8,5.2c-0.1,0-0.1,0.1-0.2,0.1c-0.9,0.5-1.8,1-2.7,1.5
								c-0.1,0.1-0.2,0.1-0.3,0.2c-3.6,2.1-7.1,4.6-10.3,7.2c-0.1,0.1-0.3,0.2-0.4,0.4c-0.7,0.6-1.4,1.2-2.1,1.8
								c-0.2,0.2-0.3,0.3-0.5,0.5c-2.3,2-4.5,4.2-6.5,6.4c-0.1,0.1-0.1,0.1-0.2,0.2c-0.6,0.6-1.1,1.3-1.7,1.9
								c-0.3,0.3-0.5,0.6-0.7,0.9c-0.5,0.6-1,1.2-1.5,1.8c-0.3,0.3-0.5,0.7-0.8,1.1c-0.5,0.6-0.9,1.2-1.4,1.8
								c-0.3,0.4-0.5,0.7-0.7,1.1c-0.8,1.1-1.5,2.2-2.2,3.3c-0.3,0.5-0.6,0.9-0.9,1.4c-0.3,0.6-0.7,1.1-1,1.7
								c-0.3,0.5-0.6,1-0.9,1.6c-0.3,0.6-0.6,1.1-0.9,1.7c-0.3,0.6-0.6,1.2-0.9,1.7c-0.3,0.5-0.5,1.1-0.8,1.6
								c-0.4,0.8-0.7,1.6-1,2.4c-0.2,0.6-0.5,1.2-0.7,1.8c-0.3,0.9-0.7,1.8-1,2.6c-0.2,0.5-0.3,1-0.5,1.4c-0.3,0.7-0.5,1.5-0.7,2.2
								c-0.2,0.5-0.3,1-0.5,1.5c-0.2,0.8-0.4,1.6-0.6,2.3c-0.1,0.5-0.2,0.9-0.4,1.4c-0.3,1.1-0.5,2.3-0.8,3.4c0,0.2-0.1,0.4-0.1,0.6
								c-0.2,1.2-0.4,2.4-0.6,3.6c-0.1,0.4-0.1,0.9-0.2,1.3c-0.1,0.9-0.2,1.8-0.3,2.6c0,0.5-0.1,0.9-0.1,1.4
								c-0.1,0.9-0.1,1.8-0.2,2.7c0,0.4,0,0.8-0.1,1.3c0,1.3-0.1,2.7-0.1,4c0.4,40.8,29.6,74.7,68.1,82.7c1.5,0.3,2.7,1.2,3.5,2.4
								L362.4,691.6z"/>
							<linearGradient id="SVGID_3_" gradientUnits="userSpaceOnUse" x1="316.2894" y1="512.8232" x2="487.9397" y2="552.7015">
								<stop  offset="0.2097" style="stop-color:#8E32FF"/>
								<stop  offset="0.3636" style="stop-color:#A55BFF"/>
								<stop  offset="0.4498" style="stop-color:#BB84FF"/>
								<stop  offset="0.5734" style="stop-color:#BB84FF"/>
								<stop  offset="0.7456" style="stop-color:#D2ADFF"/>
							</linearGradient>
							<path class="st4" d="M362.4,691.6c0,6.9,5.6,12.5,12.5,12.5l15.2,0l0-0.1c0.8,0.1,1.7,0.2,2.6,0.2l36.7,0
								c8,0,14.5-6.5,14.5-14.5c0-8-6.5-14.5-14.5-14.5l-36.7,0c-0.9,0-1.7,0.1-2.6,0.2l0-23.2c0.8,0.1,1.7,0.2,2.6,0.2l20.7,0
								c8,0,14.5-6.5,14.5-14.5c0-8-6.5-14.5-14.5-14.5l-20.7,0c-0.9,0-1.7,0.1-2.6,0.2l0-81.2c0.8-1.2,2-2.1,3.5-2.4
								c1.6-0.3,3.2-0.7,4.8-1.2c0.4-0.1,0.8-0.2,1.2-0.3c3.2-0.9,6.3-2,9.3-3.2c0.3-0.1,0.7-0.3,1-0.4c3-1.3,5.9-2.8,8.8-4.4
								c0.3-0.2,0.6-0.4,0.9-0.5c2.8-1.7,5.5-3.5,8.1-5.4c0.3-0.2,0.5-0.4,0.8-0.6c20.2-15.6,33.2-40.1,33.2-67.6
								c0-43-31.9-78.6-73.2-84.5v-10.4c0-7-5.7-12.6-12.6-12.6c-7,0-12.6,5.6-12.6,12.6l0,10.6c-5.2,0.8-10.2,2.1-15,3.8
								c0,0,0,0,0,0c-0.1,0-0.1,0-0.2,0.1c-4.1,1.4-8.1,3.2-11.8,5.2c-0.1,0-0.1,0.1-0.2,0.1c-0.9,0.5-1.8,1-2.7,1.5
								c-0.1,0.1-0.2,0.1-0.3,0.2c-3.6,2.1-7.1,4.6-10.3,7.2c-0.1,0.1-0.3,0.2-0.4,0.4c-0.7,0.6-1.4,1.2-2.1,1.8
								c-0.2,0.2-0.3,0.3-0.5,0.5c-2.3,2-4.5,4.2-6.5,6.4c-0.1,0.1-0.1,0.1-0.2,0.2c-0.6,0.6-1.1,1.3-1.7,1.9
								c-0.3,0.3-0.5,0.6-0.7,0.9c-0.5,0.6-1,1.2-1.5,1.8c-0.3,0.3-0.5,0.7-0.8,1.1c-0.5,0.6-0.9,1.2-1.4,1.8
								c-0.3,0.4-0.5,0.7-0.7,1.1c-0.8,1.1-1.5,2.2-2.2,3.3c-0.3,0.5-0.6,0.9-0.9,1.4c-0.3,0.6-0.7,1.1-1,1.7
								c-0.3,0.5-0.6,1-0.9,1.6c-0.3,0.6-0.6,1.1-0.9,1.7c-0.3,0.6-0.6,1.2-0.9,1.7c-0.3,0.5-0.5,1.1-0.8,1.6
								c-0.4,0.8-0.7,1.6-1,2.4c-0.2,0.6-0.5,1.2-0.7,1.8c-0.3,0.9-0.7,1.8-1,2.6c-0.2,0.5-0.3,1-0.5,1.4c-0.3,0.7-0.5,1.5-0.7,2.2
								c-0.2,0.5-0.3,1-0.5,1.5c-0.2,0.8-0.4,1.6-0.6,2.3c-0.1,0.5-0.2,0.9-0.4,1.4c-0.3,1.1-0.5,2.3-0.8,3.4c0,0.2-0.1,0.4-0.1,0.6
								c-0.2,1.2-0.4,2.4-0.6,3.6c-0.1,0.4-0.1,0.9-0.2,1.3c-0.1,0.9-0.2,1.8-0.3,2.6c0,0.5-0.1,0.9-0.1,1.4
								c-0.1,0.9-0.1,1.8-0.2,2.7c0,0.4,0,0.8-0.1,1.3c0,1.3-0.1,2.7-0.1,4c0.4,40.8,29.6,74.7,68.1,82.7c1.5,0.3,2.7,1.2,3.5,2.4
								L362.4,691.6z"/>
							<circle class="st5" cx="375.8" cy="454.8" r="61.1"/>
							<circle class="st5" cx="375.8" cy="454.8" r="38.3"/>
						</g>
					</g>
					<g>
						<radialGradient id="SVGID_4_" cx="390.8683" cy="685.6677" r="213.4869" gradientUnits="userSpaceOnUse">
							<stop  offset="0.3522" style="stop-color:#5A11B2"/>
							<stop  offset="0.7035" style="stop-color:#5A11B2;stop-opacity:0"/>
						</radialGradient>
						<path class="st6" d="M429.3,675.3h-36.7c-0.9,0-1.7,0.1-2.6,0.2l0-23.2c0.8,0.1,1.7,0.2,2.6,0.2h20.7c8,0,14.5-6.5,14.5-14.5
							c0-8-6.5-14.5-14.5-14.5l-20.7,0c-0.9,0-1.7,0.1-2.6,0.2v-81.2c0.8-1.2,2-2.1,3.5-2.4c1.6-0.3,3.2-0.7,4.8-1.2
							c0.4-0.1,0.8-0.2,1.2-0.3c3.2-0.9,6.3-2,9.3-3.2c0.3-0.1,0.7-0.3,1-0.4c3-1.3,5.9-2.8,8.8-4.4c0.3-0.2,0.6-0.4,0.9-0.5
							c2-1.2,4-2.5,5.9-3.9h-98.5c9.4,6.7,20.3,11.5,32,14c1.5,0.3,2.7,1.2,3.5,2.4v148.9c0,6.9,5.6,12.5,12.5,12.5l15.2,0V704
							c0.8,0.1,1.7,0.2,2.6,0.2l36.7,0c8,0,14.5-6.5,14.5-14.5C443.8,681.7,437.3,675.3,429.3,675.3z"/>
					</g>
				</g>
			</g>
			<path class="st7" d="M260.8,754c0,12.9,6.7,27.5,29.2,27.5h205.9c14.1,0,27.5-9.6,27.5-29.2V618.4c0-10.5-4.1-25.7-25.7-25.7
				H283.1c-6.2,0-13.7-5.1-13.7-12c0-1.9-8.6-4.1-8.6,3.4V754z"/>
			<g>
				<linearGradient id="SVGID_5_" gradientUnits="userSpaceOnUse" x1="233.9929" y1="569.919" x2="554.4849" y2="812.1844">
					<stop  offset="0" style="stop-color:#BB84FF"/>
					<stop  offset="0.3702" style="stop-color:#8E32FF"/>
					<stop  offset="0.6525" style="stop-color:#8E32FF"/>
					<stop  offset="1" style="stop-color:#BB84FF"/>
				</linearGradient>
				<path class="st8" d="M260.8,754.4c0,12.9,6.7,27.5,29.2,27.5h205.9c14.1,0,27.5-9.6,27.5-29.2V624c0-10.5-4.1-25.7-25.7-25.7
					H283.1c-12.4,0-20.6-8.6-20.6-15.4c-0.3-5,0-6-1.7-2.1V754.4z"/>
			</g>
			<linearGradient id="SVGID_6_" gradientUnits="userSpaceOnUse" x1="310.1747" y1="584.1973" x2="531.9934" y2="868.8139">
				<stop  offset="0.2097" style="stop-color:#8E32FF"/>
				<stop  offset="0.3636" style="stop-color:#A55BFF"/>
				<stop  offset="0.4498" style="stop-color:#BB84FF"/>
				<stop  offset="0.5734" style="stop-color:#BB84FF"/>
				<stop  offset="0.7456" style="stop-color:#D2ADFF"/>
			</linearGradient>
			<path class="st9" d="M260.8,754.4c0,12.9,6.7,27.5,29.2,27.5h205.9c14.1,0,27.5-9.6,27.5-29.2V624c0-10.5-4.1-25.7-25.7-25.7
				H283.1c-12.4,0-20.6-8.6-20.6-15.4c-0.3-5,0-6-1.7-2.1V754.4z"/>
			<path class="st10" d="M530.2,669.9c0.3-3.4-2.2-6.5-5.8-6.9c-0.3,0-0.7,0-1,0h-27.5c-15.6,0.5-27.8,13.6-27.5,29.2
				c0,19.7,14.9,29.2,27.5,29.2h27.5c3.6,0.2,6.7-2.6,6.9-6.2c0-0.2,0-0.5,0-0.7V669.9z"/>
			<path class="st11" d="M530.2,669.9c0.3-3.4-2.2-6.5-5.8-6.9c-0.3,0-0.7,0-1,0h-27.5c-15.6,0.5-27.8,13.6-27.5,29.2
				c0,19.7,14.9,29.2,27.5,29.2h27.5c3.6,0.2,6.7-2.6,6.9-6.2c0-0.2,0-0.5,0-0.7V669.9z"/>
			<circle class="st10" cx="488.1" cy="693.1" r="7.7"/>
			<linearGradient id="SVGID_7_" gradientUnits="userSpaceOnUse" x1="281.5411" y1="606.0525" x2="503.3597" y2="890.6691">
				<stop  offset="0.2097" style="stop-color:#8E32FF"/>
				<stop  offset="0.3636" style="stop-color:#A55BFF"/>
				<stop  offset="0.4498" style="stop-color:#BB84FF"/>
				<stop  offset="0.5734" style="stop-color:#BB84FF"/>
				<stop  offset="0.7456" style="stop-color:#D2ADFF"/>
			</linearGradient>
			<path class="st12" d="M495.8,760.1H289.9c-22.5,0-29.2-14.6-29.2-27.5V754c0,12.9,6.7,27.5,29.2,27.5h205.9
				c14.1,0,27.5-9.6,27.5-29.2V731C523.3,750.5,509.9,760.1,495.8,760.1z"/>
			<g class="st13">
				<defs>
					<rect id="SVGID_8_" x="343.5" y="592.7" class="st13" width="114.7" height="123.2"/>
				</defs>
				<clipPath id="SVGID_9_">
					<use xlink:href="#SVGID_8_"  style="overflow:visible;"/>
				</clipPath>
				<g class="st14">
					<g>
						<g>
							<g>
								<linearGradient id="SVGID_10_" gradientUnits="userSpaceOnUse" x1="252.8611" y1="418.9983" x2="412.8666" y2="558.2625">
									<stop  offset="0" style="stop-color:#BB84FF"/>
									<stop  offset="0.3254" style="stop-color:#8E32FF"/>
									<stop  offset="0.6236" style="stop-color:#8E32FF"/>
									<stop  offset="1" style="stop-color:#BB84FF"/>
								</linearGradient>
								<path class="st15" d="M362.4,691.6c0,6.9,5.6,12.5,12.5,12.5l15.2,0l0-0.1c0.8,0.1,1.7,0.2,2.6,0.2l36.7,0
									c8,0,14.5-6.5,14.5-14.5c0-8-6.5-14.5-14.5-14.5l-36.7,0c-0.9,0-1.7,0.1-2.6,0.2l0-23.2c0.8,0.1,1.7,0.2,2.6,0.2l20.7,0
									c8,0,14.5-6.5,14.5-14.5c0-8-6.5-14.5-14.5-14.5l-20.7,0c-0.9,0-1.7,0.1-2.6,0.2l0-81.2c0.8-1.2,2-2.1,3.5-2.4
									c1.6-0.3,3.2-0.7,4.8-1.2c0.4-0.1,0.8-0.2,1.2-0.3c3.2-0.9,6.3-2,9.3-3.2c0.3-0.1,0.7-0.3,1-0.4c3-1.3,5.9-2.8,8.8-4.4
									c0.3-0.2,0.6-0.4,0.9-0.5c2.8-1.7,5.5-3.5,8.1-5.4c0.3-0.2,0.5-0.4,0.8-0.6c20.2-15.6,33.2-40.1,33.2-67.6
									c0-43-31.9-78.6-73.2-84.5v-10.4c0-7-5.7-12.6-12.6-12.6c-7,0-12.6,5.6-12.6,12.6l0,10.6c-5.2,0.8-10.2,2.1-15,3.8
									c0,0,0,0,0,0c-0.1,0-0.1,0-0.2,0.1c-4.1,1.4-8.1,3.2-11.8,5.2c-0.1,0-0.1,0.1-0.2,0.1c-0.9,0.5-1.8,1-2.7,1.5
									c-0.1,0.1-0.2,0.1-0.3,0.2c-3.6,2.1-7.1,4.6-10.3,7.2c-0.1,0.1-0.3,0.2-0.4,0.4c-0.7,0.6-1.4,1.2-2.1,1.8
									c-0.2,0.2-0.3,0.3-0.5,0.5c-2.3,2-4.5,4.2-6.5,6.4c-0.1,0.1-0.1,0.1-0.2,0.2c-0.6,0.6-1.1,1.3-1.7,1.9
									c-0.3,0.3-0.5,0.6-0.7,0.9c-0.5,0.6-1,1.2-1.5,1.8c-0.3,0.3-0.5,0.7-0.8,1.1c-0.5,0.6-0.9,1.2-1.4,1.8
									c-0.3,0.4-0.5,0.7-0.7,1.1c-0.8,1.1-1.5,2.2-2.2,3.3c-0.3,0.5-0.6,0.9-0.9,1.4c-0.3,0.6-0.7,1.1-1,1.7
									c-0.3,0.5-0.6,1-0.9,1.6c-0.3,0.6-0.6,1.1-0.9,1.7c-0.3,0.6-0.6,1.2-0.9,1.7c-0.3,0.5-0.5,1.1-0.8,1.6
									c-0.4,0.8-0.7,1.6-1,2.4c-0.2,0.6-0.5,1.2-0.7,1.8c-0.3,0.9-0.7,1.8-1,2.6c-0.2,0.5-0.3,1-0.5,1.4c-0.3,0.7-0.5,1.5-0.7,2.2
									c-0.2,0.5-0.3,1-0.5,1.5c-0.2,0.8-0.4,1.6-0.6,2.3c-0.1,0.5-0.2,0.9-0.4,1.4c-0.3,1.1-0.5,2.3-0.8,3.4
									c0,0.2-0.1,0.4-0.1,0.6c-0.2,1.2-0.4,2.4-0.6,3.6c-0.1,0.4-0.1,0.9-0.2,1.3c-0.1,0.9-0.2,1.8-0.3,2.6c0,0.5-0.1,0.9-0.1,1.4
									c-0.1,0.9-0.1,1.8-0.2,2.7c0,0.4,0,0.8-0.1,1.3c0,1.3-0.1,2.7-0.1,4c0.4,40.8,29.6,74.7,68.1,82.7c1.5,0.3,2.7,1.2,3.5,2.4
									L362.4,691.6z"/>
								<linearGradient id="SVGID_11_" gradientUnits="userSpaceOnUse" x1="316.2894" y1="512.8232" x2="487.9397" y2="552.7015">
									<stop  offset="0.2097" style="stop-color:#8E32FF"/>
									<stop  offset="0.3636" style="stop-color:#A55BFF"/>
									<stop  offset="0.4498" style="stop-color:#BB84FF"/>
									<stop  offset="0.5734" style="stop-color:#BB84FF"/>
									<stop  offset="0.7456" style="stop-color:#D2ADFF"/>
								</linearGradient>
								<path class="st16" d="M362.4,691.6c0,6.9,5.6,12.5,12.5,12.5l15.2,0l0-0.1c0.8,0.1,1.7,0.2,2.6,0.2l36.7,0
									c8,0,14.5-6.5,14.5-14.5c0-8-6.5-14.5-14.5-14.5l-36.7,0c-0.9,0-1.7,0.1-2.6,0.2l0-23.2c0.8,0.1,1.7,0.2,2.6,0.2l20.7,0
									c8,0,14.5-6.5,14.5-14.5c0-8-6.5-14.5-14.5-14.5l-20.7,0c-0.9,0-1.7,0.1-2.6,0.2l0-81.2c0.8-1.2,2-2.1,3.5-2.4
									c1.6-0.3,3.2-0.7,4.8-1.2c0.4-0.1,0.8-0.2,1.2-0.3c3.2-0.9,6.3-2,9.3-3.2c0.3-0.1,0.7-0.3,1-0.4c3-1.3,5.9-2.8,8.8-4.4
									c0.3-0.2,0.6-0.4,0.9-0.5c2.8-1.7,5.5-3.5,8.1-5.4c0.3-0.2,0.5-0.4,0.8-0.6c20.2-15.6,33.2-40.1,33.2-67.6
									c0-43-31.9-78.6-73.2-84.5v-10.4c0-7-5.7-12.6-12.6-12.6c-7,0-12.6,5.6-12.6,12.6l0,10.6c-5.2,0.8-10.2,2.1-15,3.8
									c0,0,0,0,0,0c-0.1,0-0.1,0-0.2,0.1c-4.1,1.4-8.1,3.2-11.8,5.2c-0.1,0-0.1,0.1-0.2,0.1c-0.9,0.5-1.8,1-2.7,1.5
									c-0.1,0.1-0.2,0.1-0.3,0.2c-3.6,2.1-7.1,4.6-10.3,7.2c-0.1,0.1-0.3,0.2-0.4,0.4c-0.7,0.6-1.4,1.2-2.1,1.8
									c-0.2,0.2-0.3,0.3-0.5,0.5c-2.3,2-4.5,4.2-6.5,6.4c-0.1,0.1-0.1,0.1-0.2,0.2c-0.6,0.6-1.1,1.3-1.7,1.9
									c-0.3,0.3-0.5,0.6-0.7,0.9c-0.5,0.6-1,1.2-1.5,1.8c-0.3,0.3-0.5,0.7-0.8,1.1c-0.5,0.6-0.9,1.2-1.4,1.8
									c-0.3,0.4-0.5,0.7-0.7,1.1c-0.8,1.1-1.5,2.2-2.2,3.3c-0.3,0.5-0.6,0.9-0.9,1.4c-0.3,0.6-0.7,1.1-1,1.7
									c-0.3,0.5-0.6,1-0.9,1.6c-0.3,0.6-0.6,1.1-0.9,1.7c-0.3,0.6-0.6,1.2-0.9,1.7c-0.3,0.5-0.5,1.1-0.8,1.6
									c-0.4,0.8-0.7,1.6-1,2.4c-0.2,0.6-0.5,1.2-0.7,1.8c-0.3,0.9-0.7,1.8-1,2.6c-0.2,0.5-0.3,1-0.5,1.4c-0.3,0.7-0.5,1.5-0.7,2.2
									c-0.2,0.5-0.3,1-0.5,1.5c-0.2,0.8-0.4,1.6-0.6,2.3c-0.1,0.5-0.2,0.9-0.4,1.4c-0.3,1.1-0.5,2.3-0.8,3.4
									c0,0.2-0.1,0.4-0.1,0.6c-0.2,1.2-0.4,2.4-0.6,3.6c-0.1,0.4-0.1,0.9-0.2,1.3c-0.1,0.9-0.2,1.8-0.3,2.6c0,0.5-0.1,0.9-0.1,1.4
									c-0.1,0.9-0.1,1.8-0.2,2.7c0,0.4,0,0.8-0.1,1.3c0,1.3-0.1,2.7-0.1,4c0.4,40.8,29.6,74.7,68.1,82.7c1.5,0.3,2.7,1.2,3.5,2.4
									L362.4,691.6z"/>
								<circle class="st5" cx="375.8" cy="454.8" r="61.1"/>
								<circle class="st5" cx="375.8" cy="454.8" r="38.3"/>
							</g>
						</g>
					</g>
				</g>
			</g>
		</g>
		<g>
			<g>
				<path class="st17" d="M316.5,690.3l-10.3,12.6c-2.3,2.8-2.3,6.7,0,9.5l8.9,10.8c2.1,2.6,6.1,2.6,8.2,0l10.2-12.5
					c1.5-1.8,1.5-4.4,0-6.2l-3.3-4.1c-1.3-1.6-3.8-1.6-5.1,0l-0.2,0.2c-0.9,1.1-0.9,2.6,0,3.7l1.8,2.1c0.6,0.7,0.6,1.7,0,2.3l-6.6,8
					c-0.5,0.6-1.4,0.6-1.8,0l-6.6-8c-0.5-0.7-0.5-1.6,0-2.3l9.2-11.2c3.5-4.2,10-4.2,13.4,0l6.1,7.4c2.4,2.9,2.4,7,0,9.9l-13.8,16.9
					c-3.8,4.7-11,4.7-14.8,0L300,715.1c-3.5-4.3-3.5-10.6,0-14.9l21.8-26.7c0.9-1.1,0.9-2.8,0-3.9l-0.6-0.7c-1.1-1.3-3.1-1.3-4.1,0
					l-22.2,27.2c-5.5,6.7-5.5,16.3,0,23l13,15.9c5.8,7.1,16.7,7.1,22.5,0l16.1-19.6c3.7-4.5,3.7-11.1,0-15.6l-7.8-9.5
					C333,683.3,322.3,683.3,316.5,690.3z"/>
			</g>
		</g>
	</g>
</g>
</svg>
