<?xml version="1.0" encoding="utf-8"?>
<!-- Generator: Adobe Illustrator 22.0.0, SVG Export Plug-In . SVG Version: 6.00 Build 0)  -->
<svg version="1.1" id="Capa_1" xmlns:serif="http://www.serif.com/"
	 xmlns="http://www.w3.org/2000/svg" xmlns:xlink="http://www.w3.org/1999/xlink" x="0px" y="0px" viewBox="0 0 792 1224"
	 style="enable-background:new 0 0 792 1224;" xml:space="preserve">
<style type="text/css">
	.st0{fill:#8800FF;}
	.st1{fill:url(#SVGID_1_);}
	.st2{fill:#BB84FF;}
	.st3{fill:url(#SVGID_2_);}
	.st4{fill:#F2F2F2;}
	.st5{opacity:0.74;fill:#BB84FF;}
	.st6{fill:url(#SVGID_3_);}
	.st7{opacity:0.44;fill:url(#SVGID_4_);}
	.st8{fill:#8E32FF;}
	.st9{opacity:0.44;fill:#E8D6FF;}
	.st10{opacity:0.44;fill:url(#SVGID_5_);}
	.st11{opacity:0.5;}
	.st12{fill:#5A11B2;}
</style>
<g>
	<path class="st0" d="M746.9,496.9L547.6,254.1c-39.4-47.9-95.5-71.8-151.6-71.8c-56.1,0-112.2,23.9-151.6,71.8L45.1,496.9
		C15,533.4,0,578.2,0,622.8c0,44.8,15,89.4,45.1,126l199.4,242.7c39.4,47.9,95.5,71.8,151.6,71.8c56.1,0,112.2-23.9,151.6-71.8
		l199.4-242.7c30.1-36.6,45.1-81.3,45.1-126C792,578,777,533.4,746.9,496.9z"/>
	<g>
		<g>
			<linearGradient id="SVGID_1_" gradientUnits="userSpaceOnUse" x1="105.9559" y1="663.9457" x2="682.2712" y2="663.9457">
				<stop  offset="0" style="stop-color:#BB84FF"/>
				<stop  offset="0.226" style="stop-color:#8E32FF"/>
				<stop  offset="0.7133" style="stop-color:#8E32FF"/>
				<stop  offset="1" style="stop-color:#BB84FF"/>
			</linearGradient>
			<path class="st1" d="M625.6,585.7H162.6c-31.2,0-56.7,25.5-56.7,56.7v43.1c0,31.2,25.5,56.7,56.7,56.7h462.9
				c31.2,0,56.7-25.5,56.7-56.7v-43.1C682.3,611.2,656.8,585.7,625.6,585.7z"/>
		</g>
		<g>
			<path class="st2" d="M516.4,586.7v-20.6c0-15.4-8.4-25.7-24-25.7H289.9c-14.8,0-29.2,6.7-29.2,24v22.3H516.4z"/>
			<linearGradient id="SVGID_2_" gradientUnits="userSpaceOnUse" x1="157.9904" y1="497.2441" x2="635.0524" y2="649.1747">
				<stop  offset="0" style="stop-color:#BB84FF"/>
				<stop  offset="0.3254" style="stop-color:#8E32FF"/>
				<stop  offset="0.6236" style="stop-color:#8E32FF"/>
				<stop  offset="1" style="stop-color:#BB84FF"/>
			</linearGradient>
			<path class="st3" d="M516.4,591.9v-20.6c0-15.4-8.4-25.7-24-25.7H289.9c-14.8,0-22.3,6.7-22.3,24v22.3H516.4z"/>
			<g>
				<path class="st4" d="M385.8,476.2l-25.4,31.1c-5.6,6.8-5.6,16.6,0,23.4l21.9,26.8c5.3,6.4,15.1,6.4,20.3,0l25.2-30.8
					c3.7-4.5,3.7-10.9,0-15.3l-8.3-10.1c-3.2-4-9.3-4-12.6,0l-0.4,0.5c-2.2,2.6-2.2,6.4,0,9.1l4.3,5.3c1.4,1.7,1.4,4.1,0,5.8
					l-16.2,19.8c-1.2,1.4-3.4,1.4-4.5,0L374,521.9c-1.3-1.6-1.3-4,0-5.7l22.7-27.8c8.6-10.5,24.6-10.5,33.2,0l15,18.3
					c5.8,7.1,5.8,17.4,0,24.6l-34.2,41.8c-9.5,11.6-27.1,11.6-36.6,0l-29.1-35.6c-8.8-10.7-8.8-26.1,0-36.9l53.9-65.9
					c2.3-2.8,2.3-6.8,0-9.6l-1.4-1.7c-2.6-3.2-7.6-3.2-10.2,0l-55,67.2c-13.5,16.5-13.5,40.3,0,56.8l32.2,39.4
					c14.4,17.6,41.3,17.6,55.7,0l39.7-48.5c9.2-11.2,9.2-27.4,0-38.6l-19.2-23.5C426.6,458.9,400,458.9,385.8,476.2z"/>
			</g>
			<path class="st5" d="M260.8,732.6c0,12.9,6.7,27.5,29.2,27.5h205.9c14.1,0,27.5-9.6,27.5-29.2V597c0-10.5-4.1-25.7-25.7-25.7
				H283.1c-6.2,0-13.7-5.1-13.7-12c0-1.9-8.6-4.1-8.6,3.4V732.6z"/>
			<g>
				<linearGradient id="SVGID_3_" gradientUnits="userSpaceOnUse" x1="233.9929" y1="548.5219" x2="554.4849" y2="790.7872">
					<stop  offset="0" style="stop-color:#BB84FF"/>
					<stop  offset="0.3702" style="stop-color:#8E32FF"/>
					<stop  offset="0.6525" style="stop-color:#8E32FF"/>
					<stop  offset="1" style="stop-color:#BB84FF"/>
				</linearGradient>
				<path class="st6" d="M260.8,733c0,12.9,6.7,27.5,29.2,27.5h205.9c14.1,0,27.5-9.6,27.5-29.2V602.6c0-10.5-4.1-25.7-25.7-25.7
					H283.1c-12.4,0-20.6-8.6-20.6-15.4c-0.3-5,0-6-1.7-2.1V733z"/>
			</g>
			<linearGradient id="SVGID_4_" gradientUnits="userSpaceOnUse" x1="310.1747" y1="562.8001" x2="531.9934" y2="847.4167">
				<stop  offset="0.2097" style="stop-color:#8E32FF"/>
				<stop  offset="0.3636" style="stop-color:#A55BFF"/>
				<stop  offset="0.4498" style="stop-color:#BB84FF"/>
				<stop  offset="0.5734" style="stop-color:#BB84FF"/>
				<stop  offset="0.7456" style="stop-color:#D2ADFF"/>
			</linearGradient>
			<path class="st7" d="M260.8,733c0,12.9,6.7,27.5,29.2,27.5h205.9c14.1,0,27.5-9.6,27.5-29.2V602.6c0-10.5-4.1-25.7-25.7-25.7
				H283.1c-12.4,0-20.6-8.6-20.6-15.4c-0.3-5,0-6-1.7-2.1V733z"/>
			<path class="st8" d="M530.2,648.5c0.3-3.4-2.2-6.5-5.8-6.9c-0.3,0-0.7,0-1,0h-27.5c-15.6,0.5-27.8,13.6-27.5,29.2
				c0,19.7,14.9,29.2,27.5,29.2h27.5c3.6,0.2,6.7-2.6,6.9-6.2c0-0.2,0-0.5,0-0.7V648.5z"/>
			<path class="st9" d="M530.2,648.5c0.3-3.4-2.2-6.5-5.8-6.9c-0.3,0-0.7,0-1,0h-27.5c-15.6,0.5-27.8,13.6-27.5,29.2
				c0,19.7,14.9,29.2,27.5,29.2h27.5c3.6,0.2,6.7-2.6,6.9-6.2c0-0.2,0-0.5,0-0.7V648.5z"/>
			<circle class="st8" cx="488.1" cy="671.7" r="7.7"/>
			<linearGradient id="SVGID_5_" gradientUnits="userSpaceOnUse" x1="281.5411" y1="584.6553" x2="503.3597" y2="869.2719">
				<stop  offset="0.2097" style="stop-color:#8E32FF"/>
				<stop  offset="0.3636" style="stop-color:#A55BFF"/>
				<stop  offset="0.4498" style="stop-color:#BB84FF"/>
				<stop  offset="0.5734" style="stop-color:#BB84FF"/>
				<stop  offset="0.7456" style="stop-color:#D2ADFF"/>
			</linearGradient>
			<path class="st10" d="M495.8,738.8H289.9c-22.5,0-29.2-14.6-29.2-27.5v21.3c0,12.9,6.7,27.5,29.2,27.5h205.9
				c14.1,0,27.5-9.6,27.5-29.2v-21.3C523.3,729.1,509.9,738.8,495.8,738.8z"/>
		</g>
		<g class="st11">
			<path class="st12" d="M522.7,633.7c-14.6,0-26.5,11.9-26.5,26.5c0,14.6,11.9,26.5,26.5,26.5c14.6,0,26.5-11.9,26.5-26.5
				C549.2,645.6,537.3,633.7,522.7,633.7z"/>
			<path class="st12" d="M611,633.7c-14.6,0-26.5,11.9-26.5,26.5c0,14.6,11.9,26.5,26.5,26.5c14.6,0,26.5-11.9,26.5-26.5
				C637.4,645.6,625.6,633.7,611,633.7z"/>
			<circle class="st12" cx="169.7" cy="660.2" r="26.5"/>
			<path class="st12" d="M257.9,633.7c-14.6,0-26.5,11.9-26.5,26.5c0,14.6,11.9,26.5,26.5,26.5c14.6,0,26.5-11.9,26.5-26.5
				C284.4,645.6,272.6,633.7,257.9,633.7z"/>
			<circle class="st12" cx="346.2" cy="660.2" r="26.5"/>
			<path class="st12" d="M434.4,633.7c-14.6,0-26.5,11.9-26.5,26.5c0,14.6,11.9,26.5,26.5,26.5c14.6,0,26.5-11.9,26.5-26.5
				C460.9,645.6,449.1,633.7,434.4,633.7z"/>
		</g>
	</g>
</g>
</svg>
