<?xml version="1.0" encoding="utf-8"?>
<!-- Generator: Adobe Illustrator 22.0.0, SVG Export Plug-In . SVG Version: 6.00 Build 0)  -->
<svg version="1.1" id="Capa_1" xmlns:serif="http://www.serif.com/"
	 xmlns="http://www.w3.org/2000/svg" xmlns:xlink="http://www.w3.org/1999/xlink" x="0px" y="0px" viewBox="0 0 792 1224"
	 style="enable-background:new 0 0 792 1224;" xml:space="preserve">
<style type="text/css">
	.st0{fill:#8800FF;}
	.st1{fill:#BB84FF;}
	.st2{fill:url(#SVGID_1_);}
	.st3{fill:#8E32FF;}
	.st4{opacity:0.74;fill:#BB84FF;enable-background:new    ;}
	.st5{fill:url(#SVGID_2_);}
	.st6{opacity:0.44;fill:url(#SVGID_3_);enable-background:new    ;}
	.st7{opacity:0.44;fill:#E8D6FF;enable-background:new    ;}
	.st8{opacity:0.44;fill:url(#SVGID_4_);enable-background:new    ;}
	.st9{fill:#F2F2F2;}
	.st10{opacity:0.17;fill:#BDCCD4;}
	.st11{fill:url(#SVGID_5_);}
	.st12{fill:url(#SVGID_6_);}
	.st13{fill:#5A11B2;}
	.st14{opacity:0.39;fill:#D2AEFF;}
	.st15{fill:#471980;}
	.st16{opacity:0.5;fill:#BDCCD4;}
	.st17{opacity:0.5;fill:#6B26BF;}
	.st18{opacity:0.5;}
	.st19{opacity:0.5;fill:#8E32FF;}
</style>
<g>
	<g>
		<path class="st0" d="M746.9,483.6L547.6,240.9c-39.4-47.9-95.5-71.8-151.6-71.8c-56.1,0-112.2,23.9-151.6,71.8L45.1,483.6
			C15,520.2,0,565,0,609.6c0,44.8,15,89.4,45.1,126l199.4,242.7c39.4,47.9,95.5,71.8,151.6,71.8c56.1,0,112.2-23.9,151.6-71.8
			l199.4-242.7C777,699,792,654.2,792,609.6C792,564.8,777,520.2,746.9,483.6z"/>
	</g>
	<g>
		<g>
			<g>
				<path class="st1" d="M502.2,352.4v-18c0-13.4-7.4-22.4-21-22.4H304.5c-12.9,0-25.4,5.8-25.4,21v19.4
					C279.1,352.4,502.2,352.4,502.2,352.4z"/>
				
					<linearGradient id="SVGID_1_" gradientUnits="userSpaceOnUse" x1="189.5858" y1="1182.2698" x2="605.7372" y2="1314.8021" gradientTransform="matrix(1 0 0 1 0 -908)">
					<stop  offset="0" style="stop-color:#BB84FF"/>
					<stop  offset="0.3254" style="stop-color:#8E32FF"/>
					<stop  offset="0.6236" style="stop-color:#8E32FF"/>
					<stop  offset="1" style="stop-color:#BB84FF"/>
				</linearGradient>
				<path class="st2" d="M502.2,356.8v-18c0-13.4-7.4-22.4-21-22.4H304.5c-12.9,0-19.4,5.8-19.4,21v19.4L502.2,356.8L502.2,356.8z"
					/>
				<circle class="st3" cx="477.5" cy="426.4" r="6.7"/>
				<path class="st4" d="M279.2,479.6c0,11.3,5.8,24,25.4,24h179.5c12.2,0,24-8.3,24-25.4V361.4c0-9.2-3.5-22.4-22.4-22.4H298.7
					c-5.3,0-12-4.4-12-10.4c0-1.6-7.4-3.5-7.4,3V479.6z"/>
				<g>
					
						<linearGradient id="SVGID_2_" gradientUnits="userSpaceOnUse" x1="255.8448" y1="1227.0765" x2="535.4169" y2="1438.4098" gradientTransform="matrix(1 0 0 1 0 -908)">
						<stop  offset="0" style="stop-color:#BB84FF"/>
						<stop  offset="0.3702" style="stop-color:#8E32FF"/>
						<stop  offset="0.6525" style="stop-color:#8E32FF"/>
						<stop  offset="1" style="stop-color:#BB84FF"/>
					</linearGradient>
					<path class="st5" d="M279.2,480c0,11.3,5.8,24,25.4,24h179.5c12.2,0,24-8.3,24-25.4V366.3c0-9.2-3.5-22.4-22.4-22.4H298.7
						c-10.8,0-18-7.4-18-13.4c-0.4-4.4,0-5.3-1.4-1.8V480z"/>
				</g>
				
					<linearGradient id="SVGID_3_" gradientUnits="userSpaceOnUse" x1="322.3064" y1="1239.5122" x2="515.8036" y2="1487.7892" gradientTransform="matrix(1 0 0 1 0 -908)">
					<stop  offset="0.2097" style="stop-color:#8E32FF"/>
					<stop  offset="0.3636" style="stop-color:#A55BFF"/>
					<stop  offset="0.4498" style="stop-color:#BB84FF"/>
					<stop  offset="0.5734" style="stop-color:#BB84FF"/>
					<stop  offset="0.7456" style="stop-color:#D2ADFF"/>
				</linearGradient>
				<path class="st6" d="M279.2,480c0,11.3,5.8,24,25.4,24h179.5c12.2,0,24-8.3,24-25.4V366.3c0-9.2-3.5-22.4-22.4-22.4H298.7
					c-10.8,0-18-7.4-18-13.4c-0.4-4.4,0-5.3-1.4-1.8V480z"/>
				<path class="st3" d="M514.3,406.3c0.4-3-1.9-5.7-5.1-6c-0.4,0-0.5,0-0.9,0h-24c-13.6,0.5-24.2,11.8-24,25.4
					c0,17.1,13.1,25.4,24,25.4h24c3.2,0.2,5.8-2.3,6-5.3c0-0.2,0-0.5,0-0.5V406.3z"/>
				<path class="st7" d="M514.3,406.3c0.4-3-1.9-5.7-5.1-6c-0.4,0-0.5,0-0.9,0h-24c-13.6,0.5-24.2,11.8-24,25.4
					c0,17.1,13.1,25.4,24,25.4h24c3.2,0.2,5.8-2.3,6-5.3c0-0.2,0-0.5,0-0.5V406.3z"/>
				
					<linearGradient id="SVGID_4_" gradientUnits="userSpaceOnUse" x1="297.3891" y1="1258.5297" x2="490.8862" y2="1506.8069" gradientTransform="matrix(1 0 0 1 0 -908)">
					<stop  offset="0.2097" style="stop-color:#8E32FF"/>
					<stop  offset="0.3636" style="stop-color:#A55BFF"/>
					<stop  offset="0.4498" style="stop-color:#BB84FF"/>
					<stop  offset="0.5734" style="stop-color:#BB84FF"/>
					<stop  offset="0.7456" style="stop-color:#D2ADFF"/>
				</linearGradient>
				<path class="st8" d="M484.2,484.9H304.7c-19.6,0-25.4-12.7-25.4-24v18.6c0,11.3,5.8,24,25.4,24h179.5c12.2,0,24-8.3,24-25.4
					v-18.6C508.2,476.6,496.6,484.9,484.2,484.9z"/>
			</g>
			<g>
				<path class="st9" d="M386.7,400.4l-9.7,11.8c-2.1,2.7-2.1,6.4,0,9l8.3,10.2c1.9,2.5,5.8,2.5,7.8,0l9.7-11.8
					c1.4-1.8,1.4-4.2,0-5.8l-3.2-3.9c-1.2-1.6-3.5-1.6-4.8,0l-0.2,0.2c-0.9,1.1-0.9,2.5,0,3.5l1.6,1.9c0.5,0.7,0.5,1.6,0,2.3
					l-6.2,7.6c-0.5,0.5-1.2,0.5-1.8,0l-6.2-7.6c-0.5-0.7-0.5-1.6,0-2.1l8.7-10.6c3.4-4.1,9.4-4.1,12.7,0l5.7,7.1
					c2.3,2.7,2.3,6.7,0,9.4L396,437.6c-3.5,4.4-10.4,4.4-14,0L370.9,424c-3.4-4.1-3.4-10.1,0-14.1l20.7-25.3c0.9-1.1,0.9-2.7,0-3.7
					l-0.5-0.7c-1.1-1.2-2.8-1.2-3.9,0l-21,25.6c-5.1,6.4-5.1,15.4,0,21.7l12.4,15c5.5,6.7,15.7,6.7,21.4,0l15.2-18.6
					c3.5-4.2,3.5-10.4,0-14.8l-7.4-9C402.2,393.7,392,393.7,386.7,400.4z"/>
			</g>
		</g>
	</g>
	<g>
		<g>
			<g>
				<path class="st10" d="M238.8,608.8h321.4c13.3,0,24.1,10.8,24.1,24.1v208.9c0,13.3-10.8,24.1-24.1,24.1H238.8
					c-13.3,0-24.1-10.8-24.1-24.1V632.9C214.7,619.6,225.5,608.8,238.8,608.8z"/>
				<radialGradient id="SVGID_5_" cx="399.5286" cy="875.2222" r="360.5424" gradientUnits="userSpaceOnUse">
					<stop  offset="0.4276" style="stop-color:#8E32FF"/>
					<stop  offset="1" style="stop-color:#BB84FF"/>
				</radialGradient>
				<path class="st11" d="M238.8,608.8h321.4c13.3,0,24.1,10.8,24.1,24.1v208.9c0,13.3-10.8,24.1-24.1,24.1H238.8
					c-13.3,0-24.1-10.8-24.1-24.1V632.9C214.7,619.6,225.5,608.8,238.8,608.8z"/>
				<radialGradient id="SVGID_6_" cx="399.5286" cy="959.1892" r="148.4977" gradientUnits="userSpaceOnUse">
					<stop  offset="0.1551" style="stop-color:#BB84FF"/>
					<stop  offset="0.7936" style="stop-color:#8E32FF"/>
				</radialGradient>
				<path class="st12" d="M445.1,906.1l-13.4-40.2h-64.3L354,906.1h-20.1c-3.7,0-6.6,3-6.6,6.6v9.4h144.6v-6.7
					c0-5.2-4.2-9.3-9.3-9.3H445.1z"/>
				<path class="st13" d="M246.1,632.9h1.5c4,0,7.3,3.3,7.3,7.3v1.5c0,4-3.3,7.3-7.3,7.3h-1.5c-4,0-7.3-3.3-7.3-7.3v-1.5
					C238.8,636.2,242.1,632.9,246.1,632.9z"/>
				<path class="st13" d="M278.3,632.9h1.5c4,0,7.3,3.3,7.3,7.3v1.5c0,4-3.3,7.3-7.3,7.3h-1.5c-4,0-7.3-3.3-7.3-7.3v-1.5
					C271,636.2,274.2,632.9,278.3,632.9z"/>
				<path class="st13" d="M310.4,632.9h1.5c4,0,7.3,3.3,7.3,7.3v1.5c0,4-3.3,7.3-7.3,7.3h-1.5c-4,0-7.3-3.3-7.3-7.3v-1.5
					C303.1,636.2,306.4,632.9,310.4,632.9z"/>
			</g>
		</g>
		<g>
			<g>
				<path class="st9" d="M289.7,692.7c0-0.5-0.2-1-0.4-1.5c-0.1-0.1-0.1-0.2-0.2-0.3l-0.4-0.5l-1.4-2c-0.1-0.1-0.2-0.2-0.2-0.3
					c-0.2-0.2-0.3-0.3-0.5-0.4c0,0,0,0,0,0c-0.5-0.4-1.1-0.6-1.8-0.6c0,0,0,0,0,0c-0.7,0-1.4,0.2-1.9,0.7c-0.2,0.2-0.4,0.4-0.6,0.6
					c0,0,0,0,0,0l0,0l-1.3,1.7l0,0l-1.7,2.3c0,0,0,0,0,0.1c0,0.1-0.1,0.2-0.1,0.2c0,0.2,0,0.4,0.1,0.6l0.9,1.3l0.6,0.8l0,0.1
					l1.4,1.8c0.1,0.2,0.4,0.3,0.6,0.3c0,0,0,0,0.1,0c0.2,0,0.4-0.1,0.6-0.3l1.4-1.9l0,0l0.6-0.8l1-1.3c0.1-0.2,0.2-0.4,0.1-0.6
					c0-0.1-0.1-0.2-0.1-0.3l-0.2-0.2l-0.9-1.2c-0.2-0.3-0.6-0.4-0.9-0.3c-0.1,0-0.1,0.1-0.2,0.1c0,0,0,0,0,0c0,0,0,0,0,0
					c0,0-0.1,0.1-0.1,0.1l0,0l-0.3,0.4c0,0-0.1,0.1-0.1,0.2c0,0,0,0.1,0,0.1l0.6,0.8v0l0.1,0.2c0,0,0,0,0,0.1c0,0,0,0,0,0.1
					c0,0.1,0,0.2-0.1,0.4l-0.7,1l0,0l-0.1,0.2l-0.8,1.1c0,0-0.1,0.1-0.1,0.1c-0.1,0-0.1,0-0.2-0.1l-0.8-1.1l-0.1-0.1l0,0l-0.8-1.1
					c0,0,0-0.1,0-0.1c0-0.1,0-0.1,0-0.2l0,0l0.9-1.3l0,0l0.9-1.3l0.6-0.8c0,0,0,0,0,0c0.5-0.7,1.5-0.8,2.1-0.4c0,0,0,0,0,0
					c0.2,0.1,0.3,0.2,0.4,0.4l1.5,2.1l0.3,0.4c0.2,0.3,0.3,0.6,0.3,0.9c0,0.4-0.1,0.9-0.3,1.2l-1,1.3l-1.1,1.5l0,0l-1.7,2.3
					c-0.3,0.4-0.8,0.7-1.3,0.7c-0.5,0-1.1-0.2-1.4-0.7l-1.6-2.2l0-0.1l-1.1-1.5l-0.8-1.1c-0.3-0.4-0.4-0.9-0.4-1.4
					c0-0.3,0.1-0.7,0.3-1c0,0,0.1-0.1,0.1-0.1l2.1-2.9l0,0l1-1.3l0,0l1.9-2.6l0.6-0.9c0,0,0,0,0,0c0,0,0,0,0,0
					c0.2-0.3,0.2-0.8-0.1-1h0l0,0c0,0,0,0,0,0l-0.4-0.3c0,0-0.1,0-0.1,0c-0.1,0-0.2,0-0.3,0.1l-0.3,0.4l0,0l0,0l0,0l-2.2,3l0,0
					l-1,1.3l0,0l-2.4,3.2c0,0,0,0,0,0.1c0,0,0,0,0,0.1c-0.4,0.6-0.6,1.2-0.6,1.9c0,0.8,0.2,1.6,0.7,2.3l0.7,1l1.5,2l0.1,0.1l1.3,1.8
					c0.6,0.8,1.6,1.3,2.6,1.3c0,0,0,0,0,0c1,0,2-0.5,2.6-1.3l1.4-1.8l0,0l1.4-1.9l0.9-1.3C289.5,694.2,289.7,693.5,289.7,692.7z"/>
			</g>
		</g>
		<g>
			<g>
				<path class="st3" d="M292.2,707.6h-17c-4,0-7.3-3.3-7.3-7.3v-17c0-4,3.3-7.3,7.3-7.3h17c4,0,7.3,3.3,7.3,7.3v17
					C299.5,704.3,296.2,707.6,292.2,707.6z"/>
				<path class="st14" d="M292.2,822.1h-17c-4,0-7.3-3.3-7.3-7.3v-96c0-4,3.3-7.3,7.3-7.3h17c4,0,7.3,3.3,7.3,7.3v96
					C299.5,818.8,296.2,822.1,292.2,822.1z"/>
				<path class="st14" d="M450.2,822.1H321.2c-4,0-7.3-3.3-7.3-7.3V683.3c0-4,3.3-7.3,7.3-7.3h128.9c4,0,7.3,3.3,7.3,7.3v131.6
					C457.5,818.8,454.2,822.1,450.2,822.1z"/>
				<path class="st14" d="M527.9,822.1h-56.5c-4,0-7.3-3.3-7.3-7.3v-92.1c0-4,3.3-7.3,7.3-7.3h56.5c4,0,7.3,3.3,7.3,7.3v92.1
					C535.1,818.8,531.9,822.1,527.9,822.1z"/>
				<path class="st15" d="M527.9,704.9h-56.5c-4,0-7.3-3.3-7.3-7.3v-14.4c0-4,3.3-7.3,7.3-7.3h56.5c4,0,7.3,3.3,7.3,7.3v14.4
					C535.1,701.7,531.9,704.9,527.9,704.9z"/>
				<path class="st16" d="M286.2,737.3h-5.1c-2.2,0-4-1.8-4-4v-5.1c0-2.2,1.8-4,4-4h5.1c2.2,0,4,1.8,4,4v5.1
					C290.3,735.5,288.4,737.3,286.2,737.3z"/>
				<path class="st17" d="M286.2,760.7h-5.1c-2.2,0-4-1.8-4-4v-5.1c0-2.2,1.8-4,4-4h5.1c2.2,0,4,1.8,4,4v5.1
					C290.3,758.9,288.4,760.7,286.2,760.7z"/>
				<path class="st17" d="M286.2,784.2h-5.1c-2.2,0-4-1.8-4-4v-5.1c0-2.2,1.8-4,4-4h5.1c2.2,0,4,1.8,4,4v5.1
					C290.3,782.4,288.4,784.2,286.2,784.2z"/>
				<path class="st17" d="M286.2,807.6h-5.1c-2.2,0-4-1.8-4-4v-5.1c0-2.2,1.8-4,4-4h5.1c2.2,0,4,1.8,4,4v5.1
					C290.3,805.8,288.4,807.6,286.2,807.6z"/>
				<g class="st18">
					<g>
						<path class="st1" d="M352.3,691.7h-25.7c-0.4,0-0.8-0.3-0.8-0.8v-1c0-0.4,0.3-0.8,0.8-0.8h25.7c0.4,0,0.8,0.3,0.8,0.8v1
							C353.1,691.3,352.8,691.7,352.3,691.7z"/>
						<path class="st1" d="M373.6,691.7H360c-0.4,0-0.8-0.3-0.8-0.8v-1c0-0.4,0.3-0.8,0.8-0.8h13.6c0.4,0,0.8,0.3,0.8,0.8v1
							C374.3,691.3,374,691.7,373.6,691.7z"/>
						<path class="st1" d="M429.6,691.7h-48.5c-0.4,0-0.8-0.3-0.8-0.8v-1c0-0.4,0.3-0.8,0.8-0.8h48.5c0.4,0,0.8,0.3,0.8,0.8v1
							C430.4,691.3,430.1,691.7,429.6,691.7z"/>
						<path class="st1" d="M444.8,691.7h-9.1c-0.4,0-0.8-0.3-0.8-0.8v-1c0-0.4,0.3-0.8,0.8-0.8h9.1c0.4,0,0.8,0.3,0.8,0.8v1
							C445.6,691.3,445.2,691.7,444.8,691.7z"/>
					</g>
					<g>
						<path class="st1" d="M352.3,708.1h-25.7c-0.4,0-0.8-0.3-0.8-0.8v-1c0-0.4,0.3-0.8,0.8-0.8h25.7c0.4,0,0.8,0.3,0.8,0.8v1
							C353.1,707.8,352.8,708.1,352.3,708.1z"/>
						<path class="st1" d="M373.6,708.1H360c-0.4,0-0.8-0.3-0.8-0.8v-1c0-0.4,0.3-0.8,0.8-0.8h13.6c0.4,0,0.8,0.3,0.8,0.8v1
							C374.3,707.8,374,708.1,373.6,708.1z"/>
						<path class="st1" d="M429.6,708.1h-48.5c-0.4,0-0.8-0.3-0.8-0.8v-1c0-0.4,0.3-0.8,0.8-0.8h48.5c0.4,0,0.8,0.3,0.8,0.8v1
							C430.4,707.8,430.1,708.1,429.6,708.1z"/>
						<path class="st1" d="M444.8,708.1h-9.1c-0.4,0-0.8-0.3-0.8-0.8v-1c0-0.4,0.3-0.8,0.8-0.8h9.1c0.4,0,0.8,0.3,0.8,0.8v1
							C445.6,707.8,445.2,708.1,444.8,708.1z"/>
					</g>
					<g>
						<path class="st1" d="M352.3,724.6h-25.7c-0.4,0-0.8-0.3-0.8-0.8v-1c0-0.4,0.3-0.8,0.8-0.8h25.7c0.4,0,0.8,0.3,0.8,0.8v1
							C353.1,724.2,352.8,724.6,352.3,724.6z"/>
						<path class="st1" d="M373.6,724.6H360c-0.4,0-0.8-0.3-0.8-0.8v-1c0-0.4,0.3-0.8,0.8-0.8h13.6c0.4,0,0.8,0.3,0.8,0.8v1
							C374.3,724.2,374,724.6,373.6,724.6z"/>
						<path class="st1" d="M429.6,724.6h-48.5c-0.4,0-0.8-0.3-0.8-0.8v-1c0-0.4,0.3-0.8,0.8-0.8h48.5c0.4,0,0.8,0.3,0.8,0.8v1
							C430.4,724.2,430.1,724.6,429.6,724.6z"/>
						<path class="st1" d="M444.8,724.6h-9.1c-0.4,0-0.8-0.3-0.8-0.8v-1c0-0.4,0.3-0.8,0.8-0.8h9.1c0.4,0,0.8,0.3,0.8,0.8v1
							C445.6,724.2,445.2,724.6,444.8,724.6z"/>
					</g>
					<g>
						<path class="st1" d="M352.3,741h-25.7c-0.4,0-0.8-0.3-0.8-0.8v-1c0-0.4,0.3-0.8,0.8-0.8h25.7c0.4,0,0.8,0.3,0.8,0.8v1
							C353.1,740.7,352.8,741,352.3,741z"/>
						<path class="st1" d="M373.6,741H360c-0.4,0-0.8-0.3-0.8-0.8v-1c0-0.4,0.3-0.8,0.8-0.8h13.6c0.4,0,0.8,0.3,0.8,0.8v1
							C374.3,740.7,374,741,373.6,741z"/>
						<path class="st1" d="M429.6,741h-48.5c-0.4,0-0.8-0.3-0.8-0.8v-1c0-0.4,0.3-0.8,0.8-0.8h48.5c0.4,0,0.8,0.3,0.8,0.8v1
							C430.4,740.7,430.1,741,429.6,741z"/>
						<path class="st1" d="M444.8,741h-9.1c-0.4,0-0.8-0.3-0.8-0.8v-1c0-0.4,0.3-0.8,0.8-0.8h9.1c0.4,0,0.8,0.3,0.8,0.8v1
							C445.6,740.7,445.2,741,444.8,741z"/>
					</g>
					<g>
						<path class="st1" d="M352.3,757.5h-25.7c-0.4,0-0.8-0.3-0.8-0.8v-1c0-0.4,0.3-0.8,0.8-0.8h25.7c0.4,0,0.8,0.3,0.8,0.8v1
							C353.1,757.1,352.8,757.5,352.3,757.5z"/>
						<path class="st1" d="M373.6,757.5H360c-0.4,0-0.8-0.3-0.8-0.8v-1c0-0.4,0.3-0.8,0.8-0.8h13.6c0.4,0,0.8,0.3,0.8,0.8v1
							C374.3,757.1,374,757.5,373.6,757.5z"/>
						<path class="st1" d="M429.6,757.5h-48.5c-0.4,0-0.8-0.3-0.8-0.8v-1c0-0.4,0.3-0.8,0.8-0.8h48.5c0.4,0,0.8,0.3,0.8,0.8v1
							C430.4,757.1,430.1,757.5,429.6,757.5z"/>
						<path class="st1" d="M444.8,757.5h-9.1c-0.4,0-0.8-0.3-0.8-0.8v-1c0-0.4,0.3-0.8,0.8-0.8h9.1c0.4,0,0.8,0.3,0.8,0.8v1
							C445.6,757.1,445.2,757.5,444.8,757.5z"/>
					</g>
					<g>
						<path class="st1" d="M352.3,773.9h-25.7c-0.4,0-0.8-0.3-0.8-0.8v-1c0-0.4,0.3-0.8,0.8-0.8h25.7c0.4,0,0.8,0.3,0.8,0.8v1
							C353.1,773.6,352.8,773.9,352.3,773.9z"/>
						<path class="st1" d="M373.6,773.9H360c-0.4,0-0.8-0.3-0.8-0.8v-1c0-0.4,0.3-0.8,0.8-0.8h13.6c0.4,0,0.8,0.3,0.8,0.8v1
							C374.3,773.6,374,773.9,373.6,773.9z"/>
						<path class="st1" d="M429.6,773.9h-48.5c-0.4,0-0.8-0.3-0.8-0.8v-1c0-0.4,0.3-0.8,0.8-0.8h48.5c0.4,0,0.8,0.3,0.8,0.8v1
							C430.4,773.6,430.1,773.9,429.6,773.9z"/>
						<path class="st1" d="M444.8,773.9h-9.1c-0.4,0-0.8-0.3-0.8-0.8v-1c0-0.4,0.3-0.8,0.8-0.8h9.1c0.4,0,0.8,0.3,0.8,0.8v1
							C445.6,773.6,445.2,773.9,444.8,773.9z"/>
					</g>
					<g>
						<path class="st1" d="M352.3,790.4h-25.7c-0.4,0-0.8-0.3-0.8-0.8v-1c0-0.4,0.3-0.8,0.8-0.8h25.7c0.4,0,0.8,0.3,0.8,0.8v1
							C353.1,790,352.8,790.4,352.3,790.4z"/>
						<path class="st1" d="M373.6,790.4H360c-0.4,0-0.8-0.3-0.8-0.8v-1c0-0.4,0.3-0.8,0.8-0.8h13.6c0.4,0,0.8,0.3,0.8,0.8v1
							C374.3,790,374,790.4,373.6,790.4z"/>
						<path class="st1" d="M429.6,790.4h-48.5c-0.4,0-0.8-0.3-0.8-0.8v-1c0-0.4,0.3-0.8,0.8-0.8h48.5c0.4,0,0.8,0.3,0.8,0.8v1
							C430.4,790,430.1,790.4,429.6,790.4z"/>
						<path class="st1" d="M444.8,790.4h-9.1c-0.4,0-0.8-0.3-0.8-0.8v-1c0-0.4,0.3-0.8,0.8-0.8h9.1c0.4,0,0.8,0.3,0.8,0.8v1
							C445.6,790,445.2,790.4,444.8,790.4z"/>
					</g>
					<g>
						<path class="st1" d="M352.3,806.8h-25.7c-0.4,0-0.8-0.3-0.8-0.8v-1c0-0.4,0.3-0.8,0.8-0.8h25.7c0.4,0,0.8,0.3,0.8,0.8v1
							C353.1,806.5,352.8,806.8,352.3,806.8z"/>
						<path class="st1" d="M373.6,806.8H360c-0.4,0-0.8-0.3-0.8-0.8v-1c0-0.4,0.3-0.8,0.8-0.8h13.6c0.4,0,0.8,0.3,0.8,0.8v1
							C374.3,806.5,374,806.8,373.6,806.8z"/>
						<path class="st1" d="M429.6,806.8h-48.5c-0.4,0-0.8-0.3-0.8-0.8v-1c0-0.4,0.3-0.8,0.8-0.8h48.5c0.4,0,0.8,0.3,0.8,0.8v1
							C430.4,806.5,430.1,806.8,429.6,806.8z"/>
						<path class="st1" d="M444.8,806.8h-9.1c-0.4,0-0.8-0.3-0.8-0.8v-1c0-0.4,0.3-0.8,0.8-0.8h9.1c0.4,0,0.8,0.3,0.8,0.8v1
							C445.6,806.5,445.2,806.8,444.8,806.8z"/>
					</g>
				</g>
				<g class="st18">
					<circle class="st1" cx="481.2" cy="734.4" r="7.1"/>
					<circle class="st1" cx="481.2" cy="755.6" r="7.1"/>
					<circle class="st1" cx="481.2" cy="776.8" r="7.1"/>
					<circle class="st1" cx="481.2" cy="797.9" r="7.1"/>
					<path class="st1" d="M523.8,732.6h-31.3c-0.4,0-0.8-0.4-0.8-0.8v-1c0-0.4,0.4-0.8,0.8-0.8h31.3c0.4,0,0.8,0.4,0.8,0.8v1
						C524.6,732.2,524.2,732.6,523.8,732.6z"/>
					<path class="st1" d="M523.8,774.7h-31.3c-0.4,0-0.8-0.4-0.8-0.8v-1c0-0.4,0.4-0.8,0.8-0.8h31.3c0.4,0,0.8,0.4,0.8,0.8v1
						C524.6,774.4,524.2,774.7,523.8,774.7z"/>
					<path class="st1" d="M523.8,795.8h-31.3c-0.4,0-0.8-0.4-0.8-0.8v-1c0-0.4,0.4-0.8,0.8-0.8h31.3c0.4,0,0.8,0.4,0.8,0.8v1
						C524.6,795.4,524.2,795.8,523.8,795.8z"/>
					<path class="st1" d="M523.8,753.7h-31.3c-0.4,0-0.8-0.4-0.8-0.8v-1c0-0.4,0.4-0.8,0.8-0.8h31.3c0.4,0,0.8,0.4,0.8,0.8v1
						C524.6,753.3,524.2,753.7,523.8,753.7z"/>
					<path class="st1" d="M504,739.2h-11.5c-0.4,0-0.8-0.4-0.8-0.8v-1c0-0.4,0.4-0.8,0.8-0.8H504c0.4,0,0.8,0.4,0.8,0.8v1
						C504.9,738.8,504.5,739.2,504,739.2z"/>
					<path class="st1" d="M504,781.3h-11.5c-0.4,0-0.8-0.4-0.8-0.8v-1c0-0.4,0.4-0.8,0.8-0.8H504c0.4,0,0.8,0.4,0.8,0.8v1
						C504.9,780.9,504.5,781.3,504,781.3z"/>
					<path class="st1" d="M504,802.4h-11.5c-0.4,0-0.8-0.4-0.8-0.8v-1c0-0.4,0.4-0.8,0.8-0.8H504c0.4,0,0.8,0.4,0.8,0.8v1
						C504.9,802,504.5,802.4,504,802.4z"/>
					<path class="st1" d="M504,760.2h-11.5c-0.4,0-0.8-0.4-0.8-0.8v-1c0-0.4,0.4-0.8,0.8-0.8H504c0.4,0,0.8,0.4,0.8,0.8v1
						C504.9,759.9,504.5,760.2,504,760.2z"/>
				</g>
			</g>
			<g>
				<path class="st3" d="M292.2,707.6h-17c-4,0-7.3-3.3-7.3-7.3v-17c0-4,3.3-7.3,7.3-7.3h17c4,0,7.3,3.3,7.3,7.3v17
					C299.5,704.3,296.2,707.6,292.2,707.6z"/>
				<path class="st14" d="M292.2,822.1h-17c-4,0-7.3-3.3-7.3-7.3v-96c0-4,3.3-7.3,7.3-7.3h17c4,0,7.3,3.3,7.3,7.3v96
					C299.5,818.8,296.2,822.1,292.2,822.1z"/>
				<path class="st14" d="M450.2,822.1H321.2c-4,0-7.3-3.3-7.3-7.3V683.3c0-4,3.3-7.3,7.3-7.3h128.9c4,0,7.3,3.3,7.3,7.3v131.6
					C457.5,818.8,454.2,822.1,450.2,822.1z"/>
				<path class="st14" d="M527.9,822.1h-56.5c-4,0-7.3-3.3-7.3-7.3v-92.1c0-4,3.3-7.3,7.3-7.3h56.5c4,0,7.3,3.3,7.3,7.3v92.1
					C535.1,818.8,531.9,822.1,527.9,822.1z"/>
				<path class="st15" d="M527.9,704.9h-56.5c-4,0-7.3-3.3-7.3-7.3v-14.4c0-4,3.3-7.3,7.3-7.3h56.5c4,0,7.3,3.3,7.3,7.3v14.4
					C535.1,701.7,531.9,704.9,527.9,704.9z"/>
				<path class="st19" d="M286.2,737.3h-5.1c-2.2,0-4-1.8-4-4v-5.1c0-2.2,1.8-4,4-4h5.1c2.2,0,4,1.8,4,4v5.1
					C290.3,735.5,288.4,737.3,286.2,737.3z"/>
				<path class="st17" d="M286.2,760.7h-5.1c-2.2,0-4-1.8-4-4v-5.1c0-2.2,1.8-4,4-4h5.1c2.2,0,4,1.8,4,4v5.1
					C290.3,758.9,288.4,760.7,286.2,760.7z"/>
				<path class="st17" d="M286.2,784.2h-5.1c-2.2,0-4-1.8-4-4v-5.1c0-2.2,1.8-4,4-4h5.1c2.2,0,4,1.8,4,4v5.1
					C290.3,782.4,288.4,784.2,286.2,784.2z"/>
				<path class="st17" d="M286.2,807.6h-5.1c-2.2,0-4-1.8-4-4v-5.1c0-2.2,1.8-4,4-4h5.1c2.2,0,4,1.8,4,4v5.1
					C290.3,805.8,288.4,807.6,286.2,807.6z"/>
				<g class="st18">
					<g>
						<path class="st3" d="M352.3,691.7h-25.7c-0.4,0-0.8-0.3-0.8-0.8v-1c0-0.4,0.3-0.8,0.8-0.8h25.7c0.4,0,0.8,0.3,0.8,0.8v1
							C353.1,691.3,352.8,691.7,352.3,691.7z"/>
						<path class="st3" d="M373.6,691.7H360c-0.4,0-0.8-0.3-0.8-0.8v-1c0-0.4,0.3-0.8,0.8-0.8h13.6c0.4,0,0.8,0.3,0.8,0.8v1
							C374.3,691.3,374,691.7,373.6,691.7z"/>
						<path class="st3" d="M429.6,691.7h-48.5c-0.4,0-0.8-0.3-0.8-0.8v-1c0-0.4,0.3-0.8,0.8-0.8h48.5c0.4,0,0.8,0.3,0.8,0.8v1
							C430.4,691.3,430.1,691.7,429.6,691.7z"/>
						<path class="st3" d="M444.8,691.7h-9.1c-0.4,0-0.8-0.3-0.8-0.8v-1c0-0.4,0.3-0.8,0.8-0.8h9.1c0.4,0,0.8,0.3,0.8,0.8v1
							C445.6,691.3,445.2,691.7,444.8,691.7z"/>
					</g>
					<g>
						<path class="st3" d="M352.3,708.1h-25.7c-0.4,0-0.8-0.3-0.8-0.8v-1c0-0.4,0.3-0.8,0.8-0.8h25.7c0.4,0,0.8,0.3,0.8,0.8v1
							C353.1,707.8,352.8,708.1,352.3,708.1z"/>
						<path class="st3" d="M373.6,708.1H360c-0.4,0-0.8-0.3-0.8-0.8v-1c0-0.4,0.3-0.8,0.8-0.8h13.6c0.4,0,0.8,0.3,0.8,0.8v1
							C374.3,707.8,374,708.1,373.6,708.1z"/>
						<path class="st3" d="M429.6,708.1h-48.5c-0.4,0-0.8-0.3-0.8-0.8v-1c0-0.4,0.3-0.8,0.8-0.8h48.5c0.4,0,0.8,0.3,0.8,0.8v1
							C430.4,707.8,430.1,708.1,429.6,708.1z"/>
						<path class="st3" d="M444.8,708.1h-9.1c-0.4,0-0.8-0.3-0.8-0.8v-1c0-0.4,0.3-0.8,0.8-0.8h9.1c0.4,0,0.8,0.3,0.8,0.8v1
							C445.6,707.8,445.2,708.1,444.8,708.1z"/>
					</g>
					<g>
						<path class="st3" d="M352.3,724.6h-25.7c-0.4,0-0.8-0.3-0.8-0.8v-1c0-0.4,0.3-0.8,0.8-0.8h25.7c0.4,0,0.8,0.3,0.8,0.8v1
							C353.1,724.2,352.8,724.6,352.3,724.6z"/>
						<path class="st3" d="M373.6,724.6H360c-0.4,0-0.8-0.3-0.8-0.8v-1c0-0.4,0.3-0.8,0.8-0.8h13.6c0.4,0,0.8,0.3,0.8,0.8v1
							C374.3,724.2,374,724.6,373.6,724.6z"/>
						<path class="st3" d="M429.6,724.6h-48.5c-0.4,0-0.8-0.3-0.8-0.8v-1c0-0.4,0.3-0.8,0.8-0.8h48.5c0.4,0,0.8,0.3,0.8,0.8v1
							C430.4,724.2,430.1,724.6,429.6,724.6z"/>
						<path class="st3" d="M444.8,724.6h-9.1c-0.4,0-0.8-0.3-0.8-0.8v-1c0-0.4,0.3-0.8,0.8-0.8h9.1c0.4,0,0.8,0.3,0.8,0.8v1
							C445.6,724.2,445.2,724.6,444.8,724.6z"/>
					</g>
					<g>
						<path class="st3" d="M352.3,741h-25.7c-0.4,0-0.8-0.3-0.8-0.8v-1c0-0.4,0.3-0.8,0.8-0.8h25.7c0.4,0,0.8,0.3,0.8,0.8v1
							C353.1,740.7,352.8,741,352.3,741z"/>
						<path class="st3" d="M373.6,741H360c-0.4,0-0.8-0.3-0.8-0.8v-1c0-0.4,0.3-0.8,0.8-0.8h13.6c0.4,0,0.8,0.3,0.8,0.8v1
							C374.3,740.7,374,741,373.6,741z"/>
						<path class="st3" d="M429.6,741h-48.5c-0.4,0-0.8-0.3-0.8-0.8v-1c0-0.4,0.3-0.8,0.8-0.8h48.5c0.4,0,0.8,0.3,0.8,0.8v1
							C430.4,740.7,430.1,741,429.6,741z"/>
						<path class="st3" d="M444.8,741h-9.1c-0.4,0-0.8-0.3-0.8-0.8v-1c0-0.4,0.3-0.8,0.8-0.8h9.1c0.4,0,0.8,0.3,0.8,0.8v1
							C445.6,740.7,445.2,741,444.8,741z"/>
					</g>
					<g>
						<path class="st3" d="M352.3,757.5h-25.7c-0.4,0-0.8-0.3-0.8-0.8v-1c0-0.4,0.3-0.8,0.8-0.8h25.7c0.4,0,0.8,0.3,0.8,0.8v1
							C353.1,757.1,352.8,757.5,352.3,757.5z"/>
						<path class="st3" d="M373.6,757.5H360c-0.4,0-0.8-0.3-0.8-0.8v-1c0-0.4,0.3-0.8,0.8-0.8h13.6c0.4,0,0.8,0.3,0.8,0.8v1
							C374.3,757.1,374,757.5,373.6,757.5z"/>
						<path class="st3" d="M429.6,757.5h-48.5c-0.4,0-0.8-0.3-0.8-0.8v-1c0-0.4,0.3-0.8,0.8-0.8h48.5c0.4,0,0.8,0.3,0.8,0.8v1
							C430.4,757.1,430.1,757.5,429.6,757.5z"/>
						<path class="st3" d="M444.8,757.5h-9.1c-0.4,0-0.8-0.3-0.8-0.8v-1c0-0.4,0.3-0.8,0.8-0.8h9.1c0.4,0,0.8,0.3,0.8,0.8v1
							C445.6,757.1,445.2,757.5,444.8,757.5z"/>
					</g>
					<g>
						<path class="st3" d="M352.3,773.9h-25.7c-0.4,0-0.8-0.3-0.8-0.8v-1c0-0.4,0.3-0.8,0.8-0.8h25.7c0.4,0,0.8,0.3,0.8,0.8v1
							C353.1,773.6,352.8,773.9,352.3,773.9z"/>
						<path class="st3" d="M373.6,773.9H360c-0.4,0-0.8-0.3-0.8-0.8v-1c0-0.4,0.3-0.8,0.8-0.8h13.6c0.4,0,0.8,0.3,0.8,0.8v1
							C374.3,773.6,374,773.9,373.6,773.9z"/>
						<path class="st3" d="M429.6,773.9h-48.5c-0.4,0-0.8-0.3-0.8-0.8v-1c0-0.4,0.3-0.8,0.8-0.8h48.5c0.4,0,0.8,0.3,0.8,0.8v1
							C430.4,773.6,430.1,773.9,429.6,773.9z"/>
						<path class="st3" d="M444.8,773.9h-9.1c-0.4,0-0.8-0.3-0.8-0.8v-1c0-0.4,0.3-0.8,0.8-0.8h9.1c0.4,0,0.8,0.3,0.8,0.8v1
							C445.6,773.6,445.2,773.9,444.8,773.9z"/>
					</g>
					<g>
						<path class="st3" d="M352.3,790.4h-25.7c-0.4,0-0.8-0.3-0.8-0.8v-1c0-0.4,0.3-0.8,0.8-0.8h25.7c0.4,0,0.8,0.3,0.8,0.8v1
							C353.1,790,352.8,790.4,352.3,790.4z"/>
						<path class="st3" d="M373.6,790.4H360c-0.4,0-0.8-0.3-0.8-0.8v-1c0-0.4,0.3-0.8,0.8-0.8h13.6c0.4,0,0.8,0.3,0.8,0.8v1
							C374.3,790,374,790.4,373.6,790.4z"/>
						<path class="st3" d="M429.6,790.4h-48.5c-0.4,0-0.8-0.3-0.8-0.8v-1c0-0.4,0.3-0.8,0.8-0.8h48.5c0.4,0,0.8,0.3,0.8,0.8v1
							C430.4,790,430.1,790.4,429.6,790.4z"/>
						<path class="st3" d="M444.8,790.4h-9.1c-0.4,0-0.8-0.3-0.8-0.8v-1c0-0.4,0.3-0.8,0.8-0.8h9.1c0.4,0,0.8,0.3,0.8,0.8v1
							C445.6,790,445.2,790.4,444.8,790.4z"/>
					</g>
					<g>
						<path class="st3" d="M352.3,806.8h-25.7c-0.4,0-0.8-0.3-0.8-0.8v-1c0-0.4,0.3-0.8,0.8-0.8h25.7c0.4,0,0.8,0.3,0.8,0.8v1
							C353.1,806.5,352.8,806.8,352.3,806.8z"/>
						<path class="st3" d="M373.6,806.8H360c-0.4,0-0.8-0.3-0.8-0.8v-1c0-0.4,0.3-0.8,0.8-0.8h13.6c0.4,0,0.8,0.3,0.8,0.8v1
							C374.3,806.5,374,806.8,373.6,806.8z"/>
						<path class="st3" d="M429.6,806.8h-48.5c-0.4,0-0.8-0.3-0.8-0.8v-1c0-0.4,0.3-0.8,0.8-0.8h48.5c0.4,0,0.8,0.3,0.8,0.8v1
							C430.4,806.5,430.1,806.8,429.6,806.8z"/>
						<path class="st3" d="M444.8,806.8h-9.1c-0.4,0-0.8-0.3-0.8-0.8v-1c0-0.4,0.3-0.8,0.8-0.8h9.1c0.4,0,0.8,0.3,0.8,0.8v1
							C445.6,806.5,445.2,806.8,444.8,806.8z"/>
					</g>
				</g>
				<g class="st18">
					<circle class="st3" cx="481.2" cy="734.4" r="7.1"/>
					<circle class="st3" cx="481.2" cy="755.6" r="7.1"/>
					<circle class="st3" cx="481.2" cy="776.8" r="7.1"/>
					<circle class="st3" cx="481.2" cy="797.9" r="7.1"/>
					<path class="st3" d="M523.8,732.6h-31.3c-0.4,0-0.8-0.4-0.8-0.8v-1c0-0.4,0.4-0.8,0.8-0.8h31.3c0.4,0,0.8,0.4,0.8,0.8v1
						C524.6,732.2,524.2,732.6,523.8,732.6z"/>
					<path class="st3" d="M523.8,774.7h-31.3c-0.4,0-0.8-0.4-0.8-0.8v-1c0-0.4,0.4-0.8,0.8-0.8h31.3c0.4,0,0.8,0.4,0.8,0.8v1
						C524.6,774.4,524.2,774.7,523.8,774.7z"/>
					<path class="st3" d="M523.8,795.8h-31.3c-0.4,0-0.8-0.4-0.8-0.8v-1c0-0.4,0.4-0.8,0.8-0.8h31.3c0.4,0,0.8,0.4,0.8,0.8v1
						C524.6,795.4,524.2,795.8,523.8,795.8z"/>
					<path class="st3" d="M523.8,753.7h-31.3c-0.4,0-0.8-0.4-0.8-0.8v-1c0-0.4,0.4-0.8,0.8-0.8h31.3c0.4,0,0.8,0.4,0.8,0.8v1
						C524.6,753.3,524.2,753.7,523.8,753.7z"/>
					<path class="st3" d="M504,739.2h-11.5c-0.4,0-0.8-0.4-0.8-0.8v-1c0-0.4,0.4-0.8,0.8-0.8H504c0.4,0,0.8,0.4,0.8,0.8v1
						C504.9,738.8,504.5,739.2,504,739.2z"/>
					<path class="st3" d="M504,781.3h-11.5c-0.4,0-0.8-0.4-0.8-0.8v-1c0-0.4,0.4-0.8,0.8-0.8H504c0.4,0,0.8,0.4,0.8,0.8v1
						C504.9,780.9,504.5,781.3,504,781.3z"/>
					<path class="st3" d="M504,802.4h-11.5c-0.4,0-0.8-0.4-0.8-0.8v-1c0-0.4,0.4-0.8,0.8-0.8H504c0.4,0,0.8,0.4,0.8,0.8v1
						C504.9,802,504.5,802.4,504,802.4z"/>
					<path class="st3" d="M504,760.2h-11.5c-0.4,0-0.8-0.4-0.8-0.8v-1c0-0.4,0.4-0.8,0.8-0.8H504c0.4,0,0.8,0.4,0.8,0.8v1
						C504.9,759.9,504.5,760.2,504,760.2z"/>
				</g>
			</g>
		</g>
	</g>
	<g>
		<path class="st9" d="M408.5,525.3c2.9,0,4.1,1.8,2.7,4.5l-16.3,31c-1.4,2.7-3.7,2.7-5.2,0l-16.3-31c-1.4-2.7-0.2-4.5,2.7-4.5h2.1
			c2,0,3.5,0.9,4.5,2.8l9.6,19.6l9.6-19.6c0.9-1.8,2.4-2.7,4.4-2.8H408.5z"/>
		<path class="st9" d="M408.5,571.4c2.9,0,4.1,1.8,2.7,4.5l-16.3,31c-1.4,2.7-3.7,2.7-5.2,0l-16.3-31c-1.4-2.7-0.2-4.5,2.7-4.5h2.1
			c2,0,3.5,0.9,4.5,2.8l9.6,19.6l9.6-19.6c0.9-1.8,2.4-2.7,4.4-2.8H408.5z"/>
		<path class="st9" d="M408.5,617.4c2.9,0,4.1,1.8,2.7,4.5l-16.3,31c-1.4,2.8-3.7,2.8-5.2,0l-16.3-31c-1.4-2.7-0.2-4.5,2.7-4.5h2.1
			c2,0,3.5,0.9,4.5,2.8l9.6,19.6l9.6-19.6c0.9-1.8,2.4-2.8,4.4-2.8H408.5z"/>
	</g>
</g>
</svg>
