<?xml version="1.0" encoding="utf-8"?>
<!-- Generator: Adobe Illustrator 22.0.0, SVG Export Plug-In . SVG Version: 6.00 Build 0)  -->
<svg version="1.1" id="Capa_1" xmlns:serif="http://www.serif.com/"
	 xmlns="http://www.w3.org/2000/svg" xmlns:xlink="http://www.w3.org/1999/xlink" x="0px" y="0px" viewBox="0 0 792 1224"
	 style="enable-background:new 0 0 792 1224;" xml:space="preserve">
<style type="text/css">
	.st0{fill:#8800FF;}
	.st1{fill:url(#SVGID_1_);}
	.st2{opacity:0.5;}
	.st3{fill:#5A11B2;}
	.st4{opacity:0.26;}
	.st5{fill:#D7B6FF;}
	.st6{fill:#D2ADFF;}
	.st7{fill:url(#SVGID_2_);}
	.st8{fill:url(#SVGID_3_);}
</style>
<g>
	<path class="st0" d="M746.9,486L547.6,243.3c-39.4-47.9-95.5-71.8-151.6-71.8c-56.1,0-112.2,23.9-151.6,71.8L45.1,486
		C15,522.6,0,567.4,0,612c0,44.8,15,89.4,45.1,126l199.4,242.7c39.4,47.9,95.5,71.8,151.6,71.8c56.1,0,112.2-23.9,151.6-71.8
		L746.9,738C777,701.4,792,656.6,792,612C792,567.2,777,522.6,746.9,486z"/>
	<g>
		<g>
			<g>
				<g>
					<g>
						<linearGradient id="SVGID_1_" gradientUnits="userSpaceOnUse" x1="120" y1="657.152" x2="271.6637" y2="657.152">
							<stop  offset="0" style="stop-color:#BB84FF"/>
							<stop  offset="1" style="stop-color:#8E32FF"/>
						</linearGradient>
						<path class="st1" d="M256.7,636.6H134.9c-8.2,0-14.9,6.7-14.9,14.9v11.3c0,8.2,6.7,14.9,14.9,14.9h121.8
							c8.2,0,14.9-6.7,14.9-14.9v-11.3C271.7,643.3,265,636.6,256.7,636.6z"/>
					</g>
					<g class="st2">
						<path class="st3" d="M229.7,649.2c-3.8,0-7,3.1-7,7c0,3.8,3.1,7,7,7s7-3.1,7-7C236.6,652.3,233.5,649.2,229.7,649.2z"/>
						<path class="st3" d="M252.9,649.2c-3.8,0-7,3.1-7,7c0,3.8,3.1,7,7,7c3.8,0,7-3.1,7-7C259.9,652.3,256.7,649.2,252.9,649.2z"/>
						<circle class="st3" cx="136.8" cy="656.2" r="7"/>
						<path class="st3" d="M160,649.2c-3.8,0-7,3.1-7,7c0,3.8,3.1,7,7,7s7-3.1,7-7C167,652.3,163.8,649.2,160,649.2z"/>
						<circle class="st3" cx="183.2" cy="656.2" r="7"/>
						<path class="st3" d="M206.4,649.2c-3.8,0-7,3.1-7,7c0,3.8,3.1,7,7,7c3.8,0,7-3.1,7-7C213.4,652.3,210.3,649.2,206.4,649.2z"/>
					</g>
				</g>
				<g>
					<g class="st4">
						<path class="st5" d="M248.6,656.2v0.8h0.1C248.7,656.7,248.6,656.5,248.6,656.2z"/>
					</g>
				</g>
			</g>
			<g>
				<g>
					<path class="st6" d="M256.7,706.9c6.6,0,11.9,5.3,11.9,11.9v11.3c0,6.6-5.3,11.9-11.9,11.9H134.9c-6.6,0-11.9-5.3-11.9-11.9
						v-11.3c0-6.6,5.3-11.9,11.9-11.9H256.7 M256.7,703.9H134.9c-8.2,0-14.9,6.7-14.9,14.9v11.3c0,8.2,6.7,14.9,14.9,14.9h121.8
						c8.2,0,14.9-6.7,14.9-14.9v-11.3C271.7,710.6,265,703.9,256.7,703.9L256.7,703.9z"/>
					<g>
						<g>
							<path class="st6" d="M229.7,716.5c-3.8,0-7,3.1-7,7s3.1,7,7,7s7-3.1,7-7S233.5,716.5,229.7,716.5z"/>
						</g>
						<g>
							<path class="st6" d="M252.9,716.5c-3.8,0-7,3.1-7,7s3.1,7,7,7c3.8,0,7-3.1,7-7S256.7,716.5,252.9,716.5z"/>
						</g>
						<g>
							<circle class="st6" cx="136.8" cy="723.5" r="7"/>
						</g>
						<g>
							<path class="st6" d="M160,716.5c-3.8,0-7,3.1-7,7s3.1,7,7,7s7-3.1,7-7S163.8,716.5,160,716.5z"/>
						</g>
						<g>
							<circle class="st6" cx="183.2" cy="723.5" r="7"/>
						</g>
						<g>
							<path class="st6" d="M206.4,716.5c-3.8,0-7,3.1-7,7s3.1,7,7,7c3.8,0,7-3.1,7-7S210.3,716.5,206.4,716.5z"/>
						</g>
					</g>
				</g>
				<g>
					<g class="st4">
						<path class="st5" d="M248.6,723.5v0.8h0.1C248.7,724,248.6,723.8,248.6,723.5z"/>
					</g>
				</g>
			</g>
			<g>
				<g>
					<path class="st6" d="M442.9,638.6c6.6,0,11.9,5.3,11.9,11.9v11.3c0,6.6-5.3,11.9-11.9,11.9H321.1c-6.6,0-11.9-5.3-11.9-11.9
						v-11.3c0-6.6,5.3-11.9,11.9-11.9H442.9 M442.9,635.6H321.1c-8.2,0-14.9,6.7-14.9,14.9v11.3c0,8.2,6.7,14.9,14.9,14.9h121.8
						c8.2,0,14.9-6.7,14.9-14.9v-11.3C457.8,642.3,451.1,635.6,442.9,635.6L442.9,635.6z"/>
					<g>
						<g>
							<path class="st6" d="M415.8,648.2c-3.8,0-7,3.1-7,7s3.1,7,7,7s7-3.1,7-7S419.7,648.2,415.8,648.2z"/>
						</g>
						<g>
							<path class="st6" d="M439.1,648.2c-3.8,0-7,3.1-7,7s3.1,7,7,7c3.8,0,7-3.1,7-7S442.9,648.2,439.1,648.2z"/>
						</g>
						<g>
							<circle class="st6" cx="322.9" cy="655.2" r="7"/>
						</g>
						<g>
							<path class="st6" d="M346.2,648.2c-3.8,0-7,3.1-7,7s3.1,7,7,7s7-3.1,7-7S350,648.2,346.2,648.2z"/>
						</g>
						<g>
							<circle class="st6" cx="369.4" cy="655.2" r="7"/>
						</g>
						<g>
							<path class="st6" d="M392.6,648.2c-3.8,0-7,3.1-7,7s3.1,7,7,7c3.8,0,7-3.1,7-7S396.5,648.2,392.6,648.2z"/>
						</g>
					</g>
				</g>
				<g>
					<g class="st4">
						<path class="st5" d="M434.8,655.2v0.8h0.1C434.9,655.8,434.8,655.5,434.8,655.2z"/>
					</g>
				</g>
			</g>
			<g>
				<g>
					<path class="st6" d="M632.5,638.6c6.6,0,11.9,5.3,11.9,11.9v11.3c0,6.6-5.3,11.9-11.9,11.9H510.6c-6.6,0-11.9-5.3-11.9-11.9
						v-11.3c0-6.6,5.3-11.9,11.9-11.9H632.5 M632.5,635.6H510.6c-8.2,0-14.9,6.7-14.9,14.9v11.3c0,8.2,6.7,14.9,14.9,14.9h121.8
						c8.2,0,14.9-6.7,14.9-14.9v-11.3C647.4,642.3,640.7,635.6,632.5,635.6L632.5,635.6z"/>
					<g>
						<g>
							<path class="st6" d="M605.4,648.2c-3.8,0-7,3.1-7,7s3.1,7,7,7c3.8,0,7-3.1,7-7S609.2,648.2,605.4,648.2z"/>
						</g>
						<g>
							<path class="st6" d="M628.6,648.2c-3.8,0-7,3.1-7,7s3.1,7,7,7c3.8,0,7-3.1,7-7S632.5,648.2,628.6,648.2z"/>
						</g>
						<g>
							<circle class="st6" cx="512.5" cy="655.2" r="7"/>
						</g>
						<g>
							<path class="st6" d="M535.7,648.2c-3.8,0-7,3.1-7,7s3.1,7,7,7c3.8,0,7-3.1,7-7S539.6,648.2,535.7,648.2z"/>
						</g>
						<g>
							<circle class="st6" cx="558.9" cy="655.2" r="7"/>
						</g>
						<g>
							<path class="st6" d="M582.2,648.2c-3.8,0-7,3.1-7,7s3.1,7,7,7c3.8,0,7-3.1,7-7S586,648.2,582.2,648.2z"/>
						</g>
					</g>
				</g>
				<g>
					<g class="st4">
						<path class="st5" d="M624.4,655.2v0.8h0.1C624.4,655.8,624.4,655.5,624.4,655.2z"/>
					</g>
				</g>
			</g>
			<g>
				<g>
					<g>
						<linearGradient id="SVGID_2_" gradientUnits="userSpaceOnUse" x1="306.171" y1="724.4504" x2="457.8347" y2="724.4504">
							<stop  offset="0" style="stop-color:#BB84FF"/>
							<stop  offset="1" style="stop-color:#8E32FF"/>
						</linearGradient>
						<path class="st7" d="M442.9,703.9H321.1c-8.2,0-14.9,6.7-14.9,14.9v11.3c0,8.2,6.7,14.9,14.9,14.9h121.8
							c8.2,0,14.9-6.7,14.9-14.9v-11.3C457.8,710.6,451.1,703.9,442.9,703.9z"/>
					</g>
					<g class="st2">
						<path class="st3" d="M415.8,716.5c-3.8,0-7,3.1-7,7s3.1,7,7,7s7-3.1,7-7S419.7,716.5,415.8,716.5z"/>
						<path class="st3" d="M439.1,716.5c-3.8,0-7,3.1-7,7s3.1,7,7,7c3.8,0,7-3.1,7-7S442.9,716.5,439.1,716.5z"/>
						<circle class="st3" cx="322.9" cy="723.5" r="7"/>
						<path class="st3" d="M346.2,716.5c-3.8,0-7,3.1-7,7s3.1,7,7,7s7-3.1,7-7S350,716.5,346.2,716.5z"/>
						<circle class="st3" cx="369.4" cy="723.5" r="7"/>
						<path class="st3" d="M392.6,716.5c-3.8,0-7,3.1-7,7s3.1,7,7,7c3.8,0,7-3.1,7-7S396.5,716.5,392.6,716.5z"/>
					</g>
				</g>
				<g>
					<g class="st4">
						<path class="st5" d="M434.8,723.5v0.8h0.1C434.9,724,434.8,723.8,434.8,723.5z"/>
					</g>
				</g>
			</g>
			<g>
				<g>
					<g>
						<linearGradient id="SVGID_3_" gradientUnits="userSpaceOnUse" x1="495.7109" y1="724.4504" x2="647.3746" y2="724.4504">
							<stop  offset="0" style="stop-color:#BB84FF"/>
							<stop  offset="1" style="stop-color:#8E32FF"/>
						</linearGradient>
						<path class="st8" d="M632.5,703.9H510.6c-8.2,0-14.9,6.7-14.9,14.9v11.3c0,8.2,6.7,14.9,14.9,14.9h121.8
							c8.2,0,14.9-6.7,14.9-14.9v-11.3C647.4,710.6,640.7,703.9,632.5,703.9z"/>
					</g>
					<g class="st2">
						<path class="st3" d="M605.4,716.5c-3.8,0-7,3.1-7,7s3.1,7,7,7c3.8,0,7-3.1,7-7S609.2,716.5,605.4,716.5z"/>
						<path class="st3" d="M628.6,716.5c-3.8,0-7,3.1-7,7s3.1,7,7,7c3.8,0,7-3.1,7-7S632.5,716.5,628.6,716.5z"/>
						<circle class="st3" cx="512.5" cy="723.5" r="7"/>
						<path class="st3" d="M535.7,716.5c-3.8,0-7,3.1-7,7s3.1,7,7,7c3.8,0,7-3.1,7-7S539.6,716.5,535.7,716.5z"/>
						<circle class="st3" cx="558.9" cy="723.5" r="7"/>
						<path class="st3" d="M582.2,716.5c-3.8,0-7,3.1-7,7s3.1,7,7,7c3.8,0,7-3.1,7-7S586,716.5,582.2,716.5z"/>
					</g>
				</g>
				<g>
					<g class="st4">
						<path class="st5" d="M624.4,723.5v0.8h0.1C624.4,724,624.4,723.8,624.4,723.5z"/>
					</g>
				</g>
			</g>
		</g>
		<g>
			<g>
				<path class="st6" d="M437.3,441.6c-5.9,0-10.7,4.8-10.7,10.7c0,5.9,4.8,10.7,10.7,10.7c5.9,0,10.7-4.8,10.7-10.7
					C448,446.4,443.2,441.6,437.3,441.6z"/>
			</g>
			<g>
				<path class="st6" d="M473,441.6c-5.9,0-10.7,4.8-10.7,10.7c0,5.9,4.8,10.7,10.7,10.7c5.9,0,10.7-4.8,10.7-10.7
					C483.7,446.4,478.9,441.6,473,441.6z"/>
			</g>
			<g>
				<circle class="st6" cx="294.4" cy="452.3" r="10.7"/>
			</g>
			<g>
				<path class="st6" d="M330.1,441.6c-5.9,0-10.7,4.8-10.7,10.7c0,5.9,4.8,10.7,10.7,10.7s10.7-4.8,10.7-10.7
					C340.8,446.4,336,441.6,330.1,441.6z"/>
			</g>
			<g>
				<circle class="st6" cx="365.8" cy="452.3" r="10.7"/>
			</g>
			<g>
				<path class="st6" d="M401.5,441.6c-5.9,0-10.7,4.8-10.7,10.7c0,5.9,4.8,10.7,10.7,10.7c5.9,0,10.7-4.8,10.7-10.7
					C412.3,446.4,407.5,441.6,401.5,441.6z"/>
			</g>
		</g>
		<g>
			<g>
				<path class="st6" d="M437.3,500.7c-5.9,0-10.7,4.8-10.7,10.7s4.8,10.7,10.7,10.7c5.9,0,10.7-4.8,10.7-10.7
					S443.2,500.7,437.3,500.7z"/>
			</g>
			<g>
				<path class="st6" d="M473,500.7c-5.9,0-10.7,4.8-10.7,10.7s4.8,10.7,10.7,10.7c5.9,0,10.7-4.8,10.7-10.7S478.9,500.7,473,500.7z
					"/>
			</g>
			<g>
				<circle class="st6" cx="294.4" cy="511.4" r="10.7"/>
			</g>
			<g>
				<path class="st6" d="M330.1,500.7c-5.9,0-10.7,4.8-10.7,10.7s4.8,10.7,10.7,10.7s10.7-4.8,10.7-10.7S336,500.7,330.1,500.7z"/>
			</g>
			<g>
				<circle class="st6" cx="365.8" cy="511.4" r="10.7"/>
			</g>
			<g>
				<path class="st6" d="M401.5,500.7c-5.9,0-10.7,4.8-10.7,10.7s4.8,10.7,10.7,10.7c5.9,0,10.7-4.8,10.7-10.7
					S407.5,500.7,401.5,500.7z"/>
			</g>
		</g>
		<g>
			<g>
				<path class="st6" d="M437.3,562.2c-5.9,0-10.7,4.8-10.7,10.7s4.8,10.7,10.7,10.7c5.9,0,10.7-4.8,10.7-10.7
					S443.2,562.2,437.3,562.2z"/>
			</g>
			<g>
				<path class="st6" d="M473,562.2c-5.9,0-10.7,4.8-10.7,10.7s4.8,10.7,10.7,10.7c5.9,0,10.7-4.8,10.7-10.7S478.9,562.2,473,562.2z
					"/>
			</g>
			<g>
				<circle class="st6" cx="294.4" cy="572.9" r="10.7"/>
			</g>
			<g>
				<path class="st6" d="M330.1,562.2c-5.9,0-10.7,4.8-10.7,10.7s4.8,10.7,10.7,10.7s10.7-4.8,10.7-10.7S336,562.2,330.1,562.2z"/>
			</g>
			<g>
				<circle class="st6" cx="365.8" cy="572.9" r="10.7"/>
			</g>
			<g>
				<path class="st6" d="M401.5,562.2c-5.9,0-10.7,4.8-10.7,10.7s4.8,10.7,10.7,10.7c5.9,0,10.7-4.8,10.7-10.7
					S407.5,562.2,401.5,562.2z"/>
			</g>
		</g>
		<path class="st6" d="M197.3,635.6h-3v-29.1c0-19.4,15.8-35.1,35.1-35.1h64.9v3h-64.9c-17.7,0-32.1,14.4-32.1,32.1V635.6z"/>
		<path class="st6" d="M457.8,726v-3c11.1,0,20.2-9,20.2-20.2v-74.3c0-14.2,11.5-25.7,25.7-25.7c16.8,0,30.5-13.7,30.5-30.5v-29.3
			c0-16.5-13.5-30-30-30H473v-3h31.2c18.2,0,33,14.8,33,33v29.3c0,18.5-15,33.5-33.5,33.5c-12.5,0-22.7,10.2-22.7,22.7v74.3
			C481,715.6,470.6,726,457.8,726z"/>
		<path class="st6" d="M650.2,725h-2.9v-3h2.9c11.2,0,20.3-9.1,20.3-20.3v-60.4c0-14.2-11.6-25.7-25.7-25.7h-73.2
			c-9.4,0-17.1-7.7-17.1-17.1V482.6c0-15.9-12.9-28.8-28.8-28.8h-42v-3h42c17.5,0,31.8,14.3,31.8,31.8v115.8
			c0,7.8,6.3,14.1,14.1,14.1h73.2c15.9,0,28.7,12.9,28.7,28.7v60.4C673.5,714.5,663.1,725,650.2,725z"/>
	</g>
</g>
</svg>
