<?xml version="1.0" encoding="utf-8"?>
<!-- Generator: Adobe Illustrator 22.0.0, SVG Export Plug-In . SVG Version: 6.00 Build 0)  -->
<svg version="1.1" id="Capa_1" xmlns:serif="http://www.serif.com/"
	 xmlns="http://www.w3.org/2000/svg" xmlns:xlink="http://www.w3.org/1999/xlink" x="0px" y="0px" viewBox="0 0 792 612"
	 style="enable-background:new 0 0 792 612;" xml:space="preserve">
<style type="text/css">
	.st0{fill:#C9D0DF;}
</style>
<g>
	<g>
		<path class="st0" d="M502.2,262c-24.3-58.6-91.6-86.5-150.2-62.2v0c-58.6,24.3-86.5,91.6-62.2,150.2
			c24.3,58.6,91.6,86.5,150.2,62.2S526.5,320.6,502.2,262z M435.1,325.5h-19.5v19.5c0,10.4-9.1,19.5-19.5,19.5s-19.5-9.1-19.5-19.5
			v-19.5h-19.5c-10.4,0-19.5-9.1-19.5-19.5s9.1-19.5,19.5-19.5h19.5v-19.5c0-10.4,9.1-19.5,19.5-19.5s19.5,9.1,19.5,19.5v19.5h19.5
			c10.4,0,19.5,9.1,19.5,19.5S445.5,325.5,435.1,325.5z"/>
	</g>
	<g>
		<path class="st0" d="M396,52.9c25.3,0,49,11.2,65.1,30.7l139.3,168.6c12.5,15.1,19.4,34.2,19.4,53.8s-6.9,38.7-19.4,53.8
			L461.1,528.4c-16.1,19.5-39.8,30.7-65.1,30.7c-25.3,0-49-11.2-65.1-30.7L191.5,359.8c-12.5-15.1-19.4-34.2-19.4-53.8
			s6.9-38.7,19.4-53.8L330.9,83.6C347,64.1,370.7,52.9,396,52.9 M396,0c-39.2,0-78.4,16.6-105.9,49.9L150.8,218.5
			c-21,25.4-31.5,56.5-31.5,87.5c0,31.1,10.5,62.1,31.5,87.5l139.3,168.6C317.6,595.4,356.8,612,396,612
			c39.2,0,78.4-16.6,105.9-49.9l139.3-168.6c21-25.4,31.5-56.5,31.5-87.5c0-31.1-10.5-62.1-31.5-87.5L501.9,49.9
			C474.4,16.6,435.2,0,396,0L396,0z"/>
	</g>
</g>
</svg>
