<?xml version="1.0" encoding="utf-8"?>
<!-- Generator: Adobe Illustrator 22.0.0, SVG Export Plug-In . SVG Version: 6.00 Build 0)  -->
<svg version="1.1" id="Capa_1" xmlns="http://www.w3.org/2000/svg" xmlns:xlink="http://www.w3.org/1999/xlink" x="0px" y="0px"
	 viewBox="0 0 50 43" style="enable-background:new 0 0 50 43;" xml:space="preserve">
<style type="text/css">
	.st0{clip-path:url(#SVGID_2_);}
	.st1{fill:#C9D0DF;}
</style>
<g>
	<g>
		<g>
			<defs>
				<rect id="SVGID_1_" width="50" height="43"/>
			</defs>
			<clipPath id="SVGID_2_">
				<use xlink:href="#SVGID_1_"  style="overflow:visible;"/>
			</clipPath>
			<g id="Canvas" class="st0">
				<g>
					<path class="st1" d="M25,3.7c1.8,0,3.5,0.8,4.6,2.2l9.8,11.9c0.8,1.1,1.3,2.4,1.3,3.8c0,1.3-0.5,2.8-1.3,3.8l-9.8,11.9
						c-1.1,1.3-2.8,2.2-4.6,2.2s-3.5-0.8-4.6-2.2l-9.8-12c-0.8-1.1-1.3-2.4-1.3-3.8c0-1.3,0.5-2.8,1.3-3.8l9.8-11.9
						C21.5,4.4,23.2,3.7,25,3.7 M25,0c-2.8,0-5.5,1.2-7.4,3.5L7.7,15.4c-1.4,1.8-2.2,4-2.2,6.1c0,2.2,0.7,4.3,2.2,6.1l9.8,11.9
						c1.9,2.3,4.7,3.5,7.4,3.5s5.5-1.2,7.4-3.5l9.8-11.9c1.4-1.8,2.2-4,2.2-6.1s-0.7-4.3-2.2-6.1L32.4,3.5C30.5,1.1,27.8,0,25,0
						L25,0z"/>
				</g>
				<g>
					<path class="st1" d="M23.7,17.9l-5.2,6.4c-1.1,1.4-1.1,3.4,0,4.8l4.4,5.4c1.1,1.3,3,1.3,4.1,0l5.2-6.4c0.7-1,0.7-2.2,0-3.1
						l-1.7-2c-0.6-0.8-1.9-0.8-2.5,0L27.9,23c-0.5,0.5-0.5,1.3,0,1.8l0.8,1.1c0.2,0.4,0.2,0.8,0,1.2l-3.2,4c-0.2,0.2-0.7,0.2-1,0
						L21.3,27c-0.2-0.4-0.2-0.8,0-1.2l4.6-5.6c1.8-2.2,5-2.2,6.7,0l3,3.7c1.2,1.4,1.2,3.5,0,5l-7,8.5c-1.9,2.4-5.5,2.4-7.4,0
						l-5.9-7.2c-1.8-2.2-1.8-5.3,0-7.4L26.2,9.5c0.5-0.6,0.5-1.3,0-1.9L26,7.2c-0.5-0.6-1.6-0.6-2,0L12.8,20.9
						c-2.8,3.4-2.8,8.2,0,11.5l6.5,8c2.9,3.6,8.4,3.6,11.3,0l8-9.8c1.9-2.3,1.9-5.5,0-7.8L34.7,18C32,14.4,26.6,14.4,23.7,17.9z"/>
				</g>
			</g>
		</g>
	</g>
</g>
</svg>
