<?xml version="1.0" encoding="utf-8"?>
<!-- Generator: Adobe Illustrator 22.0.0, SVG Export Plug-In . SVG Version: 6.00 Build 0)  -->
<svg version="1.1" id="Capa_1" xmlns="http://www.w3.org/2000/svg" xmlns:xlink="http://www.w3.org/1999/xlink" x="0px" y="0px"
	 viewBox="0 0 50 43" style="enable-background:new 0 0 50 43;" xml:space="preserve">
<style type="text/css">
	.st0{fill:none;}
	.st1{fill:#C9D0DF;}
</style>
<g>
	<path class="st0" d="M39.5-28.8c-25,0-46.1,20.9-46.4,46.1c-0.3,25.1,21.1,46.6,46.3,46.6c25,0,46.1-20.9,46.4-46.1
		C86.1-7.3,64.8-28.8,39.5-28.8z"/>
</g>
<g>
	<path class="st1" d="M25,3.7c1.8,0,3.5,0.8,4.6,2.2l9.8,11.9c0.8,1.1,1.3,2.4,1.3,3.7c0,1.3-0.5,2.8-1.3,3.7l-9.8,11.9
		c-1.1,1.3-2.8,2.2-4.6,2.2s-3.5-0.8-4.6-2.2l-9.9-12c-0.8-1.1-1.3-2.4-1.3-3.7s0.5-2.8,1.3-3.7l9.8-11.9C21.5,4.6,23.2,3.7,25,3.7
		 M25,0c-2.8,0-5.5,1.2-7.5,3.5L7.8,15.4c-1.3,1.7-2,3.9-2,6s0.7,4.3,2.2,6.1l9.8,11.9c1.9,2.3,4.7,3.5,7.5,3.5s5.5-1.2,7.5-3.5
		l9.8-11.9c1.4-1.8,2.2-4,2.2-6.1s-0.7-4.3-2.2-6.1L32.6,3.4C30.5,1.2,27.7,0,25,0L25,0z"/>
	<path class="st1" d="M33,19.3h-0.5c-0.1-0.6-0.4-1.1-0.6-1.6l0.4-0.4c0.5-0.5,0.5-1.2,0-1.7l-1.4-1.4c-0.2-0.2-0.5-0.4-0.8-0.4
		c-0.4,0-0.6,0.1-0.8,0.4l-0.4,0.4c-0.5-0.2-1.1-0.5-1.6-0.6v-0.5c0-0.7-0.6-1.2-1.2-1.2h-1.9c-0.7,0-1.2,0.6-1.2,1.2V14
		c-0.6,0.1-1.1,0.4-1.6,0.6L21,14.2c-0.2-0.2-0.5-0.4-0.8-0.4c-0.4,0-0.6,0.1-0.8,0.4l-1.6,1.4c-0.2,0.2-0.4,0.5-0.4,0.8
		c0,0.4,0.1,0.6,0.4,0.8l0.4,0.4c-0.2,0.5-0.5,1.1-0.6,1.6H17c-0.7,0-1.2,0.6-1.2,1.2v1.9c0,0.7,0.6,1.2,1.2,1.2h0.5
		c0.1,0.6,0.4,1.1,0.6,1.6l-0.5,0.5c-0.5,0.5-0.5,1.2,0,1.6l1.4,1.4c0.5,0.5,1.2,0.5,1.7,0l0.4-0.4c0.5,0.2,1.1,0.5,1.6,0.6v0.5
		c0,0.4,0.1,0.6,0.4,0.8c0.2,0.2,0.5,0.4,0.8,0.4h2c0.7,0,1.2-0.6,1.2-1.2v-0.5c0.6-0.1,1.1-0.4,1.6-0.6l0.4,0.4
		c0.5,0.5,1.2,0.5,1.7,0l1.4-1.4c0.5-0.5,0.5-1.2,0-1.7l-0.4-0.4c0.2-0.5,0.5-1.1,0.6-1.6h0.5c0.4,0,0.6-0.1,0.8-0.4
		c0.2-0.2,0.4-0.5,0.4-0.8v-2C34.3,19.8,33.7,19.3,33,19.3z M30.5,21.4c0,3.1-2.5,5.5-5.5,5.5s-5.5-2.5-5.5-5.5
		c0-3.1,2.5-5.5,5.5-5.5S30.5,18.4,30.5,21.4z"/>
</g>
</svg>
