<?xml version="1.0" encoding="utf-8"?>
<!-- Generator: Adobe Illustrator 22.0.0, SVG Export Plug-In . SVG Version: 6.00 Build 0)  -->
<svg version="1.1" id="Capa_1" xmlns="http://www.w3.org/2000/svg" xmlns:xlink="http://www.w3.org/1999/xlink" x="0px" y="0px"
	 viewBox="0 0 40 40" style="enable-background:new 0 0 40 40;" xml:space="preserve">
<style type="text/css">
	.st0{fill:#C9D0DF;}
	.st1{fill:#E9ECF2;}
	.st2{fill:#D4D9E5;}
	.st3{fill:#DFE3EC;}
</style>
<g>
	<g>
		<path class="st0" d="M20,3.5c1.6,0,3.2,0.7,4.2,2l9.1,11c0.8,1,1.3,2.2,1.3,3.5c0,1.3-0.4,2.5-1.3,3.5l-9.1,11c-1,1.3-2.6,2-4.2,2
			c-1.6,0-3.2-0.7-4.2-2l-9.1-11c-0.8-1-1.3-2.2-1.3-3.5c0-1.3,0.4-2.5,1.3-3.5l9.1-11C16.8,4.3,18.4,3.5,20,3.5 M20,0.1
			c-2.6,0-5.1,1.1-6.9,3.2L4,14.3C2.7,16,2,18,2,20c0,2,0.7,4,2,5.7l9.1,11c1.8,2.2,4.3,3.2,6.9,3.2c2.6,0,5.1-1.1,6.9-3.2l9.1-11
			c1.4-1.7,2-3.7,2-5.7c0-2-0.7-4-2-5.7l-9.1-11C25.1,1.2,22.6,0.1,20,0.1L20,0.1z"/>
	</g>
	<g>
		<path class="st1" d="M18.9,17.2l-2.1-2.6c-0.4-0.5-0.4-1.3,0-1.8l2.1-2.6c0.6-0.7,1.6-0.7,2.2,0l2.1,2.6c0.4,0.5,0.4,1.3,0,1.8
			l-2.1,2.6C20.5,17.8,19.5,17.8,18.9,17.2z"/>
		<path class="st2" d="M18.9,29.8l-2.1-2.6c-0.4-0.5-0.4-1.3,0-1.8l2.1-2.6c0.6-0.7,1.6-0.7,2.2,0l2.1,2.6c0.4,0.5,0.4,1.3,0,1.8
			l-2.1,2.6C20.5,30.4,19.5,30.4,18.9,29.8z"/>
		<path class="st3" d="M22,19.1l2.1-2.6c0.6-0.7,1.6-0.7,2.2,0l2.1,2.6c0.4,0.5,0.4,1.3,0,1.8l-2.1,2.6c-0.6,0.7-1.6,0.7-2.2,0
			L22,20.9C21.6,20.4,21.6,19.6,22,19.1z"/>
		<path class="st0" d="M11.6,19.1l2.1-2.6c0.6-0.7,1.6-0.7,2.2,0l2.1,2.6c0.4,0.5,0.4,1.3,0,1.8l-2.1,2.6c-0.6,0.7-1.6,0.7-2.2,0
			l-2.1-2.6C11.2,20.4,11.2,19.6,11.6,19.1z"/>
	</g>
</g>
</svg>
